<?xml version="1.0" encoding="UTF-8"?>
<!DOCTYPE svg PUBLIC "-//W3C//DTD SVG 1.1//EN" "http://www.w3.org/Graphics/SVG/1.1/DTD/svg11.dtd">
<svg xmlns="http://www.w3.org/2000/svg" version="1.1" width="254px" height="259px" style="shape-rendering:geometricPrecision; text-rendering:geometricPrecision; image-rendering:optimizeQuality; fill-rule:evenodd; clip-rule:evenodd" xmlns:xlink="http://www.w3.org/1999/xlink">
<g><path style="opacity:1" fill="#5027d5" d="M -0.5,-0.5 C 84.1667,-0.5 168.833,-0.5 253.5,-0.5C 253.5,85.8333 253.5,172.167 253.5,258.5C 168.833,258.5 84.1667,258.5 -0.5,258.5C -0.5,172.167 -0.5,85.8333 -0.5,-0.5 Z"/></g>
<g><path style="opacity:1" fill="#e9e6ef" d="M 64.5,111.5 C 70.2031,111.375 75.8698,111.708 81.5,112.5C 81.8134,115.247 81.48,117.914 80.5,120.5C 75.6895,118.515 70.6895,118.015 65.5,119C 62.7104,121.21 61.877,124.044 63,127.5C 70.0276,130.845 76.361,135.178 82,140.5C 85.1149,153.903 79.6149,160.236 65.5,159.5C 62.0762,159.518 58.7428,159.018 55.5,158C 53.3379,155.478 53.0045,152.645 54.5,149.5C 59.7893,152.362 65.456,153.195 71.5,152C 74.2896,149.79 75.123,146.956 74,143.5C 69.7418,140.62 65.2418,138.12 60.5,136C 52.9296,130.481 51.5963,123.815 56.5,116C 59.0993,114.205 61.7659,112.705 64.5,111.5 Z"/></g>
<g><path style="opacity:1" fill="#eae7ef" d="M 37.5,148.5 C 34.9134,147.184 31.9134,146.517 28.5,146.5C 25.3138,146.502 22.3138,146.835 19.5,147.5C 17.9978,150.654 16.6645,153.987 15.5,157.5C 12.5541,158.655 9.55413,158.821 6.5,158C 12.1295,143.236 17.6295,128.403 23,113.5C 26.4553,112.209 29.9553,112.209 33.5,113.5C 39.2385,128.384 44.5718,143.384 49.5,158.5C 46.4281,158.817 43.4281,158.484 40.5,157.5C 39.6493,154.422 38.6493,151.422 37.5,148.5 Z"/></g>
<g><path style="opacity:1" fill="#ebe9f0" d="M 106.5,141.5 C 103.833,141.5 101.167,141.5 98.5,141.5C 98.5,147.167 98.5,152.833 98.5,158.5C 95.8333,158.5 93.1667,158.5 90.5,158.5C 90.5,143.167 90.5,127.833 90.5,112.5C 97.5079,112.334 104.508,112.5 111.5,113C 118.02,114.681 121.354,118.848 121.5,125.5C 121.299,135.366 116.299,140.7 106.5,141.5 Z"/></g>
<g><path style="opacity:1" fill="#e8e6ef" d="M 164.5,144.5 C 164.987,145.473 165.487,146.473 166,147.5C 166.5,135.838 166.667,124.171 166.5,112.5C 169.167,112.5 171.833,112.5 174.5,112.5C 174.5,127.833 174.5,143.167 174.5,158.5C 170.894,158.789 167.394,158.456 164,157.5C 157.489,147.139 150.989,136.805 144.5,126.5C 144.217,125.711 143.717,125.044 143,124.5C 142.5,135.828 142.333,147.162 142.5,158.5C 139.833,158.5 137.167,158.5 134.5,158.5C 134.5,143.167 134.5,127.833 134.5,112.5C 138.106,112.211 141.606,112.544 145,113.5C 151.511,123.861 158.011,134.195 164.5,144.5 Z"/></g>
<g><path style="opacity:1" fill="#a28de3" d="M 166.5,112.5 C 166.667,124.171 166.5,135.838 166,147.5C 165.487,146.473 164.987,145.473 164.5,144.5C 165.167,133.833 165.833,123.167 166.5,112.5 Z"/></g>
<g><path style="opacity:1" fill="#ebeaf0" d="M 207.5,131.5 C 207.5,133.5 207.5,135.5 207.5,137.5C 202.305,137.179 197.305,137.513 192.5,138.5C 192.5,142.833 192.5,147.167 192.5,151.5C 198.5,151.5 204.5,151.5 210.5,151.5C 210.5,153.833 210.5,156.167 210.5,158.5C 201.833,158.5 193.167,158.5 184.5,158.5C 184.5,143.167 184.5,127.833 184.5,112.5C 192.833,112.5 201.167,112.5 209.5,112.5C 209.5,114.833 209.5,117.167 209.5,119.5C 203.833,119.5 198.167,119.5 192.5,119.5C 192.5,123.5 192.5,127.5 192.5,131.5C 197.5,131.5 202.5,131.5 207.5,131.5 Z"/></g>
<g><path style="opacity:1" fill="#f0f1f0" d="M 214.5,112.5 C 225.5,112.5 236.5,112.5 247.5,112.5C 247.5,114.5 247.5,116.5 247.5,118.5C 243.167,118.5 238.833,118.5 234.5,118.5C 234.5,131.833 234.5,145.167 234.5,158.5C 232.167,158.5 229.833,158.5 227.5,158.5C 227.5,145.167 227.5,131.833 227.5,118.5C 223.167,118.5 218.833,118.5 214.5,118.5C 214.5,116.5 214.5,114.5 214.5,112.5 Z"/></g>
<g><path style="opacity:1" fill="#9f8ae2" d="M 107.5,119.5 C 104.833,119.5 102.167,119.5 99.5,119.5C 99.5,124.833 99.5,130.167 99.5,135.5C 98.5111,130.025 98.1778,124.358 98.5,118.5C 101.713,118.19 104.713,118.523 107.5,119.5 Z"/></g>
<g><path style="opacity:1" fill="#542bd5" d="M 107.5,119.5 C 112.698,120.891 114.531,124.224 113,129.5C 112.215,131.286 111.049,132.786 109.5,134C 106.243,135.043 102.91,135.543 99.5,135.5C 99.5,130.167 99.5,124.833 99.5,119.5C 102.167,119.5 104.833,119.5 107.5,119.5 Z"/></g>
<g><path style="opacity:1" fill="#b2a2e6" d="M 214.5,112.5 C 214.5,114.5 214.5,116.5 214.5,118.5C 218.833,118.5 223.167,118.5 227.5,118.5C 227.5,131.833 227.5,145.167 227.5,158.5C 226.505,145.677 226.171,132.677 226.5,119.5C 222.167,119.5 217.833,119.5 213.5,119.5C 213.198,116.941 213.532,114.607 214.5,112.5 Z"/></g>
<g><path style="opacity:1" fill="#b2a3e6" d="M 247.5,112.5 C 248.468,114.607 248.802,116.941 248.5,119.5C 244.167,119.5 239.833,119.5 235.5,119.5C 235.829,132.677 235.495,145.677 234.5,158.5C 234.5,145.167 234.5,131.833 234.5,118.5C 238.833,118.5 243.167,118.5 247.5,118.5C 247.5,116.5 247.5,114.5 247.5,112.5 Z"/></g>
<g><path style="opacity:1" fill="#5b33d6" d="M 27.5,121.5 C 30.2343,127.61 32.5676,133.943 34.5,140.5C 30.1161,140.826 25.7828,140.492 21.5,139.5C 23.726,133.489 25.726,127.489 27.5,121.5 Z"/></g>
<g><path style="opacity:1" fill="#795adc" d="M 144.5,126.5 C 143.833,137.167 143.167,147.833 142.5,158.5C 142.333,147.162 142.5,135.828 143,124.5C 143.717,125.044 144.217,125.711 144.5,126.5 Z"/></g>
<g><path style="opacity:1" fill="#b4a4e6" d="M 207.5,131.5 C 208.468,133.607 208.802,135.941 208.5,138.5C 203.167,138.5 197.833,138.5 192.5,138.5C 197.305,137.513 202.305,137.179 207.5,137.5C 207.5,135.5 207.5,133.5 207.5,131.5 Z"/></g>
<g><path style="opacity:1" fill="#9d87e2" d="M 106.5,141.5 C 104.393,142.468 102.059,142.802 99.5,142.5C 99.8214,148.026 99.4881,153.36 98.5,158.5C 98.5,152.833 98.5,147.167 98.5,141.5C 101.167,141.5 103.833,141.5 106.5,141.5 Z"/></g>
<g><path style="opacity:1" fill="#8c72df" d="M 19.5,147.5 C 22.3138,146.835 25.3138,146.502 28.5,146.5C 31.9134,146.517 34.9134,147.184 37.5,148.5C 31.5907,147.545 25.5907,147.211 19.5,147.5 Z"/></g>
<g><path style="opacity:1" fill="#e5e2ef" d="M 118.5,150.5 C 124.352,149.63 126.852,151.963 126,157.5C 121.494,160.808 118.327,159.975 116.5,155C 116.519,153.167 117.185,151.667 118.5,150.5 Z"/></g>
</svg>
