<?xml version="1.0" encoding="UTF-8"?>
<!DOCTYPE svg PUBLIC "-//W3C//DTD SVG 1.1//EN" "http://www.w3.org/Graphics/SVG/1.1/DTD/svg11.dtd">
<svg xmlns="http://www.w3.org/2000/svg" version="1.1" width="1822px" height="2048px" style="shape-rendering:geometricPrecision; text-rendering:geometricPrecision; image-rendering:optimizeQuality; fill-rule:evenodd; clip-rule:evenodd" xmlns:xlink="http://www.w3.org/1999/xlink">
<g><path style="opacity:0.997" fill="#a179dc" d="M 887.5,-0.5 C 902.833,-0.5 918.167,-0.5 933.5,-0.5C 958.467,4.32923 982.133,12.8292 1004.5,25C 1247.95,166.406 1491.95,307.073 1736.5,447C 1763,462.672 1784,483.838 1799.5,510.5C 1699.24,567.438 1599.24,624.772 1499.5,682.5C 1435.28,572.113 1346.95,486.613 1234.5,426C 1084.51,348.664 926.844,327.664 761.5,363C 585.174,407.026 446.674,504.526 346,655.5C 289.018,743.934 254.518,840.601 242.5,945.5C 241.043,950.598 240.376,955.931 240.5,961.5C 238.237,998.805 237.903,1036.14 239.5,1073.5C 239.321,1079.4 239.988,1085.07 241.5,1090.5C 251.402,1185.87 279.735,1275.2 326.5,1358.5C 224.167,1417.17 121.833,1475.83 19.5,1534.5C 9.40315,1514.88 2.73648,1494.21 -0.5,1472.5C -0.5,1173.17 -0.5,873.833 -0.5,574.5C 4.63589,539.917 18.1359,509.251 40,482.5C 52.7484,469.926 66.5817,458.592 81.5,448.5C 325.486,308.508 569.153,168.008 812.5,27C 824.075,21.0452 835.742,15.3785 847.5,10C 860.802,5.95955 874.135,2.45955 887.5,-0.5 Z"/></g>
<g><path style="opacity:1" fill="#fefefe" d="M 1499.5,682.5 C 1402.03,739.071 1304.37,795.404 1206.5,851.5C 1204.93,851.063 1203.76,850.063 1203,848.5C 1152.87,768.314 1081.7,716.814 989.5,694C 863.007,670.054 755.173,703.888 666,795.5C 583.905,890.249 559.239,998.582 592,1120.5C 599.378,1144.25 609.211,1166.92 621.5,1188.5C 668.173,1269 736.173,1322.5 825.5,1349C 838.061,1352.14 850.728,1354.64 863.5,1356.5C 867.919,1357.97 872.586,1358.64 877.5,1358.5C 884.212,1358.8 890.878,1359.47 897.5,1360.5C 908.659,1361.66 919.992,1361.83 931.5,1361C 938.093,1360.98 944.427,1360.15 950.5,1358.5C 1048.56,1346.21 1127.39,1300.88 1187,1222.5C 1193.5,1213.51 1199.5,1204.17 1205,1194.5C 1205.76,1192.94 1206.93,1191.94 1208.5,1191.5C 1306.37,1248.26 1404.03,1305.26 1501.5,1362.5C 1400.62,1530 1254.96,1637.16 1064.5,1684C 1049.6,1687.41 1034.6,1690.25 1019.5,1692.5C 1007.29,1693.63 995.293,1695.29 983.5,1697.5C 791.353,1713.71 621.686,1660.54 474.5,1538C 414.881,1486.26 365.548,1426.42 326.5,1358.5C 279.735,1275.2 251.402,1185.87 241.5,1090.5C 241.679,1084.6 241.012,1078.93 239.5,1073.5C 237.903,1036.14 238.237,998.805 240.5,961.5C 241.957,956.402 242.624,951.069 242.5,945.5C 254.518,840.601 289.018,743.934 346,655.5C 446.674,504.526 585.174,407.026 761.5,363C 926.844,327.664 1084.51,348.664 1234.5,426C 1346.95,486.613 1435.28,572.113 1499.5,682.5 Z"/></g>
<g><path style="opacity:1" fill="#390091" d="M 1799.5,510.5 C 1811.44,532.322 1818.77,555.656 1821.5,580.5C 1821.5,876.5 1821.5,1172.5 1821.5,1468.5C 1818.79,1483.24 1815.29,1497.9 1811,1512.5C 1808.15,1520.27 1804.65,1527.61 1800.5,1534.5C 1700.87,1477.23 1601.21,1419.9 1501.5,1362.5C 1404.03,1305.26 1306.37,1248.26 1208.5,1191.5C 1115.15,1138.16 1022.15,1084.33 929.5,1030C 923.903,1026.87 918.236,1024.04 912.5,1021.5C 1010.17,964.328 1108.17,907.661 1206.5,851.5C 1304.37,795.404 1402.03,739.071 1499.5,682.5C 1599.24,624.772 1699.24,567.438 1799.5,510.5 Z"/></g>
<g><path style="opacity:1" fill="#a179db" d="M 1206.5,851.5 C 1108.17,907.661 1010.17,964.328 912.5,1021.5C 815.279,1076.71 718.279,1132.37 621.5,1188.5C 609.211,1166.92 599.378,1144.25 592,1120.5C 559.239,998.582 583.905,890.249 666,795.5C 755.173,703.888 863.007,670.054 989.5,694C 1081.7,716.814 1152.87,768.314 1203,848.5C 1203.76,850.063 1204.93,851.063 1206.5,851.5 Z"/></g>
<g><path style="opacity:1" fill="#fefefe" d="M 1390.5,829.5 C 1406.17,829.5 1421.83,829.5 1437.5,829.5C 1437.17,861.338 1437.5,893.004 1438.5,924.5C 1470.5,924.5 1502.5,924.5 1534.5,924.5C 1535.5,893.004 1535.83,861.338 1535.5,829.5C 1550.83,829.5 1566.17,829.5 1581.5,829.5C 1581.17,861.338 1581.5,893.004 1582.5,924.5C 1614.17,924.5 1645.83,924.5 1677.5,924.5C 1677.5,940.167 1677.5,955.833 1677.5,971.5C 1645.66,971.168 1614,971.502 1582.5,972.5C 1582.5,1004.5 1582.5,1036.5 1582.5,1068.5C 1614,1069.5 1645.66,1069.83 1677.5,1069.5C 1677.5,1085.17 1677.5,1100.83 1677.5,1116.5C 1645.83,1116.5 1614.17,1116.5 1582.5,1116.5C 1582.5,1148.5 1582.5,1180.5 1582.5,1212.5C 1566.5,1212.5 1550.5,1212.5 1534.5,1212.5C 1534.5,1180.5 1534.5,1148.5 1534.5,1116.5C 1502.5,1116.5 1470.5,1116.5 1438.5,1116.5C 1438.5,1148.5 1438.5,1180.5 1438.5,1212.5C 1422.5,1212.5 1406.5,1212.5 1390.5,1212.5C 1390.5,1180.5 1390.5,1148.5 1390.5,1116.5C 1358.5,1116.5 1326.5,1116.5 1294.5,1116.5C 1294.5,1100.5 1294.5,1084.5 1294.5,1068.5C 1326.5,1068.5 1358.5,1068.5 1390.5,1068.5C 1390.5,1036.5 1390.5,1004.5 1390.5,972.5C 1358.5,972.5 1326.5,972.5 1294.5,972.5C 1294.5,956.5 1294.5,940.5 1294.5,924.5C 1326.5,924.5 1358.5,924.5 1390.5,924.5C 1390.5,892.833 1390.5,861.167 1390.5,829.5 Z"/></g>
<g><path style="opacity:1" fill="#d4c8e7" d="M 1390.5,829.5 C 1406.32,828.504 1422.32,828.17 1438.5,828.5C 1438.5,860.5 1438.5,892.5 1438.5,924.5C 1437.5,893.004 1437.17,861.338 1437.5,829.5C 1421.83,829.5 1406.17,829.5 1390.5,829.5 Z"/></g>
<g><path style="opacity:1" fill="#ded4ed" d="M 1582.5,924.5 C 1581.5,893.004 1581.17,861.338 1581.5,829.5C 1566.17,829.5 1550.83,829.5 1535.5,829.5C 1535.83,861.338 1535.5,893.004 1534.5,924.5C 1534.5,892.5 1534.5,860.5 1534.5,828.5C 1550.5,828.5 1566.5,828.5 1582.5,828.5C 1582.5,860.5 1582.5,892.5 1582.5,924.5 Z"/></g>
<g><path style="opacity:1" fill="#d2bfee" d="M 242.5,945.5 C 242.624,951.069 241.957,956.402 240.5,961.5C 240.376,955.931 241.043,950.598 242.5,945.5 Z"/></g>
<g><path style="opacity:1" fill="#d9cfea" d="M 1677.5,924.5 C 1678.5,940.325 1678.83,956.325 1678.5,972.5C 1646.5,972.5 1614.5,972.5 1582.5,972.5C 1614,971.502 1645.66,971.168 1677.5,971.5C 1677.5,955.833 1677.5,940.167 1677.5,924.5 Z"/></g>
<g><path style="opacity:1" fill="#6236a7" d="M 1438.5,972.5 C 1470.5,972.5 1502.5,972.5 1534.5,972.5C 1534.5,1004.5 1534.5,1036.5 1534.5,1068.5C 1502.5,1068.5 1470.5,1068.5 1438.5,1068.5C 1438.5,1036.5 1438.5,1004.5 1438.5,972.5 Z"/></g>
<g><path style="opacity:1" fill="#390091" d="M 1439.5,973.5 C 1470.83,973.5 1502.17,973.5 1533.5,973.5C 1533.5,1004.83 1533.5,1036.17 1533.5,1067.5C 1502.17,1067.5 1470.83,1067.5 1439.5,1067.5C 1439.5,1036.17 1439.5,1004.83 1439.5,973.5 Z"/></g>
<g><path style="opacity:1" fill="#280068" d="M 912.5,1021.5 C 918.236,1024.04 923.903,1026.87 929.5,1030C 1022.15,1084.33 1115.15,1138.16 1208.5,1191.5C 1206.93,1191.94 1205.76,1192.94 1205,1194.5C 1199.5,1204.17 1193.5,1213.51 1187,1222.5C 1127.39,1300.88 1048.56,1346.21 950.5,1358.5C 932.867,1359.95 915.2,1360.61 897.5,1360.5C 890.878,1359.47 884.212,1358.8 877.5,1358.5C 873.081,1357.03 868.414,1356.36 863.5,1356.5C 850.728,1354.64 838.061,1352.14 825.5,1349C 736.173,1322.5 668.173,1269 621.5,1188.5C 718.279,1132.37 815.279,1076.71 912.5,1021.5 Z"/></g>
<g><path style="opacity:1" fill="#cec0e3" d="M 1582.5,1068.5 C 1614.5,1068.5 1646.5,1068.5 1678.5,1068.5C 1678.83,1084.68 1678.5,1100.68 1677.5,1116.5C 1677.5,1100.83 1677.5,1085.17 1677.5,1069.5C 1645.66,1069.83 1614,1069.5 1582.5,1068.5 Z"/></g>
<g><path style="opacity:1" fill="#ceb9ec" d="M 239.5,1073.5 C 241.012,1078.93 241.679,1084.6 241.5,1090.5C 239.988,1085.07 239.321,1079.4 239.5,1073.5 Z"/></g>
<g><path style="opacity:1" fill="#6236a7" d="M 1534.5,1212.5 C 1533.5,1181 1533.17,1149.34 1533.5,1117.5C 1502.17,1117.5 1470.83,1117.5 1439.5,1117.5C 1439.83,1149.34 1439.5,1181 1438.5,1212.5C 1438.5,1180.5 1438.5,1148.5 1438.5,1116.5C 1470.5,1116.5 1502.5,1116.5 1534.5,1116.5C 1534.5,1148.5 1534.5,1180.5 1534.5,1212.5 Z"/></g>
<g><path style="opacity:1" fill="#74599d" d="M 863.5,1356.5 C 868.414,1356.36 873.081,1357.03 877.5,1358.5C 872.586,1358.64 867.919,1357.97 863.5,1356.5 Z"/></g>
<g><path style="opacity:1" fill="#280068" d="M 326.5,1358.5 C 365.548,1426.42 414.881,1486.26 474.5,1538C 621.686,1660.54 791.353,1713.71 983.5,1697.5C 995.784,1696.94 1007.78,1695.27 1019.5,1692.5C 1034.6,1690.25 1049.6,1687.41 1064.5,1684C 1254.96,1637.16 1400.62,1530 1501.5,1362.5C 1601.21,1419.9 1700.87,1477.23 1800.5,1534.5C 1791.28,1551.89 1779.28,1567.05 1764.5,1580C 1753.12,1588.38 1741.45,1596.38 1729.5,1604C 1490.46,1740.85 1251.79,1878.35 1013.5,2016.5C 999.999,2024.22 985.999,2031.05 971.5,2037C 957.903,2041.15 944.237,2044.65 930.5,2047.5C 916.833,2047.5 903.167,2047.5 889.5,2047.5C 863.799,2042.93 839.466,2034.43 816.5,2022C 706.138,1957.8 595.805,1893.8 485.5,1830C 458.384,1815.57 431.718,1800.24 405.5,1784C 292.212,1720.02 179.545,1655.02 67.5,1589C 62.1244,1583.96 56.4578,1579.29 50.5,1575C 45.6717,1569.17 40.505,1563.67 35,1558.5C 29.5872,1550.68 24.4205,1542.68 19.5,1534.5C 121.833,1475.83 224.167,1417.17 326.5,1358.5 Z"/></g>
<g><path style="opacity:1" fill="#d8d0e3" d="M 950.5,1358.5 C 944.427,1360.15 938.093,1360.98 931.5,1361C 919.992,1361.83 908.659,1361.66 897.5,1360.5C 915.2,1360.61 932.867,1359.95 950.5,1358.5 Z"/></g>
<g><path style="opacity:1" fill="#5f408d" d="M 1019.5,1692.5 C 1007.78,1695.27 995.784,1696.94 983.5,1697.5C 995.293,1695.29 1007.29,1693.63 1019.5,1692.5 Z"/></g>
</svg>
