<?xml version="1.0" encoding="UTF-8"?>
<!DOCTYPE svg PUBLIC "-//W3C//DTD SVG 1.1//EN" "http://www.w3.org/Graphics/SVG/1.1/DTD/svg11.dtd">
<svg xmlns="http://www.w3.org/2000/svg" version="1.1" width="390px" height="390px" style="shape-rendering:geometricPrecision; text-rendering:geometricPrecision; image-rendering:optimizeQuality; fill-rule:evenodd; clip-rule:evenodd" xmlns:xlink="http://www.w3.org/1999/xlink">
<g><path style="opacity:1" fill="#fcfefe" d="M -0.5,-0.5 C 55.1667,-0.5 110.833,-0.5 166.5,-0.5C 159.619,0.743711 152.619,2.07704 145.5,3.5C 144.287,3.74716 143.62,4.41383 143.5,5.5C 134.459,7.92409 125.792,11.2574 117.5,15.5C 109.302,17.5991 101.968,21.2658 95.5,26.5C 85.1791,32.307 75.5125,39.1403 66.5,47C 65.552,47.4828 64.552,47.6495 63.5,47.5C 59.1667,53.8333 53.8333,59.1667 47.5,63.5C 47.0387,66.3033 45.7053,68.6366 43.5,70.5C 40.9362,73.2802 38.6029,76.2802 36.5,79.5C 27.4437,90.9385 20.4437,103.605 15.5,117.5C 12.161,124.194 9.32763,131.194 7,138.5C 3.92084,150.853 1.42084,163.186 -0.5,175.5C -0.5,116.833 -0.5,58.1667 -0.5,-0.5 Z"/></g>
<g><path style="opacity:1" fill="#d0f8fd" d="M 166.5,-0.5 C 169.5,-0.5 172.5,-0.5 175.5,-0.5C 164.954,1.49227 154.288,3.49227 143.5,5.5C 143.62,4.41383 144.287,3.74716 145.5,3.5C 152.619,2.07704 159.619,0.743711 166.5,-0.5 Z"/></g>
<g><path style="opacity:1" fill="#03a0e4" d="M 183.5,-0.5 C 190.833,-0.5 198.167,-0.5 205.5,-0.5C 205.842,0.338246 206.508,0.67158 207.5,0.5C 210.758,1.17084 214.091,2.00417 217.5,3C 216.027,3.70956 215.36,4.87623 215.5,6.5C 212.833,6.5 210.167,6.5 207.5,6.5C 207.5,7.83333 207.5,9.16667 207.5,10.5C 212.833,10.5 218.167,10.5 223.5,10.5C 223.5,11.5 223.5,12.5 223.5,13.5C 218.167,13.5 212.833,13.5 207.5,13.5C 207.5,14.5 207.5,15.5 207.5,16.5C 199.488,16.5007 191.488,16.8341 183.5,17.5C 180.41,17.5217 177.743,18.1883 175.5,19.5C 173.011,19.7022 170.677,19.2022 168.5,18C 174.305,15.9408 180.305,15.1075 186.5,15.5C 186.5,14.5 186.5,13.5 186.5,12.5C 183.998,12.2505 181.498,11.9172 179,11.5C 172.611,13.1944 166.111,13.8611 159.5,13.5C 159.5,12.5 159.5,11.5 159.5,10.5C 164.833,10.5 170.167,10.5 175.5,10.5C 175.5,9.5 175.5,8.5 175.5,7.5C 169.195,7.05921 163.029,7.72588 157,9.5C 154.075,9.47143 152.242,8.13809 151.5,5.5C 161.372,2.87908 171.372,2.04574 181.5,3C 182.305,1.88732 182.972,0.72065 183.5,-0.5 Z"/></g>
<g><path style="opacity:1" fill="#fcfefe" d="M 239.5,-0.5 C 289.5,-0.5 339.5,-0.5 389.5,-0.5C 389.5,59.1667 389.5,118.833 389.5,178.5C 388.047,172.203 386.714,165.87 385.5,159.5C 381.804,138.438 374.97,118.438 365,99.5C 364.051,97.9069 362.885,96.5736 361.5,95.5C 360.521,91.5395 358.521,88.2061 355.5,85.5C 353.145,80.1205 349.812,75.4538 345.5,71.5C 338.527,62.5271 330.527,54.5271 321.5,47.5C 320.04,45.5372 318.373,43.7038 316.5,42C 311.537,37.8581 306.204,34.3581 300.5,31.5C 294.948,26.6436 288.615,22.977 281.5,20.5C 278.516,18.3412 275.183,16.6745 271.5,15.5C 268.038,14.1305 264.705,12.4639 261.5,10.5C 258.497,8.73832 255.163,7.57165 251.5,7C 250.643,6.31091 249.977,5.47758 249.5,4.5C 245.973,2.8403 242.639,1.17363 239.5,-0.5 Z"/></g>
<g><path style="opacity:1" fill="#e3f6f9" d="M 205.5,-0.5 C 216.833,-0.5 228.167,-0.5 239.5,-0.5C 242.639,1.17363 245.973,2.8403 249.5,4.5C 249.977,5.47758 250.643,6.31091 251.5,7C 255.163,7.57165 258.497,8.73832 261.5,10.5C 253.348,8.83745 245.348,6.67079 237.5,4C 227.553,2.28612 217.553,1.11945 207.5,0.5C 206.508,0.67158 205.842,0.338246 205.5,-0.5 Z"/></g>
<g><path style="opacity:1" fill="#30a2ca" d="M 175.5,-0.5 C 178.167,-0.5 180.833,-0.5 183.5,-0.5C 182.972,0.72065 182.305,1.88732 181.5,3C 171.372,2.04574 161.372,2.87908 151.5,5.5C 150.522,5.81103 149.855,6.4777 149.5,7.5C 141.18,8.95433 133.18,10.9543 125.5,13.5C 124.833,13.5 124.5,13.8333 124.5,14.5C 122.236,15.2186 119.903,15.552 117.5,15.5C 125.792,11.2574 134.459,7.92409 143.5,5.5C 154.288,3.49227 164.954,1.49227 175.5,-0.5 Z"/></g>
<g><path style="opacity:1" fill="#10a1dc" d="M 207.5,0.5 C 217.553,1.11945 227.553,2.28612 237.5,4C 245.348,6.67079 253.348,8.83745 261.5,10.5C 264.705,12.4639 268.038,14.1305 271.5,15.5C 266.307,14.0335 260.973,13.3669 255.5,13.5C 255.5,12.5 255.5,11.5 255.5,10.5C 250.167,9.5 244.833,8.5 239.5,7.5C 239.5,8.83333 239.5,10.1667 239.5,11.5C 242.247,11.1866 244.914,11.52 247.5,12.5C 247.333,12.8333 247.167,13.1667 247,13.5C 245.187,13.4066 243.354,13.0733 241.5,12.5C 236.336,13.5481 232.669,14.8814 230.5,16.5C 228.68,14.5516 226.346,13.5516 223.5,13.5C 223.5,12.5 223.5,11.5 223.5,10.5C 218.167,10.5 212.833,10.5 207.5,10.5C 207.5,9.16667 207.5,7.83333 207.5,6.5C 210.167,6.5 212.833,6.5 215.5,6.5C 215.36,4.87623 216.027,3.70956 217.5,3C 214.091,2.00417 210.758,1.17084 207.5,0.5 Z"/></g>
<g><path style="opacity:1" fill="#05a0e4" d="M 125.5,13.5 C 132.728,13.7247 139.728,15.0581 146.5,17.5C 147.429,18.6888 147.762,20.0222 147.5,21.5C 154.841,21.3337 162.174,21.5003 169.5,22C 170.167,22.6667 170.833,23.3333 171.5,24C 167.514,24.4988 163.514,24.6655 159.5,24.5C 159.5,25.5 159.5,26.5 159.5,27.5C 156.607,27.0311 154.607,28.0311 153.5,30.5C 149.033,31.034 144.699,32.034 140.5,33.5C 138.473,33.3379 136.473,33.5045 134.5,34C 129.341,35.9443 124.341,38.2776 119.5,41C 117.866,41.4935 116.199,41.6602 114.5,41.5C 113.325,41.719 112.325,41.3857 111.5,40.5C 114.342,39.9955 115.675,38.3289 115.5,35.5C 120.419,35.5636 125.085,34.5636 129.5,32.5C 127.604,31.5344 125.604,31.2011 123.5,31.5C 123.67,30.1779 123.337,29.0113 122.5,28C 118.035,27.2664 113.701,27.7664 109.5,29.5C 107.892,27.7384 105.892,26.5718 103.5,26C 102.663,24.9887 102.33,23.8221 102.5,22.5C 105.969,21.8872 107.969,23.2206 108.5,26.5C 113.334,24.4964 118,22.163 122.5,19.5C 123.314,21.7662 123.814,24.0995 124,26.5C 125.011,27.3366 126.178,27.67 127.5,27.5C 127.5,23.5 127.5,19.5 127.5,15.5C 126.209,15.7373 125.209,15.404 124.5,14.5C 124.5,13.8333 124.833,13.5 125.5,13.5 Z"/></g>
<g><path style="opacity:1" fill="#05a1e4" d="M 271.5,15.5 C 275.183,16.6745 278.516,18.3412 281.5,20.5C 281.461,21.5832 281.127,22.5832 280.5,23.5C 277.673,24.9322 274.673,25.5988 271.5,25.5C 271.5,26.5 271.5,27.5 271.5,28.5C 274.833,28.5 278.167,28.5 281.5,28.5C 281.5,27.5 281.5,26.5 281.5,25.5C 284.5,25.5 287.5,25.5 290.5,25.5C 290.64,27.1238 289.973,28.2904 288.5,29C 286.19,29.4966 283.857,29.6633 281.5,29.5C 281.5,30.8333 281.5,32.1667 281.5,33.5C 278.042,32.7801 274.542,32.1134 271,31.5C 269.167,31.6667 267.333,31.8333 265.5,32C 267.217,33.5588 269.217,34.3921 271.5,34.5C 270.955,37.9444 268.955,39.1111 265.5,38C 267.481,37.3946 267.815,36.3946 266.5,35C 263.139,34.3295 259.972,33.1628 257,31.5C 255.48,32.5067 253.813,33.1734 252,33.5C 247.98,32.0444 243.813,31.3777 239.5,31.5C 239.38,30.4138 238.713,29.7472 237.5,29.5C 228.639,27.2134 219.639,25.7134 210.5,25C 215.707,22.8968 220.874,23.0634 226,25.5C 230.461,24.6551 234.961,24.3218 239.5,24.5C 239.5,23.5 239.5,22.5 239.5,21.5C 235.829,21.7225 232.163,22.0558 228.5,22.5C 224.205,21.5881 219.872,20.9215 215.5,20.5C 202.156,21.5018 188.823,22.5018 175.5,23.5C 175.5,22.5 175.5,21.5 175.5,20.5C 194.018,19.8867 212.351,18.5534 230.5,16.5C 232.669,14.8814 236.336,13.5481 241.5,12.5C 243.354,13.0733 245.187,13.4066 247,13.5C 247.167,13.1667 247.333,12.8333 247.5,12.5C 244.914,11.52 242.247,11.1866 239.5,11.5C 239.5,10.1667 239.5,8.83333 239.5,7.5C 244.833,8.5 250.167,9.5 255.5,10.5C 255.5,11.5 255.5,12.5 255.5,13.5C 260.973,13.3669 266.307,14.0335 271.5,15.5 Z"/></g>
<g><path style="opacity:1" fill="#03a6d6" d="M 223.5,13.5 C 226.346,13.5516 228.68,14.5516 230.5,16.5C 212.351,18.5534 194.018,19.8867 175.5,20.5C 175.5,20.1667 175.5,19.8333 175.5,19.5C 177.743,18.1883 180.41,17.5217 183.5,17.5C 191.488,16.8341 199.488,16.5007 207.5,16.5C 207.5,15.5 207.5,14.5 207.5,13.5C 212.833,13.5 218.167,13.5 223.5,13.5 Z"/></g>
<g><path style="opacity:1" fill="#18a2d9" d="M 151.5,5.5 C 152.242,8.13809 154.075,9.47143 157,9.5C 163.029,7.72588 169.195,7.05921 175.5,7.5C 175.5,8.5 175.5,9.5 175.5,10.5C 170.167,10.5 164.833,10.5 159.5,10.5C 159.5,11.5 159.5,12.5 159.5,13.5C 166.111,13.8611 172.611,13.1944 179,11.5C 181.498,11.9172 183.998,12.2505 186.5,12.5C 186.5,13.5 186.5,14.5 186.5,15.5C 180.305,15.1075 174.305,15.9408 168.5,18C 170.677,19.2022 173.011,19.7022 175.5,19.5C 175.5,19.8333 175.5,20.1667 175.5,20.5C 175.5,21.5 175.5,22.5 175.5,23.5C 188.823,22.5018 202.156,21.5018 215.5,20.5C 219.872,20.9215 224.205,21.5881 228.5,22.5C 232.163,22.0558 235.829,21.7225 239.5,21.5C 239.5,22.5 239.5,23.5 239.5,24.5C 234.961,24.3218 230.461,24.6551 226,25.5C 220.874,23.0634 215.707,22.8968 210.5,25C 219.639,25.7134 228.639,27.2134 237.5,29.5C 238.713,29.7472 239.38,30.4138 239.5,31.5C 229.047,28.5548 218.381,26.8882 207.5,26.5C 192.602,25.1067 177.602,25.6067 162.5,28C 159.996,28.6976 157.663,29.5309 155.5,30.5C 154.833,30.5 154.167,30.5 153.5,30.5C 154.607,28.0311 156.607,27.0311 159.5,27.5C 159.5,26.5 159.5,25.5 159.5,24.5C 163.514,24.6655 167.514,24.4988 171.5,24C 170.833,23.3333 170.167,22.6667 169.5,22C 162.174,21.5003 154.841,21.3337 147.5,21.5C 147.762,20.0222 147.429,18.6888 146.5,17.5C 139.728,15.0581 132.728,13.7247 125.5,13.5C 133.18,10.9543 141.18,8.95433 149.5,7.5C 149.855,6.4777 150.522,5.81103 151.5,5.5 Z"/></g>
<g><path style="opacity:1" fill="#089de8" d="M 159.5,13.5 C 159.5,14.8333 159.5,16.1667 159.5,17.5C 157.143,17.6633 154.81,17.4966 152.5,17C 151.643,16.3109 150.977,15.4776 150.5,14.5C 146.167,13.8333 141.833,13.1667 137.5,12.5C 139.637,10.3398 142.304,9.33979 145.5,9.5C 149.783,11.8121 154.449,13.1454 159.5,13.5 Z"/></g>
<g><path style="opacity:1" fill="#d4e9fb" d="M 207.5,26.5 C 189.301,26.709 171.968,28.0423 155.5,30.5C 157.663,29.5309 159.996,28.6976 162.5,28C 177.602,25.6067 192.602,25.1067 207.5,26.5 Z"/></g>
<g><path style="opacity:1" fill="#09a2e0" d="M 124.5,14.5 C 125.209,15.404 126.209,15.7373 127.5,15.5C 127.5,19.5 127.5,23.5 127.5,27.5C 126.178,27.67 125.011,27.3366 124,26.5C 123.814,24.0995 123.314,21.7662 122.5,19.5C 118,22.163 113.334,24.4964 108.5,26.5C 107.969,23.2206 105.969,21.8872 102.5,22.5C 102.33,23.8221 102.663,24.9887 103.5,26C 105.892,26.5718 107.892,27.7384 109.5,29.5C 113.701,27.7664 118.035,27.2664 122.5,28C 123.337,29.0113 123.67,30.1779 123.5,31.5C 125.604,31.2011 127.604,31.5344 129.5,32.5C 125.085,34.5636 120.419,35.5636 115.5,35.5C 115.675,38.3289 114.342,39.9955 111.5,40.5C 112.325,41.3857 113.325,41.719 114.5,41.5C 113.791,42.404 112.791,42.7373 111.5,42.5C 111.285,44.1788 111.952,45.1788 113.5,45.5C 112.486,46.6737 111.153,47.3404 109.5,47.5C 106.813,47.3359 104.146,47.5026 101.5,48C 101.957,48.414 102.291,48.914 102.5,49.5C 100.547,50.6904 98.7135,52.0237 97,53.5C 94.0583,52.2782 91.5583,50.4448 89.5,48C 90.3081,47.6924 90.9747,47.1924 91.5,46.5C 90.4786,42.9769 88.1452,41.1436 84.5,41C 83.5,40 82.5,39 81.5,38C 85.4765,35.6799 89.1432,33.0133 92.5,30C 94.6546,29.884 96.6546,30.2173 98.5,31C 96.8588,29.871 95.8588,28.371 95.5,26.5C 101.968,21.2658 109.302,17.5991 117.5,15.5C 119.903,15.552 122.236,15.2186 124.5,14.5 Z"/></g>
<g><path style="opacity:1" fill="#eaeced" d="M 207.5,26.5 C 218.381,26.8882 229.047,28.5548 239.5,31.5C 252.78,35.9674 265.78,41.3008 278.5,47.5C 286.828,53.4928 295.161,59.4928 303.5,65.5C 304.5,67.1667 305.833,68.5 307.5,69.5C 326.583,86.9871 341.25,107.654 351.5,131.5C 355.592,143.198 358.759,155.198 361,167.5C 362.332,180.796 362.832,194.129 362.5,207.5C 360.845,218.041 359.178,228.708 357.5,239.5C 353.459,248.611 349.792,257.945 346.5,267.5C 343.527,273.438 340.027,279.104 336,284.5C 335.517,285.448 335.351,286.448 335.5,287.5C 322.5,305.167 307.167,320.5 289.5,333.5C 287.185,334.544 285.185,335.877 283.5,337.5C 278.122,340.507 272.788,343.507 267.5,346.5C 263.063,347.309 259.063,348.976 255.5,351.5C 247.319,354.005 239.319,356.671 231.5,359.5C 203.627,364.264 175.96,363.431 148.5,357C 142.963,354.654 137.297,352.821 131.5,351.5C 117.765,345.137 104.765,337.471 92.5,328.5C 88.5185,325.524 84.5185,322.524 80.5,319.5C 75.5135,314.179 70.5135,308.846 65.5,303.5C 61.4974,298.158 57.4974,292.825 53.5,287.5C 40.9248,267.693 32.2581,246.359 27.5,223.5C 25.4393,207.53 25.106,191.53 26.5,175.5C 26.5,173.833 26.5,172.167 26.5,170.5C 27.8183,164.924 29.1516,159.258 30.5,153.5C 31.034,149.033 32.034,144.699 33.5,140.5C 37.521,130.784 41.8543,121.117 46.5,111.5C 47.3382,111.158 47.6716,110.492 47.5,109.5C 63.8607,84.4727 84.5273,63.806 109.5,47.5C 111.153,47.3404 112.486,46.6737 113.5,45.5C 122.451,41.1872 131.451,37.1872 140.5,33.5C 144.699,32.034 149.033,31.034 153.5,30.5C 154.167,30.5 154.833,30.5 155.5,30.5C 171.968,28.0423 189.301,26.709 207.5,26.5 Z"/></g>
<g><path style="opacity:1" fill="#13a2dd" d="M 281.5,20.5 C 288.615,22.977 294.948,26.6436 300.5,31.5C 298.253,31.0847 296.086,30.4181 294,29.5C 290.937,29.935 290.77,30.7684 293.5,32C 291.414,37.3177 288.414,38.151 284.5,34.5C 283.914,34.7093 283.414,35.0426 283,35.5C 283.306,37.8229 283.972,40.1563 285,42.5C 285.414,42.0426 285.914,41.7093 286.5,41.5C 287.355,45.2563 288.355,48.923 289.5,52.5C 287.021,51.2777 284.688,49.7777 282.5,48C 281.207,47.51 279.873,47.3433 278.5,47.5C 265.78,41.3008 252.78,35.9674 239.5,31.5C 243.813,31.3777 247.98,32.0444 252,33.5C 253.813,33.1734 255.48,32.5067 257,31.5C 259.972,33.1628 263.139,34.3295 266.5,35C 267.815,36.3946 267.481,37.3946 265.5,38C 268.955,39.1111 270.955,37.9444 271.5,34.5C 269.217,34.3921 267.217,33.5588 265.5,32C 267.333,31.8333 269.167,31.6667 271,31.5C 274.542,32.1134 278.042,32.7801 281.5,33.5C 281.5,32.1667 281.5,30.8333 281.5,29.5C 283.857,29.6633 286.19,29.4966 288.5,29C 289.973,28.2904 290.64,27.1238 290.5,25.5C 287.5,25.5 284.5,25.5 281.5,25.5C 281.5,26.5 281.5,27.5 281.5,28.5C 278.167,28.5 274.833,28.5 271.5,28.5C 271.5,27.5 271.5,26.5 271.5,25.5C 274.673,25.5988 277.673,24.9322 280.5,23.5C 281.127,22.5832 281.461,21.5832 281.5,20.5 Z"/></g>
<g><path style="opacity:1" fill="#29a1c8" d="M 140.5,33.5 C 131.451,37.1872 122.451,41.1872 113.5,45.5C 111.952,45.1788 111.285,44.1788 111.5,42.5C 112.791,42.7373 113.791,42.404 114.5,41.5C 116.199,41.6602 117.866,41.4935 119.5,41C 124.341,38.2776 129.341,35.9443 134.5,34C 136.473,33.5045 138.473,33.3379 140.5,33.5 Z"/></g>
<g><path style="opacity:1" fill="#09a1e1" d="M 300.5,31.5 C 306.204,34.3581 311.537,37.8581 316.5,42C 318.373,43.7038 320.04,45.5372 321.5,47.5C 321.045,49.3666 320.378,51.1999 319.5,53C 319.833,53.8333 320.167,54.6667 320.5,55.5C 321.892,54.3947 323.059,53.0614 324,51.5C 327.519,53.1744 329.685,55.841 330.5,59.5C 328.167,58.8333 325.833,58.1667 323.5,57.5C 323.719,58.675 323.386,59.675 322.5,60.5C 320.698,61.9856 318.698,62.9856 316.5,63.5C 316.5,64.5 316.5,65.5 316.5,66.5C 313.713,66.7796 311.547,68.113 310,70.5C 309.329,69.7476 308.496,69.4142 307.5,69.5C 305.833,68.5 304.5,67.1667 303.5,65.5C 303.5,64.1667 303.5,62.8333 303.5,61.5C 300.476,59.997 297.81,57.8303 295.5,55C 293.189,54.7641 291.189,53.9307 289.5,52.5C 288.355,48.923 287.355,45.2563 286.5,41.5C 285.914,41.7093 285.414,42.0426 285,42.5C 283.972,40.1563 283.306,37.8229 283,35.5C 283.414,35.0426 283.914,34.7093 284.5,34.5C 288.414,38.151 291.414,37.3177 293.5,32C 290.77,30.7684 290.937,29.935 294,29.5C 296.086,30.4181 298.253,31.0847 300.5,31.5 Z"/></g>
<g><path style="opacity:1" fill="#1ba1d8" d="M 95.5,26.5 C 95.8588,28.371 96.8588,29.871 98.5,31C 96.6546,30.2173 94.6546,29.884 92.5,30C 89.1432,33.0133 85.4765,35.6799 81.5,38C 82.5,39 83.5,40 84.5,41C 88.1452,41.1436 90.4786,42.9769 91.5,46.5C 90.9747,47.1924 90.3081,47.6924 89.5,48C 91.5583,50.4448 94.0583,52.2782 97,53.5C 98.7135,52.0237 100.547,50.6904 102.5,49.5C 102.291,48.914 101.957,48.414 101.5,48C 104.146,47.5026 106.813,47.3359 109.5,47.5C 84.5273,63.806 63.8607,84.4727 47.5,109.5C 46.5996,104.256 48.2663,100.089 52.5,97C 52.1386,93.771 50.6386,91.271 48,89.5C 47.6924,90.3081 47.1924,90.9747 46.5,91.5C 45.2997,90.4688 43.9663,89.6355 42.5,89C 41.4381,85.1319 39.4381,81.9653 36.5,79.5C 38.6029,76.2802 40.9362,73.2802 43.5,70.5C 45.7053,68.6366 47.0387,66.3033 47.5,63.5C 53.8333,59.1667 59.1667,53.8333 63.5,47.5C 64.552,47.6495 65.552,47.4828 66.5,47C 75.5125,39.1403 85.1791,32.307 95.5,26.5 Z"/></g>
<g><path style="opacity:1" fill="#3ba4ca" d="M 278.5,47.5 C 279.873,47.3433 281.207,47.51 282.5,48C 284.688,49.7777 287.021,51.2777 289.5,52.5C 291.189,53.9307 293.189,54.7641 295.5,55C 297.81,57.8303 300.476,59.997 303.5,61.5C 303.5,62.8333 303.5,64.1667 303.5,65.5C 295.161,59.4928 286.828,53.4928 278.5,47.5 Z"/></g>
<g><path style="opacity:1" fill="#15a2dc" d="M 321.5,47.5 C 330.527,54.5271 338.527,62.5271 345.5,71.5C 343.025,72.6874 342.025,74.6874 342.5,77.5C 339.99,77.9907 337.656,78.9907 335.5,80.5C 333.573,83.7422 331.573,86.9089 329.5,90C 331.668,94.5131 334.668,98.3464 338.5,101.5C 340.5,105.5 342.5,109.5 344.5,113.5C 345.524,112.147 346.857,111.48 348.5,111.5C 347.572,107.638 346.072,103.971 344,100.5C 343.506,98.8659 343.34,97.1992 343.5,95.5C 345.167,95.5 346.833,95.5 348.5,95.5C 348.002,99.2194 348.836,102.553 351,105.5C 354.732,102.296 355.232,98.7964 352.5,95C 354.495,92.1998 355.495,89.0332 355.5,85.5C 358.521,88.2061 360.521,91.5395 361.5,95.5C 360.134,93.6495 358.467,93.3162 356.5,94.5C 357.415,95.3279 358.081,96.3279 358.5,97.5C 357.727,102.563 356.06,107.23 353.5,111.5C 352.5,111.5 351.5,111.5 350.5,111.5C 350.5,112.5 350.5,113.5 350.5,114.5C 349.167,114.5 347.833,114.5 346.5,114.5C 348.458,120.083 350.125,125.749 351.5,131.5C 341.25,107.654 326.583,86.9871 307.5,69.5C 308.496,69.4142 309.329,69.7476 310,70.5C 311.547,68.113 313.713,66.7796 316.5,66.5C 316.5,65.5 316.5,64.5 316.5,63.5C 318.698,62.9856 320.698,61.9856 322.5,60.5C 323.386,59.675 323.719,58.675 323.5,57.5C 325.833,58.1667 328.167,58.8333 330.5,59.5C 329.685,55.841 327.519,53.1744 324,51.5C 323.059,53.0614 321.892,54.3947 320.5,55.5C 320.167,54.6667 319.833,53.8333 319.5,53C 320.378,51.1999 321.045,49.3666 321.5,47.5 Z"/></g>
<g><path style="opacity:1" fill="#04a0e4" d="M 43.5,70.5 C 46.7272,70.8561 48.8939,72.5227 50,75.5C 55.0608,75.178 60.2274,74.3447 65.5,73C 66.2266,71.6012 66.7266,70.1012 67,68.5C 68.9465,67.253 70.7798,65.9197 72.5,64.5C 70.604,63.5344 68.604,63.2011 66.5,63.5C 66.5,64.5 66.5,65.5 66.5,66.5C 64.3254,66.6822 62.3254,67.3489 60.5,68.5C 58.4311,68.1758 58.0977,67.3425 59.5,66C 58.376,65.7508 57.376,65.2508 56.5,64.5C 57.8333,63.8333 59.1667,63.1667 60.5,62.5C 59.675,61.6143 58.675,61.281 57.5,61.5C 57.5,59.8333 57.5,58.1667 57.5,56.5C 58.8333,56.5 60.1667,56.5 61.5,56.5C 61.5,55.5 61.5,54.5 61.5,53.5C 63.9201,53.7076 66.2534,53.3742 68.5,52.5C 68.6938,50.9299 68.6938,49.4299 68.5,48C 69.9733,47.2904 70.6399,46.1238 70.5,44.5C 72.604,44.7989 74.604,44.4656 76.5,43.5C 75.4775,41.1052 76.4775,40.1052 79.5,40.5C 79.5,41.8333 79.5,43.1667 79.5,44.5C 82.0217,44.1281 84.0217,44.9614 85.5,47C 83.5,48 81.5,49 79.5,50C 81.1667,50.3333 82.8333,50.6667 84.5,51C 85.8333,52 85.8333,53 84.5,54C 86.4727,54.4955 88.4727,54.6621 90.5,54.5C 89.2674,60.3001 85.6008,62.9667 79.5,62.5C 80.8333,63.1667 82.1667,63.8333 83.5,64.5C 81.4527,66.0152 79.1193,66.8485 76.5,67C 74,70.8333 70.8333,74 67,76.5C 66.5065,78.1341 66.3398,79.8008 66.5,81.5C 64.857,81.5198 63.5237,80.8532 62.5,79.5C 61.6786,82.4465 61.1786,85.4465 61,88.5C 59.2111,90.229 57.0444,90.8957 54.5,90.5C 54.5,88.1667 54.5,85.8333 54.5,83.5C 53.5,83.5 52.5,83.5 51.5,83.5C 51.6567,82.1266 51.49,80.7932 51,79.5C 47.9814,91.3123 45.8148,91.3123 44.5,79.5C 43.1667,79.5 41.8333,79.5 40.5,79.5C 41.9697,76.6819 42.9697,73.6819 43.5,70.5 Z"/></g>
<g><path style="opacity:1" fill="#0aa1e2" d="M 345.5,71.5 C 349.812,75.4538 353.145,80.1205 355.5,85.5C 355.495,89.0332 354.495,92.1998 352.5,95C 355.232,98.7964 354.732,102.296 351,105.5C 348.836,102.553 348.002,99.2194 348.5,95.5C 346.833,95.5 345.167,95.5 343.5,95.5C 343.34,97.1992 343.506,98.8659 344,100.5C 346.072,103.971 347.572,107.638 348.5,111.5C 346.857,111.48 345.524,112.147 344.5,113.5C 342.5,109.5 340.5,105.5 338.5,101.5C 334.668,98.3464 331.668,94.5131 329.5,90C 331.573,86.9089 333.573,83.7422 335.5,80.5C 337.656,78.9907 339.99,77.9907 342.5,77.5C 342.025,74.6874 343.025,72.6874 345.5,71.5 Z"/></g>
<g><path style="opacity:1" fill="#0ba2e0" d="M 36.5,79.5 C 39.4381,81.9653 41.4381,85.1319 42.5,89C 43.9663,89.6355 45.2997,90.4688 46.5,91.5C 47.1924,90.9747 47.6924,90.3081 48,89.5C 50.6386,91.271 52.1386,93.771 52.5,97C 48.2663,100.089 46.5996,104.256 47.5,109.5C 47.6716,110.492 47.3382,111.158 46.5,111.5C 45.1667,111.5 43.8333,111.5 42.5,111.5C 42.8624,115.081 41.8624,118.081 39.5,120.5C 40.1599,118.184 40.8266,115.851 41.5,113.5C 41.1667,112.833 40.8333,112.167 40.5,111.5C 36.5676,117.363 33.7343,123.696 32,130.5C 31.5034,128.19 31.3367,125.857 31.5,123.5C 29.8967,123.688 28.5634,123.188 27.5,122C 28.5381,118.61 29.2048,115.11 29.5,111.5C 28.7257,108.669 27.7257,106.003 26.5,103.5C 25.5,103.5 24.5,103.5 23.5,103.5C 23.3305,105.912 23.9972,108.079 25.5,110C 23.359,114.011 21.359,118.178 19.5,122.5C 21.7662,123.314 24.0995,123.814 26.5,124C 27.3366,125.011 27.67,126.178 27.5,127.5C 23.5,127.5 19.5,127.5 15.5,127.5C 15.7678,125.901 15.4345,124.568 14.5,123.5C 15.3414,121.621 15.6747,119.621 15.5,117.5C 20.4437,103.605 27.4437,90.9385 36.5,79.5 Z"/></g>
<g><path style="opacity:1" fill="#27a0c8" d="M 46.5,111.5 C 41.8543,121.117 37.521,130.784 33.5,140.5C 33.3367,138.143 33.5034,135.81 34,133.5C 35.5469,128.973 37.3802,124.64 39.5,120.5C 41.8624,118.081 42.8624,115.081 42.5,111.5C 43.8333,111.5 45.1667,111.5 46.5,111.5 Z"/></g>
<g><path style="opacity:1" fill="#05a0e3" d="M 39.5,120.5 C 37.3802,124.64 35.5469,128.973 34,133.5C 33.5034,135.81 33.3367,138.143 33.5,140.5C 32.034,144.699 31.034,149.033 30.5,153.5C 28.7951,150.713 27.6284,151.046 27,154.5C 26.5006,159.823 26.334,165.156 26.5,170.5C 26.5,172.167 26.5,173.833 26.5,175.5C 24.8507,171.793 23.3507,167.793 22,163.5C 21.6667,159.167 21.3333,154.833 21,150.5C 20.3109,149.643 19.4776,148.977 18.5,148.5C 17.5041,154.463 17.1707,160.463 17.5,166.5C 18.5,166.5 19.5,166.5 20.5,166.5C 20.5,169.5 20.5,172.5 20.5,175.5C 19.8333,175.5 19.1667,175.5 18.5,175.5C 17.6805,178.305 17.1805,181.305 17,184.5C 16.6667,183.833 16.3333,183.167 16,182.5C 15.8315,174.812 15.3315,167.145 14.5,159.5C 13.4156,167.842 12.4156,176.175 11.5,184.5C 9.85613,184.714 8.35613,184.38 7,183.5C 6.36211,180.399 5.19545,177.732 3.5,175.5C 3.33398,170.156 3.50065,164.823 4,159.5C 4.55659,155.825 5.88992,152.492 8,149.5C 8.66667,145.5 9.33333,141.5 10,137.5C 10.6667,136.167 11.6667,135.167 13,134.5C 13.1773,130.644 13.6773,126.977 14.5,123.5C 15.4345,124.568 15.7678,125.901 15.5,127.5C 19.5,127.5 23.5,127.5 27.5,127.5C 27.67,126.178 27.3366,125.011 26.5,124C 24.0995,123.814 21.7662,123.314 19.5,122.5C 21.359,118.178 23.359,114.011 25.5,110C 23.9972,108.079 23.3305,105.912 23.5,103.5C 24.5,103.5 25.5,103.5 26.5,103.5C 27.7257,106.003 28.7257,108.669 29.5,111.5C 29.2048,115.11 28.5381,118.61 27.5,122C 28.5634,123.188 29.8967,123.688 31.5,123.5C 31.3367,125.857 31.5034,128.19 32,130.5C 33.7343,123.696 36.5676,117.363 40.5,111.5C 40.8333,112.167 41.1667,112.833 41.5,113.5C 40.8266,115.851 40.1599,118.184 39.5,120.5 Z"/></g>
<g><path style="opacity:1" fill="#0ba1e0" d="M 361.5,95.5 C 362.885,96.5736 364.051,97.9069 365,99.5C 374.97,118.438 381.804,138.438 385.5,159.5C 385.766,172.06 386.766,184.56 388.5,197C 387.446,204.156 386.446,211.323 385.5,218.5C 385.507,220.369 385.84,222.036 386.5,223.5C 381.689,256.761 369.022,286.428 348.5,312.5C 345.174,311.18 341.84,309.847 338.5,308.5C 338.5,310.833 338.5,313.167 338.5,315.5C 337.5,315.5 336.5,315.5 335.5,315.5C 335.215,311.975 335.881,308.642 337.5,305.5C 336.453,303.944 335.786,302.277 335.5,300.5C 334.5,300.5 333.5,300.5 332.5,300.5C 332.03,305.537 331.363,310.537 330.5,315.5C 328.421,316.761 326.254,317.761 324,318.5C 321.941,317.382 319.774,316.715 317.5,316.5C 317.261,314.533 317.594,312.699 318.5,311C 322.104,312.14 325.27,311.307 328,308.5C 328.182,305.774 328.682,303.107 329.5,300.5C 333.897,297.368 335.897,293.035 335.5,287.5C 339.837,286.661 342.337,283.994 343,279.5C 344.674,278.324 346.174,276.99 347.5,275.5C 347.833,276.333 348.167,277.167 348.5,278C 346.253,280.432 344.586,283.265 343.5,286.5C 344.689,287.429 346.022,287.762 347.5,287.5C 347.585,285.071 348.585,283.071 350.5,281.5C 351.715,284.809 352.715,288.142 353.5,291.5C 356.95,292.244 358.616,290.91 358.5,287.5C 357.167,287.5 355.833,287.5 354.5,287.5C 354.211,283.894 354.544,280.394 355.5,277C 354.675,275.312 353.675,275.145 352.5,276.5C 350.679,275.272 349.679,273.606 349.5,271.5C 348.5,271.5 347.5,271.5 346.5,271.5C 346.5,270.167 346.5,268.833 346.5,267.5C 349.792,257.945 353.459,248.611 357.5,239.5C 359.129,236.105 360.629,232.438 362,228.5C 362.5,221.508 362.666,214.508 362.5,207.5C 362.832,194.129 362.332,180.796 361,167.5C 358.759,155.198 355.592,143.198 351.5,131.5C 350.125,125.749 348.458,120.083 346.5,114.5C 347.833,114.5 349.167,114.5 350.5,114.5C 350.5,113.5 350.5,112.5 350.5,111.5C 351.5,111.5 352.5,111.5 353.5,111.5C 356.06,107.23 357.727,102.563 358.5,97.5C 358.081,96.3279 357.415,95.3279 356.5,94.5C 358.467,93.3162 360.134,93.6495 361.5,95.5 Z"/></g>
<g><path style="opacity:1" fill="#219fc8" d="M 30.5,153.5 C 29.1516,159.258 27.8183,164.924 26.5,170.5C 26.334,165.156 26.5006,159.823 27,154.5C 27.6284,151.046 28.7951,150.713 30.5,153.5 Z"/></g>
<g><path style="opacity:1" fill="#201d1f" d="M 74.5,155.5 C 74.5,176.167 74.5,196.833 74.5,217.5C 87.1667,217.5 99.8333,217.5 112.5,217.5C 112.5,221.5 112.5,225.5 112.5,229.5C 94.8333,229.5 77.1667,229.5 59.5,229.5C 59.5,204.833 59.5,180.167 59.5,155.5C 64.5,155.5 69.5,155.5 74.5,155.5 Z"/></g>
<g><path style="opacity:1" fill="#221f20" d="M 307.5,201.5 C 302.167,201.5 296.833,201.5 291.5,201.5C 291.5,211.167 291.5,220.833 291.5,230.5C 286.5,230.5 281.5,230.5 276.5,230.5C 276.5,205.167 276.5,179.833 276.5,154.5C 289.837,154.333 303.171,154.5 316.5,155C 331.393,159.267 337.226,169.1 334,184.5C 329.393,196.563 320.559,202.23 307.5,201.5 Z"/></g>
<g><path style="opacity:1" fill="#807e81" d="M 74.5,155.5 C 69.5,155.5 64.5,155.5 59.5,155.5C 59.5,180.167 59.5,204.833 59.5,229.5C 77.1667,229.5 94.8333,229.5 112.5,229.5C 94.6744,230.497 76.6744,230.83 58.5,230.5C 58.5,205.167 58.5,179.833 58.5,154.5C 64.0262,154.179 69.3595,154.512 74.5,155.5 Z"/></g>
<g><path style="opacity:1" fill="#221f20" d="M 123.5,154.5 C 136.171,154.333 148.838,154.5 161.5,155C 172.615,156.782 180.115,162.949 184,173.5C 188.341,189.065 187.007,204.065 180,218.5C 174.712,225.061 167.878,228.895 159.5,230C 147.505,230.5 135.505,230.667 123.5,230.5C 123.5,205.167 123.5,179.833 123.5,154.5 Z"/></g>
<g><path style="opacity:1" fill="#c2c1c2" d="M 139.5,167.5 C 139.5,183.833 139.5,200.167 139.5,216.5C 145.167,216.5 150.833,216.5 156.5,216.5C 150.69,217.49 144.69,217.823 138.5,217.5C 138.17,200.658 138.503,183.992 139.5,167.5 Z"/></g>
<g><path style="opacity:1" fill="#e9eaea" d="M 291.5,167.5 C 298.175,167.334 304.842,167.5 311.5,168C 318.482,171.213 320.315,176.38 317,183.5C 315.457,185.378 313.624,186.878 311.5,188C 304.842,188.5 298.175,188.666 291.5,188.5C 291.5,181.5 291.5,174.5 291.5,167.5 Z"/></g>
<g><path style="opacity:1" fill="#ebeced" d="M 139.5,167.5 C 146.175,167.334 152.842,167.5 159.5,168C 163.612,169.779 166.778,172.612 169,176.5C 170.587,186.092 170.92,195.758 170,205.5C 168.232,212.622 163.732,216.289 156.5,216.5C 150.833,216.5 145.167,216.5 139.5,216.5C 139.5,200.167 139.5,183.833 139.5,167.5 Z"/></g>
<g><path style="opacity:1" fill="#2ba6d2" d="M 15.5,117.5 C 15.6747,119.621 15.3414,121.621 14.5,123.5C 13.6773,126.977 13.1773,130.644 13,134.5C 11.6667,135.167 10.6667,136.167 10,137.5C 9.33333,141.5 8.66667,145.5 8,149.5C 5.88992,152.492 4.55659,155.825 4,159.5C 3.50065,164.823 3.33398,170.156 3.5,175.5C 3.66212,177.527 3.49546,179.527 3,181.5C 2.18405,182.823 1.01739,183.489 -0.5,183.5C -0.5,180.833 -0.5,178.167 -0.5,175.5C 1.42084,163.186 3.92084,150.853 7,138.5C 9.32763,131.194 12.161,124.194 15.5,117.5 Z"/></g>
<g><path style="opacity:1" fill="#221e20" d="M 267.5,228.5 C 262.36,229.488 257.026,229.821 251.5,229.5C 249.499,224.495 247.499,219.495 245.5,214.5C 240.712,213.172 235.546,212.505 230,212.5C 224.656,212.501 219.489,212.834 214.5,213.5C 212.5,218.833 210.5,224.167 208.5,229.5C 203.056,230.108 198.056,229.442 193.5,227.5C 202.376,203.411 211.542,179.411 221,155.5C 226.779,154.193 232.612,154.193 238.5,155.5C 248.369,179.778 258.036,204.111 267.5,228.5 Z"/></g>
<g><path style="opacity:1" fill="#e7e8e8" d="M 239.5,199.5 C 232.745,200.123 226.412,199.456 220.5,197.5C 223.213,189.071 226.213,180.738 229.5,172.5C 233.628,181.217 236.961,190.217 239.5,199.5 Z"/></g>
<g><path style="opacity:1" fill="#9e9d9d" d="M 220.5,197.5 C 226.412,199.456 232.745,200.123 239.5,199.5C 233.021,200.491 226.354,200.824 219.5,200.5C 219.263,199.209 219.596,198.209 220.5,197.5 Z"/></g>
<g><path style="opacity:1" fill="#c1c1c2" d="M 307.5,201.5 C 302.695,202.487 297.695,202.821 292.5,202.5C 292.827,212.015 292.494,221.348 291.5,230.5C 291.5,220.833 291.5,211.167 291.5,201.5C 296.833,201.5 302.167,201.5 307.5,201.5 Z"/></g>
<g><path style="opacity:1" fill="#929192" d="M 214.5,213.5 C 219.489,212.834 224.656,212.501 230,212.5C 235.546,212.505 240.712,213.172 245.5,214.5C 235.249,213.525 224.915,213.192 214.5,213.5 Z"/></g>
<g><path style="opacity:1" fill="#3eaed3" d="M 385.5,159.5 C 386.714,165.87 388.047,172.203 389.5,178.5C 389.5,188.167 389.5,197.833 389.5,207.5C 388.5,212.833 387.5,218.167 386.5,223.5C 385.84,222.036 385.507,220.369 385.5,218.5C 386.446,211.323 387.446,204.156 388.5,197C 386.766,184.56 385.766,172.06 385.5,159.5 Z"/></g>
<g><path style="opacity:1" fill="#11a3d9" d="M 26.5,175.5 C 25.106,191.53 25.4393,207.53 27.5,223.5C 26.7761,220.917 25.9428,218.251 25,215.5C 24.5003,223.493 24.3336,231.493 24.5,239.5C 23.1667,239.5 21.8333,239.5 20.5,239.5C 21.7379,231.501 21.7379,223.501 20.5,215.5C 21.5018,202.156 22.5018,188.823 23.5,175.5C 22.5,175.5 21.5,175.5 20.5,175.5C 20.5,172.5 20.5,169.5 20.5,166.5C 19.5,166.5 18.5,166.5 17.5,166.5C 17.1707,160.463 17.5041,154.463 18.5,148.5C 19.4776,148.977 20.3109,149.643 21,150.5C 21.3333,154.833 21.6667,159.167 22,163.5C 23.3507,167.793 24.8507,171.793 26.5,175.5 Z"/></g>
<g><path style="opacity:1" fill="#636162" d="M 193.5,227.5 C 198.056,229.442 203.056,230.108 208.5,229.5C 203.36,230.488 198.026,230.821 192.5,230.5C 192.263,229.209 192.596,228.209 193.5,227.5 Z"/></g>
<g><path style="opacity:1" fill="#69686a" d="M 267.5,228.5 C 268.043,228.56 268.376,228.893 268.5,229.5C 262.68,230.816 257.013,230.816 251.5,229.5C 257.026,229.821 262.36,229.488 267.5,228.5 Z"/></g>
<g><path style="opacity:1" fill="#3aa5c8" d="M 362.5,207.5 C 362.666,214.508 362.5,221.508 362,228.5C 360.629,232.438 359.129,236.105 357.5,239.5C 359.178,228.708 360.845,218.041 362.5,207.5 Z"/></g>
<g><path style="opacity:1" fill="#0da1e1" d="M 18.5,175.5 C 17.8333,186.167 17.1667,196.833 16.5,207.5C 15.5,207.5 14.5,207.5 13.5,207.5C 12.9197,216.331 13.7531,224.998 16,233.5C 16.3333,233.167 16.6667,232.833 17,232.5C 18.4155,213.511 19.5822,194.511 20.5,175.5C 21.5,175.5 22.5,175.5 23.5,175.5C 22.5018,188.823 21.5018,202.156 20.5,215.5C 21.7379,223.501 21.7379,231.501 20.5,239.5C 21.8333,239.5 23.1667,239.5 24.5,239.5C 24.3336,231.493 24.5003,223.493 25,215.5C 25.9428,218.251 26.7761,220.917 27.5,223.5C 32.2581,246.359 40.9248,267.693 53.5,287.5C 54.125,295.447 58.125,300.781 65.5,303.5C 70.5135,308.846 75.5135,314.179 80.5,319.5C 84.5185,322.524 88.5185,325.524 92.5,328.5C 92.5394,329.583 92.8728,330.583 93.5,331.5C 96.8224,333.323 99.4891,335.823 101.5,339C 105.46,340.643 109.46,342.31 113.5,344C 111.963,345.11 111.297,346.61 111.5,348.5C 106.36,346.266 101.027,344.599 95.5,343.5C 95.5,345.167 95.5,346.833 95.5,348.5C 99.2194,348.002 102.553,348.836 105.5,351C 102.206,354.773 98.5394,355.273 94.5,352.5C 92.0476,354.393 89.3809,355.726 86.5,356.5C 34.5665,320.492 5.56646,270.825 -0.5,207.5C -0.5,199.5 -0.5,191.5 -0.5,183.5C 1.01739,183.489 2.18405,182.823 3,181.5C 3.49546,179.527 3.66212,177.527 3.5,175.5C 5.19545,177.732 6.36211,180.399 7,183.5C 8.35613,184.38 9.85613,184.714 11.5,184.5C 12.4156,176.175 13.4156,167.842 14.5,159.5C 15.3315,167.145 15.8315,174.812 16,182.5C 16.3333,183.167 16.6667,183.833 17,184.5C 17.1805,181.305 17.6805,178.305 18.5,175.5 Z"/></g>
<g><path style="opacity:1" fill="#03a4d8" d="M 18.5,175.5 C 19.1667,175.5 19.8333,175.5 20.5,175.5C 19.5822,194.511 18.4155,213.511 17,232.5C 16.6667,232.833 16.3333,233.167 16,233.5C 13.7531,224.998 12.9197,216.331 13.5,207.5C 14.5,207.5 15.5,207.5 16.5,207.5C 17.1667,196.833 17.8333,186.167 18.5,175.5 Z"/></g>
<g><path style="opacity:1" fill="#fcfefd" d="M 389.5,207.5 C 389.5,268.167 389.5,328.833 389.5,389.5C 328.833,389.5 268.167,389.5 207.5,389.5C 217.62,388.256 227.62,386.256 237.5,383.5C 238.167,383.5 238.833,383.5 239.5,383.5C 250.646,380.912 261.313,377.245 271.5,372.5C 284.365,367.401 296.365,360.734 307.5,352.5C 312.35,350.09 316.35,346.757 319.5,342.5C 322.764,340.906 325.431,338.573 327.5,335.5C 335.601,328.738 342.601,321.071 348.5,312.5C 369.022,286.428 381.689,256.761 386.5,223.5C 387.5,218.167 388.5,212.833 389.5,207.5 Z"/></g>
<g><path style="opacity:1" fill="#fcfefe" d="M -0.5,207.5 C 5.56646,270.825 34.5665,320.492 86.5,356.5C 98.9632,365.565 112.63,372.231 127.5,376.5C 134.794,380.816 142.794,383.149 151.5,383.5C 159.634,385.501 167.634,387.501 175.5,389.5C 116.833,389.5 58.1667,389.5 -0.5,389.5C -0.5,328.833 -0.5,268.167 -0.5,207.5 Z"/></g>
<g><path style="opacity:1" fill="#0ea3d8" d="M 346.5,267.5 C 346.5,268.833 346.5,270.167 346.5,271.5C 347.5,271.5 348.5,271.5 349.5,271.5C 349.679,273.606 350.679,275.272 352.5,276.5C 353.675,275.145 354.675,275.312 355.5,277C 354.544,280.394 354.211,283.894 354.5,287.5C 355.833,287.5 357.167,287.5 358.5,287.5C 358.616,290.91 356.95,292.244 353.5,291.5C 352.715,288.142 351.715,284.809 350.5,281.5C 348.585,283.071 347.585,285.071 347.5,287.5C 346.022,287.762 344.689,287.429 343.5,286.5C 344.586,283.265 346.253,280.432 348.5,278C 348.167,277.167 347.833,276.333 347.5,275.5C 346.174,276.99 344.674,278.324 343,279.5C 342.337,283.994 339.837,286.661 335.5,287.5C 335.351,286.448 335.517,285.448 336,284.5C 340.027,279.104 343.527,273.438 346.5,267.5 Z"/></g>
<g><path style="opacity:1" fill="#35a4ca" d="M 53.5,287.5 C 57.4974,292.825 61.4974,298.158 65.5,303.5C 58.125,300.781 54.125,295.447 53.5,287.5 Z"/></g>
<g><path style="opacity:1" fill="#16a2db" d="M 335.5,287.5 C 335.897,293.035 333.897,297.368 329.5,300.5C 328.682,303.107 328.182,305.774 328,308.5C 325.27,311.307 322.104,312.14 318.5,311C 317.594,312.699 317.261,314.533 317.5,316.5C 319.774,316.715 321.941,317.382 324,318.5C 326.254,317.761 328.421,316.761 330.5,315.5C 331.363,310.537 332.03,305.537 332.5,300.5C 333.5,300.5 334.5,300.5 335.5,300.5C 335.786,302.277 336.453,303.944 337.5,305.5C 335.881,308.642 335.215,311.975 335.5,315.5C 336.5,315.5 337.5,315.5 338.5,315.5C 338.5,313.167 338.5,310.833 338.5,308.5C 341.84,309.847 345.174,311.18 348.5,312.5C 342.601,321.071 335.601,328.738 327.5,335.5C 326.167,335.5 324.833,335.5 323.5,335.5C 323.833,338.5 322.5,339.833 319.5,339.5C 319.5,340.5 319.5,341.5 319.5,342.5C 316.35,346.757 312.35,350.09 307.5,352.5C 307.5,351.167 307.5,349.833 307.5,348.5C 312,348.836 313.833,346.836 313,342.5C 309.181,342.184 306.681,340.184 305.5,336.5C 303.955,335.548 302.288,335.215 300.5,335.5C 300.5,334.5 300.5,333.5 300.5,332.5C 305.537,332.587 310.537,332.254 315.5,331.5C 315.54,326.807 315.873,322.141 316.5,317.5C 314.833,317.5 313.167,317.5 311.5,317.5C 311.366,324.735 307.699,328.735 300.5,329.5C 297.508,330.887 294.675,332.554 292,334.5C 291.329,333.748 290.496,333.414 289.5,333.5C 307.167,320.5 322.5,305.167 335.5,287.5 Z"/></g>
<g><path style="opacity:1" fill="#2ba3bf" d="M 327.5,335.5 C 325.431,338.573 322.764,340.906 319.5,342.5C 319.5,341.5 319.5,340.5 319.5,339.5C 322.5,339.833 323.833,338.5 323.5,335.5C 324.833,335.5 326.167,335.5 327.5,335.5 Z"/></g>
<g><path style="opacity:1" fill="#1aa1d9" d="M 92.5,328.5 C 104.765,337.471 117.765,345.137 131.5,351.5C 126.555,350.283 121.721,348.617 117,346.5C 113.91,348.451 111.41,350.951 109.5,354C 111.344,356.804 112.011,359.97 111.5,363.5C 109.833,363.5 108.167,363.5 106.5,363.5C 106.5,364.833 106.5,366.167 106.5,367.5C 111.48,367.412 116.147,368.578 120.5,371C 122.675,373.241 125.009,375.074 127.5,376.5C 112.63,372.231 98.9632,365.565 86.5,356.5C 89.3809,355.726 92.0476,354.393 94.5,352.5C 98.5394,355.273 102.206,354.773 105.5,351C 102.553,348.836 99.2194,348.002 95.5,348.5C 95.5,346.833 95.5,345.167 95.5,343.5C 101.027,344.599 106.36,346.266 111.5,348.5C 111.297,346.61 111.963,345.11 113.5,344C 109.46,342.31 105.46,340.643 101.5,339C 99.4891,335.823 96.8224,333.323 93.5,331.5C 92.8728,330.583 92.5394,329.583 92.5,328.5 Z"/></g>
<g><path style="opacity:1" fill="#0ba5da" d="M 283.5,337.5 C 282.886,339.283 281.72,340.616 280,341.5C 279.517,342.448 279.351,343.448 279.5,344.5C 276.05,343.756 274.384,345.09 274.5,348.5C 278.678,347.416 282.678,345.749 286.5,343.5C 287.429,344.689 287.762,346.022 287.5,347.5C 285.071,347.585 283.071,348.585 281.5,350.5C 284.111,351.38 286.778,352.046 289.5,352.5C 291.801,351.604 294.134,351.438 296.5,352C 292.541,351.791 290.874,353.625 291.5,357.5C 290.167,357.5 288.833,357.5 287.5,357.5C 287.5,356.5 287.5,355.5 287.5,354.5C 283.894,354.211 280.394,354.544 277,355.5C 275.312,354.675 275.145,353.675 276.5,352.5C 273.02,351.943 271.353,349.943 271.5,346.5C 270.167,346.5 268.833,346.5 267.5,346.5C 272.788,343.507 278.122,340.507 283.5,337.5 Z"/></g>
<g><path style="opacity:1" fill="#09a1e1" d="M 307.5,352.5 C 296.365,360.734 284.365,367.401 271.5,372.5C 265.674,371.893 260.34,370.227 255.5,367.5C 255.649,368.552 255.483,369.552 255,370.5C 249.928,369.529 244.762,369.195 239.5,369.5C 239.5,371.167 239.5,372.833 239.5,374.5C 245.518,374.013 251.518,373.347 257.5,372.5C 260.185,372.708 260.851,373.875 259.5,376C 252.625,376.998 245.959,378.498 239.5,380.5C 239.5,381.5 239.5,382.5 239.5,383.5C 238.833,383.5 238.167,383.5 237.5,383.5C 224.865,384.783 212.199,385.783 199.5,386.5C 194.575,385.546 189.909,385.879 185.5,387.5C 174.179,385.986 162.846,384.653 151.5,383.5C 151.082,382.778 150.416,382.278 149.5,382C 151.797,380.84 151.464,379.84 148.5,379C 145.978,378.501 143.478,378.668 141,379.5C 139.338,379.612 138.171,378.946 137.5,377.5C 134.232,376.513 130.898,376.18 127.5,376.5C 125.009,375.074 122.675,373.241 120.5,371C 116.147,368.578 111.48,367.412 106.5,367.5C 106.5,366.167 106.5,364.833 106.5,363.5C 108.167,363.5 109.833,363.5 111.5,363.5C 112.011,359.97 111.344,356.804 109.5,354C 111.41,350.951 113.91,348.451 117,346.5C 121.721,348.617 126.555,350.283 131.5,351.5C 137.297,352.821 142.963,354.654 148.5,357C 175.96,363.431 203.627,364.264 231.5,359.5C 235.555,359.176 239.555,359.509 243.5,360.5C 241.069,361.36 239.736,363.027 239.5,365.5C 244.763,364.93 250.096,363.597 255.5,361.5C 245.338,358.109 245.338,356.109 255.5,355.5C 255.5,354.167 255.5,352.833 255.5,351.5C 259.063,348.976 263.063,347.309 267.5,346.5C 268.833,346.5 270.167,346.5 271.5,346.5C 271.353,349.943 273.02,351.943 276.5,352.5C 275.145,353.675 275.312,354.675 277,355.5C 280.394,354.544 283.894,354.211 287.5,354.5C 287.5,355.5 287.5,356.5 287.5,357.5C 288.833,357.5 290.167,357.5 291.5,357.5C 290.874,353.625 292.541,351.791 296.5,352C 294.134,351.438 291.801,351.604 289.5,352.5C 286.778,352.046 284.111,351.38 281.5,350.5C 283.071,348.585 285.071,347.585 287.5,347.5C 287.762,346.022 287.429,344.689 286.5,343.5C 282.678,345.749 278.678,347.416 274.5,348.5C 274.384,345.09 276.05,343.756 279.5,344.5C 279.351,343.448 279.517,342.448 280,341.5C 281.72,340.616 282.886,339.283 283.5,337.5C 285.185,335.877 287.185,334.544 289.5,333.5C 290.496,333.414 291.329,333.748 292,334.5C 294.675,332.554 297.508,330.887 300.5,329.5C 307.699,328.735 311.366,324.735 311.5,317.5C 313.167,317.5 314.833,317.5 316.5,317.5C 315.873,322.141 315.54,326.807 315.5,331.5C 310.537,332.254 305.537,332.587 300.5,332.5C 300.5,333.5 300.5,334.5 300.5,335.5C 302.288,335.215 303.955,335.548 305.5,336.5C 306.681,340.184 309.181,342.184 313,342.5C 313.833,346.836 312,348.836 307.5,348.5C 307.5,349.833 307.5,351.167 307.5,352.5 Z"/></g>
<g><path style="opacity:1" fill="#1ba4d5" d="M 255.5,351.5 C 255.5,352.833 255.5,354.167 255.5,355.5C 245.338,356.109 245.338,358.109 255.5,361.5C 250.096,363.597 244.763,364.93 239.5,365.5C 239.736,363.027 241.069,361.36 243.5,360.5C 239.555,359.509 235.555,359.176 231.5,359.5C 239.319,356.671 247.319,354.005 255.5,351.5 Z"/></g>
<g><path style="opacity:1" fill="#e5f2df" d="M 167.5,356.5 C 175.5,356.5 183.5,356.5 191.5,356.5C 191.5,357.5 191.5,358.5 191.5,359.5C 183.826,359.666 176.159,359.5 168.5,359C 167.748,358.329 167.414,357.496 167.5,356.5 Z"/></g>
<g><path style="opacity:1" fill="#16a2d6" d="M 271.5,372.5 C 261.313,377.245 250.646,380.912 239.5,383.5C 239.5,382.5 239.5,381.5 239.5,380.5C 245.959,378.498 252.625,376.998 259.5,376C 260.851,373.875 260.185,372.708 257.5,372.5C 251.518,373.347 245.518,374.013 239.5,374.5C 239.5,372.833 239.5,371.167 239.5,369.5C 244.762,369.195 249.928,369.529 255,370.5C 255.483,369.552 255.649,368.552 255.5,367.5C 260.34,370.227 265.674,371.893 271.5,372.5 Z"/></g>
<g><path style="opacity:1" fill="#2da6d4" d="M 127.5,376.5 C 130.898,376.18 134.232,376.513 137.5,377.5C 138.171,378.946 139.338,379.612 141,379.5C 143.478,378.668 145.978,378.501 148.5,379C 151.464,379.84 151.797,380.84 149.5,382C 150.416,382.278 151.082,382.778 151.5,383.5C 142.794,383.149 134.794,380.816 127.5,376.5 Z"/></g>
<g><path style="opacity:1" fill="#2ea8d5" d="M 151.5,383.5 C 162.846,384.653 174.179,385.986 185.5,387.5C 189.909,385.879 194.575,385.546 199.5,386.5C 212.199,385.783 224.865,384.783 237.5,383.5C 227.62,386.256 217.62,388.256 207.5,389.5C 196.833,389.5 186.167,389.5 175.5,389.5C 167.634,387.501 159.634,385.501 151.5,383.5 Z"/></g>
</svg>
