<?xml version="1.0" encoding="UTF-8"?>
<!DOCTYPE svg PUBLIC "-//W3C//DTD SVG 1.1//EN" "http://www.w3.org/Graphics/SVG/1.1/DTD/svg11.dtd">
<svg xmlns="http://www.w3.org/2000/svg" version="1.1" width="280px" height="280px" style="shape-rendering:geometricPrecision; text-rendering:geometricPrecision; image-rendering:optimizeQuality; fill-rule:evenodd; clip-rule:evenodd" xmlns:xlink="http://www.w3.org/1999/xlink">
<g><path style="opacity:1" fill="#fefefe" d="M -0.5,-0.5 C 92.8333,-0.5 186.167,-0.5 279.5,-0.5C 279.5,92.8333 279.5,186.167 279.5,279.5C 186.167,279.5 92.8333,279.5 -0.5,279.5C -0.5,186.167 -0.5,92.8333 -0.5,-0.5 Z"/></g>
<g><path style="opacity:1" fill="#3093df" d="M 179.5,38.5 C 179.973,39.9063 180.973,40.573 182.5,40.5C 202.384,52.2884 214.218,69.6217 218,92.5C 218.862,108.113 215.528,122.78 208,136.5C 204.141,149.847 206.474,161.847 215,172.5C 222.657,178.327 229.824,184.66 236.5,191.5C 237.265,194.096 237.599,196.763 237.5,199.5C 232.196,201.17 227.196,200.503 222.5,197.5C 221.235,196.521 219.901,195.521 218.5,194.5C 217.605,196.345 218.272,197.678 220.5,198.5C 224.315,202.647 227.315,207.314 229.5,212.5C 231.292,215.546 232.292,218.879 232.5,222.5C 232.5,224.5 231.5,225.5 229.5,225.5C 224.449,225.958 219.783,224.958 215.5,222.5C 213.745,221.928 212.078,221.094 210.5,220C 203.256,212.263 196.256,204.43 189.5,196.5C 189.047,195.542 188.381,194.708 187.5,194C 184.961,193.204 182.628,193.371 180.5,194.5C 179.928,196.255 179.094,197.922 178,199.5C 177.974,211.588 177.141,223.588 175.5,235.5C 174.094,235.973 173.427,236.973 173.5,238.5C 169.619,246.972 163.952,248.472 156.5,243C 154.307,240.796 152.474,238.296 151,235.5C 148.375,228.001 146.542,220.334 145.5,212.5C 145.59,209.848 144.924,207.515 143.5,205.5C 143.741,203.102 143.074,201.102 141.5,199.5C 139.729,193.808 136.062,192.141 130.5,194.5C 129.143,196.186 127.81,197.852 126.5,199.5C 124.167,199.833 122.833,201.167 122.5,203.5C 115.047,217.286 105.38,229.286 93.5,239.5C 90.5701,240.299 87.5701,240.632 84.5,240.5C 82.7376,239.738 81.7376,238.404 81.5,236.5C 79.973,227.746 80.3063,219.079 82.5,210.5C 82.5,210.167 82.5,209.833 82.5,209.5C 84.1042,208.713 84.7709,207.38 84.5,205.5C 84.5,205.167 84.5,204.833 84.5,204.5C 85.9784,202.355 87.3118,200.021 88.5,197.5C 88.1667,197.167 87.8333,196.833 87.5,196.5C 85.2894,197.66 83.2894,198.993 81.5,200.5C 77.5266,202.487 73.5266,204.487 69.5,206.5C 66.0534,207.083 63.0534,208.416 60.5,210.5C 58.139,210.674 55.8056,211.007 53.5,211.5C 47.7383,211.851 42.0716,211.351 36.5,210C 34.1656,208.158 33.8323,205.991 35.5,203.5C 40.0305,198.489 45.3638,194.322 51.5,191C 62.2848,183.928 70.1182,174.428 75,162.5C 76.4178,157.572 76.7511,152.572 76,147.5C 73.7511,138.8 70.7511,130.467 67,122.5C 65.7142,112.879 65.2142,103.212 65.5,93.5C 66.7682,91.0948 67.4349,88.4282 67.5,85.5C 71.1102,71.5436 78.4435,59.877 89.5,50.5C 91.7488,49.9202 93.4154,48.5869 94.5,46.5C 98.6451,42.6882 103.312,39.6882 108.5,37.5C 111.855,37.3104 114.855,36.3104 117.5,34.5C 120.842,32.6652 124.509,31.4985 128.5,31C 146.415,28.3539 163.415,30.8539 179.5,38.5 Z"/></g>
<g><path style="opacity:1" fill="#85bdeb" d="M 117.5,34.5 C 114.855,36.3104 111.855,37.3104 108.5,37.5C 111.084,35.5275 114.084,34.5275 117.5,34.5 Z"/></g>
<g><path style="opacity:1" fill="#93c4ed" d="M 179.5,38.5 C 181.027,38.427 182.027,39.0937 182.5,40.5C 180.973,40.573 179.973,39.9063 179.5,38.5 Z"/></g>
<g><path style="opacity:1" fill="#73b4e8" d="M 94.5,46.5 C 93.4154,48.5869 91.7488,49.9202 89.5,50.5C 90.5846,48.4131 92.2512,47.0798 94.5,46.5 Z"/></g>
<g><path style="opacity:1" fill="#acd2f1" d="M 67.5,85.5 C 67.4349,88.4282 66.7682,91.0948 65.5,93.5C 65.2938,90.5049 65.9605,87.8383 67.5,85.5 Z"/></g>
<g><path style="opacity:1" fill="#6eb0e7" d="M 180.5,194.5 C 182.628,193.371 184.961,193.204 187.5,194C 188.381,194.708 189.047,195.542 189.5,196.5C 186.785,194.877 183.785,194.21 180.5,194.5 Z"/></g>
<g><path style="opacity:1" fill="#77b7e9" d="M 236.5,191.5 C 238.026,192.492 238.693,193.992 238.5,196C 238.486,197.385 238.152,198.551 237.5,199.5C 237.599,196.763 237.265,194.096 236.5,191.5 Z"/></g>
<g><path style="opacity:1" fill="#bddcf4" d="M 222.5,197.5 C 221.508,197.328 220.842,197.662 220.5,198.5C 218.272,197.678 217.605,196.345 218.5,194.5C 219.901,195.521 221.235,196.521 222.5,197.5 Z"/></g>
<g><path style="opacity:1" fill="#c7e0f5" d="M 84.5,204.5 C 86.4024,200.503 85.4024,199.17 81.5,200.5C 83.2894,198.993 85.2894,197.66 87.5,196.5C 87.8333,196.833 88.1667,197.167 88.5,197.5C 87.3118,200.021 85.9784,202.355 84.5,204.5 Z"/></g>
<g><path style="opacity:1" fill="#c6dff5" d="M 126.5,199.5 C 125.674,201.264 124.341,202.598 122.5,203.5C 122.833,201.167 124.167,199.833 126.5,199.5 Z"/></g>
<g><path style="opacity:1" fill="#bbdaf3" d="M 141.5,199.5 C 143.074,201.102 143.741,203.102 143.5,205.5C 141.926,203.898 141.259,201.898 141.5,199.5 Z"/></g>
<g><path style="opacity:1" fill="#bfdcf4" d="M 69.5,206.5 C 66.9466,208.584 63.9466,209.917 60.5,210.5C 63.0534,208.416 66.0534,207.083 69.5,206.5 Z"/></g>
<g><path style="opacity:1" fill="#99c8ee" d="M 84.5,205.5 C 84.7709,207.38 84.1042,208.713 82.5,209.5C 82.6596,207.847 83.3263,206.514 84.5,205.5 Z"/></g>
<g><path style="opacity:1" fill="#88bfeb" d="M 35.5,203.5 C 33.8323,205.991 34.1656,208.158 36.5,210C 42.0716,211.351 47.7383,211.851 53.5,211.5C 47.5953,212.878 41.5953,212.712 35.5,211C 32.8598,208.379 32.8598,205.879 35.5,203.5 Z"/></g>
<g><path style="opacity:1" fill="#9dcaef" d="M 143.5,205.5 C 144.924,207.515 145.59,209.848 145.5,212.5C 144.076,210.485 143.41,208.152 143.5,205.5 Z"/></g>
<g><path style="opacity:1" fill="#84bdeb" d="M 229.5,212.5 C 232.957,215.197 233.957,218.53 232.5,222.5C 232.292,218.879 231.292,215.546 229.5,212.5 Z"/></g>
<g><path style="opacity:1" fill="#6eafe7" d="M 82.5,210.5 C 80.3063,219.079 79.973,227.746 81.5,236.5C 77.3588,227.7 77.6922,219.033 82.5,210.5 Z"/></g>
<g><path style="opacity:1" fill="#89c0ec" d="M 215.5,222.5 C 219.783,224.958 224.449,225.958 229.5,225.5C 226.696,226.638 223.696,226.805 220.5,226C 218.119,225.777 216.453,224.61 215.5,222.5 Z"/></g>
<g><path style="opacity:1" fill="#9ccaef" d="M 175.5,235.5 C 175.573,237.027 174.906,238.027 173.5,238.5C 173.427,236.973 174.094,235.973 175.5,235.5 Z"/></g>
<g><path style="opacity:1" fill="#c5dff5" d="M 93.5,239.5 C 93.3893,240.117 93.056,240.617 92.5,241C 89.633,241.801 86.9664,241.634 84.5,240.5C 87.5701,240.632 90.5701,240.299 93.5,239.5 Z"/></g>
</svg>
