<?xml version="1.0" encoding="UTF-8"?>
<!DOCTYPE svg PUBLIC "-//W3C//DTD SVG 1.1//EN" "http://www.w3.org/Graphics/SVG/1.1/DTD/svg11.dtd">
<svg xmlns="http://www.w3.org/2000/svg" version="1.1" width="200px" height="200px" style="shape-rendering:geometricPrecision; text-rendering:geometricPrecision; image-rendering:optimizeQuality; fill-rule:evenodd; clip-rule:evenodd" xmlns:xlink="http://www.w3.org/1999/xlink">
<g><path style="opacity:1" fill="#fcfcfc" d="M -0.5,-0.5 C 66.1667,-0.5 132.833,-0.5 199.5,-0.5C 199.5,66.1667 199.5,132.833 199.5,199.5C 132.833,199.5 66.1667,199.5 -0.5,199.5C -0.5,132.833 -0.5,66.1667 -0.5,-0.5 Z"/></g>
<g><path style="opacity:1" fill="#c3c5c5" d="M 109.5,11.5 C 105.358,11.9337 101.692,13.4337 98.5,16C 109.13,18.1504 109.13,18.6504 98.5,17.5C 98.1667,17.6667 97.8333,17.8333 97.5,18C 98.5,19 99.5,20 100.5,21C 98.255,20.8047 96.4216,19.6381 95,17.5C 93.5187,18.4709 92.6854,19.8042 92.5,21.5C 91.6043,20.4937 90.9377,20.4937 90.5,21.5C 89.475,21.1034 89.3083,20.4368 90,19.5C 95.5446,13.7895 102.045,11.1228 109.5,11.5 Z"/></g>
<g><path style="opacity:1" fill="#efe5e4" d="M 109.5,11.5 C 111.379,11.3932 111.712,11.8932 110.5,13C 111.327,20.1541 115.327,23.1541 122.5,22C 122.833,22.3333 123.167,22.6667 123.5,23C 118.718,23.979 119.218,24.8123 125,25.5C 128.395,22.9762 131.229,23.6429 133.5,27.5C 135.766,28.3142 138.1,28.8142 140.5,29C 139.748,29.6708 139.414,30.5041 139.5,31.5C 129.455,28.1031 119.121,26.1031 108.5,25.5C 108.389,24.8826 108.056,24.3826 107.5,24C 104.5,23.3333 101.5,23.3333 98.5,24C 99.8596,26.8076 99.1929,27.6409 96.5,26.5C 96.0472,25.5416 95.3805,24.7083 94.5,24C 95.5,23.6667 96.5,23.3333 97.5,23C 95.7525,22.6481 94.0858,22.1481 92.5,21.5C 92.6854,19.8042 93.5187,18.4709 95,17.5C 96.4216,19.6381 98.255,20.8047 100.5,21C 99.5,20 98.5,19 97.5,18C 97.8333,17.8333 98.1667,17.6667 98.5,17.5C 109.13,18.6504 109.13,18.1504 98.5,16C 101.692,13.4337 105.358,11.9337 109.5,11.5 Z"/></g>
<g><path style="opacity:1" fill="#925961" d="M 92.5,21.5 C 94.0858,22.1481 95.7525,22.6481 97.5,23C 96.5,23.3333 95.5,23.6667 94.5,24C 95.3805,24.7083 96.0472,25.5416 96.5,26.5C 93.9108,25.5806 91.9108,23.914 90.5,21.5C 90.9377,20.4937 91.6043,20.4937 92.5,21.5 Z"/></g>
<g><path style="opacity:1" fill="#aa4b4b" d="M 108.5,25.5 C 119.121,26.1031 129.455,28.1031 139.5,31.5C 147.32,34.4073 153.653,39.2406 158.5,46C 157.906,46.4643 157.239,46.631 156.5,46.5C 153.955,40.845 149.788,37.845 144,37.5C 142.933,36.8095 141.766,36.3095 140.5,36C 140.833,35.6667 141.167,35.3333 141.5,35C 139.833,34 138.167,33 136.5,32C 128.677,29.5905 120.677,28.0905 112.5,27.5C 109.925,28.7284 107.592,30.3951 105.5,32.5C 106.243,33.1818 106.909,33.8485 107.5,34.5C 109.265,35.4614 111.265,35.7947 113.5,35.5C 113.232,33.901 113.566,32.5676 114.5,31.5C 114.238,32.9778 114.571,34.3112 115.5,35.5C 117.246,33.7484 119.246,32.4151 121.5,31.5C 122.738,30.5876 124.072,30.4209 125.5,31C 122.328,32.7519 119.328,34.7519 116.5,37C 118.346,38.0298 120.013,39.1964 121.5,40.5C 120.508,40.3284 119.842,40.6618 119.5,41.5C 118.29,41.0679 117.29,40.4013 116.5,39.5C 116.938,39.5654 117.272,39.3988 117.5,39C 115.336,36.7368 113.003,36.2368 110.5,37.5C 109.833,37.5 109.167,37.5 108.5,37.5C 107.22,36.0687 105.553,35.4021 103.5,35.5C 103.768,37.099 103.434,38.4324 102.5,39.5C 102.713,36.5491 102.046,33.8825 100.5,31.5C 101.167,31.5 101.833,31.5 102.5,31.5C 106.469,30.8746 108.469,28.8746 108.5,25.5 Z"/></g>
<g><path style="opacity:1" fill="#f6e5dc" d="M 108.5,25.5 C 108.469,28.8746 106.469,30.8746 102.5,31.5C 102.131,29.5588 101.464,27.7255 100.5,26C 103.146,25.5026 105.813,25.3359 108.5,25.5 Z"/></g>
<g><path style="opacity:1" fill="#c1787f" d="M 108.5,25.5 C 105.813,25.3359 103.146,25.5026 100.5,26C 101.464,27.7255 102.131,29.5588 102.5,31.5C 101.833,31.5 101.167,31.5 100.5,31.5C 98.4131,30.4154 97.0798,28.7488 96.5,26.5C 99.1929,27.6409 99.8596,26.8076 98.5,24C 101.5,23.3333 104.5,23.3333 107.5,24C 108.056,24.3826 108.389,24.8826 108.5,25.5 Z"/></g>
<g><path style="opacity:1" fill="#faeee8" d="M 112.5,27.5 C 112.5,29.8333 112.5,32.1667 112.5,34.5C 110.833,34.5 109.167,34.5 107.5,34.5C 106.909,33.8485 106.243,33.1818 105.5,32.5C 107.592,30.3951 109.925,28.7284 112.5,27.5 Z"/></g>
<g><path style="opacity:1" fill="#f5e2df" d="M 112.5,27.5 C 120.677,28.0905 128.677,29.5905 136.5,32C 138.167,33 139.833,34 141.5,35C 141.167,35.3333 140.833,35.6667 140.5,36C 141.766,36.3095 142.933,36.8095 144,37.5C 149.788,37.845 153.955,40.845 156.5,46.5C 149.685,46.5374 143.019,47.5374 136.5,49.5C 136.167,49.3333 135.833,49.1667 135.5,49C 139.013,46.5325 141.179,43.3659 142,39.5C 139.354,42.9802 136.521,46.3135 133.5,49.5C 132.148,48.4756 130.815,47.4756 129.5,46.5C 128.524,45.1851 127.524,43.8518 126.5,42.5C 127.901,41.4793 129.235,40.4793 130.5,39.5C 133.794,39.741 136.794,38.9076 139.5,37C 135.611,37.7484 131.611,38.2484 127.5,38.5C 127.408,31.9925 126.742,31.9925 125.5,38.5C 124.395,39.6005 123.062,40.2671 121.5,40.5C 120.013,39.1964 118.346,38.0298 116.5,37C 119.328,34.7519 122.328,32.7519 125.5,31C 124.072,30.4209 122.738,30.5876 121.5,31.5C 119.815,29.1824 117.481,28.1824 114.5,28.5C 114.5,29.5 114.5,30.5 114.5,31.5C 113.566,32.5676 113.232,33.901 113.5,35.5C 111.265,35.7947 109.265,35.4614 107.5,34.5C 109.167,34.5 110.833,34.5 112.5,34.5C 112.5,32.1667 112.5,29.8333 112.5,27.5 Z"/></g>
<g><path style="opacity:1" fill="#f8efe8" d="M 121.5,31.5 C 119.246,32.4151 117.246,33.7484 115.5,35.5C 114.571,34.3112 114.238,32.9778 114.5,31.5C 114.5,30.5 114.5,29.5 114.5,28.5C 117.481,28.1824 119.815,29.1824 121.5,31.5 Z"/></g>
<g><path style="opacity:1" fill="#c2302f" d="M 110.5,37.5 C 113.003,36.2368 115.336,36.7368 117.5,39C 117.272,39.3988 116.938,39.5654 116.5,39.5C 115.5,39.5 114.5,39.5 113.5,39.5C 113.737,40.791 113.404,41.791 112.5,42.5C 112.598,40.4471 111.931,38.7804 110.5,37.5 Z"/></g>
<g><path style="opacity:1" fill="#c88986" d="M 130.5,39.5 C 129.07,39.4208 127.736,39.7542 126.5,40.5C 125.702,40.0431 125.369,39.3764 125.5,38.5C 126.742,31.9925 127.408,31.9925 127.5,38.5C 131.611,38.2484 135.611,37.7484 139.5,37C 136.794,38.9076 133.794,39.741 130.5,39.5 Z"/></g>
<g><path style="opacity:1" fill="#f8e9e3" d="M 108.5,37.5 C 109.167,37.5 109.833,37.5 110.5,37.5C 109.404,40.3856 107.404,42.3856 104.5,43.5C 103.969,40.1124 105.303,38.1124 108.5,37.5 Z"/></g>
<g><path style="opacity:1" fill="#fad4ce" d="M 116.5,39.5 C 117.29,40.4013 118.29,41.0679 119.5,41.5C 120.833,42.1667 120.833,42.8333 119.5,43.5C 117.059,44.5566 114.725,45.89 112.5,47.5C 111.948,45.9974 111.948,44.3307 112.5,42.5C 113.404,41.791 113.737,40.791 113.5,39.5C 114.5,39.5 115.5,39.5 116.5,39.5 Z"/></g>
<g><path style="opacity:1" fill="#cea69e" d="M 108.5,37.5 C 105.303,38.1124 103.969,40.1124 104.5,43.5C 103.833,44.1667 103.167,44.8333 102.5,45.5C 102.5,43.5 102.5,41.5 102.5,39.5C 103.434,38.4324 103.768,37.099 103.5,35.5C 105.553,35.4021 107.22,36.0687 108.5,37.5 Z"/></g>
<g><path style="opacity:1" fill="#be3936" d="M 125.5,38.5 C 125.369,39.3764 125.702,40.0431 126.5,40.5C 127.736,39.7542 129.07,39.4208 130.5,39.5C 129.235,40.4793 127.901,41.4793 126.5,42.5C 127.524,43.8518 128.524,45.1851 129.5,46.5C 129.5,47.1667 129.167,47.5 128.5,47.5C 127.143,46.3146 125.643,45.3146 124,44.5C 122.699,44.6387 121.866,45.3054 121.5,46.5C 120.599,45.7095 119.932,44.7095 119.5,43.5C 120.833,42.8333 120.833,42.1667 119.5,41.5C 119.842,40.6618 120.508,40.3284 121.5,40.5C 123.062,40.2671 124.395,39.6005 125.5,38.5 Z"/></g>
<g><path style="opacity:1" fill="#b15156" d="M 110.5,37.5 C 111.931,38.7804 112.598,40.4471 112.5,42.5C 111.948,44.3307 111.948,45.9974 112.5,47.5C 114.725,45.89 117.059,44.5566 119.5,43.5C 119.932,44.7095 120.599,45.7095 121.5,46.5C 119.757,49.7504 117.423,52.5838 114.5,55C 119.78,53.9712 125.114,52.8045 130.5,51.5C 132.611,50.2584 134.611,50.2584 136.5,51.5C 121.261,55.443 106.594,60.7763 92.5,67.5C 90.9731,67.427 89.9731,68.0937 89.5,69.5C 88.7611,69.631 88.0944,69.4643 87.5,69C 89.3702,66.9604 91.3702,65.1271 93.5,63.5C 94.9403,62.6371 96.2736,62.6371 97.5,63.5C 99.261,62.9649 100.594,61.9649 101.5,60.5C 103.937,60.2437 106.271,59.5771 108.5,58.5C 110.252,54.6723 109.252,53.3389 105.5,54.5C 106.354,52.965 106.354,51.6316 105.5,50.5C 104.609,49.8902 103.609,49.5569 102.5,49.5C 102.5,48.8333 102.5,48.1667 102.5,47.5C 102.5,46.8333 102.5,46.1667 102.5,45.5C 103.167,44.8333 103.833,44.1667 104.5,43.5C 107.404,42.3856 109.404,40.3856 110.5,37.5 Z"/></g>
<g><path style="opacity:1" fill="#f9ecdf" d="M 110.5,41.5 C 111.537,43.4928 111.203,45.4928 109.5,47.5C 106.984,48.9489 105.817,48.2823 106,45.5C 107.667,44.2668 109.167,42.9335 110.5,41.5 Z"/></g>
<g><path style="opacity:1" fill="#fae4dd" d="M 128.5,47.5 C 129.6,48.6049 130.267,49.9382 130.5,51.5C 125.114,52.8045 119.78,53.9712 114.5,55C 117.423,52.5838 119.757,49.7504 121.5,46.5C 121.866,45.3054 122.699,44.6387 124,44.5C 125.643,45.3146 127.143,46.3146 128.5,47.5 Z"/></g>
<g><path style="opacity:1" fill="#a05a5c" d="M 156.5,46.5 C 149.922,48.1532 143.256,49.8199 136.5,51.5C 134.611,50.2584 132.611,50.2584 130.5,51.5C 130.267,49.9382 129.6,48.6049 128.5,47.5C 129.167,47.5 129.5,47.1667 129.5,46.5C 130.815,47.4756 132.148,48.4756 133.5,49.5C 136.521,46.3135 139.354,42.9802 142,39.5C 141.179,43.3659 139.013,46.5325 135.5,49C 135.833,49.1667 136.167,49.3333 136.5,49.5C 143.019,47.5374 149.685,46.5374 156.5,46.5 Z"/></g>
<g><path style="opacity:1" fill="#fcd9ca" d="M 102.5,49.5 C 103.609,49.5569 104.609,49.8902 105.5,50.5C 101.922,56.1142 100.922,55.7809 102.5,49.5 Z"/></g>
<g><path style="opacity:1" fill="#f9e4d4" d="M 117.5,45.5 C 119.028,45.5173 119.528,46.184 119,47.5C 116.723,50.3991 114.223,53.0658 111.5,55.5C 109.876,54.1311 109.376,52.4645 110,50.5C 112.824,49.1819 115.324,47.5152 117.5,45.5 Z"/></g>
<g><path style="opacity:1" fill="#fae0d4" d="M 101.5,60.5 C 103.226,58.7721 104.559,56.7721 105.5,54.5C 109.252,53.3389 110.252,54.6723 108.5,58.5C 106.271,59.5771 103.937,60.2437 101.5,60.5 Z"/></g>
<g><path style="opacity:1" fill="#c88483" d="M 102.5,47.5 C 102.5,48.1667 102.5,48.8333 102.5,49.5C 100.922,55.7809 101.922,56.1142 105.5,50.5C 106.354,51.6316 106.354,52.965 105.5,54.5C 104.559,56.7721 103.226,58.7721 101.5,60.5C 100.594,61.9649 99.261,62.9649 97.5,63.5C 96.2736,62.6371 94.9403,62.6371 93.5,63.5C 97.3856,58.6268 100.386,53.2935 102.5,47.5 Z"/></g>
<g><path style="opacity:1" fill="#f4f7f9" d="M 105.5,83.5 C 101.744,83.7797 98.7437,82.113 96.5,78.5C 97.3569,77.5748 98.3569,76.9081 99.5,76.5C 102.55,75.7054 105.55,74.7054 108.5,73.5C 108.833,73.8333 109.167,74.1667 109.5,74.5C 107.77,77.3699 106.436,80.3699 105.5,83.5 Z"/></g>
<g><path style="opacity:1" fill="#d2d3d6" d="M 107.5,86.5 C 106.833,85.5 106.167,84.5 105.5,83.5C 106.436,80.3699 107.77,77.3699 109.5,74.5C 109.167,74.1667 108.833,73.8333 108.5,73.5C 105.55,74.7054 102.55,75.7054 99.5,76.5C 98.9094,75.8485 98.2427,75.1818 97.5,74.5C 97.6236,73.8933 97.9569,73.56 98.5,73.5C 98.56,74.0431 98.8933,74.3764 99.5,74.5C 103.114,73.1796 106.78,72.013 110.5,71C 108.126,68.961 106.126,66.6277 104.5,64C 105.167,63.3333 105.833,63.3333 106.5,64C 107.622,66.1238 109.122,67.9571 111,69.5C 111.97,66.5564 112.804,63.5564 113.5,60.5C 114.287,61.2421 114.953,62.0754 115.5,63C 112.095,69.6933 113.262,70.8599 119,66.5C 119.617,67.4491 119.451,68.2825 118.5,69C 116.913,69.8624 115.246,70.5291 113.5,71C 113.833,71.3333 114.167,71.6667 114.5,72C 113.376,72.2492 112.376,72.7492 111.5,73.5C 110.547,76.7012 109.214,79.7012 107.5,82.5C 107.833,82.8333 108.167,83.1667 108.5,83.5C 112.252,81.1151 116.252,79.6151 120.5,79C 116.072,81.5406 111.738,84.0406 107.5,86.5 Z"/></g>
<g><path style="opacity:1" fill="#b2b4b8" d="M 98.5,73.5 C 97.9569,73.56 97.6236,73.8933 97.5,74.5C 98.2427,75.1818 98.9094,75.8485 99.5,76.5C 98.3569,76.9081 97.3569,77.5748 96.5,78.5C 98.7437,82.113 101.744,83.7797 105.5,83.5C 106.167,84.5 106.833,85.5 107.5,86.5C 106.282,87.1614 104.949,87.8281 103.5,88.5C 102.029,91.136 100.363,93.636 98.5,96C 102.137,95.5099 105.804,95.1766 109.5,95C 107.196,95.8952 104.862,96.7285 102.5,97.5C 106.112,98.5468 109.779,99.3802 113.5,100C 100.388,101.111 88.7218,97.6114 78.5,89.5C 75.5441,84.4791 76.0441,79.8124 80,75.5C 80.3334,77.0468 79.8334,78.3801 78.5,79.5C 78.8333,79.8333 79.1667,80.1667 79.5,80.5C 83.9322,79.4157 88.2656,78.0824 92.5,76.5C 91.3385,74.1148 90.3385,71.7814 89.5,69.5C 89.9731,68.0937 90.9731,67.427 92.5,67.5C 92.4207,70.2706 92.9207,72.9373 94,75.5C 96.0285,72.9708 97.8619,70.3041 99.5,67.5C 100.002,66.479 100.668,66.3123 101.5,67C 100.588,69.2508 99.5877,71.4175 98.5,73.5 Z"/></g>
<g><path style="opacity:1" fill="#f2f4f6" d="M 95.5,88.5 C 97.8695,88.1489 100.203,87.9822 102.5,88C 100.5,90.6667 98.5,93.3333 96.5,96C 93.5133,95.9368 90.68,95.1035 88,93.5C 87.8333,93.1667 87.6667,92.8333 87.5,92.5C 90.3483,91.341 93.0149,90.0076 95.5,88.5 Z"/></g>
<g><path style="opacity:1" fill="#eff2f4" d="M 95.5,88.5 C 92.5569,88.6465 89.7236,89.3132 87,90.5C 86.5,90.3333 86,90.1667 85.5,90C 87.0074,89.1627 87.5074,87.9961 87,86.5C 85.1649,89.858 82.9982,90.1913 80.5,87.5C 79.9264,85.9411 79.2598,84.4411 78.5,83C 82.5821,80.8961 86.9154,79.8961 91.5,80C 90.5494,80.7175 90.3828,81.5509 91,82.5C 92,81.5 93,80.5 94,79.5C 96.3031,81.393 98.4698,83.393 100.5,85.5C 98.6404,86.3249 96.9738,87.3249 95.5,88.5 Z"/></g>
<g><path style="opacity:1" fill="#737373" d="M 17.5,98.5 C 19.6864,99.8233 21.1864,101.823 22,104.5C 23.3333,102.5 24.6667,100.5 26,98.5C 26.6667,101.5 26.6667,104.5 26,107.5C 25.6667,105.833 25.3333,104.167 25,102.5C 24.2607,104.221 23.4274,105.887 22.5,107.5C 21.3333,105.833 20.1667,104.167 19,102.5C 18.6667,104.167 18.3333,105.833 18,107.5C 17.502,104.518 17.3354,101.518 17.5,98.5 Z"/></g>
<g><path style="opacity:1" fill="#9f9f9f" d="M 28.5,101.5 C 29.7251,102.152 30.3917,103.319 30.5,105C 30.1667,106.167 29.8333,107.333 29.5,108.5C 28.5258,106.257 28.1924,103.924 28.5,101.5 Z"/></g>
<g><path style="opacity:1" fill="#8c8c8c" d="M 36.5,100.5 C 36.1788,102.048 35.1788,102.715 33.5,102.5C 33.5,103.833 33.5,105.167 33.5,106.5C 35.1788,106.285 36.1788,106.952 36.5,108.5C 31.3323,107.661 30.3323,105.161 33.5,101C 34.448,100.517 35.448,100.351 36.5,100.5 Z"/></g>
<g><path style="opacity:1" fill="#e8e8e8" d="M 69.5,106.5 C 70.0431,106.56 70.3764,106.893 70.5,107.5C 68.8035,108.364 67.6368,109.697 67,111.5C 66.5004,118.492 66.3337,125.492 66.5,132.5C 69.9141,131.753 73.2475,131.753 76.5,132.5C 76.7678,134.099 76.4345,135.432 75.5,136.5C 75.5,135.5 75.5,134.5 75.5,133.5C 72.1667,133.5 68.8333,133.5 65.5,133.5C 65.5,125.833 65.5,118.167 65.5,110.5C 64.5,110.5 63.5,110.5 62.5,110.5C 62.5,119.167 62.5,127.833 62.5,136.5C 61.7784,136.082 61.2784,135.416 61,134.5C 60,135.833 59,135.833 58,134.5C 57.6466,135.672 57.8132,136.838 58.5,138C 57.6443,139.595 56.3109,140.428 54.5,140.5C 53.8333,140.5 53.1667,140.5 52.5,140.5C 51.1882,139.855 50.1882,138.855 49.5,137.5C 57.0797,132.878 59.5797,126.211 57,117.5C 53.1949,111.063 47.6949,109.063 40.5,111.5C 39.4797,110.046 38.313,109.713 37,110.5C 36.5357,109.906 36.369,109.239 36.5,108.5C 36.1788,106.952 35.1788,106.285 33.5,106.5C 33.5,105.167 33.5,103.833 33.5,102.5C 35.1788,102.715 36.1788,102.048 36.5,100.5C 38.7365,100.417 41.0698,100.75 43.5,101.5C 43.5,101.833 43.5,102.167 43.5,102.5C 42.3871,103.946 42.2204,105.613 43,107.5C 44.9151,108.916 46.4151,108.582 47.5,106.5C 48.4345,105.432 48.7678,104.099 48.5,102.5C 49.1667,102.167 49.8333,101.833 50.5,101.5C 50.2965,103.39 50.9632,104.89 52.5,106C 50.7295,106.535 50.3961,107.369 51.5,108.5C 52.7481,107.96 53.9148,107.293 55,106.5C 56.9688,109.124 58.8022,109.124 60.5,106.5C 61.7199,104.95 61.7199,103.284 60.5,101.5C 60.0926,100.25 60.7593,99.083 62.5,98C 61.5494,97.2825 61.3828,96.4491 62,95.5C 62.7083,96.3805 63.5416,97.0472 64.5,97.5C 62.4872,100.605 62.3206,103.938 64,107.5C 64.0262,103.861 64.8595,100.528 66.5,97.5C 68.1391,95.3607 70.1391,95.0274 72.5,96.5C 72.8333,95.8333 73.1667,95.1667 73.5,94.5C 76.4646,96.627 76.1313,97.7937 72.5,98C 74.1922,99.4007 74.8588,101.234 74.5,103.5C 73.0695,103.579 71.7362,103.246 70.5,102.5C 69.5713,103.689 69.238,105.022 69.5,106.5 Z"/></g>
<g><path style="opacity:1" fill="#929292" d="M 60.5,101.5 C 61.7199,103.284 61.7199,104.95 60.5,106.5C 58.8022,109.124 56.9688,109.124 55,106.5C 53.9148,107.293 52.7481,107.96 51.5,108.5C 50.3961,107.369 50.7295,106.535 52.5,106C 50.9632,104.89 50.2965,103.39 50.5,101.5C 51.3864,100.224 52.3864,100.224 53.5,101.5C 50.8333,102.5 50.8333,103.5 53.5,104.5C 55.1659,101.49 57.4993,100.49 60.5,101.5 Z"/></g>
<g><path style="opacity:1" fill="#7c7c7c" d="M 43.5,102.5 C 43.5,103.833 43.5,105.167 43.5,106.5C 44.8333,106.5 46.1667,106.5 47.5,106.5C 46.4151,108.582 44.9151,108.916 43,107.5C 42.2204,105.613 42.3871,103.946 43.5,102.5 Z"/></g>
<g><path style="opacity:1" fill="#434343" d="M 69.5,106.5 C 69.44,107.043 69.1067,107.376 68.5,107.5C 67.3483,104.894 67.1816,102.227 68,99.5C 68.1862,102.036 68.6862,104.369 69.5,106.5 Z"/></g>
<g><path style="opacity:1" fill="#efefef" d="M 60.5,106.5 C 59.1667,106.5 57.8333,106.5 56.5,106.5C 56.5,105.167 56.5,103.833 56.5,102.5C 59.5,102.167 60.8333,103.5 60.5,106.5 Z"/></g>
<g><path style="opacity:1" fill="#efefef" d="M 43.5,102.5 C 44.8333,102.5 46.1667,102.5 47.5,102.5C 47.5,103.833 47.5,105.167 47.5,106.5C 47.5,105.167 47.5,103.833 47.5,102.5C 46.1667,102.5 44.8333,102.5 43.5,102.5 Z"/></g>
<g><path style="opacity:1" fill="#797979" d="M 64.5,97.5 C 65.1667,97.5 65.8333,97.5 66.5,97.5C 64.8595,100.528 64.0262,103.861 64,107.5C 62.3206,103.938 62.4872,100.605 64.5,97.5 Z"/></g>
<g><path style="opacity:1" fill="#7e7e7e" d="M 48.5,102.5 C 48.7678,104.099 48.4345,105.432 47.5,106.5C 47.5,105.167 47.5,103.833 47.5,102.5C 46.1667,102.5 44.8333,102.5 43.5,102.5C 43.5,102.167 43.5,101.833 43.5,101.5C 45.3379,100.322 47.0045,100.655 48.5,102.5 Z"/></g>
<g><path style="opacity:1" fill="#1b1b1b" d="M 75.5,136.5 C 71.1667,136.5 66.8333,136.5 62.5,136.5C 62.5,127.833 62.5,119.167 62.5,110.5C 63.5,110.5 64.5,110.5 65.5,110.5C 65.5,118.167 65.5,125.833 65.5,133.5C 68.8333,133.5 72.1667,133.5 75.5,133.5C 75.5,134.5 75.5,135.5 75.5,136.5 Z"/></g>
<g><path style="opacity:1" fill="#7e7e7e" d="M 28.5,113.5 C 25.7628,113.401 23.0961,113.735 20.5,114.5C 21.4919,112.974 22.9919,112.307 25,112.5C 26.3847,112.514 27.5514,112.848 28.5,113.5 Z"/></g>
<g><path style="opacity:1" fill="#565656" d="M 40.5,111.5 C 39.1667,113.5 37.5,115.167 35.5,116.5C 36.1667,113.833 37.8333,112.167 40.5,111.5 Z"/></g>
<g><path style="opacity:1" fill="#696969" d="M 19.5,111.5 C 17.9539,113.882 17.2872,116.549 17.5,119.5C 15.8161,116.282 16.4828,113.615 19.5,111.5 Z"/></g>
<g><path style="opacity:1" fill="#1b1b1b" d="M 95.5,135.5 C 91.6333,136.729 87.7999,136.729 84,135.5C 83.3123,134.668 83.479,134.002 84.5,133.5C 87.1029,134.562 89.7695,134.728 92.5,134C 95.2652,131.034 94.9318,128.367 91.5,126C 88.7982,124.988 86.4649,123.488 84.5,121.5C 81.6097,114.741 83.7764,111.075 91,110.5C 93.1454,110.396 94.9788,111.063 96.5,112.5C 93.5535,113.321 90.5535,113.821 87.5,114C 86.4238,115.726 86.2571,117.559 87,119.5C 90.5159,121.926 93.8492,124.593 97,127.5C 97.7185,130.407 97.2185,133.074 95.5,135.5 Z"/></g>
<g><path style="opacity:1" fill="#bfbfbf" d="M 172.5,118.5 C 175.287,117.523 178.287,117.19 181.5,117.5C 181.5,118.833 181.5,120.167 181.5,121.5C 179.708,121.634 178.042,121.301 176.5,120.5C 175.817,118.824 174.483,118.157 172.5,118.5 Z"/></g>
<g><path style="opacity:1" fill="#a0a0a0" d="M 171.5,119.5 C 171.44,120.043 171.107,120.376 170.5,120.5C 169.833,119.833 169.167,119.167 168.5,118.5C 167.504,124.463 167.171,130.463 167.5,136.5C 166.51,130.355 166.177,124.022 166.5,117.5C 168.554,117.365 170.221,118.032 171.5,119.5 Z"/></g>
<g><path style="opacity:1" fill="#a5a5a5" d="M 128.5,118.5 C 126.173,118.247 124.173,118.914 122.5,120.5C 121.833,119.833 121.167,119.167 120.5,118.5C 119.504,124.463 119.171,130.463 119.5,136.5C 118.51,130.355 118.177,124.022 118.5,117.5C 122.042,117.187 125.375,117.521 128.5,118.5 Z"/></g>
<g><path style="opacity:1" fill="#0c0c0c" d="M 171.5,119.5 C 171.5,118.833 171.833,118.5 172.5,118.5C 174.483,118.157 175.817,118.824 176.5,120.5C 174.278,120.178 172.444,120.845 171,122.5C 170.285,127.507 169.118,132.174 167.5,136.5C 167.171,130.463 167.504,124.463 168.5,118.5C 169.167,119.167 169.833,119.833 170.5,120.5C 171.107,120.376 171.44,120.043 171.5,119.5 Z"/></g>
<g><path style="opacity:1" fill="#6c6c6c" d="M 35.5,116.5 C 34.6561,120.099 34.3227,123.766 34.5,127.5C 33.3592,124.36 33.1925,121.027 34,117.5C 34.3826,116.944 34.8826,116.611 35.5,116.5 Z"/></g>
<g><path style="opacity:1" fill="#e4e4e4" d="M 84.5,121.5 C 86.4649,123.488 88.7982,124.988 91.5,126C 94.9318,128.367 95.2652,131.034 92.5,134C 89.7695,134.728 87.1029,134.562 84.5,133.5C 83.479,134.002 83.3123,134.668 84,135.5C 87.7999,136.729 91.6333,136.729 95.5,135.5C 95.3893,136.117 95.056,136.617 94.5,137C 90.5787,137.203 86.7454,137.703 83,138.5C 81.1153,137.687 80.4487,136.353 81,134.5C 81.3333,134.833 81.6667,135.167 82,135.5C 82.3036,133.559 83.1369,131.893 84.5,130.5C 83.7176,128.671 84.3843,127.171 86.5,126C 83.0343,124.894 82.3677,123.394 84.5,121.5 Z"/></g>
<g><path style="opacity:1" fill="#1c1c1c" d="M 115.5,127.5 C 111.167,127.5 106.833,127.5 102.5,127.5C 102.263,128.791 102.596,129.791 103.5,130.5C 103.511,132.017 104.177,133.184 105.5,134C 108.614,134.123 111.614,134.29 114.5,134.5C 104.297,138.981 99.4639,135.648 100,124.5C 102.201,118.149 106.368,116.315 112.5,119C 114.93,121.305 115.93,124.138 115.5,127.5 Z"/></g>
<g><path style="opacity:1" fill="#eaeaea" d="M 104.5,120.5 C 106.989,120.298 109.323,120.798 111.5,122C 112.337,123.011 112.67,124.178 112.5,125.5C 109.5,125.5 106.5,125.5 103.5,125.5C 103.629,123.784 103.962,122.117 104.5,120.5 Z"/></g>
<g><path style="opacity:1" fill="#6e6e6e" d="M 148.5,122.5 C 148.307,126.566 148.64,130.566 149.5,134.5C 148.883,134.389 148.383,134.056 148,133.5C 147.19,129.642 147.357,125.976 148.5,122.5 Z"/></g>
<g><path style="opacity:1" fill="#0f0f0f" d="M 128.5,118.5 C 126.424,120.074 124.424,121.908 122.5,124C 122.254,128.596 121.254,132.762 119.5,136.5C 119.171,130.463 119.504,124.463 120.5,118.5C 121.167,119.167 121.833,119.833 122.5,120.5C 124.173,118.914 126.173,118.247 128.5,118.5 Z"/></g>
<g><path style="opacity:1" fill="#141414" d="M 162.5,121.5 C 162.5,123.5 162.5,125.5 162.5,127.5C 158.5,127.5 154.5,127.5 150.5,127.5C 150.232,129.099 150.566,130.432 151.5,131.5C 151.577,132.75 152.244,133.583 153.5,134C 156.047,134.66 158.547,134.493 161,133.5C 162.257,133.85 162.591,134.517 162,135.5C 157.62,137.044 153.454,136.711 149.5,134.5C 148.64,130.566 148.307,126.566 148.5,122.5C 150.772,117.893 154.438,116.393 159.5,118C 160.71,119.039 161.71,120.206 162.5,121.5 Z"/></g>
<g><path style="opacity:1" fill="#6c6c6c" d="M 159.5,122.5 C 160.434,123.568 160.768,124.901 160.5,126.5C 157.167,126.5 153.833,126.5 150.5,126.5C 150.263,125.209 150.596,124.209 151.5,123.5C 153.635,125.369 156.302,126.036 159.5,125.5C 159.5,124.5 159.5,123.5 159.5,122.5 Z"/></g>
<g><path style="opacity:1" fill="#e9e9e9" d="M 159.5,122.5 C 159.5,123.5 159.5,124.5 159.5,125.5C 156.302,126.036 153.635,125.369 151.5,123.5C 151.685,121.11 153.018,120.11 155.5,120.5C 157.355,120.34 158.688,121.007 159.5,122.5 Z"/></g>
<g><path style="opacity:1" fill="#929292" d="M 115.5,127.5 C 111.232,127.869 107.232,128.869 103.5,130.5C 102.596,129.791 102.263,128.791 102.5,127.5C 106.833,127.5 111.167,127.5 115.5,127.5 Z"/></g>
<g><path style="opacity:1" fill="#909090" d="M 162.5,121.5 C 163.468,123.607 163.802,125.941 163.5,128.5C 159.5,128.5 155.5,128.5 151.5,128.5C 151.5,129.5 151.5,130.5 151.5,131.5C 150.566,130.432 150.232,129.099 150.5,127.5C 154.5,127.5 158.5,127.5 162.5,127.5C 162.5,125.5 162.5,123.5 162.5,121.5 Z"/></g>
<g><path style="opacity:1" fill="#181818" d="M 28.5,113.5 C 27.5514,112.848 26.3847,112.514 25,112.5C 22.9919,112.307 21.4919,112.974 20.5,114.5C 19.2121,116.035 19.2121,117.701 20.5,119.5C 24.106,121.603 27.2727,124.269 30,127.5C 31.3794,131.475 30.2127,134.309 26.5,136C 23.2397,136.784 20.0731,136.617 17,135.5C 16.4092,134.517 16.7425,133.85 18,133.5C 20.4528,134.493 22.9528,134.66 25.5,134C 27.6044,132.164 27.9377,129.998 26.5,127.5C 22.863,125.52 19.863,122.854 17.5,119.5C 17.2872,116.549 17.9539,113.882 19.5,111.5C 22.4453,110.532 25.4453,110.366 28.5,111C 29.7736,111.977 29.7736,112.811 28.5,113.5 Z"/></g>
<g><path style="opacity:1" fill="#131313" d="M 130.5,118.5 C 131.5,118.5 132.5,118.5 133.5,118.5C 136.708,135.767 140.042,135.767 143.5,118.5C 144.552,118.351 145.552,118.517 146.5,119C 144.142,124.404 141.975,129.904 140,135.5C 138.989,136.337 137.822,136.67 136.5,136.5C 134.702,130.438 132.702,124.438 130.5,118.5 Z"/></g>
<g><path style="opacity:1" fill="#181818" d="M 52.5,140.5 C 52.6107,141.117 52.944,141.617 53.5,142C 52.2068,142.49 50.8734,142.657 49.5,142.5C 49.4894,140.983 48.8228,139.816 47.5,139C 44.7259,137.219 41.7259,135.885 38.5,135C 36.505,132.843 35.1717,130.343 34.5,127.5C 34.3227,123.766 34.6561,120.099 35.5,116.5C 37.5,115.167 39.1667,113.5 40.5,111.5C 47.6949,109.063 53.1949,111.063 57,117.5C 59.5797,126.211 57.0797,132.878 49.5,137.5C 50.1882,138.855 51.1882,139.855 52.5,140.5 Z"/></g>
<g><path style="opacity:1" fill="#ececec" d="M 42.5,112.5 C 54.5296,113.165 58.1963,119.165 53.5,130.5C 46.6849,136.559 41.1849,135.559 37,127.5C 35.4127,121.082 37.246,116.082 42.5,112.5 Z"/></g>
<g><path style="opacity:1" fill="#8e8e8e" d="M 52.5,140.5 C 53.1667,140.5 53.8333,140.5 54.5,140.5C 54.5,141.5 54.5,142.5 54.5,143.5C 52.5853,143.784 50.9187,143.451 49.5,142.5C 50.8734,142.657 52.2068,142.49 53.5,142C 52.944,141.617 52.6107,141.117 52.5,140.5 Z"/></g>
<g><path style="opacity:1" fill="#191616" d="M 87.5,167.5 C 86.7347,164.904 86.4013,162.237 86.5,159.5C 86.4521,156.708 87.7854,154.875 90.5,154C 94.1667,153.333 97.8333,153.333 101.5,154C 105.276,155.605 107.276,158.438 107.5,162.5C 105.396,162.799 103.396,162.466 101.5,161.5C 97.9117,156.264 94.5784,156.264 91.5,161.5C 91.6082,162.442 91.9415,163.275 92.5,164C 96.7728,165.535 101.106,166.869 105.5,168C 109.365,172.861 109.365,177.861 105.5,183C 100.317,185.815 94.9836,186.148 89.5,184C 86.9376,181.711 85.2709,178.877 84.5,175.5C 86.396,174.534 88.396,174.201 90.5,174.5C 90.8226,178.156 92.8226,180.156 96.5,180.5C 100.242,179.918 102.409,177.918 103,174.5C 97.8144,172.088 92.6477,169.754 87.5,167.5 Z"/></g>
<g><path style="opacity:1" fill="#131112" d="M 114.5,153.5 C 116.167,153.5 117.833,153.5 119.5,153.5C 119.5,163.833 119.5,174.167 119.5,184.5C 117.833,184.5 116.167,184.5 114.5,184.5C 114.5,174.167 114.5,163.833 114.5,153.5 Z"/></g>
<g><path style="opacity:1" fill="#181516" d="M 60.5,153.5 C 64.5138,153.334 68.5138,153.501 72.5,154C 76.2759,155.605 78.2759,158.438 78.5,162.5C 76.5,162.5 74.5,162.5 72.5,162.5C 71.1802,157.571 68.1802,156.404 63.5,159C 62.9781,159.561 62.6448,160.228 62.5,161C 63.34,162.767 64.6734,164.101 66.5,165C 70.7148,165.524 74.5482,167.024 78,169.5C 81.5805,177.292 79.4138,182.458 71.5,185C 62.6015,186.728 57.2682,183.228 55.5,174.5C 59.4554,173.863 62.122,175.363 63.5,179C 68.3121,181.707 71.9788,180.707 74.5,176C 74.2409,174.739 73.5742,173.739 72.5,173C 67.5668,172.113 63.0668,170.28 59,167.5C 56.6216,162.406 57.1216,157.739 60.5,153.5 Z"/></g>
<g><path style="opacity:1" fill="#8b8b8b" d="M 86.5,159.5 C 86.4013,162.237 86.7347,164.904 87.5,167.5C 85.9735,166.508 85.3068,165.008 85.5,163C 85.5143,161.615 85.8476,160.449 86.5,159.5 Z"/></g>
<g><path style="opacity:1" fill="#1a1717" d="M 130.5,153.5 C 134.846,153.334 139.179,153.501 143.5,154C 146.321,156.141 147.654,158.975 147.5,162.5C 145.712,162.785 144.045,162.452 142.5,161.5C 139.849,158.529 136.682,157.863 133,159.5C 132.28,161.112 132.446,162.612 133.5,164C 137.489,165.331 141.489,166.665 145.5,168C 150.213,171.999 150.713,176.499 147,181.5C 141.204,186.136 135.038,186.636 128.5,183C 126.536,180.482 125.87,177.816 126.5,175C 130.504,173.895 132.504,175.395 132.5,179.5C 137.328,181.55 140.995,180.383 143.5,176C 143.167,175.167 142.833,174.333 142.5,173.5C 138.758,171.938 134.924,170.605 131,169.5C 125.188,164.31 125.021,158.976 130.5,153.5 Z"/></g>
</svg>
