<?xml version="1.0" encoding="UTF-8"?>
<!DOCTYPE svg PUBLIC "-//W3C//DTD SVG 1.1//EN" "http://www.w3.org/Graphics/SVG/1.1/DTD/svg11.dtd">
<svg xmlns="http://www.w3.org/2000/svg" version="1.1" width="2000px" height="2000px" style="shape-rendering:geometricPrecision; text-rendering:geometricPrecision; image-rendering:optimizeQuality; fill-rule:evenodd; clip-rule:evenodd" xmlns:xlink="http://www.w3.org/1999/xlink">
<g><path style="opacity:1" fill="#736df8" d="M 455.5,0.5 C 455.5,0.166667 455.5,-0.166667 455.5,-0.5C 471.167,-0.5 486.833,-0.5 502.5,-0.5C 376.285,238.268 248.785,476.268 120,713.5C 120.92,718.641 123.42,722.974 127.5,726.5C 132.667,736.174 138.334,745.508 144.5,754.5C 145.833,760.833 145.833,767.167 144.5,773.5C 129.153,740.807 113.819,708.14 98.5,675.5C 98.4598,672.575 99.2932,669.909 101,667.5C 221.106,446.295 339.939,224.295 457.5,1.5C 457.043,0.702451 456.376,0.369118 455.5,0.5 Z"/></g>
<g><path style="opacity:1" fill="#6f6ff8" d="M 502.5,-0.5 C 507.167,-0.5 511.833,-0.5 516.5,-0.5C 387.584,242.337 257.918,484.67 127.5,726.5C 123.42,722.974 120.92,718.641 120,713.5C 248.785,476.268 376.285,238.268 502.5,-0.5 Z"/></g>
<g><path style="opacity:1" fill="#6c71f8" d="M 516.5,-0.5 C 527.167,-0.5 537.833,-0.5 548.5,-0.5C 414.638,251.669 279.971,503.336 144.5,754.5C 138.334,745.508 132.667,736.174 127.5,726.5C 257.918,484.67 387.584,242.337 516.5,-0.5 Z"/></g>
<g><path style="opacity:0.999" fill="#6774f7" d="M 548.5,-0.5 C 557.167,-0.5 565.833,-0.5 574.5,-0.5C 578.316,0.482425 582.316,1.14909 586.5,1.5C 519.689,128.457 452.355,255.124 384.5,381.5C 383.508,381.328 382.842,381.662 382.5,382.5C 381.549,383.919 381.216,385.585 381.5,387.5C 310.068,519.525 238.735,651.692 167.5,784C 169.698,787.023 172.031,789.856 174.5,792.5C 179.457,798.628 184.624,804.628 190,810.5C 190.5,830.831 190.667,851.164 190.5,871.5C 174.657,839.144 159.324,806.477 144.5,773.5C 145.833,767.167 145.833,760.833 144.5,754.5C 279.971,503.336 414.638,251.669 548.5,-0.5 Z"/></g>
<g><path style="opacity:0.997" fill="#3ae962" d="M 1181.5,-0.5 C 1195.83,-0.5 1210.17,-0.5 1224.5,-0.5C 1323.75,8.95016 1393.92,58.9502 1435,149.5C 1461.98,209.568 1466.48,271.234 1448.5,334.5C 1294.74,262.289 1140.74,190.622 986.5,119.5C 1032.35,48.7259 1097.35,8.72586 1181.5,-0.5 Z"/></g>
<g><path style="opacity:1" fill="#776bf9" d="M 455.5,0.5 C 456.376,0.369118 457.043,0.702451 457.5,1.5C 339.939,224.295 221.106,446.295 101,667.5C 99.2932,669.909 98.4598,672.575 98.5,675.5C 95.7105,671.584 93.7105,667.251 92.5,662.5C 211.263,442.644 329.263,222.31 446.5,1.5C 449.391,0.597478 452.391,0.264145 455.5,0.5 Z"/></g>
<g><path style="opacity:0.999" fill="#7a69f9" d="M 446.5,1.5 C 329.263,222.31 211.263,442.644 92.5,662.5C 87.3788,652.58 83.0454,642.246 79.5,631.5C 80.1174,631.611 80.6174,631.944 81,632.5C 193.289,424.256 304.789,215.589 415.5,6.5C 425.769,4.44639 436.102,2.77972 446.5,1.5 Z"/></g>
<g><path style="opacity:1" fill="#6476f7" d="M 586.5,1.5 C 590.232,1.98431 593.899,2.65098 597.5,3.5C 530.487,129.527 463.487,255.527 396.5,381.5C 392.5,381.5 388.5,381.5 384.5,381.5C 452.355,255.124 519.689,128.457 586.5,1.5 Z"/></g>
<g><path style="opacity:0.999" fill="#6079f7" d="M 597.5,3.5 C 611.324,5.39818 624.991,8.06485 638.5,11.5C 629.282,30.2694 619.782,48.936 610,67.5C 553.887,172.062 498.054,276.728 442.5,381.5C 427.167,381.5 411.833,381.5 396.5,381.5C 463.487,255.527 530.487,129.527 597.5,3.5 Z"/></g>
<g><path style="opacity:0.999" fill="#7f65f9" d="M 415.5,6.5 C 304.789,215.589 193.289,424.256 81,632.5C 80.6174,631.944 80.1174,631.611 79.5,631.5C 73.6976,616.426 68.6976,601.093 64.5,585.5C 165.963,397.674 266.63,209.341 366.5,20.5C 382.425,14.7653 398.758,10.0986 415.5,6.5 Z"/></g>
<g><path style="opacity:1" fill="#5c7bf7" d="M 638.5,11.5 C 642.697,12.5418 646.697,13.8751 650.5,15.5C 586.236,137.75 521.569,259.75 456.5,381.5C 451.833,381.5 447.167,381.5 442.5,381.5C 498.054,276.728 553.887,172.062 610,67.5C 619.782,48.936 629.282,30.2694 638.5,11.5 Z"/></g>
<g><path style="opacity:0.999" fill="#597df7" d="M 650.5,15.5 C 660.276,17.8678 669.61,21.2011 678.5,25.5C 615.17,144.159 551.837,262.826 488.5,381.5C 477.833,381.5 467.167,381.5 456.5,381.5C 521.569,259.75 586.236,137.75 650.5,15.5 Z"/></g>
<g><path style="opacity:0.999" fill="#8661fa" d="M 366.5,20.5 C 266.63,209.341 165.963,397.674 64.5,585.5C 60.0638,567.652 56.3972,549.652 53.5,531.5C 54.3792,527.72 55.8792,524.053 58,520.5C 144.1,360.632 229.934,200.632 315.5,40.5C 331.804,32.2831 348.804,25.6164 366.5,20.5 Z"/></g>
<g><path style="opacity:0.999" fill="#5481f6" d="M 678.5,25.5 C 693.479,30.492 707.812,36.8254 721.5,44.5C 661.249,156.667 601.249,269 541.5,381.5C 523.833,381.5 506.167,381.5 488.5,381.5C 551.837,262.826 615.17,144.159 678.5,25.5 Z"/></g>
<g><path style="opacity:0.998" fill="#8a5efa" d="M 315.5,40.5 C 229.934,200.632 144.1,360.632 58,520.5C 55.8792,524.053 54.3792,527.72 53.5,531.5C 52.104,520.873 51.104,510.207 50.5,499.5C 129.98,352.546 208.98,205.213 287.5,57.5C 286.757,56.8182 286.091,56.1515 285.5,55.5C 295.217,49.975 305.217,44.975 315.5,40.5 Z"/></g>
<g><path style="opacity:1" fill="#5183f6" d="M 721.5,44.5 C 723.819,44.9925 725.819,45.9925 727.5,47.5C 725.568,53.3693 723.068,59.036 720,64.5C 663.667,169.833 607.333,275.167 551,380.5C 547.943,381.451 544.777,381.784 541.5,381.5C 601.249,269 661.249,156.667 721.5,44.5 Z"/></g>
<g><path style="opacity:0.999" fill="#4d85f5" d="M 727.5,47.5 C 744.092,56.1068 760.426,65.1068 776.5,74.5C 722.228,176.878 667.561,279.045 612.5,381C 618.491,381.499 624.491,381.666 630.5,381.5C 630.5,381.833 630.5,382.167 630.5,382.5C 547.833,382.5 465.167,382.5 382.5,382.5C 382.842,381.662 383.508,381.328 384.5,381.5C 388.5,381.5 392.5,381.5 396.5,381.5C 411.833,381.5 427.167,381.5 442.5,381.5C 447.167,381.5 451.833,381.5 456.5,381.5C 467.167,381.5 477.833,381.5 488.5,381.5C 506.167,381.5 523.833,381.5 541.5,381.5C 544.777,381.784 547.943,381.451 551,380.5C 607.333,275.167 663.667,169.833 720,64.5C 723.068,59.036 725.568,53.3693 727.5,47.5 Z"/></g>
<g><path style="opacity:0.994" fill="#8f5cfa" d="M 285.5,55.5 C 286.091,56.1515 286.757,56.8182 287.5,57.5C 208.98,205.213 129.98,352.546 50.5,499.5C 41.981,349.163 91.6477,221.997 199.5,118C 226.085,94.2403 254.752,73.407 285.5,55.5 Z"/></g>
<g><path style="opacity:0.999" fill="#4888f5" d="M 776.5,74.5 C 785.326,78.4099 793.659,83.0766 801.5,88.5C 749.233,186.035 697.233,283.702 645.5,381.5C 640.5,381.5 635.5,381.5 630.5,381.5C 624.491,381.666 618.491,381.499 612.5,381C 667.561,279.045 722.228,176.878 776.5,74.5 Z"/></g>
<g><path style="opacity:0.999" fill="#458af5" d="M 801.5,88.5 C 808.679,91.3721 815.346,95.0388 821.5,99.5C 771.183,193.465 720.849,287.465 670.5,381.5C 662.167,381.5 653.833,381.5 645.5,381.5C 697.233,283.702 749.233,186.035 801.5,88.5 Z"/></g>
<g><path style="opacity:0.999" fill="#418df5" d="M 821.5,99.5 C 839.655,108.408 857.322,118.075 874.5,128.5C 829.946,212.605 785.113,296.605 740,380.5C 716.908,381.494 693.742,381.827 670.5,381.5C 720.849,287.465 771.183,193.465 821.5,99.5 Z"/></g>
<g><path style="opacity:0.999" fill="#39e865" d="M 986.5,119.5 C 1140.74,190.622 1294.74,262.289 1448.5,334.5C 1446.83,339.833 1445.17,345.167 1443.5,350.5C 1287.63,279.229 1132.29,206.896 977.5,133.5C 980.999,129.173 983.999,124.506 986.5,119.5 Z"/></g>
<g><path style="opacity:0.999" fill="#3b91f4" d="M 874.5,128.5 C 889.632,136.233 904.632,144.233 919.5,152.5C 896.934,195.299 874.1,237.965 851,280.5C 848.597,284.635 846.763,288.968 845.5,293.5C 844.4,294.605 843.733,295.938 843.5,297.5C 833.691,308.456 824.358,319.79 815.5,331.5C 801.487,347.516 787.82,363.849 774.5,380.5C 773.662,380.842 773.328,381.508 773.5,382.5C 725.833,382.5 678.167,382.5 630.5,382.5C 630.5,382.167 630.5,381.833 630.5,381.5C 635.5,381.5 640.5,381.5 645.5,381.5C 653.833,381.5 662.167,381.5 670.5,381.5C 693.742,381.827 716.908,381.494 740,380.5C 785.113,296.605 829.946,212.605 874.5,128.5 Z"/></g>
<g><path style="opacity:0.999" fill="#38e668" d="M 977.5,133.5 C 1132.29,206.896 1287.63,279.229 1443.5,350.5C 1440.68,357.654 1437.68,364.654 1434.5,371.5C 1277.16,298.164 1119.83,224.831 962.5,151.5C 967.51,145.46 972.51,139.46 977.5,133.5 Z"/></g>
<g><path style="opacity:1" fill="#36e46d" d="M 962.5,151.5 C 1119.83,224.831 1277.16,298.164 1434.5,371.5C 1433.5,374.833 1432.5,378.167 1431.5,381.5C 1431.17,381.5 1430.83,381.5 1430.5,381.5C 1410.5,381.5 1390.5,381.5 1370.5,381.5C 1227.17,314.167 1083.83,246.833 940.5,179.5C 943.167,175.833 945.833,172.167 948.5,168.5C 953.197,162.809 957.863,157.142 962.5,151.5 Z"/></g>
<g><path style="opacity:0.997" fill="#3793f3" d="M 919.5,152.5 C 929.006,158.087 938.673,163.42 948.5,168.5C 945.833,172.167 943.167,175.833 940.5,179.5C 932.366,188.426 924.699,197.759 917.5,207.5C 909.416,215.914 902.083,224.914 895.5,234.5C 885.691,245.456 876.358,256.79 867.5,268.5C 863.692,272.122 860.359,276.122 857.5,280.5C 853.5,284.833 849.5,289.167 845.5,293.5C 846.763,288.968 848.597,284.635 851,280.5C 874.1,237.965 896.934,195.299 919.5,152.5 Z"/></g>
<g><path style="opacity:1" fill="#34e273" d="M 940.5,179.5 C 1083.83,246.833 1227.17,314.167 1370.5,381.5C 1342.83,381.5 1315.17,381.5 1287.5,381.5C 1166.73,324.732 1045.73,268.232 924.5,212C 921.761,210.974 919.428,209.474 917.5,207.5C 924.699,197.759 932.366,188.426 940.5,179.5 Z"/></g>
<g><path style="opacity:1" fill="#32df79" d="M 917.5,207.5 C 919.428,209.474 921.761,210.974 924.5,212C 1045.73,268.232 1166.73,324.732 1287.5,381.5C 1261.17,381.5 1234.83,381.5 1208.5,381.5C 1104.29,332.227 999.954,283.227 895.5,234.5C 902.083,224.914 909.416,215.914 917.5,207.5 Z"/></g>
<g><path style="opacity:1" fill="#30dd80" d="M 895.5,234.5 C 999.954,283.227 1104.29,332.227 1208.5,381.5C 1175.5,381.667 1142.5,381.5 1109.5,381C 1028.93,343.215 948.265,305.715 867.5,268.5C 876.358,256.79 885.691,245.456 895.5,234.5 Z"/></g>
<g><path style="opacity:1" fill="#2ed882" d="M 867.5,268.5 C 948.265,305.715 1028.93,343.215 1109.5,381C 1142.5,381.5 1175.5,381.667 1208.5,381.5C 1234.83,381.5 1261.17,381.5 1287.5,381.5C 1315.17,381.5 1342.83,381.5 1370.5,381.5C 1390.5,381.5 1410.5,381.5 1430.5,381.5C 1294.67,382.5 1158.67,382.833 1022.5,382.5C 1022.5,382.167 1022.5,381.833 1022.5,381.5C 1039.17,381.667 1055.84,381.5 1072.5,381C 1000.81,347.486 929.14,313.986 857.5,280.5C 860.359,276.122 863.692,272.122 867.5,268.5 Z"/></g>
<g><path style="opacity:1" fill="#2ed988" d="M 857.5,280.5 C 929.14,313.986 1000.81,347.486 1072.5,381C 1055.84,381.5 1039.17,381.667 1022.5,381.5C 1021.83,381.5 1021.17,381.5 1020.5,381.5C 961.348,353.757 902.348,325.757 843.5,297.5C 843.733,295.938 844.4,294.605 845.5,293.5C 849.5,289.167 853.5,284.833 857.5,280.5 Z"/></g>
<g><path style="opacity:1" fill="#2cd88c" d="M 843.5,297.5 C 902.348,325.757 961.348,353.757 1020.5,381.5C 987.5,381.5 954.5,381.5 921.5,381.5C 886.325,364.655 850.992,347.989 815.5,331.5C 824.358,319.79 833.691,308.456 843.5,297.5 Z"/></g>
<g><path style="opacity:1" fill="#2ad592" d="M 815.5,331.5 C 850.992,347.989 886.325,364.655 921.5,381.5C 872.33,381.832 823.33,381.499 774.5,380.5C 787.82,363.849 801.487,347.516 815.5,331.5 Z"/></g>
<g><path style="opacity:1" fill="#25b87b" d="M 774.5,380.5 C 823.33,381.499 872.33,381.832 921.5,381.5C 954.5,381.5 987.5,381.5 1020.5,381.5C 1021.17,381.5 1021.83,381.5 1022.5,381.5C 1022.5,381.833 1022.5,382.167 1022.5,382.5C 939.5,382.5 856.5,382.5 773.5,382.5C 773.328,381.508 773.662,380.842 774.5,380.5 Z"/></g>
<g><path style="opacity:0.999" fill="#000000" d="M 1430.5,381.5 C 1430.83,381.5 1431.17,381.5 1431.5,381.5C 1493.5,381.5 1555.5,381.5 1617.5,381.5C 1617.5,433.167 1617.5,484.833 1617.5,536.5C 1616.17,844.5 1616.17,1152.5 1617.5,1460.5C 1617.5,1512.83 1617.5,1565.17 1617.5,1617.5C 1519.5,1617.5 1421.5,1617.5 1323.5,1617.5C 1010,1616.5 696.334,1616.17 382.5,1616.5C 382.5,1363.17 382.5,1109.83 382.5,856.5C 382.5,698.5 382.5,540.5 382.5,382.5C 465.167,382.5 547.833,382.5 630.5,382.5C 678.167,382.5 725.833,382.5 773.5,382.5C 856.5,382.5 939.5,382.5 1022.5,382.5C 1158.67,382.833 1294.67,382.5 1430.5,381.5 Z"/></g>
<g><path style="opacity:1" fill="#6477f7" d="M 381.5,387.5 C 381.5,394.833 381.5,402.167 381.5,409.5C 312.262,536.972 243.262,664.639 174.5,792.5C 172.031,789.856 169.698,787.023 167.5,784C 238.735,651.692 310.068,519.525 381.5,387.5 Z"/></g>
<g><path style="opacity:0.999" fill="#6079f7" d="M 381.5,409.5 C 381.5,437.833 381.5,466.167 381.5,494.5C 322.529,603.772 263.529,713.105 204.5,822.5C 206.483,824.984 208.65,827.317 211,829.5C 211.83,858.336 211.664,887.003 210.5,915.5C 203.641,900.923 196.974,886.256 190.5,871.5C 190.667,851.164 190.5,830.831 190,810.5C 184.624,804.628 179.457,798.628 174.5,792.5C 243.262,664.639 312.262,536.972 381.5,409.5 Z"/></g>
<g><path style="opacity:0.999" fill="#5c7bf7" d="M 381.5,494.5 C 381.5,503.167 381.5,511.833 381.5,520.5C 325.401,623.858 269.401,727.358 213.5,831C 215,832.5 216.5,834 218,835.5C 218.779,866.848 218.613,898.181 217.5,929.5C 215.181,924.907 212.847,920.241 210.5,915.5C 211.664,887.003 211.83,858.336 211,829.5C 208.65,827.317 206.483,824.984 204.5,822.5C 263.529,713.105 322.529,603.772 381.5,494.5 Z"/></g>
<g><path style="opacity:0.999" fill="#597df7" d="M 381.5,520.5 C 381.5,540.5 381.5,560.5 381.5,580.5C 333.028,670.105 284.528,759.772 236,849.5C 235.333,848.833 234.667,848.167 234,847.5C 233.833,885.669 233.333,923.669 232.5,961.5C 226.99,951.144 221.99,940.477 217.5,929.5C 218.613,898.181 218.779,866.848 218,835.5C 216.5,834 215,832.5 213.5,831C 269.401,727.358 325.401,623.858 381.5,520.5 Z"/></g>
<g><path style="opacity:1" fill="#fefefe" d="M 1172.5,536.5 C 1222.62,533.742 1270.95,541.575 1317.5,560C 1347.39,573.939 1373.73,592.772 1396.5,616.5C 1373.14,644.54 1349.31,672.206 1325,699.5C 1295.74,670.118 1260.58,651.618 1219.5,644C 1154.76,636.293 1104.6,659.46 1069,713.5C 1040.26,766.632 1037.92,820.965 1062,876.5C 1086,924.765 1124.83,952.265 1178.5,959C 1221.99,962.298 1261.32,951.298 1296.5,926C 1307.29,917.543 1317.79,908.709 1328,899.5C 1351.83,923.333 1375.67,947.167 1399.5,971C 1353.25,1024.79 1294.58,1054.79 1223.5,1061C 1142.58,1070.69 1071.58,1049.02 1010.5,996C 961.73,948.95 934.564,891.45 929,823.5C 923.251,738.387 950.417,665.887 1010.5,606C 1056.57,564.687 1110.57,541.52 1172.5,536.5 Z"/></g>
<g><path style="opacity:1" fill="#fdfdfd" d="M 499.5,545.5 C 640.5,545.5 781.5,545.5 922.5,545.5C 922.5,579.833 922.5,614.167 922.5,648.5C 870.167,648.5 817.833,648.5 765.5,648.5C 765.5,784.5 765.5,920.5 765.5,1056.5C 728.167,1056.5 690.833,1056.5 653.5,1056.5C 653.5,920.5 653.5,784.5 653.5,648.5C 602.167,648.5 550.833,648.5 499.5,648.5C 499.5,614.167 499.5,579.833 499.5,545.5 Z"/></g>
<g><path style="opacity:0.999" fill="#5381f6" d="M 381.5,580.5 C 381.667,619.168 381.5,657.835 381,696.5C 348,757.167 315,817.833 282,878.5C 275.667,874.833 269.333,871.167 263,867.5C 262.774,912.509 262.274,957.509 261.5,1002.5C 259.628,1005.58 257.295,1008.25 254.5,1010.5C 246.892,994.285 239.559,977.952 232.5,961.5C 233.333,923.669 233.833,885.669 234,847.5C 234.667,848.167 235.333,848.833 236,849.5C 284.528,759.772 333.028,670.105 381.5,580.5 Z"/></g>
<g><path style="opacity:0.999" fill="#0caff1" d="M 1617.5,536.5 C 1682.68,572.256 1748.01,607.756 1813.5,643C 1869.96,680.127 1913.8,728.627 1945,788.5C 1975.21,844.63 1993.38,904.297 1999.5,967.5C 1999.5,991.167 1999.5,1014.83 1999.5,1038.5C 1984.59,1175.54 1920.26,1282.38 1806.5,1359C 1743.44,1392.86 1680.44,1426.7 1617.5,1460.5C 1616.17,1152.5 1616.17,844.5 1617.5,536.5 Z"/></g>
<g><path style="opacity:1" fill="#4c85f4" d="M 382.5,382.5 C 382.5,540.5 382.5,698.5 382.5,856.5C 381.833,856.5 381.5,856.833 381.5,857.5C 368.167,873.5 354.833,889.5 341.5,905.5C 330.145,900.048 318.478,895.382 306.5,891.5C 306.5,910.167 306.5,928.833 306.5,947.5C 291.848,966.149 276.848,984.482 261.5,1002.5C 262.274,957.509 262.774,912.509 263,867.5C 269.333,871.167 275.667,874.833 282,878.5C 315,817.833 348,757.167 381,696.5C 381.5,657.835 381.667,619.168 381.5,580.5C 381.5,560.5 381.5,540.5 381.5,520.5C 381.5,511.833 381.5,503.167 381.5,494.5C 381.5,466.167 381.5,437.833 381.5,409.5C 381.5,402.167 381.5,394.833 381.5,387.5C 381.216,385.585 381.549,383.919 382.5,382.5 Z"/></g>
<g><path style="opacity:1" fill="#13b8d9" d="M 381.5,857.5 C 381.5,895.833 381.5,934.167 381.5,972.5C 358.833,961.833 336.167,951.167 313.5,940.5C 322.833,928.833 332.167,917.167 341.5,905.5C 354.833,889.5 368.167,873.5 381.5,857.5 Z"/></g>
<g><path style="opacity:1" fill="#438bf4" d="M 341.5,905.5 C 332.167,917.167 322.833,928.833 313.5,940.5C 311.395,943.027 309.061,945.36 306.5,947.5C 306.5,928.833 306.5,910.167 306.5,891.5C 318.478,895.382 330.145,900.048 341.5,905.5 Z"/></g>
<g><path style="opacity:1" fill="#11b7de" d="M 313.5,940.5 C 336.167,951.167 358.833,961.833 381.5,972.5C 381.5,1010.5 381.5,1048.5 381.5,1086.5C 335.749,1065.69 290.082,1044.69 244.5,1023.5C 247.594,1018.98 250.927,1014.64 254.5,1010.5C 257.295,1008.25 259.628,1005.58 261.5,1002.5C 276.848,984.482 291.848,966.149 306.5,947.5C 309.061,945.36 311.395,943.027 313.5,940.5 Z"/></g>
<g><path style="opacity:0.999" fill="#10b6e2" d="M 244.5,1023.5 C 290.082,1044.69 335.749,1065.69 381.5,1086.5C 381.833,1108.51 381.5,1130.51 380.5,1152.5C 322.02,1125.43 263.687,1098.09 205.5,1070.5C 218.153,1054.52 231.153,1038.85 244.5,1023.5 Z"/></g>
<g><path style="opacity:0.999" fill="#0fb3e4" d="M 382.5,856.5 C 382.5,1109.83 382.5,1363.17 382.5,1616.5C 381.504,1600.34 381.17,1584.01 381.5,1567.5C 381.833,1468.16 381.5,1368.83 380.5,1269.5C 298.932,1231.21 217.265,1193.21 135.5,1155.5C 158.127,1126.57 181.461,1098.24 205.5,1070.5C 263.687,1098.09 322.02,1125.43 380.5,1152.5C 381.5,1130.51 381.833,1108.51 381.5,1086.5C 381.5,1048.5 381.5,1010.5 381.5,972.5C 381.5,934.167 381.5,895.833 381.5,857.5C 381.5,856.833 381.833,856.5 382.5,856.5 Z"/></g>
<g><path style="opacity:1" fill="#0eb2ea" d="M 135.5,1155.5 C 217.265,1193.21 298.932,1231.21 380.5,1269.5C 381.5,1368.83 381.833,1468.16 381.5,1567.5C 258.284,1509.98 135.117,1452.31 12,1394.5C 11.6174,1395.06 11.1174,1395.39 10.5,1395.5C 25.7255,1324.07 55.2255,1259.4 99,1201.5C 99.3333,1200.17 99.6667,1198.83 100,1197.5C 112.073,1183.6 123.907,1169.6 135.5,1155.5 Z"/></g>
<g><path style="opacity:1" fill="#fefffe" d="M 961.5,1385.5 C 961.5,1410.83 961.5,1436.17 961.5,1461.5C 807.5,1461.5 653.5,1461.5 499.5,1461.5C 499.5,1436.17 499.5,1410.83 499.5,1385.5C 653.5,1385.5 807.5,1385.5 961.5,1385.5 Z"/></g>
<g><path style="opacity:1" fill="#0db1ee" d="M 381.5,1567.5 C 381.17,1584.01 381.504,1600.34 382.5,1616.5C 417.996,1617.5 453.663,1617.83 489.5,1617.5C 618.651,1677.91 747.651,1738.58 876.5,1799.5C 867.228,1812.44 857.228,1824.77 846.5,1836.5C 566.165,1704.67 285.498,1573.34 4.5,1442.5C 3.81815,1443.24 3.15149,1443.91 2.5,1444.5C 3.86812,1427.92 6.53479,1411.58 10.5,1395.5C 11.1174,1395.39 11.6174,1395.06 12,1394.5C 135.117,1452.31 258.284,1509.98 381.5,1567.5 Z"/></g>
<g><path style="opacity:1" fill="#0cb0ef" d="M 846.5,1836.5 C 809.663,1878.36 766.997,1912.7 718.5,1939.5C 625.774,1989.07 527.108,2007.4 422.5,1994.5C 372.682,1988.13 324.349,1975.96 277.5,1958C 209.839,1928.34 154.005,1883.84 110,1824.5C 89.8839,1796.61 72.0505,1767.28 56.5,1736.5C 56.7148,1734.82 56.0481,1733.82 54.5,1733.5C 23.3124,1669.95 4.97902,1602.95 -0.5,1532.5C -0.5,1511.17 -0.5,1489.83 -0.5,1468.5C 0.395512,1460.59 1.39551,1452.59 2.5,1444.5C 3.15149,1443.91 3.81815,1443.24 4.5,1442.5C 285.498,1573.34 566.165,1704.67 846.5,1836.5 Z"/></g>
<g><path style="opacity:1" fill="#d9d9d9" d="M 961.5,1385.5 C 962.498,1410.99 962.831,1436.66 962.5,1462.5C 807.999,1462.83 653.666,1462.5 499.5,1461.5C 653.5,1461.5 807.5,1461.5 961.5,1461.5C 961.5,1436.17 961.5,1410.83 961.5,1385.5 Z"/></g>
<g><path style="opacity:1" fill="#0db1eb" d="M 489.5,1617.5 C 647.833,1617.5 806.167,1617.5 964.5,1617.5C 964.5,1617.83 964.5,1618.17 964.5,1618.5C 960.502,1629.15 956.502,1639.82 952.5,1650.5C 937.42,1697.11 916.42,1740.77 889.5,1781.5C 885.644,1787.89 881.311,1793.89 876.5,1799.5C 747.651,1738.58 618.651,1677.91 489.5,1617.5 Z"/></g>
<g><path style="opacity:0.998" fill="#11b6de" d="M 964.5,1618.5 C 964.5,1618.17 964.5,1617.83 964.5,1617.5C 1013.83,1617.33 1063.17,1617.5 1112.5,1618C 1127.15,1647.46 1142.15,1676.63 1157.5,1705.5C 1118.49,1727.01 1079.16,1748.01 1039.5,1768.5C 1015.01,1718.18 990.008,1668.18 964.5,1618.5 Z"/></g>
<g><path style="opacity:0.995" fill="#0fb2e1" d="M 382.5,1616.5 C 696.334,1616.17 1010,1616.5 1323.5,1617.5C 1268.14,1646.85 1212.81,1676.18 1157.5,1705.5C 1142.15,1676.63 1127.15,1647.46 1112.5,1618C 1063.17,1617.5 1013.83,1617.33 964.5,1617.5C 806.167,1617.5 647.833,1617.5 489.5,1617.5C 453.663,1617.83 417.996,1617.5 382.5,1616.5 Z"/></g>
<g><path style="opacity:0.999" fill="#12b8db" d="M 964.5,1618.5 C 990.008,1668.18 1015.01,1718.18 1039.5,1768.5C 1032.7,1772.74 1025.7,1776.74 1018.5,1780.5C 997.56,1736.62 976.06,1692.95 954,1649.5C 953.617,1650.06 953.117,1650.39 952.5,1650.5C 956.502,1639.82 960.502,1629.15 964.5,1618.5 Z"/></g>
<g><path style="opacity:0.997" fill="#13b9d8" d="M 1018.5,1780.5 C 985.14,1798.18 951.806,1815.85 918.5,1833.5C 917.624,1833.63 916.957,1833.3 916.5,1832.5C 908.167,1815.83 899.833,1799.17 891.5,1782.5C 891.043,1781.7 890.376,1781.37 889.5,1781.5C 916.42,1740.77 937.42,1697.11 952.5,1650.5C 953.117,1650.39 953.617,1650.06 954,1649.5C 976.06,1692.95 997.56,1736.62 1018.5,1780.5 Z"/></g>
<g><path style="opacity:0.945" fill="#31d6b3" d="M 54.5,1733.5 C 56.0481,1733.82 56.7148,1734.82 56.5,1736.5C 55.5987,1735.71 54.9321,1734.71 54.5,1733.5 Z"/></g>
<g><path style="opacity:0.991" fill="#16bcd1" d="M 889.5,1781.5 C 890.376,1781.37 891.043,1781.7 891.5,1782.5C 899.833,1799.17 908.167,1815.83 916.5,1832.5C 916.957,1833.3 917.624,1833.63 918.5,1833.5C 852.432,1869.87 785.765,1905.2 718.5,1939.5C 766.997,1912.7 809.663,1878.36 846.5,1836.5C 857.228,1824.77 867.228,1812.44 876.5,1799.5C 881.311,1793.89 885.644,1787.89 889.5,1781.5 Z"/></g>
</svg>
