<svg version="1.1" id="Layer_1" xmlns="http://www.w3.org/2000/svg" xmlns:xlink="http://www.w3.org/1999/xlink" x="0px" y="0px"
	 width="100%" viewBox="0 0 225 225" enable-background="new 0 0 225 225" xml:space="preserve">
<path fill="#B3B2B2" opacity="1.000000" stroke="none" 
	d="
M112.000000,1.000001 
	C112.750000,1.000000 113.500000,1.000000 114.898163,1.243819 
	C140.977905,8.645232 166.394730,15.855846 191.847794,22.936243 
	C203.194290,26.092552 214.613693,28.986809 226.000000,32.000000 
	C226.000000,33.714184 226.000000,35.428371 225.715881,37.850670 
	C219.938202,83.584274 214.392654,128.603561 209.024033,173.643936 
	C208.426086,178.660370 207.103729,182.366867 201.773010,184.068436 
	C198.002853,185.271866 194.513611,187.364471 190.913818,189.091125 
	C165.273727,201.389618 139.637482,213.696075 114.000000,226.000000 
	C114.000000,226.000000 113.500000,226.000000 112.988968,225.771240 
	C83.333229,211.655319 54.255127,197.624786 24.977854,184.022980 
	C20.134716,181.772934 18.494726,178.739334 18.004826,173.902786 
	C16.731649,161.333344 15.197840,148.789474 13.688541,136.244949 
	C10.809314,112.314293 7.939212,88.382172 4.929677,64.467735 
	C3.816280,55.620430 2.321075,46.821171 1.000000,38.000000 
	C1.000000,36.285816 1.000000,34.571629 1.402677,32.462151 
	C3.097076,31.773983 4.403581,31.534340 5.678324,31.180326 
	C28.879692,24.736992 52.094719,18.341814 75.268517,11.800634 
	C87.550041,8.333975 99.758537,4.608589 112.000000,1.000001 
M113.813255,212.070618 
	C136.471634,201.612061 158.935501,190.697708 181.878815,180.906845 
	C191.826706,176.661697 196.590775,171.494034 197.754425,159.907867 
	C201.578262,121.834587 207.046326,83.925148 212.019470,45.970688 
	C212.493011,42.356670 211.256653,41.028271 207.948883,40.086182 
	C190.511642,35.119858 173.142731,29.914267 155.735657,24.841299 
	C141.850723,20.794800 127.945068,16.819416 113.479523,12.519705 
	C112.026321,12.872007 110.555176,13.163414 109.122566,13.585588 
	C79.280800,22.379604 49.470573,31.282858 19.573826,39.885487 
	C15.421681,41.080242 14.552588,42.877811 15.072222,46.864902 
	C20.449524,88.124306 25.636099,129.408615 31.072575,170.660049 
	C31.315716,172.504990 33.078175,174.796890 34.763626,175.688675 
	C40.933769,178.953384 47.360966,181.735092 53.709385,184.659546 
	C73.497124,193.774902 93.293083,202.872406 113.813255,212.070618 
z"/>
<path fill="#FFFFFF" opacity="1.000000" stroke="none" 
	d="
M114.468658,226.000000 
	C139.637482,213.696075 165.273727,201.389618 190.913818,189.091125 
	C194.513611,187.364471 198.002853,185.271866 201.773010,184.068436 
	C207.103729,182.366867 208.426086,178.660370 209.024033,173.643936 
	C214.392654,128.603561 219.938202,83.584274 225.715881,38.279396 
	C226.000000,100.575165 226.000000,163.150330 226.000000,226.000000 
	C188.979553,226.000000 151.958435,226.000000 114.468658,226.000000 
z"/>
<path fill="#FFFFFF" opacity="1.000000" stroke="none" 
	d="
M1.000000,38.468658 
	C2.321075,46.821171 3.816280,55.620430 4.929677,64.467735 
	C7.939212,88.382172 10.809314,112.314293 13.688541,136.244949 
	C15.197840,148.789474 16.731649,161.333344 18.004826,173.902786 
	C18.494726,178.739334 20.134716,181.772934 24.977854,184.022980 
	C54.255127,197.624786 83.333229,211.655319 112.738968,225.771240 
	C75.721169,226.000000 38.442345,226.000000 1.000000,226.000000 
	C1.000000,163.645874 1.000000,101.291595 1.000000,38.468658 
z"/>
<path fill="#FEFEFE" opacity="1.000000" stroke="none" 
	d="
M226.000000,31.531342 
	C214.613693,28.986809 203.194290,26.092552 191.847794,22.936243 
	C166.394730,15.855846 140.977905,8.645232 115.273163,1.243819 
	C151.885651,1.000000 188.771301,1.000000 226.000000,1.000000 
	C226.000000,11.018286 226.000000,21.040485 226.000000,31.531342 
z"/>
<path fill="#FEFEFE" opacity="1.000000" stroke="none" 
	d="
M111.531342,1.000001 
	C99.758537,4.608589 87.550041,8.333975 75.268517,11.800634 
	C52.094719,18.341814 28.879692,24.736992 5.678324,31.180326 
	C4.403581,31.534340 3.097076,31.773983 1.402677,32.033432 
	C1.000000,21.698605 1.000000,11.397210 1.000000,1.000000 
	C37.687508,1.000000 74.375099,1.000000 111.531342,1.000001 
z"/>
<path fill="#E42939" opacity="1.000000" stroke="none" 
	d="
M113.085861,211.976837 
	C93.293083,202.872406 73.497124,193.774902 53.709385,184.659546 
	C47.360966,181.735092 40.933769,178.953384 34.763626,175.688675 
	C33.078175,174.796890 31.315716,172.504990 31.072575,170.660049 
	C25.636099,129.408615 20.449524,88.124306 15.072222,46.864902 
	C14.552588,42.877811 15.421681,41.080242 19.573826,39.885487 
	C49.470573,31.282858 79.280800,22.379604 109.122566,13.585588 
	C110.555176,13.163414 112.026321,12.872007 113.736992,13.106985 
	C113.915718,14.867996 113.836975,16.041725 113.513321,17.427586 
	C112.897026,18.191687 112.452232,18.708042 112.164665,19.300686 
	C88.495399,68.080711 64.834648,116.864876 41.199146,165.661270 
	C40.518166,167.067184 40.114410,168.607376 39.356598,170.708130 
	C46.209675,170.708130 52.295174,170.735519 58.380306,170.699661 
	C63.453510,170.669769 65.372765,167.336899 67.099358,163.097061 
	C70.969925,153.592453 75.338875,144.290802 80.005623,134.932800 
	C91.347206,134.961136 102.188065,134.963165 113.261475,134.987854 
	C113.494026,135.010529 113.959122,135.056091 113.955536,135.521210 
	C113.953636,159.035355 113.979706,182.084427 113.918968,205.133270 
	C113.912949,207.415192 113.376259,209.695679 113.085861,211.976837 
z"/>
<path fill="#B72833" opacity="1.000000" stroke="none" 
	d="
M113.758224,17.215454 
	C113.836975,16.041725 113.915718,14.867996 114.021538,13.253366 
	C127.945068,16.819416 141.850723,20.794800 155.735657,24.841299 
	C173.142731,29.914267 190.511642,35.119858 207.948883,40.086182 
	C211.256653,41.028271 212.493011,42.356670 212.019470,45.970688 
	C207.046326,83.925148 201.578262,121.834587 197.754425,159.907867 
	C196.590775,171.494034 191.826706,176.661697 181.878815,180.906845 
	C158.935501,190.697708 136.471634,201.612061 113.449562,212.023727 
	C113.376259,209.695679 113.912949,207.415192 113.918968,205.133270 
	C113.979706,182.084427 113.953636,159.035355 114.153664,135.385284 
	C114.608360,134.584610 114.819923,134.347946 115.454010,133.997131 
	C125.953896,133.970520 135.989838,134.021042 146.238556,134.266357 
	C146.801987,134.621048 147.152634,134.780960 147.705200,135.205353 
	C152.377197,145.675415 156.806488,155.899292 161.364944,166.065277 
	C161.990540,167.460434 163.216431,169.601730 164.235535,169.643051 
	C171.763245,169.948151 179.309021,169.808167 187.588348,169.808167 
	C186.492645,167.373413 185.862961,165.876480 185.155777,164.417114 
	C169.345947,131.791092 153.564850,99.151054 137.694839,66.554306 
	C129.913864,50.572269 121.964798,34.672054 114.034424,18.482182 
	C113.904106,17.891518 113.831161,17.553486 113.758224,17.215454 
z"/>
<path fill="#FEFCFC" opacity="1.000000" stroke="none" 
	d="
M113.513321,17.427586 
	C113.831161,17.553486 113.904106,17.891518 113.928566,18.965408 
	C113.644844,33.672295 113.409592,47.643318 112.816483,61.773903 
	C105.016220,78.298218 97.573807,94.662979 89.964249,111.295120 
	C90.201485,112.067146 90.605873,112.571800 91.467209,113.185585 
	C98.610512,113.217819 105.296860,113.140923 112.313698,113.173073 
	C113.097961,113.379906 113.551735,113.477684 113.922607,114.001259 
	C113.831131,120.836555 113.822571,127.246048 113.601715,133.734955 
	C113.389427,133.814362 113.015007,134.069885 112.548981,134.008087 
	C102.765350,133.940323 93.447357,133.889862 84.130547,133.972397 
	C82.586021,133.986084 81.046646,134.580475 79.504890,134.906509 
	C75.338875,144.290802 70.969925,153.592453 67.099358,163.097061 
	C65.372765,167.336899 63.453510,170.669769 58.380306,170.699661 
	C52.295174,170.735519 46.209675,170.708130 39.356598,170.708130 
	C40.114410,168.607376 40.518166,167.067184 41.199146,165.661270 
	C64.834648,116.864876 88.495399,68.080711 112.164665,19.300686 
	C112.452232,18.708042 112.897026,18.191687 113.513321,17.427586 
z"/>
<path fill="#E20221" opacity="1.000000" stroke="none" 
	d="
M80.005623,134.932800 
	C81.046646,134.580475 82.586021,133.986084 84.130547,133.972397 
	C93.447357,133.889862 102.765350,133.940323 112.556503,134.231842 
	C113.030052,134.517410 113.028915,134.965179 113.028915,134.965179 
	C102.188065,134.963165 91.347206,134.961136 80.005623,134.932800 
z"/>
<path fill="#B81827" opacity="1.000000" stroke="none" 
	d="
M113.261475,134.987854 
	C113.028915,134.965179 113.030052,134.517410 113.022530,134.293640 
	C113.015007,134.069885 113.389427,133.814362 113.889908,133.856400 
	C114.590286,133.957047 114.790176,134.015640 114.990074,134.074249 
	C114.819923,134.347946 114.608360,134.584610 114.157257,134.920166 
	C113.959122,135.056091 113.494026,135.010529 113.261475,134.987854 
z"/>
<path fill="#B2B0B0" opacity="1.000000" stroke="none" 
	d="
M115.454010,133.997131 
	C114.790176,134.015640 114.590286,133.957047 114.102203,133.776993 
	C113.822571,127.246048 113.831131,120.836555 113.867065,113.859283 
	C113.894440,113.291504 114.001320,113.005951 114.459297,113.115967 
	C122.347046,113.225975 129.776825,113.225975 137.688553,113.225975 
	C137.006302,111.380608 136.589417,109.986801 135.990967,108.675873 
	C130.492920,96.632133 125.000771,84.585381 119.420029,72.579887 
	C117.770515,69.031395 115.845184,65.611107 113.816978,62.021652 
	C113.449921,61.812267 113.312134,61.713306 113.174339,61.614346 
	C113.409592,47.643318 113.644844,33.672295 113.985947,19.218040 
	C121.964798,34.672054 129.913864,50.572269 137.694839,66.554306 
	C153.564850,99.151054 169.345947,131.791092 185.155777,164.417114 
	C185.862961,165.876480 186.492645,167.373413 187.588348,169.808167 
	C179.309021,169.808167 171.763245,169.948151 164.235535,169.643051 
	C163.216431,169.601730 161.990540,167.460434 161.364944,166.065277 
	C156.806488,155.899292 152.377197,145.675415 147.531494,134.951126 
	C146.779190,134.312149 146.402481,134.191849 146.025787,134.071564 
	C135.989838,134.021042 125.953896,133.970520 115.454010,133.997131 
z"/>
<path fill="#B81827" opacity="1.000000" stroke="none" 
	d="
M146.238556,134.266357 
	C146.402481,134.191849 146.779190,134.312149 147.329590,134.686646 
	C147.152634,134.780960 146.801987,134.621048 146.238556,134.266357 
z"/>
<path fill="#E22A3A" opacity="1.000000" stroke="none" 
	d="
M112.816483,61.773903 
	C113.312134,61.713306 113.449921,61.812267 113.789581,62.480152 
	C113.942596,79.355591 113.893753,95.662102 113.571968,112.027908 
	C112.860428,112.412804 112.421822,112.738411 111.983215,113.064018 
	C105.296860,113.140923 98.610512,113.217819 91.439667,112.898773 
	C90.680573,112.011124 90.405983,111.519432 90.131393,111.027733 
	C97.573807,94.662979 105.016220,78.298218 112.816483,61.773903 
z"/>
<path fill="#E2152B" opacity="1.000000" stroke="none" 
	d="
M89.964241,111.295120 
	C90.405983,111.519432 90.680573,112.011124 90.982719,112.789627 
	C90.605873,112.571800 90.201485,112.067146 89.964241,111.295120 
z"/>
<path fill="#E2152B" opacity="1.000000" stroke="none" 
	d="
M112.313698,113.173073 
	C112.421822,112.738411 112.860428,112.412804 113.620094,112.286194 
	C113.961212,112.658783 113.981262,112.832367 114.001320,113.005951 
	C114.001320,113.005951 113.894440,113.291504 113.949982,113.433487 
	C113.551735,113.477684 113.097961,113.379906 112.313698,113.173073 
z"/>
<path fill="#B72833" opacity="1.000000" stroke="none" 
	d="
M114.459297,113.115967 
	C113.981262,112.832367 113.961212,112.658783 113.893028,112.226913 
	C113.893753,95.662102 113.942596,79.355591 114.018845,62.590576 
	C115.845184,65.611107 117.770515,69.031395 119.420029,72.579887 
	C125.000771,84.585381 130.492920,96.632133 135.990967,108.675873 
	C136.589417,109.986801 137.006302,111.380608 137.688553,113.225975 
	C129.776825,113.225975 122.347046,113.225975 114.459297,113.115967 
z"/>
</svg>