<?xml version="1.0" encoding="UTF-8"?>
<!DOCTYPE svg PUBLIC "-//W3C//DTD SVG 1.1//EN" "http://www.w3.org/Graphics/SVG/1.1/DTD/svg11.dtd">
<svg xmlns="http://www.w3.org/2000/svg" version="1.1" width="512px" height="512px" style="shape-rendering:geometricPrecision; text-rendering:geometricPrecision; image-rendering:optimizeQuality; fill-rule:evenodd; clip-rule:evenodd" xmlns:xlink="http://www.w3.org/1999/xlink">
<g><path style="opacity:0.989" fill="#6d0ff0" d="M 31.5,-0.5 C 56.1667,-0.5 80.8333,-0.5 105.5,-0.5C 106.535,1.20495 106.535,2.87162 105.5,4.5C 107.973,6.75364 107.973,8.92031 105.5,11C 107.158,11.7253 107.658,12.892 107,14.5C 105.989,13.6634 104.822,13.33 103.5,13.5C 103.923,16.2882 102.923,18.2882 100.5,19.5C 99.1166,16.9244 98.2833,17.2577 98,20.5C 97.0855,16.8149 96.4189,17.1482 96,21.5C 95.9109,18.1514 94.7443,17.6514 92.5,20C 93.7112,20.8928 93.7112,21.7261 92.5,22.5C 90.5484,23.8136 88.715,24.4803 87,24.5C 86.3333,25.1667 86.3333,25.8333 87,26.5C 90.1103,25.3266 90.277,25.8266 87.5,28C 88.4506,28.7175 88.6172,29.5509 88,30.5C 87.0853,29.6721 86.4186,28.6721 86,27.5C 85.3645,28.9663 84.5312,30.2997 83.5,31.5C 84.6405,32.4255 84.6405,33.2588 83.5,34C 87.3266,37.4489 87.16,38.2823 83,36.5C 81.2785,36.6107 81.1118,37.1107 82.5,38C 81.4642,39.6169 80.2975,39.7836 79,38.5C 75.2695,41.5342 75.7695,43.0342 80.5,43C 79.5,43.3333 78.5,43.6667 77.5,44C 78.6537,44.9138 78.487,45.7471 77,46.5C 76.1667,45.5 75.3333,44.5 74.5,43.5C 74.4455,44.5301 74.1122,45.6967 73.5,47C 71.5,47.3333 69.5,47.6667 67.5,48C 69.4965,48.7598 71.1632,49.2598 72.5,49.5C 71.624,50.2508 70.624,50.7508 69.5,51C 69.8881,52.8082 69.8881,54.4748 69.5,56C 68.5,56.3333 67.5,56.6667 66.5,57C 67.8486,58.6354 67.6819,60.1354 66,61.5C 66.0428,57.352 65.2095,57.5187 63.5,62C 61.5,62.3333 59.5,62.6667 57.5,63C 57.1884,64.6638 56.3551,66.4971 55,68.5C 53.4748,68.8881 51.8082,68.8881 50,68.5C 51.3606,70.5597 51.8606,72.893 51.5,75.5C 50.1822,76.038 48.5155,76.8714 46.5,78C 48.3839,78.2163 50.0506,78.883 51.5,80C 50.2513,81.8241 49.0847,81.6574 48,79.5C 46.3831,80.5358 46.2164,81.7025 47.5,83C 46.5509,83.6172 45.7175,83.4506 45,82.5C 44.6758,84.5689 43.8425,84.9023 42.5,83.5C 41.3961,84.6313 41.7295,85.4646 43.5,86C 40.7447,87.7881 39.078,86.9548 38.5,83.5C 35.8059,55.5315 33.4726,27.5315 31.5,-0.5 Z"/></g>
<g><path style="opacity:0.997" fill="#6a0ee9" d="M 105.5,-0.5 C 126.167,-0.5 146.833,-0.5 167.5,-0.5C 168.347,0.96626 169.68,1.79959 171.5,2C 169.001,2.28597 166.835,2.1193 165,1.5C 163.667,2.16667 162.667,3.16667 162,4.5C 161.667,3.5 161.333,2.5 161,1.5C 159.833,2.66667 158.667,3.83333 157.5,5C 158.5,6 159.5,7 160.5,8C 159.809,9.06743 159.309,10.2341 159,11.5C 158.107,10.2888 157.274,10.2888 156.5,11.5C 157.165,13.1012 157.499,14.6012 157.5,16C 156.005,17.1607 154.505,18.3273 153,19.5C 151.739,19.2409 150.739,18.5742 150,17.5C 149.378,19.7314 148.211,21.5648 146.5,23C 147.833,24 149.167,25 150.5,26C 149.874,26.7504 149.374,27.5838 149,28.5C 147.565,24.2313 145.899,23.898 144,27.5C 141.909,26.5004 140.243,27.1671 139,29.5C 139.046,31.3126 138.88,32.9793 138.5,34.5C 140.848,35.8603 141.015,37.5269 139,39.5C 138.333,38.8333 137.667,38.1667 137,37.5C 136.228,38.8491 135.061,39.6824 133.5,40C 134.624,40.2492 135.624,40.7492 136.5,41.5C 136.062,42.5063 135.396,42.5063 134.5,41.5C 132.866,41.968 131.7,42.968 131,44.5C 129.334,43.6598 129.167,44.1598 130.5,46C 129.531,47.7583 128.364,48.2583 127,47.5C 125.05,54.7306 122.55,55.3973 119.5,49.5C 119.488,51.1338 118.488,52.6338 116.5,54C 118.878,54.9745 118.544,55.6411 115.5,56C 119.213,57.1628 119.213,58.6628 115.5,60.5C 118.161,62.18 117.994,63.5133 115,64.5C 113.989,64.1081 113.489,63.4415 113.5,62.5C 112.585,63.3279 111.919,64.3279 111.5,65.5C 112.603,65.9976 113.603,66.3309 114.5,66.5C 114.081,67.6721 113.415,68.6721 112.5,69.5C 111.803,66.6562 110.636,66.9895 109,70.5C 108.667,69.5 108.333,68.5 108,67.5C 106,69.5 104,71.5 102,73.5C 101.28,75.1124 101.446,76.6124 102.5,78C 101,78.8333 99.8333,80 99,81.5C 98.6667,81.1667 98.3333,80.8333 98,80.5C 98.4296,82.127 98.5963,83.627 98.5,85C 97.8742,85.7504 97.3742,86.5838 97,87.5C 96.4921,85.0958 95.3255,84.4291 93.5,85.5C 95.85,86.7739 95.6833,88.1073 93,89.5C 90.5276,89.2204 87.8609,89.2204 85,89.5C 84.2888,91.3668 84.7888,92.8668 86.5,94C 85.2513,95.8241 84.0847,95.6574 83,93.5C 82.4926,94.9961 82.9926,96.1627 84.5,97C 83.5509,97.6172 82.7175,97.4506 82,96.5C 81.5439,97.7441 82.0439,98.5774 83.5,99C 82.1667,99.6667 80.8333,100.333 79.5,101C 79.8333,102 80.1667,103 80.5,104C 79.0722,105.916 78.0722,108.083 77.5,110.5C 76.914,110.291 76.414,109.957 76,109.5C 73.5473,111.927 71.0473,113.594 68.5,114.5C 66.8333,112.833 65.8333,113.167 65.5,115.5C 65.5288,117.029 66.1955,118.196 67.5,119C 66.5,119.333 65.5,119.667 64.5,120C 68.3066,121.939 68.3066,123.773 64.5,125.5C 63.2889,126.72 63.2889,127.887 64.5,129C 64.1667,129.167 63.8333,129.333 63.5,129.5C 62.7492,128.624 62.2492,127.624 62,126.5C 61.0975,127.701 59.9308,128.535 58.5,129C 59.2583,130.364 58.7583,131.531 57,132.5C 55.4345,131.939 54.1011,132.606 53,134.5C 52.2825,133.549 51.4491,133.383 50.5,134C 49.1667,135.333 47.8333,136.667 46.5,138C 46.8333,138.333 47.1667,138.667 47.5,139C 45.867,139.48 44.5336,140.313 43.5,141.5C 41.8334,122.167 40.1667,102.834 38.5,83.5C 39.078,86.9548 40.7447,87.7881 43.5,86C 41.7295,85.4646 41.3961,84.6313 42.5,83.5C 43.8425,84.9023 44.6758,84.5689 45,82.5C 45.7175,83.4506 46.5509,83.6172 47.5,83C 46.2164,81.7025 46.3831,80.5358 48,79.5C 49.0847,81.6574 50.2513,81.8241 51.5,80C 50.0506,78.883 48.3839,78.2163 46.5,78C 48.5155,76.8714 50.1822,76.038 51.5,75.5C 51.8606,72.893 51.3606,70.5597 50,68.5C 51.8082,68.8881 53.4748,68.8881 55,68.5C 56.3551,66.4971 57.1884,64.6638 57.5,63C 59.5,62.6667 61.5,62.3333 63.5,62C 65.2095,57.5187 66.0428,57.352 66,61.5C 67.6819,60.1354 67.8486,58.6354 66.5,57C 67.5,56.6667 68.5,56.3333 69.5,56C 69.8881,54.4748 69.8881,52.8082 69.5,51C 70.624,50.7508 71.624,50.2508 72.5,49.5C 71.1632,49.2598 69.4965,48.7598 67.5,48C 69.5,47.6667 71.5,47.3333 73.5,47C 74.1122,45.6967 74.4455,44.5301 74.5,43.5C 75.3333,44.5 76.1667,45.5 77,46.5C 78.487,45.7471 78.6537,44.9138 77.5,44C 78.5,43.6667 79.5,43.3333 80.5,43C 75.7695,43.0342 75.2695,41.5342 79,38.5C 80.2975,39.7836 81.4642,39.6169 82.5,38C 81.1118,37.1107 81.2785,36.6107 83,36.5C 87.16,38.2823 87.3266,37.4489 83.5,34C 84.6405,33.2588 84.6405,32.4255 83.5,31.5C 84.5312,30.2997 85.3645,28.9663 86,27.5C 86.4186,28.6721 87.0853,29.6721 88,30.5C 88.6172,29.5509 88.4506,28.7175 87.5,28C 90.277,25.8266 90.1103,25.3266 87,26.5C 86.3333,25.8333 86.3333,25.1667 87,24.5C 88.715,24.4803 90.5484,23.8136 92.5,22.5C 93.7112,21.7261 93.7112,20.8928 92.5,20C 94.7443,17.6514 95.9109,18.1514 96,21.5C 96.4189,17.1482 97.0855,16.8149 98,20.5C 98.2833,17.2577 99.1166,16.9244 100.5,19.5C 102.923,18.2882 103.923,16.2882 103.5,13.5C 104.822,13.33 105.989,13.6634 107,14.5C 107.658,12.892 107.158,11.7253 105.5,11C 107.973,8.92031 107.973,6.75364 105.5,4.5C 106.535,2.87162 106.535,1.20495 105.5,-0.5 Z"/></g>
<g><path style="opacity:0.998" fill="#670de4" d="M 167.5,-0.5 C 188.833,-0.5 210.167,-0.5 231.5,-0.5C 230.77,0.712371 229.77,1.71237 228.5,2.5C 229.491,3.66522 230.491,4.83188 231.5,6C 231.056,7.76176 230.556,7.5951 230,5.5C 229.805,7.20725 229.805,8.87391 230,10.5C 227.772,9.7007 226.439,10.7007 226,13.5C 225.217,11.5665 225.717,10.0665 227.5,9C 225.48,6.94805 223.813,7.11472 222.5,9.5C 224.04,10.5321 224.54,11.8654 224,13.5C 223.439,12.9781 222.772,12.6448 222,12.5C 219.898,13.0382 219.065,14.0382 219.5,15.5C 216.048,14.2522 214.048,15.5855 213.5,19.5C 214.83,22.8488 214.33,23.1821 212,20.5C 210.667,21.1667 209.667,22.1667 209,23.5C 207.493,22.4652 205.993,22.6319 204.5,24C 204.833,25 205.167,26 205.5,27C 204.285,29.0955 203.451,28.9288 203,26.5C 202.667,27.1667 202.333,27.8333 202,28.5C 200.57,28.6938 199.07,28.6938 197.5,28.5C 195.017,31.1229 192.684,33.9563 190.5,37C 186.639,36.7051 185.306,38.2051 186.5,41.5C 185.975,42.1924 185.308,42.6924 184.5,43C 186.957,44.1544 186.957,45.4877 184.5,47C 185.952,48.9583 186.285,50.9583 185.5,53C 186.167,53.3333 186.833,53.6667 187.5,54C 185.913,54.8624 184.246,55.5291 182.5,56C 181.711,58.3651 180.544,60.5318 179,62.5C 178.586,62.0426 178.086,61.7093 177.5,61.5C 176.3,62.5312 174.966,63.3645 173.5,64C 173.966,65.2988 173.966,66.7988 173.5,68.5C 174.552,68.3505 175.552,68.5172 176.5,69C 175.167,69.3333 173.833,69.6667 172.5,70C 172.833,70.3333 173.167,70.6667 173.5,71C 171.368,71.918 170.701,73.2513 171.5,75C 169.479,75.513 167.979,76.6797 167,78.5C 166.667,78.1667 166.333,77.8333 166,77.5C 165.5,78.6667 164.667,79.5 163.5,80C 163.833,80.3333 164.167,80.6667 164.5,81C 163.584,81.3742 162.75,81.8742 162,82.5C 161.576,80.3855 160.409,79.5521 158.5,80C 159.76,81.8138 159.76,83.6471 158.5,85.5C 156.902,83.0266 155.402,83.0266 154,85.5C 153.282,84.5494 152.449,84.3828 151.5,85C 153.349,86.093 155.016,87.4263 156.5,89C 155.965,91.1087 154.965,91.6087 153.5,90.5C 152.692,90.8076 152.025,91.3076 151.5,92C 152.357,94.0188 153.691,95.5188 155.5,96.5C 149.5,96.5 143.5,96.5 137.5,96.5C 136.509,103.313 136.175,110.313 136.5,117.5C 134.555,118.028 132.555,119.195 130.5,121C 132.929,121.451 133.096,122.285 131,123.5C 129.605,122.185 128.605,122.519 128,124.5C 125.536,123.474 123.702,124.308 122.5,127C 122.833,127.333 123.167,127.667 123.5,128C 122.234,128.309 121.067,128.809 120,129.5C 119.167,128.5 118.333,127.5 117.5,126.5C 116.718,128.329 117.384,129.829 119.5,131C 117.926,131.353 116.259,132.02 114.5,133C 116.007,133.837 116.507,135.004 116,136.5C 115.333,137.833 114.667,137.833 114,136.5C 112.829,138.616 111.329,139.282 109.5,138.5C 106.763,139.069 105.263,140.736 105,143.5C 104.333,142.167 103.333,141.167 102,140.5C 101.097,141.701 99.9308,142.535 98.5,143C 98.8333,144 99.1667,145 99.5,146C 98.2559,146.456 97.4226,145.956 97,144.5C 96.3333,145.833 96.3333,147.167 97,148.5C 97.6543,147.304 98.1543,147.304 98.5,148.5C 96.9556,149.747 95.4556,151.08 94,152.5C 90.8332,150.254 87.9998,150.42 85.5,153C 86.6721,153.419 87.6721,154.085 88.5,155C 86.0234,156.633 84.1901,158.8 83,161.5C 82.3333,157.5 81.6667,157.5 81,161.5C 79.4345,162.061 78.1011,161.394 77,159.5C 76.6827,161.301 76.016,161.634 75,160.5C 75.8106,162.791 74.9772,164.625 72.5,166C 73.7914,168.518 73.4581,170.851 71.5,173C 73.4016,174.256 74.735,176.089 75.5,178.5C 74.4305,178.64 73.2639,178.64 72,178.5C 71.6905,179.766 71.1905,180.933 70.5,182C 71.6341,183.016 71.3008,183.683 69.5,184C 74.1782,184.197 74.5116,185.197 70.5,187C 71.4239,187.85 71.4239,188.85 70.5,190C 69.3273,191.505 68.1607,193.005 67,194.5C 66.0255,192.122 65.3589,192.456 65,195.5C 64.6667,194.167 64.3333,192.833 64,191.5C 63.6541,193.848 62.4875,195.681 60.5,197C 60.6667,198.833 60.8333,200.667 61,202.5C 60.6667,202.167 60.3333,201.833 60,201.5C 57.9288,204.416 56.5954,204.082 56,200.5C 55.6667,201.5 55.3333,202.5 55,203.5C 54.3333,204.833 53.6667,204.833 53,203.5C 52.3828,204.449 52.5494,205.282 53.5,206C 52.1509,206.772 51.3176,207.939 51,209.5C 51.0302,206.639 50.1969,204.305 48.5,202.5C 47.1339,182.14 45.4672,161.807 43.5,141.5C 44.5336,140.313 45.867,139.48 47.5,139C 47.1667,138.667 46.8333,138.333 46.5,138C 47.8333,136.667 49.1667,135.333 50.5,134C 51.4491,133.383 52.2825,133.549 53,134.5C 54.1011,132.606 55.4345,131.939 57,132.5C 58.7583,131.531 59.2583,130.364 58.5,129C 59.9308,128.535 61.0975,127.701 62,126.5C 62.2492,127.624 62.7492,128.624 63.5,129.5C 63.8333,129.333 64.1667,129.167 64.5,129C 63.2889,127.887 63.2889,126.72 64.5,125.5C 68.3066,123.773 68.3066,121.939 64.5,120C 65.5,119.667 66.5,119.333 67.5,119C 66.1955,118.196 65.5288,117.029 65.5,115.5C 65.8333,113.167 66.8333,112.833 68.5,114.5C 71.0473,113.594 73.5473,111.927 76,109.5C 76.414,109.957 76.914,110.291 77.5,110.5C 78.0722,108.083 79.0722,105.916 80.5,104C 80.1667,103 79.8333,102 79.5,101C 80.8333,100.333 82.1667,99.6667 83.5,99C 82.0439,98.5774 81.5439,97.7441 82,96.5C 82.7175,97.4506 83.5509,97.6172 84.5,97C 82.9926,96.1627 82.4926,94.9961 83,93.5C 84.0847,95.6574 85.2513,95.8241 86.5,94C 84.7888,92.8668 84.2888,91.3668 85,89.5C 87.8609,89.2204 90.5276,89.2204 93,89.5C 95.6833,88.1073 95.85,86.7739 93.5,85.5C 95.3255,84.4291 96.4921,85.0958 97,87.5C 97.3742,86.5838 97.8742,85.7504 98.5,85C 98.5963,83.627 98.4296,82.127 98,80.5C 98.3333,80.8333 98.6667,81.1667 99,81.5C 99.8333,80 101,78.8333 102.5,78C 101.446,76.6124 101.28,75.1124 102,73.5C 104,71.5 106,69.5 108,67.5C 108.333,68.5 108.667,69.5 109,70.5C 110.636,66.9895 111.803,66.6562 112.5,69.5C 113.415,68.6721 114.081,67.6721 114.5,66.5C 113.603,66.3309 112.603,65.9976 111.5,65.5C 111.919,64.3279 112.585,63.3279 113.5,62.5C 113.489,63.4415 113.989,64.1081 115,64.5C 117.994,63.5133 118.161,62.18 115.5,60.5C 119.213,58.6628 119.213,57.1628 115.5,56C 118.544,55.6411 118.878,54.9745 116.5,54C 118.488,52.6338 119.488,51.1338 119.5,49.5C 122.55,55.3973 125.05,54.7306 127,47.5C 128.364,48.2583 129.531,47.7583 130.5,46C 129.167,44.1598 129.334,43.6598 131,44.5C 131.7,42.968 132.866,41.968 134.5,41.5C 135.396,42.5063 136.062,42.5063 136.5,41.5C 135.624,40.7492 134.624,40.2492 133.5,40C 135.061,39.6824 136.228,38.8491 137,37.5C 137.667,38.1667 138.333,38.8333 139,39.5C 141.015,37.5269 140.848,35.8603 138.5,34.5C 138.88,32.9793 139.046,31.3126 139,29.5C 140.243,27.1671 141.909,26.5004 144,27.5C 145.899,23.898 147.565,24.2313 149,28.5C 149.374,27.5838 149.874,26.7504 150.5,26C 149.167,25 147.833,24 146.5,23C 148.211,21.5648 149.378,19.7314 150,17.5C 150.739,18.5742 151.739,19.2409 153,19.5C 154.505,18.3273 156.005,17.1607 157.5,16C 157.499,14.6012 157.165,13.1012 156.5,11.5C 157.274,10.2888 158.107,10.2888 159,11.5C 159.309,10.2341 159.809,9.06743 160.5,8C 159.5,7 158.5,6 157.5,5C 158.667,3.83333 159.833,2.66667 161,1.5C 161.333,2.5 161.667,3.5 162,4.5C 162.667,3.16667 163.667,2.16667 165,1.5C 166.835,2.1193 169.001,2.28597 171.5,2C 169.68,1.79959 168.347,0.96626 167.5,-0.5 Z"/></g>
<g><path style="opacity:1" fill="#620bdd" d="M 231.5,-0.5 C 249.167,-0.5 266.833,-0.5 284.5,-0.5C 284.1,1.37672 283.1,2.87672 281.5,4C 282.999,6.2701 282.665,8.2701 280.5,10C 282.298,11.0934 283.132,12.5934 283,14.5C 281.601,14.4988 280.101,14.1654 278.5,13.5C 277.833,14.5 277.167,15.5 276.5,16.5C 275.325,15.1451 274.325,15.3117 273.5,17C 274.167,17.3333 274.833,17.6667 275.5,18C 273.91,19.0458 272.41,20.2125 271,21.5C 271.379,26.778 270.379,26.778 268,21.5C 265.833,23 266,24.1667 268.5,25C 267.333,25.5 266.5,26.3333 266,27.5C 265.667,24.5 265.333,21.5 265,18.5C 264.075,19.0465 263.242,19.7132 262.5,20.5C 262.846,21.6956 263.346,21.6956 264,20.5C 264.667,22.5 264.667,24.5 264,26.5C 263.834,22.4886 263,21.9886 261.5,25C 262.167,26 262.833,27 263.5,28C 261.473,29.3957 261.14,31.0624 262.5,33C 261.529,34.2036 260.529,34.7036 259.5,34.5C 260.025,35.1924 260.692,35.6924 261.5,36C 260.874,36.7504 260.374,37.5838 260,38.5C 258.475,38.8881 256.808,38.8881 255,38.5C 253.667,39.8333 252.333,41.1667 251,42.5C 249.663,41.2351 248.163,40.7351 246.5,41C 247.668,43.1634 248.335,45.1634 248.5,47C 246.744,47.2022 245.078,47.7022 243.5,48.5C 244.466,50.7812 243.633,52.4478 241,53.5C 238.082,52.5056 237.916,53.0056 240.5,55C 239.833,55.3333 239.167,55.6667 238.5,56C 239.945,57.7103 240.778,59.5436 241,61.5C 240,62.8333 239,62.8333 238,61.5C 235.102,64.4376 231.602,66.271 227.5,67C 228.337,68.0113 228.67,69.1779 228.5,70.5C 223.37,71.2875 222.37,73.1208 225.5,76C 224.289,77.1131 224.289,78.2798 225.5,79.5C 224.183,79.3131 222.85,79.9798 221.5,81.5C 222.811,82.2575 223.311,83.2575 223,84.5C 220.6,81.542 217.933,81.8753 215,85.5C 214.667,86.5 214.333,87.5 214,88.5C 213.43,84.488 212.263,83.988 210.5,87C 211.308,87.3076 211.975,87.8076 212.5,88.5C 211.471,88.2964 210.471,88.7964 209.5,90C 210.167,90.3333 210.833,90.6667 211.5,91C 210.333,92.1667 209.167,93.3333 208,94.5C 207.667,93.8333 207.333,93.1667 207,92.5C 205.915,93.7356 205.082,95.0689 204.5,96.5C 188.167,96.5 171.833,96.5 155.5,96.5C 153.691,95.5188 152.357,94.0188 151.5,92C 152.025,91.3076 152.692,90.8076 153.5,90.5C 154.965,91.6087 155.965,91.1087 156.5,89C 155.016,87.4263 153.349,86.093 151.5,85C 152.449,84.3828 153.282,84.5494 154,85.5C 155.402,83.0266 156.902,83.0266 158.5,85.5C 159.76,83.6471 159.76,81.8138 158.5,80C 160.409,79.5521 161.576,80.3855 162,82.5C 162.75,81.8742 163.584,81.3742 164.5,81C 164.167,80.6667 163.833,80.3333 163.5,80C 164.667,79.5 165.5,78.6667 166,77.5C 166.333,77.8333 166.667,78.1667 167,78.5C 167.979,76.6797 169.479,75.513 171.5,75C 170.701,73.2513 171.368,71.918 173.5,71C 173.167,70.6667 172.833,70.3333 172.5,70C 173.833,69.6667 175.167,69.3333 176.5,69C 175.552,68.5172 174.552,68.3505 173.5,68.5C 173.966,66.7988 173.966,65.2988 173.5,64C 174.966,63.3645 176.3,62.5312 177.5,61.5C 178.086,61.7093 178.586,62.0426 179,62.5C 180.544,60.5318 181.711,58.3651 182.5,56C 184.246,55.5291 185.913,54.8624 187.5,54C 186.833,53.6667 186.167,53.3333 185.5,53C 186.285,50.9583 185.952,48.9583 184.5,47C 186.957,45.4877 186.957,44.1544 184.5,43C 185.308,42.6924 185.975,42.1924 186.5,41.5C 185.306,38.2051 186.639,36.7051 190.5,37C 192.684,33.9563 195.017,31.1229 197.5,28.5C 199.07,28.6938 200.57,28.6938 202,28.5C 202.333,27.8333 202.667,27.1667 203,26.5C 203.451,28.9288 204.285,29.0955 205.5,27C 205.167,26 204.833,25 204.5,24C 205.993,22.6319 207.493,22.4652 209,23.5C 209.667,22.1667 210.667,21.1667 212,20.5C 214.33,23.1821 214.83,22.8488 213.5,19.5C 214.048,15.5855 216.048,14.2522 219.5,15.5C 219.065,14.0382 219.898,13.0382 222,12.5C 222.772,12.6448 223.439,12.9781 224,13.5C 224.54,11.8654 224.04,10.5321 222.5,9.5C 223.813,7.11472 225.48,6.94805 227.5,9C 225.717,10.0665 225.217,11.5665 226,13.5C 226.439,10.7007 227.772,9.7007 230,10.5C 229.805,8.87391 229.805,7.20725 230,5.5C 230.556,7.5951 231.056,7.76176 231.5,6C 230.491,4.83188 229.491,3.66522 228.5,2.5C 229.77,1.71237 230.77,0.712371 231.5,-0.5 Z"/></g>
<g><path style="opacity:1" fill="#5f0ad7" d="M 284.5,-0.5 C 303.833,-0.5 323.167,-0.5 342.5,-0.5C 343.309,1.44602 343.309,3.11269 342.5,4.5C 341.5,3.83333 340.5,3.16667 339.5,2.5C 337.584,3.24834 335.584,3.24834 333.5,2.5C 333.67,3.82207 333.337,4.98873 332.5,6C 334.891,6.69137 334.891,7.69137 332.5,9C 334.901,9.805 334.734,10.6383 332,11.5C 330.771,9.05317 329.271,8.88651 327.5,11C 328.257,12.5122 329.257,13.8455 330.5,15C 329.667,16.5 328.5,17.6667 327,18.5C 326.667,20.1667 326.333,21.8333 326,23.5C 325.085,22.6721 324.419,21.6721 324,20.5C 323.798,22.2556 323.298,23.9223 322.5,25.5C 321.914,25.2907 321.414,24.9574 321,24.5C 321,25.8333 321,27.1667 321,28.5C 320.333,27.8333 319.667,27.1667 319,26.5C 318.309,29.266 316.809,29.9327 314.5,28.5C 313.756,29.9905 313.09,31.4905 312.5,33C 313.167,33.3333 313.833,33.6667 314.5,34C 310.918,34.5954 310.584,35.9288 313.5,38C 311.875,38.8525 311.542,39.8525 312.5,41C 311.256,41.4561 310.423,40.9561 310,39.5C 308.007,41.4061 308.507,42.5727 311.5,43C 309.939,43.3176 308.772,44.1509 308,45.5C 307.667,43.8333 307.333,42.1667 307,40.5C 304.266,41.3617 304.099,42.195 306.5,43C 304.212,43.9464 302.045,45.1131 300,46.5C 299.035,44.7397 297.868,44.4063 296.5,45.5C 296.977,46.4776 297.643,47.3109 298.5,48C 296.754,48.4709 295.087,49.1376 293.5,50C 293.833,50.3333 294.167,50.6667 294.5,51C 293.122,52.7134 291.455,54.0467 289.5,55C 291.301,55.3173 291.634,55.984 290.5,57C 291.784,57.6838 292.951,57.5171 294,56.5C 294.667,58.5 294.667,60.5 294,62.5C 293.667,61.8333 293.333,61.1667 293,60.5C 291.414,62.6705 290.08,65.0038 289,67.5C 288.395,65.5188 287.395,65.1854 286,66.5C 283.626,63.7124 282.293,64.0458 282,67.5C 281.195,65.0989 280.362,65.2656 279.5,68C 280.638,69.7343 281.138,71.5676 281,73.5C 278.265,70.9901 276.765,71.3234 276.5,74.5C 275.284,73.9984 274.117,73.6651 273,73.5C 271.991,75.0249 271.491,76.6916 271.5,78.5C 272.675,78.281 273.675,78.6143 274.5,79.5C 273.726,80.7112 272.893,80.7112 272,79.5C 271.5,80.6667 270.667,81.5 269.5,82C 270.167,82.3333 270.833,82.6667 271.5,83C 269.395,84.3354 268.729,86.0021 269.5,88C 269.167,88.1667 268.833,88.3333 268.5,88.5C 267.749,87.624 267.249,86.624 267,85.5C 266.749,87.433 266.249,89.2663 265.5,91C 265.833,91.3333 266.167,91.6667 266.5,92C 264.43,92.3787 262.93,91.5453 262,89.5C 259.266,90.3617 259.099,91.195 261.5,92C 260.371,94.1678 258.871,94.6678 257,93.5C 256.487,94.5266 255.987,95.5266 255.5,96.5C 238.5,96.5 221.5,96.5 204.5,96.5C 205.082,95.0689 205.915,93.7356 207,92.5C 207.333,93.1667 207.667,93.8333 208,94.5C 209.167,93.3333 210.333,92.1667 211.5,91C 210.833,90.6667 210.167,90.3333 209.5,90C 210.471,88.7964 211.471,88.2964 212.5,88.5C 211.975,87.8076 211.308,87.3076 210.5,87C 212.263,83.988 213.43,84.488 214,88.5C 214.333,87.5 214.667,86.5 215,85.5C 217.933,81.8753 220.6,81.542 223,84.5C 223.311,83.2575 222.811,82.2575 221.5,81.5C 222.85,79.9798 224.183,79.3131 225.5,79.5C 224.289,78.2798 224.289,77.1131 225.5,76C 222.37,73.1208 223.37,71.2875 228.5,70.5C 228.67,69.1779 228.337,68.0113 227.5,67C 231.602,66.271 235.102,64.4376 238,61.5C 239,62.8333 240,62.8333 241,61.5C 240.778,59.5436 239.945,57.7103 238.5,56C 239.167,55.6667 239.833,55.3333 240.5,55C 237.916,53.0056 238.082,52.5056 241,53.5C 243.633,52.4478 244.466,50.7812 243.5,48.5C 245.078,47.7022 246.744,47.2022 248.5,47C 248.335,45.1634 247.668,43.1634 246.5,41C 248.163,40.7351 249.663,41.2351 251,42.5C 252.333,41.1667 253.667,39.8333 255,38.5C 256.808,38.8881 258.475,38.8881 260,38.5C 260.374,37.5838 260.874,36.7504 261.5,36C 260.692,35.6924 260.025,35.1924 259.5,34.5C 260.529,34.7036 261.529,34.2036 262.5,33C 261.14,31.0624 261.473,29.3957 263.5,28C 262.833,27 262.167,26 261.5,25C 263,21.9886 263.834,22.4886 264,26.5C 264.667,24.5 264.667,22.5 264,20.5C 263.346,21.6956 262.846,21.6956 262.5,20.5C 263.242,19.7132 264.075,19.0465 265,18.5C 265.333,21.5 265.667,24.5 266,27.5C 266.5,26.3333 267.333,25.5 268.5,25C 266,24.1667 265.833,23 268,21.5C 270.379,26.778 271.379,26.778 271,21.5C 272.41,20.2125 273.91,19.0458 275.5,18C 274.833,17.6667 274.167,17.3333 273.5,17C 274.325,15.3117 275.325,15.1451 276.5,16.5C 277.167,15.5 277.833,14.5 278.5,13.5C 280.101,14.1654 281.601,14.4988 283,14.5C 283.132,12.5934 282.298,11.0934 280.5,10C 282.665,8.2701 282.999,6.2701 281.5,4C 283.1,2.87672 284.1,1.37672 284.5,-0.5 Z"/></g>
<g><path style="opacity:1" fill="#5b0ad1" d="M 342.5,-0.5 C 362.5,-0.5 382.5,-0.5 402.5,-0.5C 399.659,0.837813 397.659,2.50448 396.5,4.5C 397.734,6.39829 397.401,8.06496 395.5,9.5C 394.167,9.16667 392.833,8.83333 391.5,8.5C 390.318,10.6454 388.818,10.6454 387,8.5C 386.5,9.66667 385.667,10.5 384.5,11C 385.451,11.7175 385.617,12.5509 385,13.5C 383.324,14.0611 381.991,15.0611 381,16.5C 378.721,13.0395 377.721,13.0395 378,16.5C 378.654,15.3044 379.154,15.3044 379.5,16.5C 378.998,17.7164 378.665,18.8831 378.5,20C 379.687,21.0195 380.687,22.1861 381.5,23.5C 380.635,23.5639 379.635,23.8973 378.5,24.5C 377.833,26.5 377.167,28.5 376.5,30.5C 375.5,29.8333 374.5,29.1667 373.5,28.5C 373.711,30.0437 373.711,31.7103 373.5,33.5C 370.034,30.6973 368.534,31.364 369,35.5C 368.085,34.6721 367.419,33.6721 367,32.5C 363.75,34.2051 363.916,35.7051 367.5,37C 366.874,37.7504 366.374,38.5838 366,39.5C 365.632,38.09 364.799,37.09 363.5,36.5C 362.194,37.9122 361.36,39.5789 361,41.5C 360.667,41.1667 360.333,40.8333 360,40.5C 359.012,42.9199 359.345,45.2533 361,47.5C 359.984,48.6341 359.317,48.3008 359,46.5C 358.527,48.779 357.527,50.779 356,52.5C 354.612,51.4464 353.112,51.2797 351.5,52C 353.878,52.9745 353.544,53.6411 350.5,54C 349.366,55.016 349.699,55.6827 351.5,56C 349.714,56.7845 348.214,57.9512 347,59.5C 346.751,58.376 346.251,57.376 345.5,56.5C 345.167,56.8333 344.833,57.1667 344.5,57.5C 343.418,59.8836 342.751,62.0503 342.5,64C 343.5,64.3333 344.5,64.6667 345.5,65C 343.926,65.353 342.259,66.0196 340.5,67C 341.308,67.3076 341.975,67.8076 342.5,68.5C 341.726,69.7112 340.893,69.7112 340,68.5C 339.667,69.5 339.333,70.5 339,71.5C 338.577,70.0439 337.744,69.5439 336.5,70C 335.929,74.2952 333.262,76.9618 328.5,78C 330.394,79.1011 331.061,80.4345 330.5,82C 328.887,82.0885 327.72,81.2552 327,79.5C 326.667,80.8333 326.333,82.1667 326,83.5C 325.667,82.8333 325.333,82.1667 325,81.5C 324.583,86.053 322.916,90.3864 320,94.5C 318.627,94.5963 317.127,94.4296 315.5,94C 312.515,97.0253 310.515,100.192 309.5,103.5C 308.186,102.687 307.019,101.687 306,100.5C 305.184,101.823 304.017,102.489 302.5,102.5C 290.969,99.9335 279.303,98.2669 267.5,97.5C 263.702,96.5166 259.702,96.1832 255.5,96.5C 255.987,95.5266 256.487,94.5266 257,93.5C 258.871,94.6678 260.371,94.1678 261.5,92C 259.099,91.195 259.266,90.3617 262,89.5C 262.93,91.5453 264.43,92.3787 266.5,92C 266.167,91.6667 265.833,91.3333 265.5,91C 266.249,89.2663 266.749,87.433 267,85.5C 267.249,86.624 267.749,87.624 268.5,88.5C 268.833,88.3333 269.167,88.1667 269.5,88C 268.729,86.0021 269.395,84.3354 271.5,83C 270.833,82.6667 270.167,82.3333 269.5,82C 270.667,81.5 271.5,80.6667 272,79.5C 272.893,80.7112 273.726,80.7112 274.5,79.5C 273.675,78.6143 272.675,78.281 271.5,78.5C 271.491,76.6916 271.991,75.0249 273,73.5C 274.117,73.6651 275.284,73.9984 276.5,74.5C 276.765,71.3234 278.265,70.9901 281,73.5C 281.138,71.5676 280.638,69.7343 279.5,68C 280.362,65.2656 281.195,65.0989 282,67.5C 282.293,64.0458 283.626,63.7124 286,66.5C 287.395,65.1854 288.395,65.5188 289,67.5C 290.08,65.0038 291.414,62.6705 293,60.5C 293.333,61.1667 293.667,61.8333 294,62.5C 294.667,60.5 294.667,58.5 294,56.5C 292.951,57.5171 291.784,57.6838 290.5,57C 291.634,55.984 291.301,55.3173 289.5,55C 291.455,54.0467 293.122,52.7134 294.5,51C 294.167,50.6667 293.833,50.3333 293.5,50C 295.087,49.1376 296.754,48.4709 298.5,48C 297.643,47.3109 296.977,46.4776 296.5,45.5C 297.868,44.4063 299.035,44.7397 300,46.5C 302.045,45.1131 304.212,43.9464 306.5,43C 304.099,42.195 304.266,41.3617 307,40.5C 307.333,42.1667 307.667,43.8333 308,45.5C 308.772,44.1509 309.939,43.3176 311.5,43C 308.507,42.5727 308.007,41.4061 310,39.5C 310.423,40.9561 311.256,41.4561 312.5,41C 311.542,39.8525 311.875,38.8525 313.5,38C 310.584,35.9288 310.918,34.5954 314.5,34C 313.833,33.6667 313.167,33.3333 312.5,33C 313.09,31.4905 313.756,29.9905 314.5,28.5C 316.809,29.9327 318.309,29.266 319,26.5C 319.667,27.1667 320.333,27.8333 321,28.5C 321,27.1667 321,25.8333 321,24.5C 321.414,24.9574 321.914,25.2907 322.5,25.5C 323.298,23.9223 323.798,22.2556 324,20.5C 324.419,21.6721 325.085,22.6721 326,23.5C 326.333,21.8333 326.667,20.1667 327,18.5C 328.5,17.6667 329.667,16.5 330.5,15C 329.257,13.8455 328.257,12.5122 327.5,11C 329.271,8.88651 330.771,9.05317 332,11.5C 334.734,10.6383 334.901,9.805 332.5,9C 334.891,7.69137 334.891,6.69137 332.5,6C 333.337,4.98873 333.67,3.82207 333.5,2.5C 335.584,3.24834 337.584,3.24834 339.5,2.5C 340.5,3.16667 341.5,3.83333 342.5,4.5C 343.309,3.11269 343.309,1.44602 342.5,-0.5 Z"/></g>
<g><path style="opacity:1" fill="#5608c9" d="M 402.5,-0.5 C 428.167,-0.5 453.833,-0.5 479.5,-0.5C 477.467,27.8588 475.134,56.1921 472.5,84.5C 470.692,84.4914 469.025,84.9914 467.5,86C 469.036,87.5994 469.536,89.4328 469,91.5C 467.011,89.6161 465.011,89.2828 463,90.5C 462.667,89.8333 462.333,89.1667 462,88.5C 460.064,89.1526 458.231,90.3193 456.5,92C 457.711,92.8928 457.711,93.7261 456.5,94.5C 455.186,93.6872 454.019,92.6872 453,91.5C 452.493,92.9961 452.993,94.1627 454.5,95C 454.167,96 453.833,97 453.5,98C 452.551,98.6172 451.718,98.4506 451,97.5C 448.466,100.615 445.466,103.282 442,105.5C 441.055,105.095 440.388,104.428 440,103.5C 439.888,106.447 438.388,107.78 435.5,107.5C 435.329,109.993 436.329,111.826 438.5,113C 436.801,113.393 435.301,112.893 434,111.5C 432.441,112.029 430.941,112.696 429.5,113.5C 428.757,112.092 427.923,110.759 427,109.5C 427.725,112.861 428.391,116.194 429,119.5C 427.62,116.942 426.12,116.942 424.5,119.5C 423.914,119.291 423.414,118.957 423,118.5C 422.915,120.085 422.749,121.418 422.5,122.5C 415.819,118.06 415.152,118.56 420.5,124C 420.167,124.333 419.833,124.667 419.5,125C 418.913,124.083 417.413,123.25 415,122.5C 413.992,122.982 412.825,123.148 411.5,123C 412.5,123.833 413.5,124.667 414.5,125.5C 412.677,126.491 411.177,127.824 410,129.5C 408.442,128.655 407.442,129.321 407,131.5C 405.705,130.159 405.205,128.826 405.5,127.5C 404.777,130.07 403.61,132.403 402,134.5C 398.65,136.378 395.483,138.378 392.5,140.5C 392.815,142.226 392.981,143.893 393,145.5C 392.085,144.672 391.419,143.672 391,142.5C 388.546,143.198 386.213,144.198 384,145.5C 383.667,145.167 383.333,144.833 383,144.5C 382.316,145.784 382.483,146.951 383.5,148C 382.256,148.456 381.423,147.956 381,146.5C 380.667,148.167 380.333,149.833 380,151.5C 376.882,150.603 373.882,150.603 371,151.5C 370.544,152.744 371.044,153.577 372.5,154C 372.167,154.333 371.833,154.667 371.5,155C 373.271,155.535 373.604,156.369 372.5,157.5C 371.452,156.617 370.285,155.95 369,155.5C 367.019,156.65 365.186,157.984 363.5,159.5C 362.261,153.031 359.928,147.031 356.5,141.5C 347.38,125.884 334.38,114.717 317.5,108C 312.34,106.305 307.34,104.471 302.5,102.5C 304.017,102.489 305.184,101.823 306,100.5C 307.019,101.687 308.186,102.687 309.5,103.5C 310.515,100.192 312.515,97.0253 315.5,94C 317.127,94.4296 318.627,94.5963 320,94.5C 322.916,90.3864 324.583,86.053 325,81.5C 325.333,82.1667 325.667,82.8333 326,83.5C 326.333,82.1667 326.667,80.8333 327,79.5C 327.72,81.2552 328.887,82.0885 330.5,82C 331.061,80.4345 330.394,79.1011 328.5,78C 333.262,76.9618 335.929,74.2952 336.5,70C 337.744,69.5439 338.577,70.0439 339,71.5C 339.333,70.5 339.667,69.5 340,68.5C 340.893,69.7112 341.726,69.7112 342.5,68.5C 341.975,67.8076 341.308,67.3076 340.5,67C 342.259,66.0196 343.926,65.353 345.5,65C 344.5,64.6667 343.5,64.3333 342.5,64C 342.751,62.0503 343.418,59.8836 344.5,57.5C 344.833,57.1667 345.167,56.8333 345.5,56.5C 346.251,57.376 346.751,58.376 347,59.5C 348.214,57.9512 349.714,56.7845 351.5,56C 349.699,55.6827 349.366,55.016 350.5,54C 353.544,53.6411 353.878,52.9745 351.5,52C 353.112,51.2797 354.612,51.4464 356,52.5C 357.527,50.779 358.527,48.779 359,46.5C 359.317,48.3008 359.984,48.6341 361,47.5C 359.345,45.2533 359.012,42.9199 360,40.5C 360.333,40.8333 360.667,41.1667 361,41.5C 361.36,39.5789 362.194,37.9122 363.5,36.5C 364.799,37.09 365.632,38.09 366,39.5C 366.374,38.5838 366.874,37.7504 367.5,37C 363.916,35.7051 363.75,34.2051 367,32.5C 367.419,33.6721 368.085,34.6721 369,35.5C 368.534,31.364 370.034,30.6973 373.5,33.5C 373.711,31.7103 373.711,30.0437 373.5,28.5C 374.5,29.1667 375.5,29.8333 376.5,30.5C 377.167,28.5 377.833,26.5 378.5,24.5C 379.635,23.8973 380.635,23.5639 381.5,23.5C 380.687,22.1861 379.687,21.0195 378.5,20C 378.665,18.8831 378.998,17.7164 379.5,16.5C 379.154,15.3044 378.654,15.3044 378,16.5C 377.721,13.0395 378.721,13.0395 381,16.5C 381.991,15.0611 383.324,14.0611 385,13.5C 385.617,12.5509 385.451,11.7175 384.5,11C 385.667,10.5 386.5,9.66667 387,8.5C 388.818,10.6454 390.318,10.6454 391.5,8.5C 392.833,8.83333 394.167,9.16667 395.5,9.5C 397.401,8.06496 397.734,6.39829 396.5,4.5C 397.659,2.50448 399.659,0.837813 402.5,-0.5 Z"/></g>
<g><path style="opacity:0.994" fill="#5307c4" d="M 472.5,84.5 C 471.012,102.202 469.345,119.869 467.5,137.5C 465.914,138.413 464.414,138.413 463,137.5C 460.851,139.724 461.351,141.224 464.5,142C 463.584,142.374 462.75,142.874 462,143.5C 461.261,141.779 460.427,140.113 459.5,138.5C 458.494,138.938 458.494,139.604 459.5,140.5C 456.494,143.854 453.994,147.52 452,151.5C 451.667,150.5 451.333,149.5 451,148.5C 450.941,151.822 449.774,154.656 447.5,157C 443.498,157.493 442.831,156.326 445.5,153.5C 445.167,153.167 444.833,152.833 444.5,152.5C 440.838,152.838 440.171,154.005 442.5,156C 441.382,157.074 440.382,158.24 439.5,159.5C 438.391,158.41 437.391,158.41 436.5,159.5C 437.326,160.451 437.492,161.451 437,162.5C 435.192,162.112 433.525,162.112 432,162.5C 430.5,164 429,165.5 427.5,167C 424.06,166.731 421.894,168.565 421,172.5C 418.725,170.437 416.892,171.104 415.5,174.5C 416.487,178.367 415.987,178.367 414,174.5C 413.085,175.328 412.419,176.328 412,177.5C 411.421,173.614 410.588,173.614 409.5,177.5C 410.813,179.518 410.147,180.685 407.5,181C 409.709,181.957 409.543,183.124 407,184.5C 405.413,183.273 404.079,183.606 403,185.5C 402.581,184.328 401.915,183.328 401,182.5C 400.215,184.286 399.049,185.786 397.5,187C 398.167,187.333 398.833,187.667 399.5,188C 398.333,188.5 397.5,189.333 397,190.5C 396.5,190 396,189.5 395.5,189C 395.616,187.732 395.949,186.398 396.5,185C 396,184.5 395.5,184 395,183.5C 394.727,185.101 394.227,186.601 393.5,188C 393.957,188.414 394.291,188.914 394.5,189.5C 392.833,191.167 391.167,192.833 389.5,194.5C 387.167,193.5 386.5,194.167 387.5,196.5C 385.009,197.541 385.009,198.374 387.5,199C 385.256,201.349 384.089,200.849 384,197.5C 383.683,199.301 383.016,199.634 382,198.5C 380.352,199.717 378.519,200.55 376.5,201C 376.018,202.008 375.852,203.175 376,204.5C 375.667,204.167 375.333,203.833 375,203.5C 374.028,205.305 372.861,206.972 371.5,208.5C 370.184,205.972 369.017,205.972 368,208.5C 366.315,206.012 364.981,206.345 364,209.5C 363.517,208.552 363.351,207.552 363.5,206.5C 367.473,190.794 367.473,175.128 363.5,159.5C 365.186,157.984 367.019,156.65 369,155.5C 370.285,155.95 371.452,156.617 372.5,157.5C 373.604,156.369 373.271,155.535 371.5,155C 371.833,154.667 372.167,154.333 372.5,154C 371.044,153.577 370.544,152.744 371,151.5C 373.882,150.603 376.882,150.603 380,151.5C 380.333,149.833 380.667,148.167 381,146.5C 381.423,147.956 382.256,148.456 383.5,148C 382.483,146.951 382.316,145.784 383,144.5C 383.333,144.833 383.667,145.167 384,145.5C 386.213,144.198 388.546,143.198 391,142.5C 391.419,143.672 392.085,144.672 393,145.5C 392.981,143.893 392.815,142.226 392.5,140.5C 395.483,138.378 398.65,136.378 402,134.5C 403.61,132.403 404.777,130.07 405.5,127.5C 405.205,128.826 405.705,130.159 407,131.5C 407.442,129.321 408.442,128.655 410,129.5C 411.177,127.824 412.677,126.491 414.5,125.5C 413.5,124.667 412.5,123.833 411.5,123C 412.825,123.148 413.992,122.982 415,122.5C 417.413,123.25 418.913,124.083 419.5,125C 419.833,124.667 420.167,124.333 420.5,124C 415.152,118.56 415.819,118.06 422.5,122.5C 422.749,121.418 422.915,120.085 423,118.5C 423.414,118.957 423.914,119.291 424.5,119.5C 426.12,116.942 427.62,116.942 429,119.5C 428.391,116.194 427.725,112.861 427,109.5C 427.923,110.759 428.757,112.092 429.5,113.5C 430.941,112.696 432.441,112.029 434,111.5C 435.301,112.893 436.801,113.393 438.5,113C 436.329,111.826 435.329,109.993 435.5,107.5C 438.388,107.78 439.888,106.447 440,103.5C 440.388,104.428 441.055,105.095 442,105.5C 445.466,103.282 448.466,100.615 451,97.5C 451.718,98.4506 452.551,98.6172 453.5,98C 453.833,97 454.167,96 454.5,95C 452.993,94.1627 452.493,92.9961 453,91.5C 454.019,92.6872 455.186,93.6872 456.5,94.5C 457.711,93.7261 457.711,92.8928 456.5,92C 458.231,90.3193 460.064,89.1526 462,88.5C 462.333,89.1667 462.667,89.8333 463,90.5C 465.011,89.2828 467.011,89.6161 469,91.5C 469.536,89.4328 469.036,87.5994 467.5,86C 469.025,84.9914 470.692,84.4914 472.5,84.5 Z"/></g>
<g><path style="opacity:1" fill="#decaf6" d="M 137.5,96.5 C 143.5,96.5 149.5,96.5 155.5,96.5C 171.833,96.5 188.167,96.5 204.5,96.5C 221.5,96.5 238.5,96.5 255.5,96.5C 259.702,96.1832 263.702,96.5166 267.5,97.5C 259.493,97.3336 251.493,97.5003 243.5,98C 244.833,98.6667 244.833,99.3333 243.5,100C 244.328,100.915 245.328,101.581 246.5,102C 245.12,103.324 244.786,104.657 245.5,106C 244.833,106.333 244.167,106.667 243.5,107C 247.5,108 247.5,109 243.5,110C 246.544,110.359 246.878,111.026 244.5,112C 244.274,114.151 244.941,116.317 246.5,118.5C 245.703,120.132 244.703,121.632 243.5,123C 243.944,124.762 244.444,124.595 245,122.5C 245.309,123.766 245.809,124.933 246.5,126C 244.431,126.324 244.098,127.158 245.5,128.5C 244.595,130.638 243.595,132.805 242.5,135C 243.64,136.973 244.973,138.807 246.5,140.5C 245.833,140.833 245.167,141.167 244.5,141.5C 245.711,142.874 246.711,144.374 247.5,146C 247.354,147.727 246.687,147.894 245.5,146.5C 244.614,147.325 244.281,148.325 244.5,149.5C 230.5,149.5 216.5,149.5 202.5,149.5C 202.5,176.167 202.5,202.833 202.5,229.5C 221.503,229.667 240.503,229.5 259.5,229C 267.445,228.245 275.112,226.412 282.5,223.5C 267.626,240.729 252.626,257.895 237.5,275C 247.009,275.17 256.342,275.67 265.5,276.5C 255.833,276.5 246.167,276.5 236.5,276.5C 225.346,275.505 214.012,275.172 202.5,275.5C 202.5,288.833 202.5,302.167 202.5,315.5C 180.833,339.5 159.167,363.5 137.5,387.5C 137.5,290.5 137.5,193.5 137.5,96.5 Z"/></g>
<g><path style="opacity:1" fill="#dac8f1" d="M 267.5,97.5 C 279.303,98.2669 290.969,99.9335 302.5,102.5C 307.34,104.471 312.34,106.305 317.5,108C 334.38,114.717 347.38,125.884 356.5,141.5C 353.606,142.882 351.106,144.882 349,147.5C 332.673,166.991 315.84,185.991 298.5,204.5C 302.595,189.984 300.762,176.317 293,163.5C 287.826,158.327 281.659,154.827 274.5,153C 264.602,150.977 254.602,149.81 244.5,149.5C 244.281,148.325 244.614,147.325 245.5,146.5C 246.687,147.894 247.354,147.727 247.5,146C 246.711,144.374 245.711,142.874 244.5,141.5C 245.167,141.167 245.833,140.833 246.5,140.5C 244.973,138.807 243.64,136.973 242.5,135C 243.595,132.805 244.595,130.638 245.5,128.5C 244.098,127.158 244.431,126.324 246.5,126C 245.809,124.933 245.309,123.766 245,122.5C 244.444,124.595 243.944,124.762 243.5,123C 244.703,121.632 245.703,120.132 246.5,118.5C 244.941,116.317 244.274,114.151 244.5,112C 246.878,111.026 246.544,110.359 243.5,110C 247.5,109 247.5,108 243.5,107C 244.167,106.667 244.833,106.333 245.5,106C 244.786,104.657 245.12,103.324 246.5,102C 245.328,101.581 244.328,100.915 243.5,100C 244.833,99.3333 244.833,98.6667 243.5,98C 251.493,97.5003 259.493,97.3336 267.5,97.5 Z"/></g>
<g><path style="opacity:0.998" fill="#640cdd" d="M 136.5,117.5 C 136.5,136.5 136.5,155.5 136.5,174.5C 135.636,175.688 134.636,176.855 133.5,178C 134.584,180.19 133.917,181.856 131.5,183C 132.86,184.938 132.527,186.604 130.5,188C 125.578,190.469 120.912,193.469 116.5,197C 116.018,198.008 115.852,199.175 116,200.5C 115.085,199.672 114.419,198.672 114,197.5C 113.683,199.301 113.016,199.634 112,198.5C 110.186,199.851 110.519,200.851 113,201.5C 113.333,201.167 113.667,200.833 114,200.5C 116.359,203.124 116.025,203.791 113,202.5C 111.221,204.017 111.721,204.851 114.5,205C 111.338,205.854 110.171,207.688 111,210.5C 109.984,209.366 109.317,209.699 109,211.5C 108.086,210.346 107.253,210.513 106.5,212C 107.5,212.333 108.5,212.667 109.5,213C 108.333,213.5 107.5,214.333 107,215.5C 105.482,215.943 104.315,215.276 103.5,213.5C 102.692,213.808 102.025,214.308 101.5,215C 102.949,216.117 104.616,216.784 106.5,217C 103.629,217.131 101.295,218.297 99.5,220.5C 98.7492,219.624 98.2492,218.624 98,217.5C 97.2496,218.126 96.4162,218.626 95.5,219C 95.8333,219.333 96.1667,219.667 96.5,220C 95.2986,220.903 94.4652,222.069 94,223.5C 93.6924,222.692 93.1924,222.025 92.5,221.5C 91.5745,222.641 90.7412,222.641 90,221.5C 89.3333,222.5 89.3333,223.5 90,224.5C 91.5292,225.729 92.6959,227.229 93.5,229C 91.399,232.261 88.399,234.094 84.5,234.5C 84.8457,235.696 85.3457,235.696 86,234.5C 86.6667,235.5 86.6667,236.5 86,237.5C 85.6667,237.167 85.3333,236.833 85,236.5C 84.6258,237.416 84.1258,238.25 83.5,239C 81.1305,240.226 78.9638,241.06 77,241.5C 76.3856,243.313 76.7189,243.647 78,242.5C 78.8651,244.888 78.0317,246.388 75.5,247C 76.3567,247.689 77.0233,248.522 77.5,249.5C 75.0271,249.675 73.6938,251.342 73.5,254.5C 74.8734,254.343 76.2068,254.51 77.5,255C 76.7471,256.487 75.9138,256.654 75,255.5C 73.513,256.253 73.3463,257.086 74.5,258C 72.4259,257.773 70.4259,257.939 68.5,258.5C 66.6649,256.233 64.6649,256.233 62.5,258.5C 63.1667,258.833 63.8333,259.167 64.5,259.5C 63.7161,261.029 62.7161,262.696 61.5,264.5C 61.5245,262.716 61.0245,260.716 60,258.5C 59.0266,260.392 58.3599,262.392 58,264.5C 56.8873,263.695 55.7206,263.028 54.5,262.5C 52.6771,242.444 50.6771,222.444 48.5,202.5C 50.1969,204.305 51.0302,206.639 51,209.5C 51.3176,207.939 52.1509,206.772 53.5,206C 52.5494,205.282 52.3828,204.449 53,203.5C 53.6667,204.833 54.3333,204.833 55,203.5C 55.3333,202.5 55.6667,201.5 56,200.5C 56.5954,204.082 57.9288,204.416 60,201.5C 60.3333,201.833 60.6667,202.167 61,202.5C 60.8333,200.667 60.6667,198.833 60.5,197C 62.4875,195.681 63.6541,193.848 64,191.5C 64.3333,192.833 64.6667,194.167 65,195.5C 65.3589,192.456 66.0255,192.122 67,194.5C 68.1607,193.005 69.3273,191.505 70.5,190C 71.4239,188.85 71.4239,187.85 70.5,187C 74.5116,185.197 74.1782,184.197 69.5,184C 71.3008,183.683 71.6341,183.016 70.5,182C 71.1905,180.933 71.6905,179.766 72,178.5C 73.2639,178.64 74.4305,178.64 75.5,178.5C 74.735,176.089 73.4016,174.256 71.5,173C 73.4581,170.851 73.7914,168.518 72.5,166C 74.9772,164.625 75.8106,162.791 75,160.5C 76.016,161.634 76.6827,161.301 77,159.5C 78.1011,161.394 79.4345,162.061 81,161.5C 81.6667,157.5 82.3333,157.5 83,161.5C 84.1901,158.8 86.0234,156.633 88.5,155C 87.6721,154.085 86.6721,153.419 85.5,153C 87.9998,150.42 90.8332,150.254 94,152.5C 95.4556,151.08 96.9556,149.747 98.5,148.5C 98.1543,147.304 97.6543,147.304 97,148.5C 96.3333,147.167 96.3333,145.833 97,144.5C 97.4226,145.956 98.2559,146.456 99.5,146C 99.1667,145 98.8333,144 98.5,143C 99.9308,142.535 101.097,141.701 102,140.5C 103.333,141.167 104.333,142.167 105,143.5C 105.263,140.736 106.763,139.069 109.5,138.5C 111.329,139.282 112.829,138.616 114,136.5C 114.667,137.833 115.333,137.833 116,136.5C 116.507,135.004 116.007,133.837 114.5,133C 116.259,132.02 117.926,131.353 119.5,131C 117.384,129.829 116.718,128.329 117.5,126.5C 118.333,127.5 119.167,128.5 120,129.5C 121.067,128.809 122.234,128.309 123.5,128C 123.167,127.667 122.833,127.333 122.5,127C 123.702,124.308 125.536,123.474 128,124.5C 128.605,122.519 129.605,122.185 131,123.5C 133.096,122.285 132.929,121.451 130.5,121C 132.555,119.195 134.555,118.028 136.5,117.5 Z"/></g>
<g><path style="opacity:1" fill="#fefdfe" d="M 356.5,141.5 C 359.928,147.031 362.261,153.031 363.5,159.5C 367.473,175.128 367.473,190.794 363.5,206.5C 358.184,222.957 348.184,235.79 333.5,245C 329.5,247 325.5,249 321.5,251C 332.803,253.841 342.803,259.007 351.5,266.5C 362.935,277.032 369.935,290.032 372.5,305.5C 375.501,325.799 373.168,345.466 365.5,364.5C 355.786,383.04 341.119,396.207 321.5,404C 313.751,406.639 306.084,409.139 298.5,411.5C 290.867,412.526 283.2,413.359 275.5,414C 256.503,414.5 237.503,414.667 218.5,414.5C 191.5,414.5 164.5,414.5 137.5,414.5C 137.5,405.5 137.5,396.5 137.5,387.5C 159.167,363.5 180.833,339.5 202.5,315.5C 202.17,331.009 202.504,346.342 203.5,361.5C 225.836,361.667 248.169,361.5 270.5,361C 299.256,355.669 311.423,338.502 307,309.5C 302.931,289.177 290.431,278.177 269.5,276.5C 268.167,276.5 266.833,276.5 265.5,276.5C 256.342,275.67 247.009,275.17 237.5,275C 252.626,257.895 267.626,240.729 282.5,223.5C 289.997,219.002 295.33,212.669 298.5,204.5C 315.84,185.991 332.673,166.991 349,147.5C 351.106,144.882 353.606,142.882 356.5,141.5 Z"/></g>
<g><path style="opacity:1" fill="#5b0dcc" d="M 244.5,149.5 C 254.602,149.81 264.602,150.977 274.5,153C 281.659,154.827 287.826,158.327 293,163.5C 300.762,176.317 302.595,189.984 298.5,204.5C 295.33,212.669 289.997,219.002 282.5,223.5C 275.112,226.412 267.445,228.245 259.5,229C 240.503,229.5 221.503,229.667 202.5,229.5C 202.5,202.833 202.5,176.167 202.5,149.5C 216.5,149.5 230.5,149.5 244.5,149.5 Z"/></g>
<g><path style="opacity:0.996" fill="#5007be" d="M 467.5,137.5 C 466.133,156.537 464.466,175.537 462.5,194.5C 459.755,195.084 457.422,196.418 455.5,198.5C 453.5,197.167 451.5,197.167 449.5,198.5C 449.089,197.738 448.923,196.738 449,195.5C 447.408,199.029 446.074,202.695 445,206.5C 444.581,202.148 443.914,201.815 443,205.5C 441.284,204.448 440.284,205.114 440,207.5C 439.586,207.043 439.086,206.709 438.5,206.5C 435.723,208.272 435.39,210.105 437.5,212C 436.285,214.096 435.451,213.929 435,211.5C 432.734,215.334 432.067,215.001 433,210.5C 432,211.833 431,213.167 430,214.5C 428.915,212.343 427.749,212.176 426.5,214C 427.5,215 428.5,216 429.5,217C 427.899,217.273 426.399,217.773 425,218.5C 423.899,216.606 422.566,215.939 421,216.5C 420.667,217.5 420.333,218.5 420,219.5C 419.311,218.643 418.478,217.977 417.5,217.5C 416.757,218.908 415.923,220.241 415,221.5C 413.732,221.384 412.398,221.051 411,220.5C 410.833,220.833 410.667,221.167 410.5,221.5C 415.694,222.83 415.694,224.33 410.5,226C 411.517,227.049 411.684,228.216 411,229.5C 409.431,229.153 407.598,228.986 405.5,229C 406.308,229.308 406.975,229.808 407.5,230.5C 406.738,230.911 405.738,231.077 404.5,231C 405.673,234.11 405.173,234.277 403,231.5C 401.902,232.967 400.402,233.801 398.5,234C 399.517,235.049 399.684,236.216 399,237.5C 398.667,236.833 398.333,236.167 398,235.5C 397.667,237.167 397.333,238.833 397,240.5C 396.692,239.692 396.192,239.025 395.5,238.5C 394.185,240.316 392.685,241.983 391,243.5C 390.275,241.842 389.108,241.342 387.5,242C 388.673,245.11 388.173,245.277 386,242.5C 385.215,244.286 384.049,245.786 382.5,247C 382.404,248.373 382.57,249.873 383,251.5C 382.085,250.672 381.419,249.672 381,248.5C 380.333,249.833 379.667,251.167 379,252.5C 376.567,247.418 375.733,247.751 376.5,253.5C 376.081,254.672 375.415,255.672 374.5,256.5C 371.661,257.195 368.661,257.362 365.5,257C 365.4,259.355 364.233,261.522 362,263.5C 361.576,261.385 360.409,260.552 358.5,261C 359.167,261.667 359.833,262.333 360.5,263C 356.19,264.503 355.856,266.17 359.5,268C 356.692,268.92 354.525,268.087 353,265.5C 352.617,266.056 352.117,266.389 351.5,266.5C 342.803,259.007 332.803,253.841 321.5,251C 325.5,249 329.5,247 333.5,245C 348.184,235.79 358.184,222.957 363.5,206.5C 363.351,207.552 363.517,208.552 364,209.5C 364.981,206.345 366.315,206.012 368,208.5C 369.017,205.972 370.184,205.972 371.5,208.5C 372.861,206.972 374.028,205.305 375,203.5C 375.333,203.833 375.667,204.167 376,204.5C 375.852,203.175 376.018,202.008 376.5,201C 378.519,200.55 380.352,199.717 382,198.5C 383.016,199.634 383.683,199.301 384,197.5C 384.089,200.849 385.256,201.349 387.5,199C 385.009,198.374 385.009,197.541 387.5,196.5C 386.5,194.167 387.167,193.5 389.5,194.5C 391.167,192.833 392.833,191.167 394.5,189.5C 394.291,188.914 393.957,188.414 393.5,188C 394.227,186.601 394.727,185.101 395,183.5C 395.5,184 396,184.5 396.5,185C 395.949,186.398 395.616,187.732 395.5,189C 396,189.5 396.5,190 397,190.5C 397.5,189.333 398.333,188.5 399.5,188C 398.833,187.667 398.167,187.333 397.5,187C 399.049,185.786 400.215,184.286 401,182.5C 401.915,183.328 402.581,184.328 403,185.5C 404.079,183.606 405.413,183.273 407,184.5C 409.543,183.124 409.709,181.957 407.5,181C 410.147,180.685 410.813,179.518 409.5,177.5C 410.588,173.614 411.421,173.614 412,177.5C 412.419,176.328 413.085,175.328 414,174.5C 415.987,178.367 416.487,178.367 415.5,174.5C 416.892,171.104 418.725,170.437 421,172.5C 421.894,168.565 424.06,166.731 427.5,167C 429,165.5 430.5,164 432,162.5C 433.525,162.112 435.192,162.112 437,162.5C 437.492,161.451 437.326,160.451 436.5,159.5C 437.391,158.41 438.391,158.41 439.5,159.5C 440.382,158.24 441.382,157.074 442.5,156C 440.171,154.005 440.838,152.838 444.5,152.5C 444.833,152.833 445.167,153.167 445.5,153.5C 442.831,156.326 443.498,157.493 447.5,157C 449.774,154.656 450.941,151.822 451,148.5C 451.333,149.5 451.667,150.5 452,151.5C 453.994,147.52 456.494,143.854 459.5,140.5C 458.494,139.604 458.494,138.938 459.5,138.5C 460.427,140.113 461.261,141.779 462,143.5C 462.75,142.874 463.584,142.374 464.5,142C 461.351,141.224 460.851,139.724 463,137.5C 464.414,138.413 465.914,138.413 467.5,137.5 Z"/></g>
<g><path style="opacity:0.995" fill="#600ad7" d="M 136.5,174.5 C 136.5,196.167 136.5,217.833 136.5,239.5C 135.761,239.369 135.094,239.536 134.5,240C 135.174,241.751 135.507,243.417 135.5,245C 134.344,246.615 133.011,246.615 131.5,245C 132.451,244.282 132.617,243.449 132,242.5C 130.077,244.119 129.577,245.952 130.5,248C 128.953,248.333 127.62,247.833 126.5,246.5C 124.336,246.998 122.669,248.164 121.5,250C 122.167,250.667 122.833,251.333 123.5,252C 122.351,253.604 122.351,255.27 123.5,257C 122.922,258.811 122.422,260.645 122,262.5C 121.676,260.431 120.842,260.098 119.5,261.5C 118.522,261.023 117.689,260.357 117,259.5C 116,260.833 115,260.833 114,259.5C 113.5,260 113,260.5 112.5,261C 113.641,261.741 113.641,262.575 112.5,263.5C 113.167,264.167 113.833,264.833 114.5,265.5C 113.559,265.489 112.892,265.989 112.5,267C 113.968,269.028 113.801,270.862 112,272.5C 111.517,271.552 111.351,270.552 111.5,269.5C 108.001,269.259 107.668,270.092 110.5,272C 109.049,271.737 107.716,271.904 106.5,272.5C 106.623,275.044 106.623,277.544 106.5,280C 105.473,281.638 103.973,283.471 102,285.5C 100.771,283.053 99.2711,282.887 97.5,285C 95.2625,287.03 93.7625,289.53 93,292.5C 92.5,291.333 91.6667,290.5 90.5,290C 91.5,289.667 92.5,289.333 93.5,289C 90.7555,288.372 88.7555,289.372 87.5,292C 88.4506,292.718 88.6172,293.551 88,294.5C 85.9824,296.35 84.1491,298.35 82.5,300.5C 82.3602,301.903 82.3602,303.403 82.5,305C 81.5838,305.374 80.7504,305.874 80,306.5C 79.6924,305.692 79.1924,305.025 78.5,304.5C 76.9299,304.694 75.4299,304.694 74,304.5C 75.3664,306.233 76.3664,308.233 77,310.5C 75.5701,310.694 74.0701,310.694 72.5,310.5C 71.6667,311.5 70.8333,312.5 70,313.5C 68.9505,312.483 67.7839,312.316 66.5,313C 66.8333,313.333 67.1667,313.667 67.5,314C 64.3524,315.841 64.3524,318.174 67.5,321C 66.6634,322.011 66.33,323.178 66.5,324.5C 65.3035,325.883 63.4702,326.55 61,326.5C 60.5439,325.256 61.0439,324.423 62.5,324C 61.3094,323.302 60.3094,322.469 59.5,321.5C 57.653,301.85 55.9863,282.183 54.5,262.5C 55.7206,263.028 56.8873,263.695 58,264.5C 58.3599,262.392 59.0266,260.392 60,258.5C 61.0245,260.716 61.5245,262.716 61.5,264.5C 62.7161,262.696 63.7161,261.029 64.5,259.5C 63.8333,259.167 63.1667,258.833 62.5,258.5C 64.6649,256.233 66.6649,256.233 68.5,258.5C 70.4259,257.939 72.4259,257.773 74.5,258C 73.3463,257.086 73.513,256.253 75,255.5C 75.9138,256.654 76.7471,256.487 77.5,255C 76.2068,254.51 74.8734,254.343 73.5,254.5C 73.6938,251.342 75.0271,249.675 77.5,249.5C 77.0233,248.522 76.3567,247.689 75.5,247C 78.0317,246.388 78.8651,244.888 78,242.5C 76.7189,243.647 76.3856,243.313 77,241.5C 78.9638,241.06 81.1305,240.226 83.5,239C 84.1258,238.25 84.6258,237.416 85,236.5C 85.3333,236.833 85.6667,237.167 86,237.5C 86.6667,236.5 86.6667,235.5 86,234.5C 85.3457,235.696 84.8457,235.696 84.5,234.5C 88.399,234.094 91.399,232.261 93.5,229C 92.6959,227.229 91.5292,225.729 90,224.5C 89.3333,223.5 89.3333,222.5 90,221.5C 90.7412,222.641 91.5745,222.641 92.5,221.5C 93.1924,222.025 93.6924,222.692 94,223.5C 94.4652,222.069 95.2986,220.903 96.5,220C 96.1667,219.667 95.8333,219.333 95.5,219C 96.4162,218.626 97.2496,218.126 98,217.5C 98.2492,218.624 98.7492,219.624 99.5,220.5C 101.295,218.297 103.629,217.131 106.5,217C 104.616,216.784 102.949,216.117 101.5,215C 102.025,214.308 102.692,213.808 103.5,213.5C 104.315,215.276 105.482,215.943 107,215.5C 107.5,214.333 108.333,213.5 109.5,213C 108.5,212.667 107.5,212.333 106.5,212C 107.253,210.513 108.086,210.346 109,211.5C 109.317,209.699 109.984,209.366 111,210.5C 110.171,207.688 111.338,205.854 114.5,205C 111.721,204.851 111.221,204.017 113,202.5C 116.025,203.791 116.359,203.124 114,200.5C 113.667,200.833 113.333,201.167 113,201.5C 110.519,200.851 110.186,199.851 112,198.5C 113.016,199.634 113.683,199.301 114,197.5C 114.419,198.672 115.085,199.672 116,200.5C 115.852,199.175 116.018,198.008 116.5,197C 120.912,193.469 125.578,190.469 130.5,188C 132.527,186.604 132.86,184.938 131.5,183C 133.917,181.856 134.584,180.19 133.5,178C 134.636,176.855 135.636,175.688 136.5,174.5 Z"/></g>
<g><path style="opacity:0.995" fill="#4d05b8" d="M 462.5,194.5 C 461.387,209.858 460.054,225.191 458.5,240.5C 457.778,240.918 457.278,241.584 457,242.5C 456.667,242.167 456.333,241.833 456,241.5C 454.923,243.705 454.257,245.705 454,247.5C 452.73,245.164 451.23,245.164 449.5,247.5C 449.709,248.086 450.043,248.586 450.5,249C 446.884,249.347 446.217,250.514 448.5,252.5C 447.624,253.251 446.624,253.751 445.5,254C 447.612,254.906 448.445,256.406 448,258.5C 446.818,256.765 445.151,255.765 443,255.5C 441.7,256.707 440.2,257.374 438.5,257.5C 438.863,259.911 437.863,261.411 435.5,262C 436.34,263.666 435.84,263.833 434,262.5C 432.667,263.167 431.667,264.167 431,265.5C 429.407,263.715 427.907,263.548 426.5,265C 428.301,265.317 428.634,265.984 427.5,267C 425.833,267.833 424.167,268.667 422.5,269.5C 421.808,268.975 421.308,268.308 421,267.5C 420.333,268.833 419.667,270.167 419,271.5C 417.667,271.5 416.333,271.5 415,271.5C 414.535,272.931 413.701,274.097 412.5,275C 412.833,275.333 413.167,275.667 413.5,276C 411.667,276.5 410.5,277.667 410,279.5C 409.667,279.167 409.333,278.833 409,278.5C 408.219,282.42 405.886,285.086 402,286.5C 400.062,284.022 397.895,283.855 395.5,286C 397.285,287.163 399.285,287.83 401.5,288C 399.567,288.251 397.734,288.751 396,289.5C 395.111,288.112 394.611,288.278 394.5,290C 397.39,291.892 397.056,292.725 393.5,292.5C 393.5,291.5 393.5,290.5 393.5,289.5C 390.402,289.413 390.068,289.913 392.5,291C 391.167,291.667 391.167,292.333 392.5,293C 391.552,293.483 390.552,293.649 389.5,293.5C 389.62,296.205 388.62,296.872 386.5,295.5C 385.522,295.977 384.689,296.643 384,297.5C 383.667,296.5 383.333,295.5 383,294.5C 381.81,297.2 379.977,299.367 377.5,301C 377.833,301.333 378.167,301.667 378.5,302C 377.051,303.117 375.384,303.784 373.5,304C 375.932,305.087 375.598,305.587 372.5,305.5C 369.935,290.032 362.935,277.032 351.5,266.5C 352.117,266.389 352.617,266.056 353,265.5C 354.525,268.087 356.692,268.92 359.5,268C 355.856,266.17 356.19,264.503 360.5,263C 359.833,262.333 359.167,261.667 358.5,261C 360.409,260.552 361.576,261.385 362,263.5C 364.233,261.522 365.4,259.355 365.5,257C 368.661,257.362 371.661,257.195 374.5,256.5C 375.415,255.672 376.081,254.672 376.5,253.5C 375.733,247.751 376.567,247.418 379,252.5C 379.667,251.167 380.333,249.833 381,248.5C 381.419,249.672 382.085,250.672 383,251.5C 382.57,249.873 382.404,248.373 382.5,247C 384.049,245.786 385.215,244.286 386,242.5C 388.173,245.277 388.673,245.11 387.5,242C 389.108,241.342 390.275,241.842 391,243.5C 392.685,241.983 394.185,240.316 395.5,238.5C 396.192,239.025 396.692,239.692 397,240.5C 397.333,238.833 397.667,237.167 398,235.5C 398.333,236.167 398.667,236.833 399,237.5C 399.684,236.216 399.517,235.049 398.5,234C 400.402,233.801 401.902,232.967 403,231.5C 405.173,234.277 405.673,234.11 404.5,231C 405.738,231.077 406.738,230.911 407.5,230.5C 406.975,229.808 406.308,229.308 405.5,229C 407.598,228.986 409.431,229.153 411,229.5C 411.684,228.216 411.517,227.049 410.5,226C 415.694,224.33 415.694,222.83 410.5,221.5C 410.667,221.167 410.833,220.833 411,220.5C 412.398,221.051 413.732,221.384 415,221.5C 415.923,220.241 416.757,218.908 417.5,217.5C 418.478,217.977 419.311,218.643 420,219.5C 420.333,218.5 420.667,217.5 421,216.5C 422.566,215.939 423.899,216.606 425,218.5C 426.399,217.773 427.899,217.273 429.5,217C 428.5,216 427.5,215 426.5,214C 427.749,212.176 428.915,212.343 430,214.5C 431,213.167 432,211.833 433,210.5C 432.067,215.001 432.734,215.334 435,211.5C 435.451,213.929 436.285,214.096 437.5,212C 435.39,210.105 435.723,208.272 438.5,206.5C 439.086,206.709 439.586,207.043 440,207.5C 440.284,205.114 441.284,204.448 443,205.5C 443.914,201.815 444.581,202.148 445,206.5C 446.074,202.695 447.408,199.029 449,195.5C 448.923,196.738 449.089,197.738 449.5,198.5C 451.5,197.167 453.5,197.167 455.5,198.5C 457.422,196.418 459.755,195.084 462.5,194.5 Z"/></g>
<g><path style="opacity:1" fill="#5d09d0" d="M 136.5,239.5 C 136.5,261.833 136.5,284.167 136.5,306.5C 134.473,306.338 132.473,306.505 130.5,307C 131.672,308.993 132.672,310.993 133.5,313C 131.591,313.448 130.424,312.615 130,310.5C 128.887,311.76 128.72,312.927 129.5,314C 128.167,314 126.833,314 125.5,314C 126.299,315.749 125.632,317.082 123.5,318C 123.833,318.333 124.167,318.667 124.5,319C 123.033,320.098 122.199,321.598 122,323.5C 121.333,321.5 120.667,319.5 120,317.5C 119.292,320.268 117.792,321.101 115.5,320C 120.343,323.363 120.343,326.363 115.5,329C 116.833,330 116.833,331 115.5,332C 113.673,333.654 111.84,334.488 110,334.5C 109.535,335.931 108.701,337.097 107.5,338C 107.833,338.333 108.167,338.667 108.5,339C 107.004,339.507 105.837,339.007 105,337.5C 104.558,339.679 103.558,340.345 102,339.5C 101.5,340.667 100.667,341.5 99.5,342C 99.5,343 99.5,344 99.5,345C 98.2396,346.113 97.073,346.28 96,345.5C 93.7624,348.651 94.5957,350.818 98.5,352C 96.9544,353.44 96.121,355.273 96,357.5C 95.6667,356.167 95.3333,354.833 95,353.5C 93.9025,354.967 92.4025,355.801 90.5,356C 88.4477,360.77 87.1143,360.603 86.5,355.5C 83.2027,355.329 82.8694,355.995 85.5,357.5C 85.032,359.134 84.032,360.3 82.5,361C 84.8912,362.309 84.8912,363.309 82.5,364C 83.3004,368.276 82.4671,368.109 80,363.5C 80.1612,366.832 80.6612,370.165 81.5,373.5C 78.9783,373.128 76.9783,373.961 75.5,376C 76.1667,376.333 76.8333,376.667 77.5,377C 75.6667,379.5 73.5,381.667 71,383.5C 68.6452,381.262 66.4785,378.929 64.5,376.5C 62.7736,358.176 61.1069,339.843 59.5,321.5C 60.3094,322.469 61.3094,323.302 62.5,324C 61.0439,324.423 60.5439,325.256 61,326.5C 63.4702,326.55 65.3035,325.883 66.5,324.5C 66.33,323.178 66.6634,322.011 67.5,321C 64.3524,318.174 64.3524,315.841 67.5,314C 67.1667,313.667 66.8333,313.333 66.5,313C 67.7839,312.316 68.9505,312.483 70,313.5C 70.8333,312.5 71.6667,311.5 72.5,310.5C 74.0701,310.694 75.5701,310.694 77,310.5C 76.3664,308.233 75.3664,306.233 74,304.5C 75.4299,304.694 76.9299,304.694 78.5,304.5C 79.1924,305.025 79.6924,305.692 80,306.5C 80.7504,305.874 81.5838,305.374 82.5,305C 82.3602,303.403 82.3602,301.903 82.5,300.5C 84.1491,298.35 85.9824,296.35 88,294.5C 88.6172,293.551 88.4506,292.718 87.5,292C 88.7555,289.372 90.7555,288.372 93.5,289C 92.5,289.333 91.5,289.667 90.5,290C 91.6667,290.5 92.5,291.333 93,292.5C 93.7625,289.53 95.2625,287.03 97.5,285C 99.2711,282.887 100.771,283.053 102,285.5C 103.973,283.471 105.473,281.638 106.5,280C 106.623,277.544 106.623,275.044 106.5,272.5C 107.716,271.904 109.049,271.737 110.5,272C 107.668,270.092 108.001,269.259 111.5,269.5C 111.351,270.552 111.517,271.552 112,272.5C 113.801,270.862 113.968,269.028 112.5,267C 112.892,265.989 113.559,265.489 114.5,265.5C 113.833,264.833 113.167,264.167 112.5,263.5C 113.641,262.575 113.641,261.741 112.5,261C 113,260.5 113.5,260 114,259.5C 115,260.833 116,260.833 117,259.5C 117.689,260.357 118.522,261.023 119.5,261.5C 120.842,260.098 121.676,260.431 122,262.5C 122.422,260.645 122.922,258.811 123.5,257C 122.351,255.27 122.351,253.604 123.5,252C 122.833,251.333 122.167,250.667 121.5,250C 122.669,248.164 124.336,246.998 126.5,246.5C 127.62,247.833 128.953,248.333 130.5,248C 129.577,245.952 130.077,244.119 132,242.5C 132.617,243.449 132.451,244.282 131.5,245C 133.011,246.615 134.344,246.615 135.5,245C 135.507,243.417 135.174,241.751 134.5,240C 135.094,239.536 135.761,239.369 136.5,239.5 Z"/></g>
<g><path style="opacity:0.995" fill="#4a04b1" d="M 458.5,240.5 C 456.856,262.248 454.856,283.915 452.5,305.5C 451.778,305.918 451.278,306.584 451,307.5C 450.667,306.5 450.333,305.5 450,304.5C 448.992,304.982 447.825,305.148 446.5,305C 447.634,306.016 447.301,306.683 445.5,307C 447.285,308.593 447.452,310.093 446,311.5C 444.667,310.167 443.333,308.833 442,307.5C 442.635,310.391 441.468,312.558 438.5,314C 439.308,314.308 439.975,314.808 440.5,315.5C 439.066,316.23 437.9,317.23 437,318.5C 433.89,317.327 433.723,317.827 436.5,320C 434.438,320.564 432.605,320.064 431,318.5C 430.055,318.905 429.388,319.572 429,320.5C 428.667,320.167 428.333,319.833 428,319.5C 427.08,322.101 426.413,324.768 426,327.5C 425.167,326.5 424.333,325.5 423.5,324.5C 422.289,325.274 422.289,326.107 423.5,327C 421.003,328.983 419.836,328.15 420,324.5C 420.229,327.81 418.729,329.644 415.5,330C 417.595,330.556 417.762,331.056 416,331.5C 414.779,330.728 413.779,329.728 413,328.5C 413.5,330.876 414.333,333.21 415.5,335.5C 414.5,335.5 413.5,335.5 412.5,335.5C 412.821,332.12 411.821,331.287 409.5,333C 409.13,334.61 409.797,336.11 411.5,337.5C 411.192,338.308 410.692,338.975 410,339.5C 408.615,338.449 407.615,337.116 407,335.5C 406.348,337.723 404.848,338.89 402.5,339C 403.816,340.978 403.316,342.478 401,343.5C 400.667,342.833 400.333,342.167 400,341.5C 397.958,341.818 395.791,341.985 393.5,342C 393.927,344.128 393.427,346.295 392,348.5C 388.793,345.85 388.293,346.016 390.5,349C 389.328,349.419 388.328,350.085 387.5,351C 389.211,352.133 389.711,353.633 389,355.5C 387.113,353.974 386.113,351.974 386,349.5C 386.088,353.234 384.755,356.234 382,358.5C 381.667,357.833 381.333,357.167 381,356.5C 379.426,357.984 378.093,359.651 377,361.5C 376.086,360.346 375.253,360.513 374.5,362C 375.711,362.893 375.711,363.726 374.5,364.5C 373.669,362.527 373.502,360.527 374,358.5C 372.806,360.623 372.14,362.957 372,365.5C 371.667,365.167 371.333,364.833 371,364.5C 368.403,367.872 366.57,367.872 365.5,364.5C 373.168,345.466 375.501,325.799 372.5,305.5C 375.598,305.587 375.932,305.087 373.5,304C 375.384,303.784 377.051,303.117 378.5,302C 378.167,301.667 377.833,301.333 377.5,301C 379.977,299.367 381.81,297.2 383,294.5C 383.333,295.5 383.667,296.5 384,297.5C 384.689,296.643 385.522,295.977 386.5,295.5C 388.62,296.872 389.62,296.205 389.5,293.5C 390.552,293.649 391.552,293.483 392.5,293C 391.167,292.333 391.167,291.667 392.5,291C 390.068,289.913 390.402,289.413 393.5,289.5C 393.5,290.5 393.5,291.5 393.5,292.5C 397.056,292.725 397.39,291.892 394.5,290C 394.611,288.278 395.111,288.112 396,289.5C 397.734,288.751 399.567,288.251 401.5,288C 399.285,287.83 397.285,287.163 395.5,286C 397.895,283.855 400.062,284.022 402,286.5C 405.886,285.086 408.219,282.42 409,278.5C 409.333,278.833 409.667,279.167 410,279.5C 410.5,277.667 411.667,276.5 413.5,276C 413.167,275.667 412.833,275.333 412.5,275C 413.701,274.097 414.535,272.931 415,271.5C 416.333,271.5 417.667,271.5 419,271.5C 419.667,270.167 420.333,268.833 421,267.5C 421.308,268.308 421.808,268.975 422.5,269.5C 424.167,268.667 425.833,267.833 427.5,267C 428.634,265.984 428.301,265.317 426.5,265C 427.907,263.548 429.407,263.715 431,265.5C 431.667,264.167 432.667,263.167 434,262.5C 435.84,263.833 436.34,263.666 435.5,262C 437.863,261.411 438.863,259.911 438.5,257.5C 440.2,257.374 441.7,256.707 443,255.5C 445.151,255.765 446.818,256.765 448,258.5C 448.445,256.406 447.612,254.906 445.5,254C 446.624,253.751 447.624,253.251 448.5,252.5C 446.217,250.514 446.884,249.347 450.5,249C 450.043,248.586 449.709,248.086 449.5,247.5C 451.23,245.164 452.73,245.164 454,247.5C 454.257,245.705 454.923,243.705 456,241.5C 456.333,241.833 456.667,242.167 457,242.5C 457.278,241.584 457.778,240.918 458.5,240.5 Z"/></g>
<g><path style="opacity:1" fill="#9d7cdb" d="M 236.5,276.5 C 225.5,276.5 214.5,276.5 203.5,276.5C 203.5,291.5 203.5,306.5 203.5,321.5C 203.5,334.833 203.5,348.167 203.5,361.5C 202.504,346.342 202.17,331.009 202.5,315.5C 202.5,302.167 202.5,288.833 202.5,275.5C 214.012,275.172 225.346,275.505 236.5,276.5 Z"/></g>
<g><path style="opacity:1" fill="#5407c4" d="M 236.5,276.5 C 246.167,276.5 255.833,276.5 265.5,276.5C 266.833,276.5 268.167,276.5 269.5,276.5C 268.587,278.086 268.587,279.586 269.5,281C 268.151,281.772 267.318,282.939 267,284.5C 265.796,283.529 265.296,282.529 265.5,281.5C 264.269,282.651 264.269,283.817 265.5,285C 264.285,287.096 263.451,286.929 263,284.5C 261.278,284.962 259.445,285.128 257.5,285C 258.815,286.395 258.481,287.395 256.5,288C 257.308,288.308 257.975,288.808 258.5,289.5C 257.469,290.7 256.635,292.034 256,293.5C 255,292.5 254,291.5 253,290.5C 252.383,291.449 252.549,292.282 253.5,293C 249.4,295.467 245.566,298.301 242,301.5C 240.122,299.302 237.955,299.136 235.5,301C 236.167,301.333 236.833,301.667 237.5,302C 235.913,302.862 234.246,303.529 232.5,304C 233.624,304.249 234.624,304.749 235.5,305.5C 233.807,306.228 232.307,307.228 231,308.5C 230.667,307.833 230.333,307.167 230,306.5C 229.047,308.455 227.713,310.122 226,311.5C 225.667,310.833 225.333,310.167 225,309.5C 224.355,310.646 223.522,311.646 222.5,312.5C 223.908,313.243 225.241,314.077 226.5,315C 225.285,317.096 224.451,316.929 224,314.5C 223.333,317.167 222.667,317.167 222,314.5C 221.632,315.91 220.799,316.91 219.5,317.5C 219.488,314.74 218.155,314.24 215.5,316C 216.167,316.667 216.833,317.333 217.5,318C 215.924,318.44 214.59,319.273 213.5,320.5C 212.914,320.291 212.414,319.957 212,319.5C 210.053,322.986 207.72,323.319 205,320.5C 204.617,321.056 204.117,321.389 203.5,321.5C 203.5,306.5 203.5,291.5 203.5,276.5C 214.5,276.5 225.5,276.5 236.5,276.5 Z"/></g>
<g><path style="opacity:1" fill="#4f06bc" d="M 269.5,276.5 C 290.431,278.177 302.931,289.177 307,309.5C 311.423,338.502 299.256,355.669 270.5,361C 248.169,361.5 225.836,361.667 203.5,361.5C 203.5,348.167 203.5,334.833 203.5,321.5C 204.117,321.389 204.617,321.056 205,320.5C 207.72,323.319 210.053,322.986 212,319.5C 212.414,319.957 212.914,320.291 213.5,320.5C 214.59,319.273 215.924,318.44 217.5,318C 216.833,317.333 216.167,316.667 215.5,316C 218.155,314.24 219.488,314.74 219.5,317.5C 220.799,316.91 221.632,315.91 222,314.5C 222.667,317.167 223.333,317.167 224,314.5C 224.451,316.929 225.285,317.096 226.5,315C 225.241,314.077 223.908,313.243 222.5,312.5C 223.522,311.646 224.355,310.646 225,309.5C 225.333,310.167 225.667,310.833 226,311.5C 227.713,310.122 229.047,308.455 230,306.5C 230.333,307.167 230.667,307.833 231,308.5C 232.307,307.228 233.807,306.228 235.5,305.5C 234.624,304.749 233.624,304.249 232.5,304C 234.246,303.529 235.913,302.862 237.5,302C 236.833,301.667 236.167,301.333 235.5,301C 237.955,299.136 240.122,299.302 242,301.5C 245.566,298.301 249.4,295.467 253.5,293C 252.549,292.282 252.383,291.449 253,290.5C 254,291.5 255,292.5 256,293.5C 256.635,292.034 257.469,290.7 258.5,289.5C 257.975,288.808 257.308,288.308 256.5,288C 258.481,287.395 258.815,286.395 257.5,285C 259.445,285.128 261.278,284.962 263,284.5C 263.451,286.929 264.285,287.096 265.5,285C 264.269,283.817 264.269,282.651 265.5,281.5C 265.296,282.529 265.796,283.529 267,284.5C 267.318,282.939 268.151,281.772 269.5,281C 268.587,279.586 268.587,278.086 269.5,276.5 Z"/></g>
<g><path style="opacity:0.995" fill="#4602aa" d="M 452.5,305.5 C 450.861,329.2 448.861,352.866 446.5,376.5C 443.342,378.488 440.509,380.821 438,383.5C 437.581,382.328 436.915,381.328 436,380.5C 435.5,381.667 434.667,382.5 433.5,383C 437.186,384.199 436.853,384.533 432.5,384C 432,383.5 431.5,383 431,382.5C 429.456,384.468 428.289,386.635 427.5,389C 428.956,389.423 429.456,390.256 429,391.5C 427.601,391.499 426.101,391.165 424.5,390.5C 423.362,397.073 422.528,397.073 422,390.5C 420.799,392.909 419.133,394.909 417,396.5C 416.581,400.852 415.914,401.185 415,397.5C 414.529,399.246 413.862,400.913 413,402.5C 412,401.167 411,399.833 410,398.5C 410,399.833 410,401.167 410,402.5C 406.703,398.566 406.203,398.732 408.5,403C 405.898,403.935 404.398,405.768 404,408.5C 403.163,406.993 401.996,406.493 400.5,407C 400.43,408.624 399.93,410.457 399,412.5C 398.311,411.643 397.478,410.977 396.5,410.5C 396.795,411.826 396.295,413.159 395,414.5C 394.586,414.043 394.086,413.709 393.5,413.5C 392.11,415.203 390.61,415.87 389,415.5C 388.577,414.044 387.744,413.544 386.5,414C 387.634,415.016 387.301,415.683 385.5,416C 386.428,416.388 387.095,417.055 387.5,418C 386.576,419.15 386.576,420.15 387.5,421C 386.256,421.456 385.423,420.956 385,419.5C 383.833,421.333 382.333,422.833 380.5,424C 381.654,424.914 381.487,425.747 380,426.5C 379.667,425.5 379.333,424.5 379,423.5C 378.292,426.268 376.792,427.101 374.5,426C 374.833,426.333 375.167,426.667 375.5,427C 372.732,427.708 371.899,429.208 373,431.5C 370.929,428.584 369.595,428.918 369,432.5C 368.333,431.167 367.667,431.167 367,432.5C 366.667,433.5 366.333,434.5 366,435.5C 365.781,434.062 365.281,432.729 364.5,431.5C 364.167,431.667 363.833,431.833 363.5,432C 364.749,434.21 364.582,436.376 363,438.5C 362.151,435.479 360.651,434.979 358.5,437C 360.559,438.185 360.726,439.352 359,440.5C 357.907,438.702 356.407,437.868 354.5,438C 355.451,438.718 355.617,439.551 355,440.5C 354.08,440.93 353.247,441.264 352.5,441.5C 353.025,442.192 353.692,442.692 354.5,443C 352.523,444.541 350.523,445.041 348.5,444.5C 347.749,445.376 347.249,446.376 347,447.5C 346.667,447.167 346.333,446.833 346,446.5C 345.228,447.849 344.061,448.682 342.5,449C 344.167,449.333 345.833,449.667 347.5,450C 346.579,451.756 345.412,451.923 344,450.5C 343.055,450.905 342.388,451.572 342,452.5C 341.71,450.956 341.044,449.623 340,448.5C 338.548,449.907 338.715,451.407 340.5,453C 339.258,453.311 338.258,452.811 337.5,451.5C 337.167,452.167 336.833,452.833 336.5,453.5C 335.914,453.291 335.414,452.957 335,452.5C 334.155,455.412 332.488,456.412 330,455.5C 328.482,457.348 326.649,458.848 324.5,460C 325.357,460.689 326.023,461.522 326.5,462.5C 326.81,464.201 326.31,465.868 325,467.5C 323.667,466.833 322.667,465.833 322,464.5C 319.333,466.5 317,468.833 315,471.5C 313.04,469.101 310.874,468.935 308.5,471C 307.833,472.333 306.833,473.333 305.5,474C 306.167,474.333 306.833,474.667 307.5,475C 304.536,475.84 304.203,476.84 306.5,478C 304.702,479.505 302.868,479.672 301,478.5C 299.174,479.18 297.674,480.846 296.5,483.5C 293.93,484.223 291.597,485.39 289.5,487C 290.624,487.249 291.624,487.749 292.5,488.5C 292.333,488.833 292.167,489.167 292,489.5C 290.333,488.833 288.667,488.167 287,487.5C 284.977,490.52 282.31,492.854 279,494.5C 278.51,495.793 278.343,497.127 278.5,498.5C 276.833,498.5 275.167,498.5 273.5,498.5C 273.741,501.999 272.908,502.332 271,499.5C 268.943,505.938 267.276,505.938 266,499.5C 265.545,502.854 265.045,506.187 264.5,509.5C 262.597,509.796 260.93,510.463 259.5,511.5C 256.833,511.5 254.167,511.5 251.5,511.5C 232.454,505.989 213.454,500.322 194.5,494.5C 194.196,493.85 193.863,493.183 193.5,492.5C 193.846,491.304 194.346,491.304 195,492.5C 196.142,490.382 196.642,488.382 196.5,486.5C 197.192,487.025 197.692,487.692 198,488.5C 198.23,484.517 199.563,483.851 202,486.5C 202.833,485.667 203.667,484.833 204.5,484C 203.167,482.16 203.334,481.66 205,482.5C 207.825,480.18 210.658,478.68 213.5,478C 212.833,477.667 212.167,477.333 211.5,477C 213.587,477.218 215.587,477.051 217.5,476.5C 219.022,474.844 218.689,473.677 216.5,473C 217.025,472.308 217.692,471.808 218.5,471.5C 220.02,472.85 220.687,474.183 220.5,475.5C 221.731,474.349 221.731,473.183 220.5,472C 222.886,471.716 223.552,470.716 222.5,469C 224.047,468.667 225.38,469.167 226.5,470.5C 226.915,467.921 228.248,466.087 230.5,465C 228.071,464.549 227.904,463.715 230,462.5C 231.912,464.994 233.746,464.827 235.5,462C 233.937,458.766 234.77,456.266 238,454.5C 238.292,456.326 238.125,458.159 237.5,460C 237.976,463.156 238.309,462.989 238.5,459.5C 240.199,459.66 241.866,459.494 243.5,459C 242.692,458.692 242.025,458.192 241.5,457.5C 242.531,456.3 243.365,454.966 244,453.5C 244.249,454.624 244.749,455.624 245.5,456.5C 245.643,453.455 246.976,453.122 249.5,455.5C 249.833,454.833 250.167,454.167 250.5,453.5C 251.086,453.709 251.586,454.043 252,454.5C 251.57,452.873 251.404,451.373 251.5,450C 252.849,449.228 253.682,448.061 254,446.5C 255.398,447.051 256.732,447.384 258,447.5C 261.087,444.184 263.42,440.85 265,437.5C 267.612,440.489 269.612,440.155 271,436.5C 271.333,437.5 271.667,438.5 272,439.5C 272.5,438.333 273.333,437.5 274.5,437C 273.328,436.581 272.328,435.915 271.5,435C 272.701,434.097 273.535,432.931 274,431.5C 275.067,433.283 276.567,433.783 278.5,433C 277.5,432.667 276.5,432.333 275.5,432C 276.766,431.691 277.933,431.191 279,430.5C 279.273,428.671 280.107,427.171 281.5,426C 280.549,425.282 280.383,424.449 281,423.5C 281.667,424.833 282.333,424.833 283,423.5C 284.295,427.084 285.795,427.25 287.5,424C 286.833,423.667 286.167,423.333 285.5,423C 286.793,422.51 288.127,422.343 289.5,422.5C 289.238,421.022 289.571,419.689 290.5,418.5C 290.911,419.262 291.077,420.262 291,421.5C 292.101,419.606 293.434,418.939 295,419.5C 294.805,417.874 294.805,416.207 295,414.5C 295.739,416.221 296.573,417.887 297.5,419.5C 298.931,419.023 300.264,418.357 301.5,417.5C 300.738,417.089 299.738,416.923 298.5,417C 298.982,415.992 299.148,414.825 299,413.5C 299.893,414.711 300.726,414.711 301.5,413.5C 300.995,412.081 299.995,411.415 298.5,411.5C 306.084,409.139 313.751,406.639 321.5,404C 341.119,396.207 355.786,383.04 365.5,364.5C 366.57,367.872 368.403,367.872 371,364.5C 371.333,364.833 371.667,365.167 372,365.5C 372.14,362.957 372.806,360.623 374,358.5C 373.502,360.527 373.669,362.527 374.5,364.5C 375.711,363.726 375.711,362.893 374.5,362C 375.253,360.513 376.086,360.346 377,361.5C 378.093,359.651 379.426,357.984 381,356.5C 381.333,357.167 381.667,357.833 382,358.5C 384.755,356.234 386.088,353.234 386,349.5C 386.113,351.974 387.113,353.974 389,355.5C 389.711,353.633 389.211,352.133 387.5,351C 388.328,350.085 389.328,349.419 390.5,349C 388.293,346.016 388.793,345.85 392,348.5C 393.427,346.295 393.927,344.128 393.5,342C 395.791,341.985 397.958,341.818 400,341.5C 400.333,342.167 400.667,342.833 401,343.5C 403.316,342.478 403.816,340.978 402.5,339C 404.848,338.89 406.348,337.723 407,335.5C 407.615,337.116 408.615,338.449 410,339.5C 410.692,338.975 411.192,338.308 411.5,337.5C 409.797,336.11 409.13,334.61 409.5,333C 411.821,331.287 412.821,332.12 412.5,335.5C 413.5,335.5 414.5,335.5 415.5,335.5C 414.333,333.21 413.5,330.876 413,328.5C 413.779,329.728 414.779,330.728 416,331.5C 417.762,331.056 417.595,330.556 415.5,330C 418.729,329.644 420.229,327.81 420,324.5C 419.836,328.15 421.003,328.983 423.5,327C 422.289,326.107 422.289,325.274 423.5,324.5C 424.333,325.5 425.167,326.5 426,327.5C 426.413,324.768 427.08,322.101 428,319.5C 428.333,319.833 428.667,320.167 429,320.5C 429.388,319.572 430.055,318.905 431,318.5C 432.605,320.064 434.438,320.564 436.5,320C 433.723,317.827 433.89,317.327 437,318.5C 437.9,317.23 439.066,316.23 440.5,315.5C 439.975,314.808 439.308,314.308 438.5,314C 441.468,312.558 442.635,310.391 442,307.5C 443.333,308.833 444.667,310.167 446,311.5C 447.452,310.093 447.285,308.593 445.5,307C 447.301,306.683 447.634,306.016 446.5,305C 447.825,305.148 448.992,304.982 450,304.5C 450.333,305.5 450.667,306.5 451,307.5C 451.278,306.584 451.778,305.918 452.5,305.5 Z"/></g>
<g><path style="opacity:0.994" fill="#5b0bcb" d="M 137.5,96.5 C 137.5,193.5 137.5,290.5 137.5,387.5C 137.5,396.5 137.5,405.5 137.5,414.5C 136.671,406.677 136.171,398.677 136,390.5C 114.987,414.013 94.1537,437.679 73.5,461.5C 72.8826,461.389 72.3826,461.056 72,460.5C 69.2891,432.513 66.7891,404.513 64.5,376.5C 66.4785,378.929 68.6452,381.262 71,383.5C 73.5,381.667 75.6667,379.5 77.5,377C 76.8333,376.667 76.1667,376.333 75.5,376C 76.9783,373.961 78.9783,373.128 81.5,373.5C 80.6612,370.165 80.1612,366.832 80,363.5C 82.4671,368.109 83.3004,368.276 82.5,364C 84.8912,363.309 84.8912,362.309 82.5,361C 84.032,360.3 85.032,359.134 85.5,357.5C 82.8694,355.995 83.2027,355.329 86.5,355.5C 87.1143,360.603 88.4477,360.77 90.5,356C 92.4025,355.801 93.9025,354.967 95,353.5C 95.3333,354.833 95.6667,356.167 96,357.5C 96.121,355.273 96.9544,353.44 98.5,352C 94.5957,350.818 93.7624,348.651 96,345.5C 97.073,346.28 98.2396,346.113 99.5,345C 99.5,344 99.5,343 99.5,342C 100.667,341.5 101.5,340.667 102,339.5C 103.558,340.345 104.558,339.679 105,337.5C 105.837,339.007 107.004,339.507 108.5,339C 108.167,338.667 107.833,338.333 107.5,338C 108.701,337.097 109.535,335.931 110,334.5C 111.84,334.488 113.673,333.654 115.5,332C 116.833,331 116.833,330 115.5,329C 120.343,326.363 120.343,323.363 115.5,320C 117.792,321.101 119.292,320.268 120,317.5C 120.667,319.5 121.333,321.5 122,323.5C 122.199,321.598 123.033,320.098 124.5,319C 124.167,318.667 123.833,318.333 123.5,318C 125.632,317.082 126.299,315.749 125.5,314C 126.833,314 128.167,314 129.5,314C 128.72,312.927 128.887,311.76 130,310.5C 130.424,312.615 131.591,313.448 133.5,313C 132.672,310.993 131.672,308.993 130.5,307C 132.473,306.505 134.473,306.338 136.5,306.5C 136.5,284.167 136.5,261.833 136.5,239.5C 136.5,217.833 136.5,196.167 136.5,174.5C 136.5,155.5 136.5,136.5 136.5,117.5C 136.175,110.313 136.509,103.313 137.5,96.5 Z"/></g>
<g><path style="opacity:0.989" fill="#4201a3" d="M 446.5,376.5 C 444.243,404.753 441.577,432.92 438.5,461C 380.482,477.171 322.482,493.337 264.5,509.5C 265.045,506.187 265.545,502.854 266,499.5C 267.276,505.938 268.943,505.938 271,499.5C 272.908,502.332 273.741,501.999 273.5,498.5C 275.167,498.5 276.833,498.5 278.5,498.5C 278.343,497.127 278.51,495.793 279,494.5C 282.31,492.854 284.977,490.52 287,487.5C 288.667,488.167 290.333,488.833 292,489.5C 292.167,489.167 292.333,488.833 292.5,488.5C 291.624,487.749 290.624,487.249 289.5,487C 291.597,485.39 293.93,484.223 296.5,483.5C 297.674,480.846 299.174,479.18 301,478.5C 302.868,479.672 304.702,479.505 306.5,478C 304.203,476.84 304.536,475.84 307.5,475C 306.833,474.667 306.167,474.333 305.5,474C 306.833,473.333 307.833,472.333 308.5,471C 310.874,468.935 313.04,469.101 315,471.5C 317,468.833 319.333,466.5 322,464.5C 322.667,465.833 323.667,466.833 325,467.5C 326.31,465.868 326.81,464.201 326.5,462.5C 326.023,461.522 325.357,460.689 324.5,460C 326.649,458.848 328.482,457.348 330,455.5C 332.488,456.412 334.155,455.412 335,452.5C 335.414,452.957 335.914,453.291 336.5,453.5C 336.833,452.833 337.167,452.167 337.5,451.5C 338.258,452.811 339.258,453.311 340.5,453C 338.715,451.407 338.548,449.907 340,448.5C 341.044,449.623 341.71,450.956 342,452.5C 342.388,451.572 343.055,450.905 344,450.5C 345.412,451.923 346.579,451.756 347.5,450C 345.833,449.667 344.167,449.333 342.5,449C 344.061,448.682 345.228,447.849 346,446.5C 346.333,446.833 346.667,447.167 347,447.5C 347.249,446.376 347.749,445.376 348.5,444.5C 350.523,445.041 352.523,444.541 354.5,443C 353.692,442.692 353.025,442.192 352.5,441.5C 353.247,441.264 354.08,440.93 355,440.5C 355.617,439.551 355.451,438.718 354.5,438C 356.407,437.868 357.907,438.702 359,440.5C 360.726,439.352 360.559,438.185 358.5,437C 360.651,434.979 362.151,435.479 363,438.5C 364.582,436.376 364.749,434.21 363.5,432C 363.833,431.833 364.167,431.667 364.5,431.5C 365.281,432.729 365.781,434.062 366,435.5C 366.333,434.5 366.667,433.5 367,432.5C 367.667,431.167 368.333,431.167 369,432.5C 369.595,428.918 370.929,428.584 373,431.5C 371.899,429.208 372.732,427.708 375.5,427C 375.167,426.667 374.833,426.333 374.5,426C 376.792,427.101 378.292,426.268 379,423.5C 379.333,424.5 379.667,425.5 380,426.5C 381.487,425.747 381.654,424.914 380.5,424C 382.333,422.833 383.833,421.333 385,419.5C 385.423,420.956 386.256,421.456 387.5,421C 386.576,420.15 386.576,419.15 387.5,418C 387.095,417.055 386.428,416.388 385.5,416C 387.301,415.683 387.634,415.016 386.5,414C 387.744,413.544 388.577,414.044 389,415.5C 390.61,415.87 392.11,415.203 393.5,413.5C 394.086,413.709 394.586,414.043 395,414.5C 396.295,413.159 396.795,411.826 396.5,410.5C 397.478,410.977 398.311,411.643 399,412.5C 399.93,410.457 400.43,408.624 400.5,407C 401.996,406.493 403.163,406.993 404,408.5C 404.398,405.768 405.898,403.935 408.5,403C 406.203,398.732 406.703,398.566 410,402.5C 410,401.167 410,399.833 410,398.5C 411,399.833 412,401.167 413,402.5C 413.862,400.913 414.529,399.246 415,397.5C 415.914,401.185 416.581,400.852 417,396.5C 419.133,394.909 420.799,392.909 422,390.5C 422.528,397.073 423.362,397.073 424.5,390.5C 426.101,391.165 427.601,391.499 429,391.5C 429.456,390.256 428.956,389.423 427.5,389C 428.289,386.635 429.456,384.468 431,382.5C 431.5,383 432,383.5 432.5,384C 436.853,384.533 437.186,384.199 433.5,383C 434.667,382.5 435.5,381.667 436,380.5C 436.915,381.328 437.581,382.328 438,383.5C 440.509,380.821 443.342,378.488 446.5,376.5 Z"/></g>
<g><path style="opacity:0.995" fill="#4904b1" d="M 298.5,411.5 C 299.995,411.415 300.995,412.081 301.5,413.5C 300.726,414.711 299.893,414.711 299,413.5C 299.148,414.825 298.982,415.992 298.5,417C 299.738,416.923 300.738,417.089 301.5,417.5C 300.264,418.357 298.931,419.023 297.5,419.5C 296.573,417.887 295.739,416.221 295,414.5C 294.805,416.207 294.805,417.874 295,419.5C 293.434,418.939 292.101,419.606 291,421.5C 291.077,420.262 290.911,419.262 290.5,418.5C 289.571,419.689 289.238,421.022 289.5,422.5C 288.127,422.343 286.793,422.51 285.5,423C 286.167,423.333 286.833,423.667 287.5,424C 285.795,427.25 284.295,427.084 283,423.5C 282.333,424.833 281.667,424.833 281,423.5C 280.383,424.449 280.549,425.282 281.5,426C 280.107,427.171 279.273,428.671 279,430.5C 277.933,431.191 276.766,431.691 275.5,432C 276.5,432.333 277.5,432.667 278.5,433C 276.567,433.783 275.067,433.283 274,431.5C 273.535,432.931 272.701,434.097 271.5,435C 272.328,435.915 273.328,436.581 274.5,437C 273.333,437.5 272.5,438.333 272,439.5C 271.667,438.5 271.333,437.5 271,436.5C 269.612,440.155 267.612,440.489 265,437.5C 263.42,440.85 261.087,444.184 258,447.5C 256.732,447.384 255.398,447.051 254,446.5C 253.682,448.061 252.849,449.228 251.5,450C 251.404,451.373 251.57,452.873 252,454.5C 251.586,454.043 251.086,453.709 250.5,453.5C 250.167,454.167 249.833,454.833 249.5,455.5C 246.976,453.122 245.643,453.455 245.5,456.5C 244.749,455.624 244.249,454.624 244,453.5C 243.365,454.966 242.531,456.3 241.5,457.5C 242.025,458.192 242.692,458.692 243.5,459C 241.866,459.494 240.199,459.66 238.5,459.5C 238.309,462.989 237.976,463.156 237.5,460C 238.125,458.159 238.292,456.326 238,454.5C 234.77,456.266 233.937,458.766 235.5,462C 233.746,464.827 231.912,464.994 230,462.5C 227.904,463.715 228.071,464.549 230.5,465C 228.248,466.087 226.915,467.921 226.5,470.5C 225.38,469.167 224.047,468.667 222.5,469C 223.552,470.716 222.886,471.716 220.5,472C 221.731,473.183 221.731,474.349 220.5,475.5C 220.687,474.183 220.02,472.85 218.5,471.5C 217.692,471.808 217.025,472.308 216.5,473C 218.689,473.677 219.022,474.844 217.5,476.5C 215.587,477.051 213.587,477.218 211.5,477C 212.167,477.333 212.833,477.667 213.5,478C 210.658,478.68 207.825,480.18 205,482.5C 203.334,481.66 203.167,482.16 204.5,484C 203.667,484.833 202.833,485.667 202,486.5C 199.563,483.851 198.23,484.517 198,488.5C 197.692,487.692 197.192,487.025 196.5,486.5C 196.642,488.382 196.142,490.382 195,492.5C 194.346,491.304 193.846,491.304 193.5,492.5C 193.863,493.183 194.196,493.85 194.5,494.5C 173.905,489.408 153.572,483.741 133.5,477.5C 136.214,477.313 136.881,476.146 135.5,474C 135.862,472.775 136.362,471.609 137,470.5C 137.895,473.767 139.728,474.434 142.5,472.5C 142.354,470.058 143.187,469.391 145,470.5C 146.197,467.911 147.197,465.244 148,462.5C 150.389,464.95 153.222,466.117 156.5,466C 154.668,465.252 153.001,464.252 151.5,463C 152.865,461.318 154.365,461.151 156,462.5C 157.097,460.947 158.43,459.614 160,458.5C 160.333,458.833 160.667,459.167 161,459.5C 161.5,458.333 162.333,457.5 163.5,457C 163.596,455.627 163.43,454.127 163,452.5C 163.915,453.328 164.581,454.328 165,455.5C 168.002,451.162 171.335,447.828 175,445.5C 176.625,449.047 178.458,448.88 180.5,445C 179.044,444.577 178.544,443.744 179,442.5C 180.268,442.616 181.602,442.949 183,443.5C 183.333,442.167 183.667,440.833 184,439.5C 185.714,438.075 187.047,438.408 188,440.5C 190.826,439.083 190.993,437.583 188.5,436C 189.667,435.5 190.5,434.667 191,433.5C 191.333,434.5 191.667,435.5 192,436.5C 193.439,434.725 194.439,432.725 195,430.5C 195.333,431.833 195.667,433.167 196,434.5C 196.35,432.571 197.017,430.571 198,428.5C 198.667,429.167 199.333,429.833 200,430.5C 203.077,427.591 205.577,424.258 207.5,420.5C 208.258,421.811 209.258,422.311 210.5,422C 211.833,421.333 211.833,420.667 210.5,420C 212.788,419.178 215.122,418.511 217.5,418C 218.337,416.989 218.67,415.822 218.5,414.5C 237.503,414.667 256.503,414.5 275.5,414C 283.2,413.359 290.867,412.526 298.5,411.5 Z"/></g>
<g><path style="opacity:0.993" fill="#4d05b9" d="M 137.5,414.5 C 164.5,414.5 191.5,414.5 218.5,414.5C 218.67,415.822 218.337,416.989 217.5,418C 215.122,418.511 212.788,419.178 210.5,420C 211.833,420.667 211.833,421.333 210.5,422C 209.258,422.311 208.258,421.811 207.5,420.5C 205.577,424.258 203.077,427.591 200,430.5C 199.333,429.833 198.667,429.167 198,428.5C 197.017,430.571 196.35,432.571 196,434.5C 195.667,433.167 195.333,431.833 195,430.5C 194.439,432.725 193.439,434.725 192,436.5C 191.667,435.5 191.333,434.5 191,433.5C 190.5,434.667 189.667,435.5 188.5,436C 190.993,437.583 190.826,439.083 188,440.5C 187.047,438.408 185.714,438.075 184,439.5C 183.667,440.833 183.333,442.167 183,443.5C 181.602,442.949 180.268,442.616 179,442.5C 178.544,443.744 179.044,444.577 180.5,445C 178.458,448.88 176.625,449.047 175,445.5C 171.335,447.828 168.002,451.162 165,455.5C 164.581,454.328 163.915,453.328 163,452.5C 163.43,454.127 163.596,455.627 163.5,457C 162.333,457.5 161.5,458.333 161,459.5C 160.667,459.167 160.333,458.833 160,458.5C 158.43,459.614 157.097,460.947 156,462.5C 154.365,461.151 152.865,461.318 151.5,463C 153.001,464.252 154.668,465.252 156.5,466C 153.222,466.117 150.389,464.95 148,462.5C 147.197,465.244 146.197,467.911 145,470.5C 143.187,469.391 142.354,470.058 142.5,472.5C 139.728,474.434 137.895,473.767 137,470.5C 136.362,471.609 135.862,472.775 135.5,474C 136.881,476.146 136.214,477.313 133.5,477.5C 113.449,472.372 93.4494,467.039 73.5,461.5C 94.1537,437.679 114.987,414.013 136,390.5C 136.171,398.677 136.671,406.677 137.5,414.5 Z"/></g>
</svg>
