<?xml version="1.0" encoding="UTF-8"?>
<!DOCTYPE svg PUBLIC "-//W3C//DTD SVG 1.1//EN" "http://www.w3.org/Graphics/SVG/1.1/DTD/svg11.dtd">
<svg xmlns="http://www.w3.org/2000/svg" version="1.1" width="409px" height="455px" style="shape-rendering:geometricPrecision; text-rendering:geometricPrecision; image-rendering:optimizeQuality; fill-rule:evenodd; clip-rule:evenodd" xmlns:xlink="http://www.w3.org/1999/xlink">
<g><path style="opacity:0.998" fill="#6d409d" d="M 197.5,-0.5 C 201.5,-0.5 205.5,-0.5 209.5,-0.5C 218.586,1.14353 227.253,4.3102 235.5,9C 285.5,38 335.5,67 385.5,96C 397.712,105.589 404.879,118.089 407,133.5C 407.667,195.5 407.667,257.5 407,319.5C 404.299,336.071 396.132,349.238 382.5,359C 333.336,387.081 284.336,415.414 235.5,444C 214.167,456.667 192.833,456.667 171.5,444C 122.664,415.414 73.6635,387.081 24.5,359C 10.9397,349.026 2.60634,335.859 -0.5,319.5C -0.5,257.5 -0.5,195.5 -0.5,133.5C 2.02616,118.295 9.35949,105.795 21.5,96C 74.507,64.8278 127.84,34.1612 181.5,4C 186.874,2.16036 192.207,0.660356 197.5,-0.5 Z"/></g>
<g><path style="opacity:1" fill="#fbfafc" d="M 109.5,152.5 C 114.214,152.173 118.88,152.507 123.5,153.5C 140.382,176.896 155.882,201.23 170,226.5C 169.67,201.846 169.503,177.179 169.5,152.5C 173.5,152.5 177.5,152.5 181.5,152.5C 181.5,182.5 181.5,212.5 181.5,242.5C 177.154,242.666 172.821,242.499 168.5,242C 151.795,218.096 135.961,193.596 121,168.5C 120.5,193.164 120.333,217.831 120.5,242.5C 116.833,242.5 113.167,242.5 109.5,242.5C 109.5,212.5 109.5,182.5 109.5,152.5 Z"/></g>
<g><path style="opacity:1" fill="#fdfdfe" d="M 250.5,152.5 C 250.5,155.5 250.5,158.5 250.5,161.5C 238.5,161.5 226.5,161.5 214.5,161.5C 214.173,171.348 214.506,181.014 215.5,190.5C 226.5,190.5 237.5,190.5 248.5,190.5C 248.5,193.833 248.5,197.167 248.5,200.5C 237.5,200.5 226.5,200.5 215.5,200.5C 214.505,211.321 214.172,222.321 214.5,233.5C 227.167,233.5 239.833,233.5 252.5,233.5C 252.5,236.5 252.5,239.5 252.5,242.5C 235.833,242.5 219.167,242.5 202.5,242.5C 202.5,212.5 202.5,182.5 202.5,152.5C 218.5,152.5 234.5,152.5 250.5,152.5 Z"/></g>
<g><path style="opacity:1" fill="#fefefe" d="M 323.5,152.5 C 323.5,155.5 323.5,158.5 323.5,161.5C 314.983,161.174 306.65,161.507 298.5,162.5C 298.5,189.167 298.5,215.833 298.5,242.5C 294.5,242.5 290.5,242.5 286.5,242.5C 286.5,215.833 286.5,189.167 286.5,162.5C 278.167,162.5 269.833,162.5 261.5,162.5C 261.5,159.167 261.5,155.833 261.5,152.5C 282.167,152.5 302.833,152.5 323.5,152.5 Z"/></g>
<g><path style="opacity:1" fill="#c0acd4" d="M 250.5,152.5 C 251.479,155.625 251.813,158.958 251.5,162.5C 239.5,162.5 227.5,162.5 215.5,162.5C 215.5,171.833 215.5,181.167 215.5,190.5C 214.506,181.014 214.173,171.348 214.5,161.5C 226.5,161.5 238.5,161.5 250.5,161.5C 250.5,158.5 250.5,155.5 250.5,152.5 Z"/></g>
<g><path style="opacity:1" fill="#d9cee5" d="M 323.5,152.5 C 324.479,155.625 324.813,158.958 324.5,162.5C 315.833,162.5 307.167,162.5 298.5,162.5C 306.65,161.507 314.983,161.174 323.5,161.5C 323.5,158.5 323.5,155.5 323.5,152.5 Z"/></g>
<g><path style="opacity:1" fill="#f9f7fb" d="M 80.5,229.5 C 87.657,229.155 90.8237,232.488 90,239.5C 85.9654,244.364 81.632,244.698 77,240.5C 75.6631,235.872 76.8298,232.205 80.5,229.5 Z"/></g>
<g><path style="opacity:1" fill="#c1aed6" d="M 215.5,200.5 C 215.5,211.167 215.5,221.833 215.5,232.5C 228.167,232.5 240.833,232.5 253.5,232.5C 253.813,236.042 253.479,239.375 252.5,242.5C 252.5,239.5 252.5,236.5 252.5,233.5C 239.833,233.5 227.167,233.5 214.5,233.5C 214.172,222.321 214.505,211.321 215.5,200.5 Z"/></g>
<g><path style="opacity:1" fill="#f8f6fa" d="M 154.5,263.5 C 160.545,263.303 166.545,263.637 172.5,264.5C 172.5,266.167 172.5,267.833 172.5,269.5C 163.437,265.633 155.603,267.299 149,274.5C 142.411,296.077 150.245,305.077 172.5,301.5C 173.21,304.86 171.876,306.693 168.5,307C 145.691,308.512 136.857,298.012 142,275.5C 144.744,269.921 148.911,265.921 154.5,263.5 Z"/></g>
<g><path style="opacity:1" fill="#f7f5fa" d="M 186.5,275.5 C 201.469,273.969 208.302,280.636 207,295.5C 203.853,305.609 197.019,309.442 186.5,307C 177.574,301.898 174.741,294.398 178,284.5C 179.688,280.315 182.521,277.315 186.5,275.5 Z"/></g>
<g><path style="opacity:1" fill="#faf9fc" d="M 214.5,275.5 C 216.167,275.5 217.833,275.5 219.5,275.5C 219.34,277.199 219.506,278.866 220,280.5C 221.945,276.61 225.112,274.943 229.5,275.5C 229.5,277.167 229.5,278.833 229.5,280.5C 225.975,280.346 223.141,281.679 221,284.5C 219.609,291.746 219.109,299.079 219.5,306.5C 217.833,306.5 216.167,306.5 214.5,306.5C 214.5,296.167 214.5,285.833 214.5,275.5 Z"/></g>
<g><path style="opacity:1" fill="#faf8fb" d="M 241.5,275.5 C 254.67,273.671 260.67,279.338 259.5,292.5C 252.167,292.5 244.833,292.5 237.5,292.5C 239.982,303.239 246.315,306.239 256.5,301.5C 258.222,304.749 257.222,306.582 253.5,307C 245.416,309.302 238.916,307.135 234,300.5C 230.037,290.045 232.537,281.712 241.5,275.5 Z"/></g>
<g><path style="opacity:1" fill="#70449f" d="M 188.5,279.5 C 200.074,280.298 203.908,286.298 200,297.5C 197.265,303.122 193.099,304.622 187.5,302C 180.52,294.059 180.853,286.559 188.5,279.5 Z"/></g>
<g><path style="opacity:1" fill="#7449a1" d="M 243.5,279.5 C 250.525,278.532 254.192,281.532 254.5,288.5C 248.794,288.829 243.128,288.495 237.5,287.5C 238.561,284.009 240.561,281.342 243.5,279.5 Z"/></g>
</svg>
