<?xml version="1.0" encoding="UTF-8"?>
<!DOCTYPE svg PUBLIC "-//W3C//DTD SVG 1.1//EN" "http://www.w3.org/Graphics/SVG/1.1/DTD/svg11.dtd">
<svg xmlns="http://www.w3.org/2000/svg" version="1.1" width="598px" height="606px" style="shape-rendering:geometricPrecision; text-rendering:geometricPrecision; image-rendering:optimizeQuality; fill-rule:evenodd; clip-rule:evenodd" xmlns:xlink="http://www.w3.org/1999/xlink">
<g><path style="opacity:1" fill="#f0f0f0" d="M 188.5,-0.5 C 261.833,-0.5 335.167,-0.5 408.5,-0.5C 408.5,6.16667 408.5,12.8333 408.5,19.5C 415.167,19.5 421.833,19.5 428.5,19.5C 428.5,12.8333 428.5,6.16667 428.5,-0.5C 435.167,-0.5 441.833,-0.5 448.5,-0.5C 448.5,6.16667 448.5,12.8333 448.5,19.5C 455.167,19.5 461.833,19.5 468.5,19.5C 468.5,26.1667 468.5,32.8333 468.5,39.5C 475.167,39.5 481.833,39.5 488.5,39.5C 488.5,46.1667 488.5,52.8333 488.5,59.5C 495.167,59.5 501.833,59.5 508.5,59.5C 508.5,66.1667 508.5,72.8333 508.5,79.5C 515.167,79.5 521.833,79.5 528.5,79.5C 528.5,86.1667 528.5,92.8333 528.5,99.5C 535.167,99.5 541.833,99.5 548.5,99.5C 548.5,106.167 548.5,112.833 548.5,119.5C 555.167,119.5 561.833,119.5 568.5,119.5C 568.5,126.167 568.5,132.833 568.5,139.5C 562.833,139.5 557.167,139.5 551.5,139.5C 498.201,58.3128 422.867,12.4794 325.5,2C 270.409,-2.34748 218.076,7.48585 168.5,31.5C 168.5,27.5 168.5,23.5 168.5,19.5C 175.167,19.5 181.833,19.5 188.5,19.5C 188.5,12.8333 188.5,6.16667 188.5,-0.5 Z"/></g>
<g><path style="opacity:1" fill="#fefffe" d="M 408.5,-0.5 C 415.167,-0.5 421.833,-0.5 428.5,-0.5C 428.5,6.16667 428.5,12.8333 428.5,19.5C 421.833,19.5 415.167,19.5 408.5,19.5C 408.5,12.8333 408.5,6.16667 408.5,-0.5 Z"/></g>
<g><path style="opacity:1" fill="#fefffe" d="M 448.5,-0.5 C 455.167,-0.5 461.833,-0.5 468.5,-0.5C 468.5,6.16667 468.5,12.8333 468.5,19.5C 461.833,19.5 455.167,19.5 448.5,19.5C 448.5,12.8333 448.5,6.16667 448.5,-0.5 Z"/></g>
<g><path style="opacity:1" fill="#eff0ef" d="M 468.5,-0.5 C 475.167,-0.5 481.833,-0.5 488.5,-0.5C 488.5,6.16667 488.5,12.8333 488.5,19.5C 481.833,19.5 475.167,19.5 468.5,19.5C 468.5,12.8333 468.5,6.16667 468.5,-0.5 Z"/></g>
<g><path style="opacity:1" fill="#fefffe" d="M 488.5,-0.5 C 495.167,-0.5 501.833,-0.5 508.5,-0.5C 508.5,6.16667 508.5,12.8333 508.5,19.5C 501.833,19.5 495.167,19.5 488.5,19.5C 488.5,12.8333 488.5,6.16667 488.5,-0.5 Z"/></g>
<g><path style="opacity:1" fill="#eff0ef" d="M 508.5,-0.5 C 515.167,-0.5 521.833,-0.5 528.5,-0.5C 528.5,6.16667 528.5,12.8333 528.5,19.5C 521.833,19.5 515.167,19.5 508.5,19.5C 508.5,12.8333 508.5,6.16667 508.5,-0.5 Z"/></g>
<g><path style="opacity:1" fill="#fefffe" d="M 528.5,-0.5 C 535.167,-0.5 541.833,-0.5 548.5,-0.5C 548.5,6.16667 548.5,12.8333 548.5,19.5C 541.833,19.5 535.167,19.5 528.5,19.5C 528.5,12.8333 528.5,6.16667 528.5,-0.5 Z"/></g>
<g><path style="opacity:1" fill="#eff0ef" d="M 548.5,-0.5 C 555.167,-0.5 561.833,-0.5 568.5,-0.5C 568.5,6.16667 568.5,12.8333 568.5,19.5C 561.833,19.5 555.167,19.5 548.5,19.5C 548.5,12.8333 548.5,6.16667 548.5,-0.5 Z"/></g>
<g><path style="opacity:1" fill="#232021" d="M 551.5,139.5 C 578.293,183.878 593.627,231.878 597.5,283.5C 597.5,294.167 597.5,304.833 597.5,315.5C 590.956,410.099 550.623,486.599 476.5,545C 394.295,602.422 304.962,616.922 208.5,588.5C 201.919,586.194 195.252,583.86 188.5,581.5C 174.953,575.393 161.62,568.727 148.5,561.5C 105.946,535.946 71.2793,502.279 44.5,460.5C 17.3791,414.807 2.37905,365.474 -0.5,312.5C -0.5,303.167 -0.5,293.833 -0.5,284.5C 3.32755,232.35 18.9942,184.017 46.5,139.5C 68.7039,105.628 96.3706,76.9615 129.5,53.5C 141.987,45.419 154.987,38.0856 168.5,31.5C 218.076,7.48585 270.409,-2.34748 325.5,2C 422.867,12.4794 498.201,58.3128 551.5,139.5 Z"/></g>
<g><path style="opacity:1" fill="#f7f7f7" d="M -0.5,-0.5 C 62.5,-0.5 125.5,-0.5 188.5,-0.5C 188.5,6.16667 188.5,12.8333 188.5,19.5C 181.833,19.5 175.167,19.5 168.5,19.5C 168.5,23.5 168.5,27.5 168.5,31.5C 154.987,38.0856 141.987,45.419 129.5,53.5C 128.514,49.03 128.181,44.3633 128.5,39.5C 121.833,39.5 115.167,39.5 108.5,39.5C 108.5,46.1667 108.5,52.8333 108.5,59.5C 101.833,59.5 95.1667,59.5 88.5,59.5C 88.5,66.1667 88.5,72.8333 88.5,79.5C 81.8333,79.5 75.1667,79.5 68.5,79.5C 68.5,86.1667 68.5,92.8333 68.5,99.5C 61.8333,99.5 55.1667,99.5 48.5,99.5C 48.5,106.167 48.5,112.833 48.5,119.5C 41.8333,119.5 35.1667,119.5 28.5,119.5C 28.5,126.167 28.5,132.833 28.5,139.5C 34.5,139.5 40.5,139.5 46.5,139.5C 18.9942,184.017 3.32755,232.35 -0.5,284.5C -0.5,189.5 -0.5,94.5 -0.5,-0.5 Z"/></g>
<g><path style="opacity:1" fill="#fefffe" d="M 468.5,19.5 C 475.167,19.5 481.833,19.5 488.5,19.5C 488.5,26.1667 488.5,32.8333 488.5,39.5C 481.833,39.5 475.167,39.5 468.5,39.5C 468.5,32.8333 468.5,26.1667 468.5,19.5 Z"/></g>
<g><path style="opacity:1" fill="#eff0ef" d="M 488.5,19.5 C 495.167,19.5 501.833,19.5 508.5,19.5C 508.5,26.1667 508.5,32.8333 508.5,39.5C 501.833,39.5 495.167,39.5 488.5,39.5C 488.5,32.8333 488.5,26.1667 488.5,19.5 Z"/></g>
<g><path style="opacity:1" fill="#fefffe" d="M 508.5,19.5 C 515.167,19.5 521.833,19.5 528.5,19.5C 528.5,26.1667 528.5,32.8333 528.5,39.5C 521.833,39.5 515.167,39.5 508.5,39.5C 508.5,32.8333 508.5,26.1667 508.5,19.5 Z"/></g>
<g><path style="opacity:1" fill="#eff0ef" d="M 528.5,19.5 C 535.167,19.5 541.833,19.5 548.5,19.5C 548.5,26.1667 548.5,32.8333 548.5,39.5C 541.833,39.5 535.167,39.5 528.5,39.5C 528.5,32.8333 528.5,26.1667 528.5,19.5 Z"/></g>
<g><path style="opacity:1" fill="#fefffe" d="M 548.5,19.5 C 555.167,19.5 561.833,19.5 568.5,19.5C 568.5,26.1667 568.5,32.8333 568.5,39.5C 561.833,39.5 555.167,39.5 548.5,39.5C 548.5,32.8333 548.5,26.1667 548.5,19.5 Z"/></g>
<g><path style="opacity:1" fill="#f7f7f7" d="M 568.5,-0.5 C 578.167,-0.5 587.833,-0.5 597.5,-0.5C 597.5,94.1667 597.5,188.833 597.5,283.5C 593.627,231.878 578.293,183.878 551.5,139.5C 557.167,139.5 562.833,139.5 568.5,139.5C 568.5,132.833 568.5,126.167 568.5,119.5C 568.5,112.833 568.5,106.167 568.5,99.5C 568.5,92.8333 568.5,86.1667 568.5,79.5C 568.5,72.8333 568.5,66.1667 568.5,59.5C 568.5,52.8333 568.5,46.1667 568.5,39.5C 568.5,32.8333 568.5,26.1667 568.5,19.5C 568.5,12.8333 568.5,6.16667 568.5,-0.5 Z"/></g>
<g><path style="opacity:1" fill="#fefefe" d="M 277.5,36.5 C 374.939,31.6488 453.105,67.6488 512,144.5C 561.542,217.427 574.209,296.427 550,381.5C 516.933,479.902 449.767,540.402 348.5,563C 251.979,577.606 170.146,549.772 103,479.5C 39.886,405.02 20.886,320.353 46,225.5C 75.4739,136.026 134.974,76.5261 224.5,47C 242.038,42.1255 259.705,38.6255 277.5,36.5 Z"/></g>
<g><path style="opacity:1" fill="#fefffe" d="M 488.5,39.5 C 495.167,39.5 501.833,39.5 508.5,39.5C 508.5,46.1667 508.5,52.8333 508.5,59.5C 501.833,59.5 495.167,59.5 488.5,59.5C 488.5,52.8333 488.5,46.1667 488.5,39.5 Z"/></g>
<g><path style="opacity:1" fill="#eff0ef" d="M 508.5,39.5 C 515.167,39.5 521.833,39.5 528.5,39.5C 528.5,46.1667 528.5,52.8333 528.5,59.5C 521.833,59.5 515.167,59.5 508.5,59.5C 508.5,52.8333 508.5,46.1667 508.5,39.5 Z"/></g>
<g><path style="opacity:1" fill="#fefffe" d="M 528.5,39.5 C 535.167,39.5 541.833,39.5 548.5,39.5C 548.5,46.1667 548.5,52.8333 548.5,59.5C 541.833,59.5 535.167,59.5 528.5,59.5C 528.5,52.8333 528.5,46.1667 528.5,39.5 Z"/></g>
<g><path style="opacity:1" fill="#eff0ef" d="M 548.5,39.5 C 555.167,39.5 561.833,39.5 568.5,39.5C 568.5,46.1667 568.5,52.8333 568.5,59.5C 561.833,59.5 555.167,59.5 548.5,59.5C 548.5,52.8333 548.5,46.1667 548.5,39.5 Z"/></g>
<g><path style="opacity:1" fill="#fefffe" d="M 508.5,59.5 C 515.167,59.5 521.833,59.5 528.5,59.5C 528.5,66.1667 528.5,72.8333 528.5,79.5C 521.833,79.5 515.167,79.5 508.5,79.5C 508.5,72.8333 508.5,66.1667 508.5,59.5 Z"/></g>
<g><path style="opacity:1" fill="#eff0ef" d="M 528.5,59.5 C 535.167,59.5 541.833,59.5 548.5,59.5C 548.5,66.1667 548.5,72.8333 548.5,79.5C 541.833,79.5 535.167,79.5 528.5,79.5C 528.5,72.8333 528.5,66.1667 528.5,59.5 Z"/></g>
<g><path style="opacity:1" fill="#fefffe" d="M 548.5,59.5 C 555.167,59.5 561.833,59.5 568.5,59.5C 568.5,66.1667 568.5,72.8333 568.5,79.5C 561.833,79.5 555.167,79.5 548.5,79.5C 548.5,72.8333 548.5,66.1667 548.5,59.5 Z"/></g>
<g><path style="opacity:1" fill="#f0f0f0" d="M 129.5,53.5 C 96.3706,76.9615 68.7039,105.628 46.5,139.5C 40.5,139.5 34.5,139.5 28.5,139.5C 28.5,132.833 28.5,126.167 28.5,119.5C 35.1667,119.5 41.8333,119.5 48.5,119.5C 48.5,112.833 48.5,106.167 48.5,99.5C 55.1667,99.5 61.8333,99.5 68.5,99.5C 68.5,92.8333 68.5,86.1667 68.5,79.5C 75.1667,79.5 81.8333,79.5 88.5,79.5C 88.5,72.8333 88.5,66.1667 88.5,59.5C 95.1667,59.5 101.833,59.5 108.5,59.5C 108.5,52.8333 108.5,46.1667 108.5,39.5C 115.167,39.5 121.833,39.5 128.5,39.5C 128.181,44.3633 128.514,49.03 129.5,53.5 Z"/></g>
<g><path style="opacity:1" fill="#fefffe" d="M 528.5,79.5 C 535.167,79.5 541.833,79.5 548.5,79.5C 548.5,86.1667 548.5,92.8333 548.5,99.5C 541.833,99.5 535.167,99.5 528.5,99.5C 528.5,92.8333 528.5,86.1667 528.5,79.5 Z"/></g>
<g><path style="opacity:1" fill="#eff0ef" d="M 548.5,79.5 C 555.167,79.5 561.833,79.5 568.5,79.5C 568.5,86.1667 568.5,92.8333 568.5,99.5C 561.833,99.5 555.167,99.5 548.5,99.5C 548.5,92.8333 548.5,86.1667 548.5,79.5 Z"/></g>
<g><path style="opacity:1" fill="#f8971d" d="M 276.5,513.5 C 276.5,492.167 276.5,470.833 276.5,449.5C 276.333,341.499 276.5,233.499 277,125.5C 302.578,112.628 328.078,99.6277 353.5,86.5C 354.833,213.5 354.833,340.5 353.5,467.5C 327.816,482.861 302.149,498.194 276.5,513.5 Z"/></g>
<g><path style="opacity:1" fill="#fefffe" d="M 548.5,99.5 C 555.167,99.5 561.833,99.5 568.5,99.5C 568.5,106.167 568.5,112.833 568.5,119.5C 561.833,119.5 555.167,119.5 548.5,119.5C 548.5,112.833 548.5,106.167 548.5,99.5 Z"/></g>
<g><path style="opacity:1" fill="#231f20" d="M 370.5,189.5 C 398.957,192.597 426.124,200.263 452,212.5C 452.772,212.355 453.439,212.022 454,211.5C 457.412,204.342 461.078,197.342 465,190.5C 483.874,219.079 502.374,247.912 520.5,277C 483.676,284.564 446.676,291.231 409.5,297C 414.373,287.421 419.373,277.921 424.5,268.5C 407.414,260.438 389.581,254.771 371,251.5C 370.5,230.836 370.333,210.169 370.5,189.5 Z"/></g>
<g><path style="opacity:1" fill="#231f20" d="M 276.5,449.5 C 276.5,470.833 276.5,492.167 276.5,513.5C 226.144,505.254 183.644,482.587 149,445.5C 109.122,395.675 103.789,342.342 133,285.5C 156.258,250.252 187.425,224.419 226.5,208C 237.609,203.464 248.942,199.631 260.5,196.5C 260.667,218.169 260.5,239.836 260,261.5C 235.163,270.68 213.829,285.013 196,304.5C 172.289,333.319 170.289,363.653 190,395.5C 207.599,418.392 230.099,434.559 257.5,444C 263.716,446.303 270.05,448.137 276.5,449.5 Z"/></g>
<g><path style="opacity:1" fill="#f5f5f5" d="M -0.5,312.5 C 2.37905,365.474 17.3791,414.807 44.5,460.5C 39.2599,459.551 33.9265,459.218 28.5,459.5C 28.5,466.167 28.5,472.833 28.5,479.5C 35.1667,479.5 41.8333,479.5 48.5,479.5C 48.5,486.167 48.5,492.833 48.5,499.5C 55.1667,499.5 61.8333,499.5 68.5,499.5C 68.5,506.167 68.5,512.833 68.5,519.5C 75.1667,519.5 81.8333,519.5 88.5,519.5C 88.5,526.167 88.5,532.833 88.5,539.5C 95.1667,539.5 101.833,539.5 108.5,539.5C 108.5,546.167 108.5,552.833 108.5,559.5C 115.167,559.5 121.833,559.5 128.5,559.5C 128.5,566.167 128.5,572.833 128.5,579.5C 121.833,579.5 115.167,579.5 108.5,579.5C 108.5,586.167 108.5,592.833 108.5,599.5C 101.833,599.5 95.1667,599.5 88.5,599.5C 88.5,592.833 88.5,586.167 88.5,579.5C 81.8333,579.5 75.1667,579.5 68.5,579.5C 68.5,586.167 68.5,592.833 68.5,599.5C 61.8333,599.5 55.1667,599.5 48.5,599.5C 48.5,592.833 48.5,586.167 48.5,579.5C 41.8333,579.5 35.1667,579.5 28.5,579.5C 28.5,586.167 28.5,592.833 28.5,599.5C 21.8333,599.5 15.1667,599.5 8.5,599.5C 8.5,592.833 8.5,586.167 8.5,579.5C 5.5,579.5 2.5,579.5 -0.5,579.5C -0.5,490.5 -0.5,401.5 -0.5,312.5 Z"/></g>
<g><path style="opacity:1" fill="#fbfbfb" d="M 44.5,460.5 C 71.2793,502.279 105.946,535.946 148.5,561.5C 148.5,567.5 148.5,573.5 148.5,579.5C 141.833,579.5 135.167,579.5 128.5,579.5C 128.5,572.833 128.5,566.167 128.5,559.5C 121.833,559.5 115.167,559.5 108.5,559.5C 108.5,552.833 108.5,546.167 108.5,539.5C 101.833,539.5 95.1667,539.5 88.5,539.5C 88.5,532.833 88.5,526.167 88.5,519.5C 81.8333,519.5 75.1667,519.5 68.5,519.5C 68.5,512.833 68.5,506.167 68.5,499.5C 61.8333,499.5 55.1667,499.5 48.5,499.5C 48.5,492.833 48.5,486.167 48.5,479.5C 41.8333,479.5 35.1667,479.5 28.5,479.5C 28.5,472.833 28.5,466.167 28.5,459.5C 33.9265,459.218 39.2599,459.551 44.5,460.5 Z"/></g>
<g><path style="opacity:1" fill="#fbfbfb" d="M -0.5,579.5 C 2.5,579.5 5.5,579.5 8.5,579.5C 8.5,586.167 8.5,592.833 8.5,599.5C 15.1667,599.5 21.8333,599.5 28.5,599.5C 28.5,592.833 28.5,586.167 28.5,579.5C 35.1667,579.5 41.8333,579.5 48.5,579.5C 48.5,586.167 48.5,592.833 48.5,599.5C 55.1667,599.5 61.8333,599.5 68.5,599.5C 68.5,592.833 68.5,586.167 68.5,579.5C 75.1667,579.5 81.8333,579.5 88.5,579.5C 88.5,586.167 88.5,592.833 88.5,599.5C 95.1667,599.5 101.833,599.5 108.5,599.5C 108.5,592.833 108.5,586.167 108.5,579.5C 115.167,579.5 121.833,579.5 128.5,579.5C 128.5,586.167 128.5,592.833 128.5,599.5C 135.167,599.5 141.833,599.5 148.5,599.5C 148.5,592.833 148.5,586.167 148.5,579.5C 155.167,579.5 161.833,579.5 168.5,579.5C 168.5,586.167 168.5,592.833 168.5,599.5C 175.167,599.5 181.833,599.5 188.5,599.5C 188.5,593.5 188.5,587.5 188.5,581.5C 195.252,583.86 201.919,586.194 208.5,588.5C 208.5,592.167 208.5,595.833 208.5,599.5C 215.167,599.5 221.833,599.5 228.5,599.5C 228.5,601.5 228.5,603.5 228.5,605.5C 152.167,605.5 75.8333,605.5 -0.5,605.5C -0.5,596.833 -0.5,588.167 -0.5,579.5 Z"/></g>
<g><path style="opacity:1" fill="#eff0ef" d="M 128.5,579.5 C 135.167,579.5 141.833,579.5 148.5,579.5C 148.5,586.167 148.5,592.833 148.5,599.5C 141.833,599.5 135.167,599.5 128.5,599.5C 128.5,592.833 128.5,586.167 128.5,579.5 Z"/></g>
<g><path style="opacity:1" fill="#efefef" d="M 148.5,561.5 C 161.62,568.727 174.953,575.393 188.5,581.5C 188.5,587.5 188.5,593.5 188.5,599.5C 181.833,599.5 175.167,599.5 168.5,599.5C 168.5,592.833 168.5,586.167 168.5,579.5C 161.833,579.5 155.167,579.5 148.5,579.5C 148.5,573.5 148.5,567.5 148.5,561.5 Z"/></g>
<g><path style="opacity:1" fill="#f6f6f6" d="M 597.5,315.5 C 597.5,412.167 597.5,508.833 597.5,605.5C 474.5,605.5 351.5,605.5 228.5,605.5C 228.5,603.5 228.5,601.5 228.5,599.5C 221.833,599.5 215.167,599.5 208.5,599.5C 208.5,595.833 208.5,592.167 208.5,588.5C 304.962,616.922 394.295,602.422 476.5,545C 550.623,486.599 590.956,410.099 597.5,315.5 Z"/></g>
<g><path style="opacity:1" fill="#eff0ef" d="M 548.5,559.5 C 555.167,559.5 561.833,559.5 568.5,559.5C 568.5,566.167 568.5,572.833 568.5,579.5C 561.833,579.5 555.167,579.5 548.5,579.5C 548.5,572.833 548.5,566.167 548.5,559.5 Z"/></g>
<g><path style="opacity:1" fill="#fefffe" d="M 528.5,559.5 C 535.167,559.5 541.833,559.5 548.5,559.5C 548.5,566.167 548.5,572.833 548.5,579.5C 541.833,579.5 535.167,579.5 528.5,579.5C 528.5,572.833 528.5,566.167 528.5,559.5 Z"/></g>
<g><path style="opacity:1" fill="#eff0ef" d="M 508.5,559.5 C 515.167,559.5 521.833,559.5 528.5,559.5C 528.5,566.167 528.5,572.833 528.5,579.5C 521.833,579.5 515.167,579.5 508.5,579.5C 508.5,572.833 508.5,566.167 508.5,559.5 Z"/></g>
<g><path style="opacity:1" fill="#fefffe" d="M 488.5,559.5 C 495.167,559.5 501.833,559.5 508.5,559.5C 508.5,566.167 508.5,572.833 508.5,579.5C 501.833,579.5 495.167,579.5 488.5,579.5C 488.5,572.833 488.5,566.167 488.5,559.5 Z"/></g>
<g><path style="opacity:1" fill="#eff0ef" d="M 488.5,559.5 C 488.5,566.167 488.5,572.833 488.5,579.5C 481.833,579.5 475.167,579.5 468.5,579.5C 468.5,572.833 468.5,566.167 468.5,559.5C 475.167,559.5 481.833,559.5 488.5,559.5 Z"/></g>
<g><path style="opacity:1" fill="#fefffe" d="M 548.5,539.5 C 555.167,539.5 561.833,539.5 568.5,539.5C 568.5,546.167 568.5,552.833 568.5,559.5C 561.833,559.5 555.167,559.5 548.5,559.5C 548.5,552.833 548.5,546.167 548.5,539.5 Z"/></g>
<g><path style="opacity:1" fill="#eff0ef" d="M 528.5,539.5 C 535.167,539.5 541.833,539.5 548.5,539.5C 548.5,546.167 548.5,552.833 548.5,559.5C 541.833,559.5 535.167,559.5 528.5,559.5C 528.5,552.833 528.5,546.167 528.5,539.5 Z"/></g>
<g><path style="opacity:1" fill="#fefffe" d="M 508.5,539.5 C 515.167,539.5 521.833,539.5 528.5,539.5C 528.5,546.167 528.5,552.833 528.5,559.5C 521.833,559.5 515.167,559.5 508.5,559.5C 508.5,552.833 508.5,546.167 508.5,539.5 Z"/></g>
<g><path style="opacity:1" fill="#eff0ef" d="M 508.5,539.5 C 508.5,546.167 508.5,552.833 508.5,559.5C 501.833,559.5 495.167,559.5 488.5,559.5C 488.5,552.833 488.5,546.167 488.5,539.5C 495.167,539.5 501.833,539.5 508.5,539.5 Z"/></g>
<g><path style="opacity:1" fill="#eff0ef" d="M 548.5,519.5 C 555.167,519.5 561.833,519.5 568.5,519.5C 568.5,526.167 568.5,532.833 568.5,539.5C 561.833,539.5 555.167,539.5 548.5,539.5C 548.5,532.833 548.5,526.167 548.5,519.5 Z"/></g>
<g><path style="opacity:1" fill="#fefffe" d="M 528.5,519.5 C 535.167,519.5 541.833,519.5 548.5,519.5C 548.5,526.167 548.5,532.833 548.5,539.5C 541.833,539.5 535.167,539.5 528.5,539.5C 528.5,532.833 528.5,526.167 528.5,519.5 Z"/></g>
<g><path style="opacity:1" fill="#eff0ef" d="M 528.5,519.5 C 528.5,526.167 528.5,532.833 528.5,539.5C 521.833,539.5 515.167,539.5 508.5,539.5C 508.5,532.833 508.5,526.167 508.5,519.5C 515.167,519.5 521.833,519.5 528.5,519.5 Z"/></g>
<g><path style="opacity:1" fill="#fefffe" d="M 548.5,499.5 C 555.167,499.5 561.833,499.5 568.5,499.5C 568.5,506.167 568.5,512.833 568.5,519.5C 561.833,519.5 555.167,519.5 548.5,519.5C 548.5,512.833 548.5,506.167 548.5,499.5 Z"/></g>
<g><path style="opacity:1" fill="#eff0ef" d="M 548.5,499.5 C 548.5,506.167 548.5,512.833 548.5,519.5C 541.833,519.5 535.167,519.5 528.5,519.5C 528.5,512.833 528.5,506.167 528.5,499.5C 535.167,499.5 541.833,499.5 548.5,499.5 Z"/></g>
<g><path style="opacity:1" fill="#eff0ef" d="M 568.5,499.5 C 561.833,499.5 555.167,499.5 548.5,499.5C 548.5,492.833 548.5,486.167 548.5,479.5C 555.167,479.5 561.833,479.5 568.5,479.5C 568.5,486.167 568.5,492.833 568.5,499.5 Z"/></g>
</svg>
