<?xml version="1.0" encoding="UTF-8"?>
<!DOCTYPE svg PUBLIC "-//W3C//DTD SVG 1.1//EN" "http://www.w3.org/Graphics/SVG/1.1/DTD/svg11.dtd">
<svg xmlns="http://www.w3.org/2000/svg" version="1.1" width="1200px" height="1657px" style="shape-rendering:geometricPrecision; text-rendering:geometricPrecision; image-rendering:optimizeQuality; fill-rule:evenodd; clip-rule:evenodd" xmlns:xlink="http://www.w3.org/1999/xlink">
<g><path style="opacity:0.998" fill="#231f20" d="M 639.5,-0.5 C 648.833,-0.5 658.167,-0.5 667.5,-0.5C 707.616,1.02019 746.949,7.85353 785.5,20C 824.84,33.4919 859.174,54.8253 888.5,84C 911.185,105.675 932.018,128.842 951,153.5C 967.895,178.299 980.229,205.299 988,234.5C 998.335,273.176 1004.67,312.51 1007,352.5C 1125.03,467.938 1188.36,608.605 1197,774.5C 1201.59,894.967 1174.09,1007.47 1114.5,1112C 1129.7,1118.87 1140.53,1130.03 1147,1145.5C 1160.79,1177.54 1171.79,1210.54 1180,1244.5C 1184.99,1283.88 1177.32,1320.55 1157,1354.5C 1149.35,1366.14 1138.85,1373.98 1125.5,1378C 1096.17,1385.51 1066.51,1387.18 1036.5,1383C 1028.15,1381.77 1019.82,1380.44 1011.5,1379C 1005.05,1373.76 1000.05,1367.42 996.5,1360C 968.645,1357.76 941.978,1362.26 916.5,1373.5C 917.356,1385.86 912.356,1394.69 901.5,1400C 897.5,1401.33 893.5,1402.67 889.5,1404C 887.98,1406.6 887.147,1409.43 887,1412.5C 886.244,1422.54 886.577,1432.54 888,1442.5C 891.526,1460.94 895.526,1479.27 900,1497.5C 904.099,1513.23 904.099,1528.9 900,1544.5C 894.983,1554.51 887.149,1561.35 876.5,1565C 864.096,1569.25 851.429,1572.41 838.5,1574.5C 839.065,1588.54 839.899,1602.54 841,1616.5C 835.464,1629.03 826.298,1637.87 813.5,1643C 806.671,1645.61 799.671,1647.61 792.5,1649C 765.094,1652.39 737.76,1654.89 710.5,1656.5C 683.5,1656.5 656.5,1656.5 629.5,1656.5C 595.454,1654.75 561.788,1649.59 528.5,1641C 523.602,1639.65 518.935,1637.81 514.5,1635.5C 506.113,1614.84 498.613,1593.84 492,1572.5C 481.144,1536.06 470.144,1499.73 459,1463.5C 428.694,1466.41 399.194,1462.58 370.5,1452C 337.994,1439.25 306.327,1424.58 275.5,1408C 262.913,1402.8 250.246,1397.8 237.5,1393C 226.546,1389.05 219.379,1381.55 216,1370.5C 215.088,1366.21 214.421,1361.87 214,1357.5C 213.72,1327.06 212.054,1296.72 209,1266.5C 97.5722,1167.02 29.9055,1043.02 6,894.5C 3.19437,874.751 1.02771,855.084 -0.5,835.5C -0.5,812.167 -0.5,788.833 -0.5,765.5C 12.1503,589.202 84.6503,443.202 217,327.5C 218.036,299.949 223.369,273.282 233,247.5C 242.161,226.006 257.161,210.006 278,199.5C 286.667,167.98 303.5,141.813 328.5,121C 336.167,115.333 343.833,109.667 351.5,104C 379.67,87.414 408.003,71.0807 436.5,55C 485.105,29.7982 536.439,12.7982 590.5,4C 606.943,1.9922 623.276,0.4922 639.5,-0.5 Z"/></g>
<g><path style="opacity:1" fill="#f6e3cc" d="M 844.5,94.5 C 844.44,95.0431 844.107,95.3764 843.5,95.5C 816.187,85.0037 787.854,79.1704 758.5,78C 707.053,76.2079 656.386,81.5412 606.5,94C 539.839,113.346 487.339,151.846 449,209.5C 435.503,230.825 423.837,253.158 414,276.5C 413.506,274.866 413.34,273.199 413.5,271.5C 415.362,255.552 415.862,239.552 415,223.5C 413.409,213.132 410.575,203.132 406.5,193.5C 417.804,170.092 433.137,149.592 452.5,132C 490.396,99.4864 532.062,72.4864 577.5,51C 608.354,38.7183 640.354,34.3849 673.5,38C 727.46,42.8748 778.46,57.8748 826.5,83C 832.698,86.5944 838.698,90.4278 844.5,94.5 Z"/></g>
<g><path style="opacity:1" fill="#d9d6d5" d="M 469.5,93.5 C 419.756,111.267 378.756,140.934 346.5,182.5C 334.065,186.979 321.398,190.645 308.5,193.5C 313.793,181.028 320.96,169.695 330,159.5C 360.725,127.38 396.558,102.547 437.5,85C 452.459,78.3466 467.793,72.68 483.5,68C 488.117,66.703 491.95,67.8697 495,71.5C 495.552,74.4192 494.885,77.0859 493,79.5C 488.013,82.0525 482.846,84.2192 477.5,86C 475.619,89.3825 472.952,91.8825 469.5,93.5 Z"/></g>
<g><path style="opacity:1" fill="#efd5b6" d="M 844.5,94.5 C 854.425,102.252 863.925,110.586 873,119.5C 883.466,130.463 892.966,142.13 901.5,154.5C 881.887,156.051 866.387,164.718 855,180.5C 846.491,194.993 845.324,209.993 851.5,225.5C 854.186,223.144 856.853,220.811 859.5,218.5C 859.248,221.32 859.748,223.986 861,226.5C 872.9,216.064 886.734,212.231 902.5,215C 938.774,222.61 962.274,244.11 973,279.5C 975.3,287.368 976.967,295.368 978,303.5C 982.582,348.722 984.582,394.055 984,439.5C 981.131,512.074 964.798,581.407 935,647.5C 920.65,675.487 904.317,702.153 886,727.5C 877.303,739.74 867.136,750.574 855.5,760C 815.778,788.025 771.778,805.692 723.5,813C 703.937,814.617 684.603,813.283 665.5,809C 612.524,792.602 568.357,763.102 533,720.5C 514.362,697.884 496.695,674.551 480,650.5C 480.85,669.05 486.517,686.05 497,701.5C 521.991,736.493 551.157,767.66 584.5,795C 591.332,799.584 598.332,803.917 605.5,808C 597.215,807.315 588.882,806.815 580.5,806.5C 569.088,805.882 558.422,808.382 548.5,814C 545.13,817.035 542.13,820.368 539.5,824C 518.485,823.954 497.819,821.787 477.5,817.5C 478.873,817.657 480.207,817.49 481.5,817C 444.77,784.41 418.937,744.577 404,697.5C 392.278,661.75 384.945,625.083 382,587.5C 379.482,580.477 374.648,576.143 367.5,574.5C 361.328,574.057 355.662,575.557 350.5,579C 343.676,584.245 336.676,589.245 329.5,594C 314.583,599.442 300.249,598.108 286.5,590C 277.648,584.906 269.982,578.406 263.5,570.5C 264.043,570.44 264.376,570.107 264.5,569.5C 261.505,563.016 259.005,556.349 257,549.5C 254.744,533.43 255.077,517.43 258,501.5C 260.189,490.745 262.689,480.079 265.5,469.5C 270.209,461.391 277.042,458.391 286,460.5C 283.411,468.205 281.744,476.205 281,484.5C 279.562,498.8 280.895,512.8 285,526.5C 286.641,531.786 289.308,536.453 293,540.5C 293.333,526.833 293.667,513.167 294,499.5C 294.195,489.526 297.362,480.693 303.5,473C 313.684,468.508 321.184,471.341 326,481.5C 330.148,490.289 334.481,498.956 339,507.5C 341,509.5 343,511.5 345,513.5C 351.49,481.166 340.656,456.833 312.5,440.5C 326.462,444.144 339.795,449.477 352.5,456.5C 353.298,456.043 353.631,455.376 353.5,454.5C 356.415,462.16 358.415,470.16 359.5,478.5C 375.942,479.76 391.609,476.927 406.5,470C 408.333,468.167 410.167,466.333 412,464.5C 412.686,457.125 412.353,449.792 411,442.5C 407.131,426.161 403.131,409.827 399,393.5C 395.421,372.383 396.088,351.383 401,330.5C 405.254,310.722 409.421,291.055 413.5,271.5C 413.34,273.199 413.506,274.866 414,276.5C 423.837,253.158 435.503,230.825 449,209.5C 487.339,151.846 539.839,113.346 606.5,94C 656.386,81.5412 707.053,76.2079 758.5,78C 787.854,79.1704 816.187,85.0037 843.5,95.5C 844.107,95.3764 844.44,95.0431 844.5,94.5 Z"/></g>
<g><path style="opacity:1" fill="#6d6a6c" d="M 469.5,93.5 C 459.855,101.636 450.022,109.636 440,117.5C 430.003,130.821 421.003,144.821 413,159.5C 408.519,165.979 403.352,171.812 397.5,177C 395.5,178 393.5,179 391.5,180C 379.174,179.74 366.841,179.74 354.5,180C 351.846,180.941 349.179,181.774 346.5,182.5C 378.756,140.934 419.756,111.267 469.5,93.5 Z"/></g>
<g><path style="opacity:1" fill="#f5e2cb" d="M 901.5,154.5 C 910.175,164.657 918.508,175.157 926.5,186C 915.362,183.754 904.029,183.088 892.5,184C 873.401,187.929 862.401,199.429 859.5,218.5C 856.853,220.811 854.186,223.144 851.5,225.5C 845.324,209.993 846.491,194.993 855,180.5C 866.387,164.718 881.887,156.051 901.5,154.5 Z"/></g>
<g><path style="opacity:1" fill="#f5e2cb" d="M 620.5,200.5 C 602.332,193.888 584.998,195.721 568.5,206C 543.402,220.092 525.902,240.592 516,267.5C 513.999,273.673 513.166,280.006 513.5,286.5C 508.622,282.404 506.122,277.071 506,270.5C 504.822,244.352 513.989,222.519 533.5,205C 545.978,194.425 559.978,186.425 575.5,181C 595.505,176.219 610.838,182.553 621.5,200C 621.272,200.399 620.938,200.565 620.5,200.5 Z"/></g>
<g><path style="opacity:1" fill="#242021" d="M 620.5,200.5 C 626.979,203.84 631.813,208.84 635,215.5C 635.91,220.658 635.41,225.658 633.5,230.5C 598.962,223.512 570.128,233.179 547,259.5C 537.852,270.955 530.352,283.455 524.5,297C 521.788,297.738 519.455,297.071 517.5,295C 515.754,292.341 514.42,289.508 513.5,286.5C 513.166,280.006 513.999,273.673 516,267.5C 525.902,240.592 543.402,220.092 568.5,206C 584.998,195.721 602.332,193.888 620.5,200.5 Z"/></g>
<g><path style="opacity:1" fill="#d8d5d4" d="M 390.5,218.5 C 390.423,219.75 389.756,220.583 388.5,221C 294.462,236.195 253.129,291.028 264.5,385.5C 262.031,386.569 259.698,387.902 257.5,389.5C 254.571,366.588 253.404,343.588 254,320.5C 253.875,289.602 265.042,263.768 287.5,243C 315.875,218.488 348.875,204.988 386.5,202.5C 388.442,207.663 389.775,212.997 390.5,218.5 Z"/></g>
<g><path style="opacity:1" fill="#6c6a6c" d="M 390.5,218.5 C 391.832,222.264 392.665,226.264 393,230.5C 393.667,240.833 393.667,251.167 393,261.5C 390.988,279.919 388.321,298.252 385,316.5C 383.087,331.47 381.587,346.47 380.5,361.5C 380.636,371.557 381.469,381.557 383,391.5C 387.019,405.387 390.519,419.387 393.5,433.5C 393.925,443.405 389.259,448.405 379.5,448.5C 377.286,417.105 361.619,395.271 332.5,383C 309.418,374.972 286.751,375.806 264.5,385.5C 253.129,291.028 294.462,236.195 388.5,221C 389.756,220.583 390.423,219.75 390.5,218.5 Z"/></g>
<g><path style="opacity:1" fill="#242021" d="M 934.5,350.5 C 930.446,339.191 927.779,327.524 926.5,315.5C 926.5,310.833 926.5,306.167 926.5,301.5C 927.822,301.33 928.989,301.663 930,302.5C 941.831,330.496 955.498,357.496 971,383.5C 971.667,384.5 971.667,385.5 971,386.5C 957.79,402.858 940.624,412.024 919.5,414C 904.15,417.015 893.317,411.515 887,397.5C 886.207,393.577 886.374,389.744 887.5,386C 892.03,384.368 896.696,383.368 901.5,383C 911.528,382.713 921.528,382.046 931.5,381C 935.637,380.066 939.637,378.732 943.5,377C 944.476,374.853 944.309,372.686 943,370.5C 940.39,363.628 937.557,356.962 934.5,350.5 Z"/></g>
<g><path style="opacity:1" fill="#242021" d="M 680.5,372.5 C 671.18,355.207 664.847,336.874 661.5,317.5C 661.09,312.327 661.757,307.327 663.5,302.5C 663.833,302.833 664.167,303.167 664.5,303.5C 671.392,319.618 678.559,335.618 686,351.5C 689,355.833 692,360.167 695,364.5C 701.667,369.833 707.667,375.833 713,382.5C 720.425,396.97 717.925,409.47 705.5,420C 701.431,423.063 697.098,425.73 692.5,428C 671.953,433.181 651.62,432.515 631.5,426C 615.501,420.352 611.167,410.019 618.5,395C 621.833,394.333 625.167,394.333 628.5,395C 640.695,397.806 653.028,399.639 665.5,400.5C 675.708,401.203 684.708,398.37 692.5,392C 688.637,385.328 684.637,378.828 680.5,372.5 Z"/></g>
<g><path style="opacity:1" fill="#f5e2cc" d="M 926.5,315.5 C 927.779,327.524 930.446,339.191 934.5,350.5C 935.321,353.554 935.321,356.554 934.5,359.5C 925.571,364.087 916.238,367.587 906.5,370C 902.833,370.667 899.167,370.667 895.5,370C 893,368.833 891.167,367 890,364.5C 887.982,346.7 894.482,332.867 909.5,323C 914.953,319.938 920.62,317.438 926.5,315.5 Z"/></g>
<g><path style="opacity:1" fill="#f6e3cc" d="M 661.5,317.5 C 664.847,336.874 671.18,355.207 680.5,372.5C 662.065,381.045 643.398,381.545 624.5,374C 611.67,364.838 609.17,353.338 617,339.5C 628.903,326.465 643.737,319.132 661.5,317.5 Z"/></g>
<g><path style="opacity:1" fill="#242021" d="M 749.5,536.5 C 750.482,539.763 751.149,543.097 751.5,546.5C 752.815,554.961 756.148,562.461 761.5,569C 764.382,570.608 767.382,571.941 770.5,573C 780.873,573.804 791.207,573.471 801.5,572C 813.117,569.261 824.451,565.595 835.5,561C 852.5,553.167 869.5,545.333 886.5,537.5C 896.342,524.442 896.842,511.109 888,497.5C 872.763,480.019 857.763,462.352 843,444.5C 823.092,420.361 808.092,393.361 798,363.5C 795.641,352.799 794.141,341.965 793.5,331C 793.354,328.966 794.02,327.299 795.5,326C 798.669,325.022 801.503,325.522 804,327.5C 806.831,334.304 809.164,341.304 811,348.5C 821.732,370.976 834.732,391.976 850,411.5C 872.17,440.343 896.503,467.343 923,492.5C 925.374,496.894 926.041,501.56 925,506.5C 921.19,518.761 917.69,531.094 914.5,543.5C 891.835,558.668 867.835,571.501 842.5,582C 813.702,592.257 784.036,596.257 753.5,594C 739.84,579.194 735.674,562.027 741,542.5C 742.497,538.835 744.497,535.502 747,532.5C 747.934,533.858 748.768,535.192 749.5,536.5 Z"/></g>
<g><path style="opacity:1" fill="#ed3c39" d="M 201.5,456.5 C 149.84,511.75 111.34,575.417 86,647.5C 60.4944,722.255 45.3277,798.922 40.5,877.5C 19.8071,696.103 69.9738,537.77 191,402.5C 200.5,393 210,383.5 219.5,374C 220.332,373.312 220.998,373.479 221.5,374.5C 225.002,384.488 225.169,394.488 222,404.5C 217.504,410.156 213.504,416.156 210,422.5C 205.99,433.58 203.157,444.913 201.5,456.5 Z"/></g>
<g><path style="opacity:1" fill="#d23732" d="M 1006.5,404.5 C 1098.55,505.332 1149.72,624.332 1160,761.5C 1166.83,884.849 1138.83,999.516 1076,1105.5C 1044.77,1108.91 1014.94,1117.41 986.5,1131C 977.133,1135.1 967.967,1139.6 959,1144.5C 974.025,1101.43 988.692,1058.09 1003,1014.5C 1016.14,971.428 1029.47,928.428 1043,885.5C 1046.49,872.716 1047.83,859.716 1047,846.5C 1044.28,838.718 1040.28,831.718 1035,825.5C 1008.73,800.22 981.559,776.053 953.5,753C 947.667,747.167 941.833,741.333 936,735.5C 932.623,731.58 930.457,727.08 929.5,722C 930.394,716.984 931.894,712.15 934,707.5C 943.523,691.121 952.523,674.454 961,657.5C 991.046,575.893 1006.21,491.559 1006.5,404.5 Z"/></g>
<g><path style="opacity:1" fill="#f4e1cb" d="M 353.5,454.5 C 353.631,455.376 353.298,456.043 352.5,456.5C 339.795,449.477 326.462,444.144 312.5,440.5C 285.241,431.794 268.241,441.294 261.5,469C 261.833,469.833 262.167,470.667 262.5,471.5C 263.518,470.807 264.518,470.141 265.5,469.5C 262.689,480.079 260.189,490.745 258,501.5C 255.077,517.43 254.744,533.43 257,549.5C 259.005,556.349 261.505,563.016 264.5,569.5C 264.376,570.107 264.043,570.44 263.5,570.5C 236.833,538.334 226.999,501.667 234,460.5C 247.907,423.931 274.407,406.765 313.5,409C 331.444,414.275 343.611,425.775 350,443.5C 351.674,447.021 352.84,450.687 353.5,454.5 Z"/></g>
<g><path style="opacity:1" fill="#242021" d="M 312.5,440.5 C 340.656,456.833 351.49,481.166 345,513.5C 343,511.5 341,509.5 339,507.5C 334.481,498.956 330.148,490.289 326,481.5C 321.184,471.341 313.684,468.508 303.5,473C 297.362,480.693 294.195,489.526 294,499.5C 293.667,513.167 293.333,526.833 293,540.5C 289.308,536.453 286.641,531.786 285,526.5C 280.895,512.8 279.562,498.8 281,484.5C 281.744,476.205 283.411,468.205 286,460.5C 277.042,458.391 270.209,461.391 265.5,469.5C 264.518,470.141 263.518,470.807 262.5,471.5C 262.167,470.667 261.833,469.833 261.5,469C 268.241,441.294 285.241,431.794 312.5,440.5 Z"/></g>
<g><path style="opacity:1" fill="#d23732" d="M 201.5,456.5 C 197.77,508.118 210.937,554.785 241,596.5C 260.108,618.304 283.942,631.637 312.5,636.5C 314.457,667.878 324.624,696.211 343,721.5C 348.838,730.004 351.171,739.337 350,749.5C 349.529,751.246 348.862,752.913 348,754.5C 342.949,759.274 337.449,763.44 331.5,767C 295.67,787.414 260.003,808.081 224.5,829C 208.821,838.838 193.488,849.171 178.5,860C 167.833,865.333 157.167,870.667 146.5,876C 128.796,885.242 121.629,899.742 125,919.5C 126.382,927.979 128.382,936.312 131,944.5C 148.943,995.663 167.276,1046.66 186,1097.5C 196.126,1135.26 202.459,1173.59 205,1212.5C 113.442,1119.38 58.6087,1007.71 40.5,877.5C 45.3277,798.922 60.4944,722.255 86,647.5C 111.34,575.417 149.84,511.75 201.5,456.5 Z"/></g>
<g><path style="opacity:1" fill="#f6e3cc" d="M 751.5,546.5 C 751.149,543.097 750.482,539.763 749.5,536.5C 749.843,525.127 752.676,514.461 758,504.5C 763.159,497.43 769.325,496.597 776.5,502C 783.266,507.35 786.266,514.183 785.5,522.5C 774.239,530.259 763.406,538.592 753,547.5C 752.617,546.944 752.117,546.611 751.5,546.5 Z"/></g>
<g><path style="opacity:1" fill="#242021" d="M 940.5,571.5 C 942.028,571.517 942.528,572.184 942,573.5C 930.638,596.533 915.138,616.367 895.5,633C 877.56,645.656 857.56,652.156 835.5,652.5C 834.386,639.8 834.386,627.134 835.5,614.5C 852.398,612.026 868.732,607.526 884.5,601C 903.58,591.705 922.247,581.872 940.5,571.5 Z"/></g>
<g><path style="opacity:1" fill="#f5e3cc" d="M 367.5,574.5 C 374.648,576.143 379.482,580.477 382,587.5C 384.945,625.083 392.278,661.75 404,697.5C 418.937,744.577 444.77,784.41 481.5,817C 480.207,817.49 478.873,817.657 477.5,817.5C 449.222,814.111 425.389,802.111 406,781.5C 374.551,734.333 354.384,682.666 345.5,626.5C 344.986,622.275 346.153,618.609 349,615.5C 355.707,608.462 362.04,601.128 368,593.5C 370.101,587.068 369.934,580.735 367.5,574.5 Z"/></g>
<g><path style="opacity:1" fill="#242020" d="M 820.5,633.5 C 820.5,640.5 820.5,647.5 820.5,654.5C 818.585,654.216 816.919,654.549 815.5,655.5C 782.512,656.202 750.178,652.035 718.5,643C 698.622,636.816 681.789,625.983 668,610.5C 665.5,606.167 663,601.833 660.5,597.5C 660.833,597.167 661.167,596.833 661.5,596.5C 680.915,605.271 701.248,610.771 722.5,613C 733.129,614.396 743.796,615.396 754.5,616C 775.841,616.167 797.174,616.667 818.5,617.5C 819.531,622.775 820.197,628.108 820.5,633.5 Z"/></g>
<g><path style="opacity:1" fill="#f6e3cc" d="M 609.5,607.5 C 620.518,606.173 630.852,608.173 640.5,613.5C 626.878,619.708 619.378,630.375 618,645.5C 617.501,651.157 617.334,656.824 617.5,662.5C 613.501,662.068 609.668,661.068 606,659.5C 602.717,649.037 600.384,638.37 599,627.5C 595.52,616.779 599.02,610.113 609.5,607.5 Z"/></g>
<g><path style="opacity:1" fill="#242021" d="M 644.5,632.5 C 647.5,632.5 650.5,632.5 653.5,632.5C 658.161,645.349 665.828,656.182 676.5,665C 696.421,678.419 718.421,686.086 742.5,688C 750.491,688.769 758.491,689.435 766.5,690C 792.174,689.85 817.841,690.017 843.5,690.5C 839.754,699.745 833.421,706.579 824.5,711C 788.989,721.945 752.989,723.945 716.5,717C 698.819,712.242 684.653,702.409 674,687.5C 667.667,678.5 661.333,669.5 655,660.5C 649.328,655.161 643.995,649.495 639,643.5C 636.158,637.506 637.992,633.839 644.5,632.5 Z"/></g>
<g><path style="opacity:1" fill="#958473" d="M 820.5,633.5 C 821.492,640.648 821.825,647.981 821.5,655.5C 819.5,655.5 817.5,655.5 815.5,655.5C 816.919,654.549 818.585,654.216 820.5,654.5C 820.5,647.5 820.5,640.5 820.5,633.5 Z"/></g>
<g><path style="opacity:1" fill="#48718a" d="M 1011.5,890.5 C 977.729,865.909 944.063,841.075 910.5,816C 909.552,815.517 908.552,815.351 907.5,815.5C 902.281,803.611 893.281,796.611 880.5,794.5C 877.812,792.479 875.479,790.146 873.5,787.5C 884.762,779.042 895.429,770.209 905.5,761C 927.742,780.238 949.075,800.572 969.5,822C 981.917,831.079 993.75,840.913 1005,851.5C 1013.88,863.259 1016.04,876.259 1011.5,890.5 Z"/></g>
<g><path style="opacity:1" fill="#324e5e" d="M 873.5,787.5 C 875.479,790.146 877.812,792.479 880.5,794.5C 875.179,793.979 870.179,794.979 865.5,797.5C 864.479,796.998 864.312,796.332 865,795.5C 867.703,792.629 870.536,789.962 873.5,787.5 Z"/></g>
<g><path style="opacity:1" fill="#48718a" d="M 407.5,837.5 C 345.708,865.558 283.708,893.391 221.5,921C 219.445,921.687 217.779,922.854 216.5,924.5C 239.691,1015.63 256.524,1107.96 267,1201.5C 271.932,1244.11 272.599,1286.77 269,1329.5C 267.757,1338.43 265.924,1347.1 263.5,1355.5C 257.828,1353.25 252.328,1350.58 247,1347.5C 245.541,1235.95 229.541,1126.62 199,1019.5C 188.517,985.045 175.683,951.545 160.5,919C 208.158,880.362 258.825,846.029 312.5,816C 328.688,807.238 345.355,799.572 362.5,793C 364.167,792.333 365.833,792.333 367.5,793C 381.724,807.056 395.057,821.889 407.5,837.5 Z"/></g>
<g><path style="opacity:1" fill="#324f60" d="M 907.5,815.5 C 908.552,815.351 909.552,815.517 910.5,816C 944.063,841.075 977.729,865.909 1011.5,890.5C 993.561,977.815 965.728,1061.82 928,1142.5C 922.123,1149.36 914.623,1153.19 905.5,1154C 886.902,1156.07 868.236,1157.07 849.5,1157C 841.484,1158.04 833.984,1160.54 827,1164.5C 848.251,1126.69 870.585,1089.36 894,1052.5C 907.219,1030.56 920.052,1008.4 932.5,986C 928.869,978.36 923.703,971.86 917,966.5C 914.637,963.107 912.804,959.44 911.5,955.5C 921.449,927.355 924.949,898.355 922,868.5C 920.734,849.761 915.901,832.094 907.5,815.5 Z"/></g>
<g><path style="opacity:1" fill="#ec3c39" d="M 893.5,851.5 C 878.118,851.68 862.784,853.513 847.5,857C 839.537,859.294 834.704,864.461 833,872.5C 832.285,879.254 832.785,885.921 834.5,892.5C 834.062,900.903 830.062,906.736 822.5,910C 816.436,910.613 810.436,911.613 804.5,913C 798.975,915.919 797.142,920.419 799,926.5C 799.753,929.835 800.919,933.002 802.5,936C 801.552,936.483 800.552,936.649 799.5,936.5C 796.833,936.167 794.167,935.833 791.5,935.5C 791.044,924.064 791.544,912.731 793,901.5C 796.237,899.42 799.737,897.92 803.5,897C 811.157,895.934 818.824,894.934 826.5,894C 814.137,888.73 801.471,887.564 788.5,890.5C 788.323,883.3 786.323,876.633 782.5,870.5C 799.634,859.864 816.634,849.031 833.5,838C 841.481,833.509 849.815,829.842 858.5,827C 878.81,822.81 890.477,830.976 893.5,851.5 Z"/></g>
<g><path style="opacity:1" fill="#edd3b4" d="M 792.5,828.5 C 795.187,828.336 797.854,828.503 800.5,829C 786.547,839.285 772.88,849.952 759.5,861C 730.561,865.356 704.895,858.356 682.5,840C 683.354,838.978 684.354,838.145 685.5,837.5C 697.648,842.735 710.314,844.569 723.5,843C 746.923,839.556 769.923,834.723 792.5,828.5 Z"/></g>
<g><path style="opacity:1" fill="#fcfcfc" d="M 527.5,864.5 C 517.275,864.349 507.275,862.849 497.5,860C 481.71,855.125 466.043,849.959 450.5,844.5C 446.835,840.919 445.668,836.585 447,831.5C 447.368,830.09 448.201,829.09 449.5,828.5C 456.517,833.005 464.183,835.838 472.5,837C 492.125,839.372 511.791,841.205 531.5,842.5C 531.453,850.12 530.12,857.453 527.5,864.5 Z"/></g>
<g><path style="opacity:1" fill="#ec3c39" d="M 708.5,886.5 C 709.568,887.434 710.901,887.768 712.5,887.5C 712.5,890.167 712.5,892.833 712.5,895.5C 709.173,897.83 705.507,899.663 701.5,901C 694.24,902.982 686.907,904.648 679.5,906C 675.973,906.951 672.64,908.284 669.5,910C 685.237,910.684 700.237,914.351 714.5,921C 715.337,922.011 715.67,923.178 715.5,924.5C 696.245,929.23 679.745,924.564 666,910.5C 665.833,909.5 665.667,908.5 665.5,907.5C 666.363,904.767 667.529,902.101 669,899.5C 672.253,887.874 668.087,880.707 656.5,878C 646.643,875.036 636.643,872.702 626.5,871C 610.5,870.333 594.5,870.333 578.5,871C 571.455,873.377 567.288,878.21 566,885.5C 565.333,894.5 565.333,903.5 566,912.5C 568.227,937.995 570.393,963.495 572.5,989C 572.494,991.033 572.161,992.866 571.5,994.5C 565.314,979.445 559.814,964.112 555,948.5C 552.305,939.692 550.638,930.692 550,921.5C 549.11,902.469 549.443,883.469 551,864.5C 552.473,855.724 555.973,847.891 561.5,841C 565.766,837.615 570.599,835.782 576,835.5C 618.711,843.51 658.211,859.344 694.5,883C 698.936,885.109 703.603,886.276 708.5,886.5 Z"/></g>
<g><path style="opacity:1" fill="#324f60" d="M 407.5,837.5 C 410.368,840.688 413.368,843.855 416.5,847C 432.504,858.006 449.17,868.006 466.5,877C 487.264,887.363 508.097,897.529 529,907.5C 536.492,947.639 547.825,986.639 563,1024.5C 574.554,1043.03 589.888,1046.69 609,1035.5C 609.036,1039.06 608.036,1042.4 606,1045.5C 599.591,1053.31 593.925,1061.65 589,1070.5C 584.577,1081.23 586.744,1090.4 595.5,1098C 600.167,1101 604.833,1104 609.5,1107C 647.445,1126.64 686.112,1144.64 725.5,1161C 641.864,1163.85 558.531,1170.35 475.5,1180.5C 475.667,1138.83 475.5,1097.17 475,1055.5C 467.239,1045.65 459.239,1035.98 451,1026.5C 450.601,1026.73 450.435,1027.06 450.5,1027.5C 449.422,1025.46 448.422,1023.29 447.5,1021C 445.305,1019.63 442.971,1019.29 440.5,1020C 434.651,1025.53 431.485,1032.36 431,1040.5C 430.333,1048.83 430.333,1057.17 431,1065.5C 434.485,1093.74 435.818,1122.07 435,1150.5C 434.234,1158.8 432.234,1166.8 429,1174.5C 428.586,1174.96 428.086,1175.29 427.5,1175.5C 416.033,1170.27 405.366,1163.77 395.5,1156C 392.029,1153.93 388.362,1152.43 384.5,1151.5C 383.008,1155.89 383.175,1160.23 385,1164.5C 387.894,1170.06 391.561,1175.06 396,1179.5C 397.856,1186.3 395.689,1191.14 389.5,1194C 381.518,1195.33 373.851,1197.66 366.5,1201C 362.452,1204.6 360.785,1209.1 361.5,1214.5C 357.104,1212.32 352.438,1211.99 347.5,1213.5C 356.971,1219.81 366.305,1226.31 375.5,1233C 397.173,1236.57 418.839,1240.07 440.5,1243.5C 447.843,1305.59 455.843,1367.59 464.5,1429.5C 422.802,1426.66 383.136,1416.16 345.5,1398C 317.917,1384.04 290.584,1369.88 263.5,1355.5C 265.924,1347.1 267.757,1338.43 269,1329.5C 272.599,1286.77 271.932,1244.11 267,1201.5C 256.524,1107.96 239.691,1015.63 216.5,924.5C 217.779,922.854 219.445,921.687 221.5,921C 283.708,893.391 345.708,865.558 407.5,837.5 Z"/></g>
<g><path style="opacity:1" fill="#d7d4d3" d="M 450.5,844.5 C 466.043,849.959 481.71,855.125 497.5,860C 507.275,862.849 517.275,864.349 527.5,864.5C 526.577,868.064 526.244,871.731 526.5,875.5C 503.76,872.642 482.427,865.476 462.5,854C 458.025,851.35 454.025,848.183 450.5,844.5 Z"/></g>
<g><path style="opacity:1" fill="#d23732" d="M 893.5,851.5 C 901.383,877.222 903.549,903.555 900,930.5C 898.715,936.525 896.548,942.192 893.5,947.5C 869.635,948.447 845.969,946.614 822.5,942C 814.638,940.423 806.972,938.59 799.5,936.5C 800.552,936.649 801.552,936.483 802.5,936C 800.919,933.002 799.753,929.835 799,926.5C 797.142,920.419 798.975,915.919 804.5,913C 810.436,911.613 816.436,910.613 822.5,910C 830.062,906.736 834.062,900.903 834.5,892.5C 832.785,885.921 832.285,879.254 833,872.5C 834.704,864.461 839.537,859.294 847.5,857C 862.784,853.513 878.118,851.68 893.5,851.5 Z"/></g>
<g><path style="opacity:1" fill="#d23733" d="M 715.5,924.5 C 715.811,931.09 715.478,937.59 714.5,944C 697.833,957.333 681.167,970.667 664.5,984C 640.75,999.254 614.916,1009.42 587,1014.5C 582.869,1015.1 579.536,1013.77 577,1010.5C 574.858,1005.24 573.025,999.906 571.5,994.5C 572.161,992.866 572.494,991.033 572.5,989C 570.393,963.495 568.227,937.995 566,912.5C 565.333,903.5 565.333,894.5 566,885.5C 567.288,878.21 571.455,873.377 578.5,871C 594.5,870.333 610.5,870.333 626.5,871C 636.643,872.702 646.643,875.036 656.5,878C 668.087,880.707 672.253,887.874 669,899.5C 667.529,902.101 666.363,904.767 665.5,907.5C 665.667,908.5 665.833,909.5 666,910.5C 679.745,924.564 696.245,929.23 715.5,924.5 Z"/></g>
<g><path style="opacity:1" fill="#eb3c39" d="M 750.5,880.5 C 751.943,896.28 745.943,908.28 732.5,916.5C 729.293,907.162 728.293,897.495 729.5,887.5C 735.769,882.966 742.769,880.632 750.5,880.5 Z"/></g>
<g><path style="opacity:1" fill="#d03732" d="M 750.5,880.5 C 760.842,881.671 767.342,887.337 770,897.5C 772.139,923.2 760.639,933.533 735.5,928.5C 733.862,924.68 732.862,920.68 732.5,916.5C 745.943,908.28 751.943,896.28 750.5,880.5 Z"/></g>
<g><path style="opacity:1" fill="#912f2e" d="M 708.5,886.5 C 710.167,886.5 711.833,886.5 713.5,886.5C 713.81,889.713 713.477,892.713 712.5,895.5C 712.5,892.833 712.5,890.167 712.5,887.5C 710.901,887.768 709.568,887.434 708.5,886.5 Z"/></g>
<g><path style="opacity:1" fill="#dad7d6" d="M 821.5,997.5 C 821.808,995.076 821.474,992.743 820.5,990.5C 805.174,982.336 789.507,975.002 773.5,968.5C 762.203,971.965 755.203,979.465 752.5,991C 756.611,1006.33 762.111,1021.16 769,1035.5C 781.809,1063.79 795.643,1091.45 810.5,1118.5C 809.2,1125.28 807.366,1131.95 805,1138.5C 788.977,1106.76 774.31,1074.42 761,1041.5C 749.273,1015.02 734.773,990.357 717.5,967.5C 721.5,962.833 725.5,958.167 729.5,953.5C 733.974,955.468 738.64,955.968 743.5,955C 749.949,952.609 756.282,949.942 762.5,947C 770.335,944.349 777.669,945.349 784.5,950C 792.638,956.126 801.304,961.46 810.5,966C 814.751,967.195 819.085,967.695 823.5,967.5C 823.071,977.667 822.405,987.667 821.5,997.5 Z"/></g>
<g><path style="opacity:1" fill="#80afc3" d="M 854.5,964.5 C 879.755,962.96 899.088,972.793 912.5,994C 887.298,1038.92 860.465,1082.75 832,1125.5C 827.333,1131.5 822.667,1137.5 818,1143.5C 824.056,1120.89 828.722,1097.89 832,1074.5C 836.027,1039.59 839.027,1004.59 841,969.5C 845.454,967.439 849.954,965.772 854.5,964.5 Z"/></g>
<g><path style="opacity:1" fill="#fdfdfd" d="M 821.5,997.5 C 821.233,1038.18 817.567,1078.51 810.5,1118.5C 795.643,1091.45 781.809,1063.79 769,1035.5C 762.111,1021.16 756.611,1006.33 752.5,991C 755.203,979.465 762.203,971.965 773.5,968.5C 789.507,975.002 805.174,982.336 820.5,990.5C 821.474,992.743 821.808,995.076 821.5,997.5 Z"/></g>
<g><path style="opacity:1" fill="#211d1d" d="M 776.5,981.5 C 791.632,980.791 796.465,987.457 791,1001.5C 783.235,1007.54 776.569,1006.54 771,998.5C 768.269,991.307 770.102,985.64 776.5,981.5 Z"/></g>
<g><path style="opacity:1" fill="#80afc3" d="M 696.5,984.5 C 698.017,984.511 699.184,985.177 700,986.5C 721.674,1016.58 739.674,1048.91 754,1083.5C 762.802,1104.08 771.302,1124.75 779.5,1145.5C 722.07,1127.04 667.237,1102.7 615,1072.5C 618.614,1056.61 625.947,1042.61 637,1030.5C 643.739,1024.22 650.572,1018.05 657.5,1012C 670.567,1002.81 683.567,993.645 696.5,984.5 Z"/></g>
<g><path style="opacity:1" fill="#48718a" d="M 475.5,1180.5 C 468.345,1181.98 461.011,1182.81 453.5,1183C 450.867,1177.77 449.033,1172.27 448,1166.5C 445.607,1129.45 446.274,1092.45 450,1055.5C 450.5,1046.17 450.666,1036.84 450.5,1027.5C 450.435,1027.06 450.601,1026.73 451,1026.5C 459.239,1035.98 467.239,1045.65 475,1055.5C 475.5,1097.17 475.667,1138.83 475.5,1180.5 Z"/></g>
<g><path style="opacity:1" fill="#201c1c" d="M 789.5,1037.5 C 803.437,1037.24 808.271,1043.58 804,1056.5C 796.134,1063.72 789.134,1063.06 783,1054.5C 780.788,1047.01 782.954,1041.35 789.5,1037.5 Z"/></g>
<g><path style="opacity:1" fill="#fdfdfd" d="M 1137.5,1217.5 C 1137.52,1247.59 1130.85,1276.09 1117.5,1303C 1072.14,1301.93 1026.81,1300.1 981.5,1297.5C 977.55,1258.89 971.883,1220.56 964.5,1182.5C 968.603,1178.94 973.27,1176.11 978.5,1174C 1002.09,1165.14 1025.76,1156.47 1049.5,1148C 1057.25,1143.46 1065.25,1139.46 1073.5,1136C 1085.39,1135.27 1096.06,1138.61 1105.5,1146C 1115.15,1153.78 1121.99,1163.62 1126,1175.5C 1131.09,1189.18 1134.92,1203.18 1137.5,1217.5 Z"/></g>
<g><path style="opacity:1" fill="#dad7d6" d="M 964.5,1182.5 C 971.883,1220.56 977.55,1258.89 981.5,1297.5C 1026.81,1300.1 1072.14,1301.93 1117.5,1303C 1130.85,1276.09 1137.52,1247.59 1137.5,1217.5C 1143.99,1237.94 1148.32,1258.94 1150.5,1280.5C 1150.99,1301.21 1145.15,1319.87 1133,1336.5C 1119.33,1351.75 1102.16,1359.58 1081.5,1360C 1063.76,1362.31 1046.09,1361.98 1028.5,1359C 1026.75,1358.53 1025.09,1357.86 1023.5,1357C 1022.17,1356.33 1022.17,1355.67 1023.5,1355C 1028.68,1352.61 1034.01,1350.61 1039.5,1349C 1057.62,1345.61 1075.62,1341.78 1093.5,1337.5C 1080.61,1332.8 1067.28,1330.46 1053.5,1330.5C 1030.33,1331.74 1007.16,1333.08 984,1334.5C 979.918,1334.48 975.918,1334.15 972,1333.5C 969.328,1301.11 965.994,1268.77 962,1236.5C 959.762,1221.62 956.595,1206.96 952.5,1192.5C 953.219,1190.27 954.552,1188.44 956.5,1187C 958.817,1184.84 961.484,1183.34 964.5,1182.5 Z"/></g>
<g><path style="opacity:1" fill="#272324" d="M 994.5,1219.5 C 991.615,1219.81 988.948,1219.47 986.5,1218.5C 1003.51,1198.66 1025.18,1187.16 1051.5,1184C 1058.47,1182.84 1065.47,1182.5 1072.5,1183C 1063.81,1185.84 1055.48,1189.51 1047.5,1194C 1036.16,1202.01 1024.16,1209.01 1011.5,1215C 1006,1217.22 1000.33,1218.72 994.5,1219.5 Z"/></g>
<g><path style="opacity:1" fill="#fdfdfd" d="M 948.5,1301.5 C 935.262,1307.7 921.596,1313.37 907.5,1318.5C 900.762,1277.06 894.762,1235.39 889.5,1193.5C 900.153,1192.56 910.819,1192.39 921.5,1193C 923.552,1193.93 925.052,1195.43 926,1197.5C 940.582,1230.57 948.082,1265.24 948.5,1301.5 Z"/></g>
<g><path style="opacity:1" fill="#fefefe" d="M 757.5,1198.5 C 754.309,1300.79 758.142,1402.79 769,1504.5C 772.551,1529.24 776.218,1553.91 780,1578.5C 747.807,1597.01 713.64,1610.85 677.5,1620C 670.842,1620.5 664.175,1620.67 657.5,1620.5C 615.01,1619.06 573.51,1612.06 533,1599.5C 509.006,1526.86 490.339,1452.86 477,1377.5C 467.489,1323.42 459.989,1269.09 454.5,1214.5C 517.974,1202.73 581.974,1195.57 646.5,1193C 676.208,1192.01 705.874,1192.67 735.5,1195C 743.011,1195.95 750.344,1197.12 757.5,1198.5 Z"/></g>
<g><path style="opacity:1" fill="#dad7d6" d="M 757.5,1198.5 C 765.853,1199.43 774.186,1200.6 782.5,1202C 785.775,1222.99 787.942,1244.16 789,1265.5C 789.872,1289.84 790.872,1314.17 792,1338.5C 794.264,1362.48 796.264,1386.48 798,1410.5C 799.774,1451.83 801.441,1493.16 803,1534.5C 803.925,1557.41 806.758,1580.08 811.5,1602.5C 811.392,1603.44 811.059,1604.28 810.5,1605C 760.272,1618.82 709.272,1623.99 657.5,1620.5C 664.175,1620.67 670.842,1620.5 677.5,1620C 713.64,1610.85 747.807,1597.01 780,1578.5C 776.218,1553.91 772.551,1529.24 769,1504.5C 758.142,1402.79 754.309,1300.79 757.5,1198.5 Z"/></g>
<g><path style="opacity:1" fill="#487189" d="M 860.5,1234.5 C 860.586,1235.5 860.252,1236.33 859.5,1237C 843.123,1246.63 825.456,1251.46 806.5,1251.5C 805.516,1235.24 805.182,1218.91 805.5,1202.5C 821.2,1198.2 837.2,1196.54 853.5,1197.5C 856.629,1209.68 858.962,1222.02 860.5,1234.5 Z"/></g>
<g><path style="opacity:1" fill="#487089" d="M 361.5,1214.5 C 365.117,1215.09 368.783,1215.42 372.5,1215.5C 390.127,1213.68 407.794,1213.18 425.5,1214C 429.211,1214.84 432.877,1215.84 436.5,1217C 437.849,1217.77 438.682,1218.94 439,1220.5C 439.887,1228.14 440.387,1235.81 440.5,1243.5C 418.839,1240.07 397.173,1236.57 375.5,1233C 366.305,1226.31 356.971,1219.81 347.5,1213.5C 352.438,1211.99 357.104,1212.32 361.5,1214.5 Z"/></g>
<g><path style="opacity:1" fill="#807e7e" d="M 986.5,1218.5 C 988.948,1219.47 991.615,1219.81 994.5,1219.5C 991.645,1220.8 988.645,1220.8 985.5,1219.5C 985.624,1218.89 985.957,1218.56 986.5,1218.5 Z"/></g>
<g><path style="opacity:1" fill="#262223" d="M 1040.5,1240.5 C 1028.32,1240.83 1016.32,1240.5 1004.5,1239.5C 1010.98,1232.76 1018.98,1228.93 1028.5,1228C 1049.28,1226.57 1069.62,1228.91 1089.5,1235C 1073.28,1237.52 1056.95,1239.36 1040.5,1240.5 Z"/></g>
<g><path style="opacity:1" fill="#324f60" d="M 860.5,1234.5 C 861.983,1245.69 863.483,1257.03 865,1268.5C 867.656,1303.52 870.489,1338.52 873.5,1373.5C 853.263,1377.39 832.93,1380.72 812.5,1383.5C 810.951,1353.82 809.118,1324.15 807,1294.5C 806.5,1280.17 806.333,1265.84 806.5,1251.5C 825.456,1251.46 843.123,1246.63 859.5,1237C 860.252,1236.33 860.586,1235.5 860.5,1234.5 Z"/></g>
<g><path style="opacity:1" fill="#545152" d="M 1004.5,1239.5 C 1016.32,1240.5 1028.32,1240.83 1040.5,1240.5C 1028.33,1241.82 1015.99,1241.82 1003.5,1240.5C 1003.62,1239.89 1003.96,1239.56 1004.5,1239.5 Z"/></g>
<g><path style="opacity:1" fill="#262223" d="M 1099.5,1280.5 C 1081.01,1281.5 1062.34,1281.83 1043.5,1281.5C 1029.79,1281.23 1016.12,1280.4 1002.5,1279C 1008.45,1273.68 1015.45,1270.68 1023.5,1270C 1035.86,1269.22 1048.2,1269.55 1060.5,1271C 1073.7,1273.38 1086.7,1276.55 1099.5,1280.5 Z"/></g>
<g><path style="opacity:1" fill="#878585" d="M 1099.5,1280.5 C 1100.29,1280.78 1100.96,1281.28 1101.5,1282C 1082,1282.83 1062.66,1282.66 1043.5,1281.5C 1062.34,1281.83 1081.01,1281.5 1099.5,1280.5 Z"/></g>
<g><path style="opacity:1" fill="#d9d6d5" d="M 948.5,1301.5 C 949.495,1313.99 949.829,1326.66 949.5,1339.5C 940.049,1341.82 930.716,1344.65 921.5,1348C 917.514,1348.5 913.514,1348.67 909.5,1348.5C 909.271,1338.46 908.605,1328.46 907.5,1318.5C 921.596,1313.37 935.262,1307.7 948.5,1301.5 Z"/></g>
<g><path style="opacity:1" fill="#dad7d6" d="M 841.5,1408.5 C 845.5,1408.5 849.5,1408.5 853.5,1408.5C 858.213,1435.57 863.38,1462.57 869,1489.5C 871.279,1503.09 871.946,1516.75 871,1530.5C 854.993,1537.88 838.159,1541.54 820.5,1541.5C 818.335,1499.19 816.668,1456.85 815.5,1414.5C 824.542,1413.63 833.209,1411.63 841.5,1408.5 Z"/></g>
</svg>
