<?xml version="1.0" encoding="UTF-8"?>
<!DOCTYPE svg PUBLIC "-//W3C//DTD SVG 1.1//EN" "http://www.w3.org/Graphics/SVG/1.1/DTD/svg11.dtd">
<svg xmlns="http://www.w3.org/2000/svg" version="1.1" width="348px" height="348px" style="shape-rendering:geometricPrecision; text-rendering:geometricPrecision; image-rendering:optimizeQuality; fill-rule:evenodd; clip-rule:evenodd" xmlns:xlink="http://www.w3.org/1999/xlink">
<g><path style="opacity:1" fill="#f5f5f5" d="M -0.5,-0.5 C 115.5,-0.5 231.5,-0.5 347.5,-0.5C 347.5,115.5 347.5,231.5 347.5,347.5C 291.833,347.5 236.167,347.5 180.5,347.5C 181.6,346.442 182.934,345.608 184.5,345C 184.167,344.667 183.833,344.333 183.5,344C 186.661,342.587 189.661,340.92 192.5,339C 197.585,337.984 202.585,335.984 207.5,333C 212.264,330.115 217.264,327.448 222.5,325C 225.808,321.342 229.808,318.676 234.5,317C 236.618,315.951 238.284,314.451 239.5,312.5C 242.568,311.309 245.235,309.642 247.5,307.5C 254.691,305.618 261.525,302.285 268,297.5C 268.945,297.905 269.612,298.572 270,299.5C 278.019,295.483 285.519,290.649 292.5,285C 294.556,284.689 296.556,284.189 298.5,283.5C 303.035,279.308 308.201,275.975 314,273.5C 314.333,274.167 314.667,274.833 315,275.5C 316.915,273.122 319.415,271.622 322.5,271C 323.833,270.333 323.833,269.667 322.5,269C 326.924,266.7 331.257,264.7 335.5,263C 334.366,261.984 334.699,261.317 336.5,261C 335.377,259.125 335.377,256.958 336.5,254.5C 336.5,249.5 336.5,244.5 336.5,239.5C 339.167,239.5 341.833,239.5 344.5,239.5C 344.5,234.5 344.5,229.5 344.5,224.5C 341.833,224.5 339.167,224.5 336.5,224.5C 336.5,219.5 336.5,214.5 336.5,209.5C 339.167,209.5 341.833,209.5 344.5,209.5C 344.5,204.5 344.5,199.5 344.5,194.5C 341.833,194.5 339.167,194.5 336.5,194.5C 336.5,189.5 336.5,184.5 336.5,179.5C 339.167,179.5 341.833,179.5 344.5,179.5C 344.5,174.5 344.5,169.5 344.5,164.5C 341.833,164.5 339.167,164.5 336.5,164.5C 336.5,159.5 336.5,154.5 336.5,149.5C 339.167,149.5 341.833,149.5 344.5,149.5C 344.5,144.5 344.5,139.5 344.5,134.5C 341.833,134.5 339.167,134.5 336.5,134.5C 335.8,122.483 335.8,110.983 336.5,100C 336.714,96.4309 336.047,93.0976 334.5,90C 337.817,89.5017 341.15,89.335 344.5,89.5C 344.5,84.5 344.5,79.5 344.5,74.5C 339.5,74.5 334.5,74.5 329.5,74.5C 329.666,78.5138 329.499,82.5138 329,86.5C 328.617,87.056 328.117,87.3893 327.5,87.5C 277.112,60.6961 226.779,33.6961 176.5,6.5C 174.932,5.52692 173.265,5.36026 171.5,6C 120.5,33.5 69.5,61 18.5,88.5C 17.5,145.496 17.1667,202.496 17.5,259.5C 16.2431,261.368 16.5764,263.035 18.5,264.5C 21.0048,266.253 23.6714,267.753 26.5,269C 22.5138,269.499 18.5138,269.666 14.5,269.5C 14.5,274.5 14.5,279.5 14.5,284.5C 19.5,284.5 24.5,284.5 29.5,284.5C 29.1744,280.116 29.5078,275.783 30.5,271.5C 34.2485,273.315 38.0819,275.648 42,278.5C 42.7175,277.549 43.5509,277.383 44.5,278C 49.3855,281.03 54.2188,284.197 59,287.5C 59.4988,291.486 59.6655,295.486 59.5,299.5C 64.5,299.5 69.5,299.5 74.5,299.5C 74.5,304.5 74.5,309.5 74.5,314.5C 79.5,314.5 84.5,314.5 89.5,314.5C 89.3347,310.818 89.5014,307.152 90,303.5C 92.172,304.585 94.172,305.919 96,307.5C 96.3333,307.167 96.6667,306.833 97,306.5C 103.429,310.314 109.763,314.314 116,318.5C 117,318.5 118,318.5 119,318.5C 119.499,322.152 119.665,325.818 119.5,329.5C 124.5,329.5 129.5,329.5 134.5,329.5C 134.5,334.5 134.5,339.5 134.5,344.5C 139.5,344.5 144.5,344.5 149.5,344.5C 149.335,341.482 149.502,338.482 150,335.5C 156.013,339.759 162.513,342.759 169.5,344.5C 170.551,345.222 171.218,346.222 171.5,347.5C 114.167,347.5 56.8333,347.5 -0.5,347.5C -0.5,231.5 -0.5,115.5 -0.5,-0.5 Z"/></g>
<g><path style="opacity:1" fill="#152c45" d="M 176.5,6.5 C 175.811,7.77359 174.977,7.77359 174,6.5C 173.749,8.43298 173.249,10.2663 172.5,12C 173.173,52.34 173.173,92.84 172.5,133.5C 157.21,119.512 153.543,103.012 161.5,84C 161.167,83.5 160.833,83 160.5,82.5C 157.554,86.6195 154.388,90.6195 151,94.5C 148.91,98.5994 147.744,102.933 147.5,107.5C 146.143,112.911 146.476,118.245 148.5,123.5C 152.432,136.764 160.432,146.764 172.5,153.5C 173.449,161.783 173.449,169.617 172.5,177C 173.748,178.4 174.748,179.9 175.5,181.5C 152.306,174.81 135.306,160.643 124.5,139C 120.552,125.444 120.552,111.944 124.5,98.5C 125.391,97.7387 126.058,96.7387 126.5,95.5C 125.998,94.479 125.332,94.3123 124.5,95C 121.8,97.5881 119.467,100.421 117.5,103.5C 107.742,116.581 104.908,131.247 109,147.5C 114.152,164.99 124.318,178.823 139.5,189C 148.992,195.078 159.325,198.912 170.5,200.5C 178.657,201.329 186.99,201.829 195.5,202C 188.174,202.5 180.841,202.666 173.5,202.5C 172.918,204.998 172.918,207.331 173.5,209.5C 171.024,219.071 169.024,228.737 167.5,238.5C 163.563,238.793 159.73,238.46 156,237.5C 156.701,228.149 157.867,218.815 159.5,209.5C 155.327,208.956 151.494,209.623 148,211.5C 144.71,221.607 143.377,231.941 144,242.5C 145.961,245.135 148.461,246.969 151.5,248C 159.159,248.5 166.826,248.666 174.5,248.5C 174.064,250.746 173.397,252.913 172.5,255C 173.235,283.265 173.235,311.265 172.5,339C 173.305,340.113 173.972,341.279 174.5,342.5C 173.833,342.5 173.167,342.5 172.5,342.5C 121.135,314.819 69.8017,287.152 18.5,259.5C 18.1667,259.5 17.8333,259.5 17.5,259.5C 17.1667,202.496 17.5,145.496 18.5,88.5C 69.5,61 120.5,33.5 171.5,6C 173.265,5.36026 174.932,5.52692 176.5,6.5 Z"/></g>
<g><path style="opacity:1" fill="#1a3556" d="M 176.5,6.5 C 226.779,33.6961 277.112,60.6961 327.5,87.5C 329.229,88.2362 330.229,89.5695 330.5,91.5C 330.5,92.1667 330.5,92.8333 330.5,93.5C 330.667,148.501 330.5,203.501 330,258.5C 278.219,286.64 226.386,314.64 174.5,342.5C 173.972,341.279 173.305,340.113 172.5,339C 173.235,311.265 173.235,283.265 172.5,255C 173.397,252.913 174.064,250.746 174.5,248.5C 176.34,246.341 177.507,243.675 178,240.5C 180.329,230.186 182.496,219.852 184.5,209.5C 180.833,209.5 177.167,209.5 173.5,209.5C 172.918,207.331 172.918,204.998 173.5,202.5C 180.841,202.666 188.174,202.5 195.5,202C 186.99,201.829 178.657,201.329 170.5,200.5C 190.474,203.008 208.808,198.842 225.5,188C 232.119,181.552 237.785,174.386 242.5,166.5C 241.635,165.417 240.635,165.251 239.5,166C 238.87,167.892 237.87,169.559 236.5,171C 221.22,181.868 204.22,186.201 185.5,184C 181.867,183.851 178.534,183.018 175.5,181.5C 174.748,179.9 173.748,178.4 172.5,177C 173.449,169.617 173.449,161.783 172.5,153.5C 174.372,155.604 176.705,156.937 179.5,157.5C 181.515,158.924 183.848,159.59 186.5,159.5C 208.07,165.557 226.237,160.224 241,143.5C 247.52,132.674 246.353,131.841 237.5,141C 231.586,143.802 225.586,146.302 219.5,148.5C 212.687,147.509 205.687,147.175 198.5,147.5C 188.625,144.931 179.958,140.264 172.5,133.5C 173.173,92.84 173.173,52.34 172.5,12C 173.249,10.2663 173.749,8.43298 174,6.5C 174.977,7.77359 175.811,7.77359 176.5,6.5 Z"/></g>
<g><path style="opacity:1" fill="#eeeff0" d="M 188.5,76.5 C 189.497,76.4701 190.164,76.9701 190.5,78C 187.082,83.8612 186.582,90.0279 189,96.5C 195.48,110.652 206.48,117.985 222,118.5C 229.5,118.249 235.667,115.249 240.5,109.5C 238.154,118.326 232.154,123.826 222.5,126C 205.251,128.29 192.084,122.123 183,107.5C 181.054,99.8267 181.054,92.16 183,84.5C 184.722,81.6368 186.555,78.9702 188.5,76.5 Z"/></g>
<g><path style="opacity:1" fill="#f4f4f5" d="M 172.5,133.5 C 179.958,140.264 188.625,144.931 198.5,147.5C 205.3,149.568 212.3,149.901 219.5,148.5C 225.586,146.302 231.586,143.802 237.5,141C 246.353,131.841 247.52,132.674 241,143.5C 226.237,160.224 208.07,165.557 186.5,159.5C 184.485,158.076 182.152,157.41 179.5,157.5C 176.705,156.937 174.372,155.604 172.5,153.5C 160.432,146.764 152.432,136.764 148.5,123.5C 147.902,118.187 147.569,112.854 147.5,107.5C 147.744,102.933 148.91,98.5994 151,94.5C 154.388,90.6195 157.554,86.6195 160.5,82.5C 160.833,83 161.167,83.5 161.5,84C 153.543,103.012 157.21,119.512 172.5,133.5 Z"/></g>
<g><path style="opacity:1" fill="#c4c6c7" d="M 330.5,91.5 C 331.79,92.0577 332.623,93.0577 333,94.5C 333.665,100.319 334.165,106.153 334.5,112C 333.834,159.493 333.501,206.993 333.5,254.5C 334.5,254.5 335.5,254.5 336.5,254.5C 335.377,256.958 335.377,259.125 336.5,261C 334.699,261.317 334.366,261.984 335.5,263C 331.257,264.7 326.924,266.7 322.5,269C 323.833,269.667 323.833,270.333 322.5,271C 319.415,271.622 316.915,273.122 315,275.5C 314.667,274.833 314.333,274.167 314,273.5C 308.201,275.975 303.035,279.308 298.5,283.5C 296.556,284.189 294.556,284.689 292.5,285C 285.519,290.649 278.019,295.483 270,299.5C 269.612,298.572 268.945,297.905 268,297.5C 261.525,302.285 254.691,305.618 247.5,307.5C 275.041,292.39 302.708,277.224 330.5,262C 331.126,261.25 331.626,260.416 332,259.5C 331.274,210.361 331.441,161.194 332.5,112C 332.273,105.638 331.606,99.4711 330.5,93.5C 330.5,92.8333 330.5,92.1667 330.5,91.5 Z"/></g>
<g><path style="opacity:1" fill="#989da4" d="M 330.5,93.5 C 331.606,99.4711 332.273,105.638 332.5,112C 331.441,161.194 331.274,210.361 332,259.5C 331.626,260.416 331.126,261.25 330.5,262C 302.708,277.224 275.041,292.39 247.5,307.5C 245.235,309.642 242.568,311.309 239.5,312.5C 234.623,313.937 229.956,315.937 225.5,318.5C 210.289,327.94 194.622,336.607 178.5,344.5C 175.99,344.946 173.99,344.28 172.5,342.5C 173.167,342.5 173.833,342.5 174.5,342.5C 226.386,314.64 278.219,286.64 330,258.5C 330.5,203.501 330.667,148.501 330.5,93.5 Z"/></g>
<g><path style="opacity:1" fill="#b3b7bc" d="M 124.5,98.5 C 124.565,98.0618 124.399,97.7284 124,97.5C 122.465,100.294 120.298,102.294 117.5,103.5C 119.467,100.421 121.8,97.5881 124.5,95C 125.332,94.3123 125.998,94.479 126.5,95.5C 126.058,96.7387 125.391,97.7387 124.5,98.5 Z"/></g>
<g><path style="opacity:1" fill="#f7f8f8" d="M 124.5,98.5 C 120.552,111.944 120.552,125.444 124.5,139C 135.306,160.643 152.306,174.81 175.5,181.5C 178.534,183.018 181.867,183.851 185.5,184C 204.22,186.201 221.22,181.868 236.5,171C 237.87,169.559 238.87,167.892 239.5,166C 240.635,165.251 241.635,165.417 242.5,166.5C 237.785,174.386 232.119,181.552 225.5,188C 208.808,198.842 190.474,203.008 170.5,200.5C 159.325,198.912 148.992,195.078 139.5,189C 124.318,178.823 114.152,164.99 109,147.5C 104.908,131.247 107.742,116.581 117.5,103.5C 120.298,102.294 122.465,100.294 124,97.5C 124.399,97.7284 124.565,98.0618 124.5,98.5 Z"/></g>
<g><path style="opacity:1" fill="#9ca1a7" d="M 147.5,107.5 C 147.569,112.854 147.902,118.187 148.5,123.5C 146.476,118.245 146.143,112.911 147.5,107.5 Z"/></g>
<g><path style="opacity:1" fill="#425268" d="M 198.5,147.5 C 205.687,147.175 212.687,147.509 219.5,148.5C 212.3,149.901 205.3,149.568 198.5,147.5 Z"/></g>
<g><path style="opacity:1" fill="#e9e9e9" d="M 336.5,254.5 C 335.5,254.5 334.5,254.5 333.5,254.5C 333.501,206.993 333.834,159.493 334.5,112C 334.165,106.153 333.665,100.319 333,94.5C 332.623,93.0577 331.79,92.0577 330.5,91.5C 330.229,89.5695 329.229,88.2362 327.5,87.5C 328.117,87.3893 328.617,87.056 329,86.5C 329.499,82.5138 329.666,78.5138 329.5,74.5C 334.5,74.5 339.5,74.5 344.5,74.5C 344.5,79.5 344.5,84.5 344.5,89.5C 341.15,89.335 337.817,89.5017 334.5,90C 336.047,93.0976 336.714,96.4309 336.5,100C 335.8,110.983 335.8,122.483 336.5,134.5C 339.167,134.5 341.833,134.5 344.5,134.5C 344.5,139.5 344.5,144.5 344.5,149.5C 341.833,149.5 339.167,149.5 336.5,149.5C 336.5,154.5 336.5,159.5 336.5,164.5C 339.167,164.5 341.833,164.5 344.5,164.5C 344.5,169.5 344.5,174.5 344.5,179.5C 341.833,179.5 339.167,179.5 336.5,179.5C 336.5,184.5 336.5,189.5 336.5,194.5C 339.167,194.5 341.833,194.5 344.5,194.5C 344.5,199.5 344.5,204.5 344.5,209.5C 341.833,209.5 339.167,209.5 336.5,209.5C 336.5,214.5 336.5,219.5 336.5,224.5C 339.167,224.5 341.833,224.5 344.5,224.5C 344.5,229.5 344.5,234.5 344.5,239.5C 341.833,239.5 339.167,239.5 336.5,239.5C 336.5,244.5 336.5,249.5 336.5,254.5 Z"/></g>
<g><path style="opacity:1" fill="#9ba0a7" d="M 179.5,157.5 C 182.152,157.41 184.485,158.076 186.5,159.5C 183.848,159.59 181.515,158.924 179.5,157.5 Z"/></g>
<g><path style="opacity:1" fill="#f7f7f8" d="M 115.5,198.5 C 125.527,197.766 133.36,201.433 139,209.5C 140.434,213.406 140.767,217.406 140,221.5C 138.152,227.188 136.318,232.855 134.5,238.5C 136.167,238.5 137.833,238.5 139.5,238.5C 138.626,241.789 137.959,245.123 137.5,248.5C 125.829,248.667 114.162,248.5 102.5,248C 94.1488,245.978 89.8155,240.645 89.5,232C 89.9755,214.068 98.6421,202.901 115.5,198.5 Z"/></g>
<g><path style="opacity:1" fill="#f8f8f9" d="M 286.5,203.5 C 291.214,203.173 295.88,203.507 300.5,204.5C 292.19,215.311 283.69,225.977 275,236.5C 272.685,239.777 271.351,243.444 271,247.5C 266.934,248.464 262.767,248.797 258.5,248.5C 258.462,245.193 259.128,242.026 260.5,239C 258.6,233.563 256.933,228.063 255.5,222.5C 259.783,221.508 264.116,221.174 268.5,221.5C 268.491,223.308 268.991,224.975 270,226.5C 275.719,218.955 281.219,211.288 286.5,203.5 Z"/></g>
<g><path style="opacity:1" fill="#f1f2f2" d="M 76.5,209.5 C 80.8839,209.174 85.2172,209.508 89.5,210.5C 88.7272,213.431 87.7272,216.264 86.5,219C 82.8484,219.499 79.1817,219.665 75.5,219.5C 75.6159,216.14 75.9492,212.807 76.5,209.5 Z"/></g>
<g><path style="opacity:1" fill="#f7f8f8" d="M 173.5,209.5 C 177.167,209.5 180.833,209.5 184.5,209.5C 182.496,219.852 180.329,230.186 178,240.5C 177.507,243.675 176.34,246.341 174.5,248.5C 166.826,248.666 159.159,248.5 151.5,248C 148.461,246.969 145.961,245.135 144,242.5C 143.377,231.941 144.71,221.607 148,211.5C 151.494,209.623 155.327,208.956 159.5,209.5C 157.867,218.815 156.701,228.149 156,237.5C 159.73,238.46 163.563,238.793 167.5,238.5C 169.024,228.737 171.024,219.071 173.5,209.5 Z"/></g>
<g><path style="opacity:1" fill="#f9f9f9" d="M 202.5,208.5 C 209.221,207.751 215.554,208.918 221.5,212C 222.701,212.903 223.535,214.069 224,215.5C 224.932,220.989 224.432,226.323 222.5,231.5C 213.852,232.332 205.186,232.832 196.5,233C 194.987,235.454 195.654,237.121 198.5,238C 205.856,238.169 213.189,238.669 220.5,239.5C 219.833,242.167 219.167,244.833 218.5,247.5C 209.853,248.665 201.186,248.832 192.5,248C 189.336,247.008 186.836,245.175 185,242.5C 182.511,231.953 184.678,222.453 191.5,214C 194.99,211.588 198.657,209.755 202.5,208.5 Z"/></g>
<g><path style="opacity:1" fill="#f8f8f8" d="M 232.5,209.5 C 242.506,209.334 252.506,209.5 262.5,210C 266.136,212.039 267.802,215.206 267.5,219.5C 259.16,219.334 250.827,219.5 242.5,220C 239.698,229.303 237.698,238.803 236.5,248.5C 232.5,248.5 228.5,248.5 224.5,248.5C 227.418,235.576 230.085,222.576 232.5,209.5 Z"/></g>
<g><path style="opacity:1" fill="#172d46" d="M 113.5,209.5 C 116.941,209.301 120.274,209.801 123.5,211C 127.124,213.161 128.291,216.328 127,220.5C 125.188,226.1 123.688,231.767 122.5,237.5C 103.833,240.993 98.3329,233.993 106,216.5C 108.396,213.933 110.896,211.6 113.5,209.5 Z"/></g>
<g><path style="opacity:1" fill="#2e415a" d="M 202.5,218.5 C 205.649,218.211 208.649,218.711 211.5,220C 212.38,221.356 212.714,222.856 212.5,224.5C 207.833,224.5 203.167,224.5 198.5,224.5C 198.657,221.682 199.991,219.682 202.5,218.5 Z"/></g>
<g><path style="opacity:1" fill="#f7f7f7" d="M 74.5,221.5 C 78.5546,221.176 82.5546,221.509 86.5,222.5C 84.1041,232.855 81.6041,243.188 79,253.5C 77.8022,257.746 75.3022,260.913 71.5,263C 66.5111,263.499 61.5111,263.666 56.5,263.5C 57.1667,260.167 57.8333,256.833 58.5,253.5C 61.3646,253.945 63.8646,253.278 66,251.5C 69.147,241.577 71.9803,231.577 74.5,221.5 Z"/></g>
<g><path style="opacity:1" fill="#eaeaeb" d="M 17.5,259.5 C 17.8333,259.5 18.1667,259.5 18.5,259.5C 18.2965,261.39 18.9632,262.89 20.5,264C 26.9441,267.431 33.6107,270.431 40.5,273C 51.8372,281.502 64.1705,288.169 77.5,293C 95.8751,303.91 114.708,314.743 134,325.5C 134.414,325.043 134.914,324.709 135.5,324.5C 140.996,327.08 145.496,330.08 149,333.5C 149.333,333.167 149.667,332.833 150,332.5C 156.903,336.053 163.403,340.053 169.5,344.5C 162.513,342.759 156.013,339.759 150,335.5C 149.502,338.482 149.335,341.482 149.5,344.5C 144.5,344.5 139.5,344.5 134.5,344.5C 134.5,339.5 134.5,334.5 134.5,329.5C 129.5,329.5 124.5,329.5 119.5,329.5C 119.665,325.818 119.499,322.152 119,318.5C 118,318.5 117,318.5 116,318.5C 109.763,314.314 103.429,310.314 97,306.5C 96.6667,306.833 96.3333,307.167 96,307.5C 94.172,305.919 92.172,304.585 90,303.5C 89.5014,307.152 89.3347,310.818 89.5,314.5C 84.5,314.5 79.5,314.5 74.5,314.5C 74.5,309.5 74.5,304.5 74.5,299.5C 69.5,299.5 64.5,299.5 59.5,299.5C 59.6655,295.486 59.4988,291.486 59,287.5C 54.2188,284.197 49.3855,281.03 44.5,278C 43.5509,277.383 42.7175,277.549 42,278.5C 38.0819,275.648 34.2485,273.315 30.5,271.5C 29.5078,275.783 29.1744,280.116 29.5,284.5C 24.5,284.5 19.5,284.5 14.5,284.5C 14.5,279.5 14.5,274.5 14.5,269.5C 18.5138,269.666 22.5138,269.499 26.5,269C 23.6714,267.753 21.0048,266.253 18.5,264.5C 16.5764,263.035 16.2431,261.368 17.5,259.5 Z"/></g>
<g><path style="opacity:1" fill="#b4b7ba" d="M 18.5,259.5 C 69.8017,287.152 121.135,314.819 172.5,342.5C 173.99,344.28 175.99,344.946 178.5,344.5C 175.656,345.551 172.656,345.551 169.5,344.5C 163.403,340.053 156.903,336.053 150,332.5C 149.667,332.833 149.333,333.167 149,333.5C 145.496,330.08 140.996,327.08 135.5,324.5C 134.914,324.709 134.414,325.043 134,325.5C 114.708,314.743 95.8751,303.91 77.5,293C 64.1705,288.169 51.8372,281.502 40.5,273C 33.6107,270.431 26.9441,267.431 20.5,264C 18.9632,262.89 18.2965,261.39 18.5,259.5 Z"/></g>
<g><path style="opacity:1" fill="#d2d3d4" d="M 239.5,312.5 C 238.284,314.451 236.618,315.951 234.5,317C 229.808,318.676 225.808,321.342 222.5,325C 217.264,327.448 212.264,330.115 207.5,333C 202.585,335.984 197.585,337.984 192.5,339C 189.661,340.92 186.661,342.587 183.5,344C 183.833,344.333 184.167,344.667 184.5,345C 182.934,345.608 181.6,346.442 180.5,347.5C 177.5,347.5 174.5,347.5 171.5,347.5C 171.218,346.222 170.551,345.222 169.5,344.5C 172.656,345.551 175.656,345.551 178.5,344.5C 194.622,336.607 210.289,327.94 225.5,318.5C 229.956,315.937 234.623,313.937 239.5,312.5 Z"/></g>
</svg>
