<?xml version="1.0" encoding="UTF-8"?>
<!DOCTYPE svg PUBLIC "-//W3C//DTD SVG 1.1//EN" "http://www.w3.org/Graphics/SVG/1.1/DTD/svg11.dtd">
<svg xmlns="http://www.w3.org/2000/svg" version="1.1" width="280px" height="280px" style="shape-rendering:geometricPrecision; text-rendering:geometricPrecision; image-rendering:optimizeQuality; fill-rule:evenodd; clip-rule:evenodd" xmlns:xlink="http://www.w3.org/1999/xlink">
<g><path style="opacity:1" fill="#6e0200" d="M -0.5,-0.5 C 41.8333,-0.5 84.1667,-0.5 126.5,-0.5C 126.268,11.0184 127.101,22.3517 129,33.5C 129.632,35.5313 130.799,37.198 132.5,38.5C 132.842,46.179 135.175,53.179 139.5,59.5C 152.306,65.8818 165.306,71.8818 178.5,77.5C 179.524,76.1468 180.857,75.4802 182.5,75.5C 181.414,79.012 179.081,81.3453 175.5,82.5C 174.5,82.5 173.5,82.5 172.5,82.5C 172.719,83.675 172.386,84.675 171.5,85.5C 164.815,82.3651 158.481,78.6984 152.5,74.5C 149.582,73.1302 146.582,72.1302 143.5,71.5C 141.388,69.4997 139.722,67.1664 138.5,64.5C 138.19,62.8564 137.19,61.8564 135.5,61.5C 132.482,52.6038 129.815,43.6038 127.5,34.5C 111.605,33.7449 95.9387,35.0783 80.5,38.5C 80.5,39.5 80.5,40.5 80.5,41.5C 75.8333,42.8333 71.1667,44.1667 66.5,45.5C 66.5,46.5 66.5,47.5 66.5,48.5C 64.712,48.2148 63.0453,48.5481 61.5,49.5C 58.9832,51.8494 56.6499,54.3494 54.5,57C 51.3542,58.3384 48.3542,59.8384 45.5,61.5C 45.2071,65.8064 43.2071,69.1397 39.5,71.5C 38.4255,73.9824 37.0922,76.3157 35.5,78.5C 34.1667,110.833 34.1667,143.167 35.5,175.5C 38.4229,178.052 40.4229,181.052 41.5,184.5C 44.5,184.5 47.5,184.5 50.5,184.5C 50.2148,186.288 50.5481,187.955 51.5,189.5C 56.4994,192.813 59.166,197.479 59.5,203.5C 58.0222,203.238 56.6888,203.571 55.5,204.5C 57.396,205.466 59.396,205.799 61.5,205.5C 63.1418,209.219 64.4752,213.219 65.5,217.5C 67.0069,219.69 69.0069,221.024 71.5,221.5C 72.2671,225.698 73.6004,229.698 75.5,233.5C 76.5,233.5 77.5,233.5 78.5,233.5C 78.8844,235.929 79.551,238.263 80.5,240.5C 82.288,240.215 83.9547,240.548 85.5,241.5C 92.1126,246.621 99.7793,249.287 108.5,249.5C 113.812,248.54 119.145,247.874 124.5,247.5C 124.5,245.833 124.5,244.167 124.5,242.5C 130.5,242.5 136.5,242.5 142.5,242.5C 142.882,232.484 143.548,222.484 144.5,212.5C 146.651,210.742 148.817,209.076 151,207.5C 152.599,210.612 155.099,212.278 158.5,212.5C 159.151,213.091 159.818,213.757 160.5,214.5C 162.136,219.054 163.136,223.721 163.5,228.5C 164.5,228.5 165.5,228.5 166.5,228.5C 167.155,231.813 168.489,234.813 170.5,237.5C 173.967,240.227 177.967,241.894 182.5,242.5C 183.833,242.5 185.167,242.5 186.5,242.5C 186.022,245.278 187.022,247.278 189.5,248.5C 197.873,252.812 206.706,256.145 216,258.5C 224.738,256.768 233.571,255.435 242.5,254.5C 242.5,253.5 242.5,252.5 242.5,251.5C 254.764,249.59 267.097,248.257 279.5,247.5C 279.5,252.167 279.5,256.833 279.5,261.5C 261.891,263.23 244.225,264.563 226.5,265.5C 217.724,265.756 209.224,264.423 201,261.5C 199.635,261.844 198.468,262.511 197.5,263.5C 192.693,258.873 187.026,255.707 180.5,254C 177.258,250.926 174.591,247.426 172.5,243.5C 171.311,242.571 169.978,242.238 168.5,242.5C 168.072,239.436 167.406,236.436 166.5,233.5C 165.5,233.5 164.5,233.5 163.5,233.5C 163.5,232.5 163.5,231.5 163.5,230.5C 162.167,230.5 160.833,230.5 159.5,230.5C 159.708,228.08 159.374,225.747 158.5,223.5C 155.738,222.532 153.238,221.199 151,219.5C 150.29,220.973 149.124,221.64 147.5,221.5C 147.894,225.224 147.227,228.724 145.5,232C 146.022,232.95 146.689,233.784 147.5,234.5C 145.893,242.195 144.227,249.862 142.5,257.5C 144.272,258.27 145.272,259.603 145.5,261.5C 144.979,265.191 144.312,268.857 143.5,272.5C 141.999,271.248 140.332,270.248 138.5,269.5C 133.88,268.507 129.214,268.173 124.5,268.5C 124.5,271.5 124.5,274.5 124.5,277.5C 118.074,276.88 112.074,277.547 106.5,279.5C 70.8333,279.5 35.1667,279.5 -0.5,279.5C -0.5,186.167 -0.5,92.8333 -0.5,-0.5 Z"/></g>
<g><path style="opacity:1" fill="#740402" d="M 126.5,-0.5 C 127.5,-0.5 128.5,-0.5 129.5,-0.5C 130.278,11.1736 131.278,22.8402 132.5,34.5C 135.322,37.5815 136.656,41.2482 136.5,45.5C 138.5,45.5 140.5,45.5 142.5,45.5C 142.421,46.9305 142.754,48.2638 143.5,49.5C 152.92,54.7766 162.586,59.61 172.5,64C 179.492,64.4996 186.492,64.6663 193.5,64.5C 191.746,66.5887 190.413,68.922 189.5,71.5C 186.922,72.4127 184.589,73.746 182.5,75.5C 180.857,75.4802 179.524,76.1468 178.5,77.5C 165.306,71.8818 152.306,65.8818 139.5,59.5C 135.175,53.179 132.842,46.179 132.5,38.5C 130.799,37.198 129.632,35.5313 129,33.5C 127.101,22.3517 126.268,11.0184 126.5,-0.5 Z"/></g>
<g><path style="opacity:1" fill="#7a0401" d="M 129.5,-0.5 C 131.167,-0.5 132.833,-0.5 134.5,-0.5C 133.241,11.0493 133.241,22.5493 134.5,34C 141.191,34.1691 147.858,34.6691 154.5,35.5C 159.52,37.3434 164.187,39.6767 168.5,42.5C 173,43.5 177.5,44.5 182,45.5C 187.347,44.601 192.514,43.2676 197.5,41.5C 198.123,43.9661 198.957,46.2994 200,48.5C 200.483,47.552 200.649,46.552 200.5,45.5C 209.144,44.1707 217.811,42.8374 226.5,41.5C 228.833,41.8333 231.167,42.1667 233.5,42.5C 235.289,45.5561 235.956,48.8894 235.5,52.5C 237.167,52.5 238.833,52.5 240.5,52.5C 240.5,53.5 240.5,54.5 240.5,55.5C 249.013,57.176 255.013,62.0094 258.5,70C 258.252,71.7159 257.585,73.2159 256.5,74.5C 260.167,74.8333 262.167,76.8333 262.5,80.5C 267.867,85.5318 272.867,90.8651 277.5,96.5C 277.392,97.4419 277.059,98.2753 276.5,99C 274.167,100.5 271.833,102 269.5,103.5C 268.833,108.833 268.167,114.167 267.5,119.5C 265.783,120.668 265.116,122.335 265.5,124.5C 263.549,124.227 262.049,124.893 261,126.5C 260.186,128.902 260.353,131.235 261.5,133.5C 265.833,137.833 270.167,142.167 274.5,146.5C 276.045,147.452 277.712,147.785 279.5,147.5C 279.5,152.167 279.5,156.833 279.5,161.5C 271.9,158.893 267.567,153.56 266.5,145.5C 263.83,141.832 260.83,138.499 257.5,135.5C 257.167,132.833 256.833,130.167 256.5,127.5C 256.601,124.3 257.268,121.3 258.5,118.5C 253.219,111.387 253.219,104.22 258.5,97C 257.547,92.6718 255.38,89.1718 252,86.5C 249.911,82.3329 248.411,77.9996 247.5,73.5C 243.418,71.951 239.751,69.6177 236.5,66.5C 235.526,64.2573 235.192,61.924 235.5,59.5C 232.924,59.5321 230.591,58.8654 228.5,57.5C 220.775,49.2652 212.442,48.5985 203.5,55.5C 201.617,57.4497 199.617,59.4497 197.5,61.5C 196.614,62.325 196.281,63.325 196.5,64.5C 195.5,64.5 194.5,64.5 193.5,64.5C 186.492,64.6663 179.492,64.4996 172.5,64C 162.586,59.61 152.92,54.7766 143.5,49.5C 142.754,48.2638 142.421,46.9305 142.5,45.5C 140.5,45.5 138.5,45.5 136.5,45.5C 136.656,41.2482 135.322,37.5815 132.5,34.5C 131.278,22.8402 130.278,11.1736 129.5,-0.5 Z"/></g>
<g><path style="opacity:1" fill="#800300" d="M 134.5,-0.5 C 182.833,-0.5 231.167,-0.5 279.5,-0.5C 279.5,48.8333 279.5,98.1667 279.5,147.5C 277.712,147.785 276.045,147.452 274.5,146.5C 270.167,142.167 265.833,137.833 261.5,133.5C 260.353,131.235 260.186,128.902 261,126.5C 262.049,124.893 263.549,124.227 265.5,124.5C 265.116,122.335 265.783,120.668 267.5,119.5C 268.167,114.167 268.833,108.833 269.5,103.5C 271.833,102 274.167,100.5 276.5,99C 277.059,98.2753 277.392,97.4419 277.5,96.5C 272.867,90.8651 267.867,85.5318 262.5,80.5C 262.167,76.8333 260.167,74.8333 256.5,74.5C 257.585,73.2159 258.252,71.7159 258.5,70C 255.013,62.0094 249.013,57.176 240.5,55.5C 240.5,54.5 240.5,53.5 240.5,52.5C 238.833,52.5 237.167,52.5 235.5,52.5C 235.956,48.8894 235.289,45.5561 233.5,42.5C 231.167,42.1667 228.833,41.8333 226.5,41.5C 217.811,42.8374 209.144,44.1707 200.5,45.5C 200.649,46.552 200.483,47.552 200,48.5C 198.957,46.2994 198.123,43.9661 197.5,41.5C 192.514,43.2676 187.347,44.601 182,45.5C 177.5,44.5 173,43.5 168.5,42.5C 164.187,39.6767 159.52,37.3434 154.5,35.5C 147.858,34.6691 141.191,34.1691 134.5,34C 133.241,22.5493 133.241,11.0493 134.5,-0.5 Z"/></g>
<g><path style="opacity:1" fill="#680302" d="M 135.5,61.5 C 134.833,61.5 134.167,61.5 133.5,61.5C 132.833,59.5 131.5,58.1667 129.5,57.5C 129.586,56.5041 129.252,55.6708 128.5,55C 124.237,53.193 119.904,51.693 115.5,50.5C 113.833,50.5 112.167,50.5 110.5,50.5C 110.5,49.5 110.5,48.5 110.5,47.5C 104.5,47.5 98.5,47.5 92.5,47.5C 92.5,48.5 92.5,49.5 92.5,50.5C 91.5,50.5 90.5,50.5 89.5,50.5C 85.0422,50.143 81.3755,51.4763 78.5,54.5C 76.8333,54.5 75.1667,54.5 73.5,54.5C 73.5,55.5 73.5,56.5 73.5,57.5C 70.9242,57.4679 68.5909,58.1346 66.5,59.5C 65.0689,60.0819 63.7356,60.9152 62.5,62C 61.7476,62.6708 61.4142,63.5041 61.5,64.5C 59.4113,66.254 57.078,67.5873 54.5,68.5C 52.4796,71.559 50.8129,74.8924 49.5,78.5C 48.4763,79.8532 47.143,80.5198 45.5,80.5C 44.1667,85.1667 42.8333,89.8333 41.5,94.5C 38.945,97.6269 37.945,101.294 38.5,105.5C 37.1858,107.915 36.5191,110.748 36.5,114C 36.5191,117.252 37.1858,120.085 38.5,122.5C 38.5,123.167 38.5,123.833 38.5,124.5C 39.8505,133.936 41.8505,143.27 44.5,152.5C 47.943,159.956 52.943,166.29 59.5,171.5C 63.4121,177.754 67.7454,183.754 72.5,189.5C 73.4742,191.743 73.8076,194.076 73.5,196.5C 72.9197,200.649 73.5864,204.316 75.5,207.5C 76.8545,209.521 78.5212,211.188 80.5,212.5C 80.5,213.5 80.5,214.5 80.5,215.5C 86.8845,217.856 92.2179,221.856 96.5,227.5C 105.833,231.5 115.167,231.5 124.5,227.5C 125.687,226.481 126.687,225.314 127.5,224C 132.541,223.267 137.541,222.434 142.5,221.5C 142.782,213.164 143.116,204.831 143.5,196.5C 146.167,196.5 148.833,196.5 151.5,196.5C 151.5,197.833 151.5,199.167 151.5,200.5C 152.5,200.5 153.5,200.5 154.5,200.5C 156.137,204.377 157.471,208.377 158.5,212.5C 155.099,212.278 152.599,210.612 151,207.5C 148.817,209.076 146.651,210.742 144.5,212.5C 143.548,222.484 142.882,232.484 142.5,242.5C 136.5,242.5 130.5,242.5 124.5,242.5C 124.5,244.167 124.5,245.833 124.5,247.5C 119.145,247.874 113.812,248.54 108.5,249.5C 99.7793,249.287 92.1126,246.621 85.5,241.5C 83.9547,240.548 82.288,240.215 80.5,240.5C 79.551,238.263 78.8844,235.929 78.5,233.5C 77.5,233.5 76.5,233.5 75.5,233.5C 73.6004,229.698 72.2671,225.698 71.5,221.5C 69.0069,221.024 67.0069,219.69 65.5,217.5C 64.4752,213.219 63.1418,209.219 61.5,205.5C 59.396,205.799 57.396,205.466 55.5,204.5C 56.6888,203.571 58.0222,203.238 59.5,203.5C 59.166,197.479 56.4994,192.813 51.5,189.5C 50.5481,187.955 50.2148,186.288 50.5,184.5C 47.5,184.5 44.5,184.5 41.5,184.5C 40.4229,181.052 38.4229,178.052 35.5,175.5C 34.1667,143.167 34.1667,110.833 35.5,78.5C 37.0922,76.3157 38.4255,73.9824 39.5,71.5C 43.2071,69.1397 45.2071,65.8064 45.5,61.5C 48.3542,59.8384 51.3542,58.3384 54.5,57C 56.6499,54.3494 58.9832,51.8494 61.5,49.5C 63.0453,48.5481 64.712,48.2148 66.5,48.5C 66.5,47.5 66.5,46.5 66.5,45.5C 71.1667,44.1667 75.8333,42.8333 80.5,41.5C 80.5,40.5 80.5,39.5 80.5,38.5C 95.9387,35.0783 111.605,33.7449 127.5,34.5C 129.815,43.6038 132.482,52.6038 135.5,61.5 Z"/></g>
<g><path style="opacity:1" fill="#863735" d="M 110.5,50.5 C 108.833,50.5 107.167,50.5 105.5,50.5C 104.486,49.2353 102.986,48.5687 101,48.5C 99.0145,48.5687 97.5145,49.2353 96.5,50.5C 95.1667,50.5 93.8333,50.5 92.5,50.5C 92.5,49.5 92.5,48.5 92.5,47.5C 98.5,47.5 104.5,47.5 110.5,47.5C 110.5,48.5 110.5,49.5 110.5,50.5 Z"/></g>
<g><path style="opacity:1" fill="#ad7978" d="M 105.5,50.5 C 102.5,50.5 99.5,50.5 96.5,50.5C 97.5145,49.2353 99.0145,48.5687 101,48.5C 102.986,48.5687 104.486,49.2353 105.5,50.5 Z"/></g>
<g><path style="opacity:1" fill="#fcfbfb" d="M 89.5,50.5 C 90.5,50.5 91.5,50.5 92.5,50.5C 93.8333,50.5 95.1667,50.5 96.5,50.5C 99.5,50.5 102.5,50.5 105.5,50.5C 107.167,50.5 108.833,50.5 110.5,50.5C 112.167,50.5 113.833,50.5 115.5,50.5C 115.5,51.5 115.5,52.5 115.5,53.5C 120.384,54.1217 125.051,55.455 129.5,57.5C 131.5,58.1667 132.833,59.5 133.5,61.5C 134.67,63.2785 136.336,64.2785 138.5,64.5C 139.722,67.1664 141.388,69.4997 143.5,71.5C 143.5,72.1667 143.5,72.8333 143.5,73.5C 144.807,85.8553 144.474,98.1887 142.5,110.5C 141.833,112.833 141.167,115.167 140.5,117.5C 139.351,117.791 138.684,118.624 138.5,120C 139.434,123.154 140.101,122.988 140.5,119.5C 142.011,118.498 143.678,117.831 145.5,117.5C 145.238,116.022 145.571,114.689 146.5,113.5C 150.349,111.849 153.015,109.182 154.5,105.5C 158.167,104.5 160.5,102.167 161.5,98.5C 165.665,94.1145 169.999,89.7812 174.5,85.5C 175.386,84.675 175.719,83.675 175.5,82.5C 179.081,81.3453 181.414,79.012 182.5,75.5C 184.589,73.746 186.922,72.4127 189.5,71.5C 190.413,68.922 191.746,66.5887 193.5,64.5C 194.5,64.5 195.5,64.5 196.5,64.5C 196.281,63.325 196.614,62.325 197.5,61.5C 199.617,59.4497 201.617,57.4497 203.5,55.5C 209.365,53.7353 215.365,53.2353 221.5,54C 224.426,54.687 225.759,56.5203 225.5,59.5C 226.5,59.5 227.5,59.5 228.5,59.5C 228.904,64.3993 228.237,69.066 226.5,73.5C 225.167,73.5 224.5,74.1667 224.5,75.5C 223.5,75.5 222.5,75.5 221.5,75.5C 221.5,76.5 221.5,77.5 221.5,78.5C 220.833,79.8333 220.167,81.1667 219.5,82.5C 217.857,82.4802 216.524,83.1468 215.5,84.5C 213.351,86.9579 211.684,89.6246 210.5,92.5C 207.931,92.7377 206.265,94.071 205.5,96.5C 202.376,99.3628 199.376,102.363 196.5,105.5C 195.5,105.5 194.5,105.5 193.5,105.5C 193.5,106.5 193.5,107.5 193.5,108.5C 191.5,109.167 190.167,110.5 189.5,112.5C 188.5,112.5 187.5,112.5 186.5,112.5C 186.5,113.5 186.5,114.5 186.5,115.5C 186.672,116.492 186.338,117.158 185.5,117.5C 182.147,120.522 178.813,123.522 175.5,126.5C 172.5,126.833 170.833,128.5 170.5,131.5C 170.5,132.833 169.833,133.5 168.5,133.5C 166.989,134.502 165.322,135.169 163.5,135.5C 162.886,140.032 163.886,144.032 166.5,147.5C 168.256,148.552 168.923,150.219 168.5,152.5C 168.157,154.483 168.824,155.817 170.5,156.5C 170.5,157.5 170.5,158.5 170.5,159.5C 171.401,163.154 172.401,166.821 173.5,170.5C 174.151,172.847 175.484,174.514 177.5,175.5C 178.698,178.426 179.698,181.426 180.5,184.5C 180.402,186.553 181.069,188.22 182.5,189.5C 184.044,192.248 184.71,195.248 184.5,198.5C 186.002,202.422 187.336,206.422 188.5,210.5C 189.5,210.5 190.5,210.5 191.5,210.5C 192.552,212.256 194.219,212.923 196.5,212.5C 223.813,214.492 251.48,215.158 279.5,214.5C 279.5,223.833 279.5,233.167 279.5,242.5C 249.5,242.5 219.5,242.5 189.5,242.5C 188.5,242.5 187.5,242.5 186.5,242.5C 185.167,242.5 183.833,242.5 182.5,242.5C 182.423,241.25 181.756,240.417 180.5,240C 177.221,238.851 173.887,238.018 170.5,237.5C 168.489,234.813 167.155,231.813 166.5,228.5C 165.5,228.5 164.5,228.5 163.5,228.5C 163.136,223.721 162.136,219.054 160.5,214.5C 159.818,213.757 159.151,213.091 158.5,212.5C 157.471,208.377 156.137,204.377 154.5,200.5C 153.594,197.564 152.928,194.564 152.5,191.5C 150.956,188.752 150.29,185.752 150.5,182.5C 149.5,182.5 148.5,182.5 147.5,182.5C 147.072,179.436 146.406,176.436 145.5,173.5C 145.279,171.336 144.279,169.67 142.5,168.5C 142.598,166.447 141.931,164.78 140.5,163.5C 139.594,160.564 138.928,157.564 138.5,154.5C 137.64,152.712 136.64,151.045 135.5,149.5C 134.135,147.409 133.468,145.076 133.5,142.5C 132.448,140.744 130.781,140.077 128.5,140.5C 128.192,144.573 127.525,148.573 126.5,152.5C 124.514,155.739 123.18,159.406 122.5,163.5C 121.5,163.5 120.5,163.5 119.5,163.5C 119.5,165.833 119.5,168.167 119.5,170.5C 118.167,172.167 116.833,173.833 115.5,175.5C 113.379,178.759 112.379,182.426 112.5,186.5C 111.167,188.833 109.833,191.167 108.5,193.5C 106.418,196.608 104.752,199.941 103.5,203.5C 103.843,205.483 103.176,206.817 101.5,207.5C 98.5,207.833 96.8333,209.5 96.5,212.5C 95.8333,212.5 95.1667,212.5 94.5,212.5C 90.5,212.5 86.5,212.5 82.5,212.5C 81.8333,212.5 81.1667,212.5 80.5,212.5C 78.5212,211.188 76.8545,209.521 75.5,207.5C 75.5,203.833 75.5,200.167 75.5,196.5C 78.5983,189.834 80.9317,182.834 82.5,175.5C 83.3764,175.631 84.0431,175.298 84.5,174.5C 85.3701,172.374 86.3701,170.374 87.5,168.5C 87.0773,166.219 87.744,164.552 89.5,163.5C 91.2892,160.848 92.2892,157.848 92.5,154.5C 93.1667,152.167 93.8333,149.833 94.5,147.5C 95.5,147.5 96.5,147.5 97.5,147.5C 97.7038,144.482 98.0371,141.482 98.5,138.5C 100.294,136.572 101.294,134.238 101.5,131.5C 103.256,130.448 103.923,128.781 103.5,126.5C 103.5,125.833 103.5,125.167 103.5,124.5C 104.5,124.5 105.5,124.5 106.5,124.5C 106.29,121.248 106.956,118.248 108.5,115.5C 108.468,112.924 109.135,110.591 110.5,108.5C 111.497,108.53 112.164,108.03 112.5,107C 113.214,103.494 113.881,99.9938 114.5,96.5C 115.477,93.7131 115.81,90.7131 115.5,87.5C 114.5,87.5 113.5,87.5 112.5,87.5C 111.695,85.7872 110.695,84.1206 109.5,82.5C 107.207,81.348 105.207,80.0147 103.5,78.5C 99.03,77.5139 94.3633,77.1805 89.5,77.5C 89.5,78.5 89.5,79.5 89.5,80.5C 87.0706,80.8844 84.7373,81.551 82.5,82.5C 81.5,86.1667 79.1667,88.5 75.5,89.5C 74.5873,92.078 73.254,94.4113 71.5,96.5C 68.925,98.8453 67.925,101.845 68.5,105.5C 67.2227,106.694 66.5561,108.36 66.5,110.5C 66.5561,112.64 67.2227,114.306 68.5,115.5C 68.8333,115.5 69.1667,115.5 69.5,115.5C 69.238,116.978 69.5713,118.311 70.5,119.5C 72.2291,121.879 73.8958,124.212 75.5,126.5C 78.239,129.024 81.5724,130.024 85.5,129.5C 86.1667,131.5 87.5,132.833 89.5,133.5C 89.5,134.167 89.5,134.833 89.5,135.5C 89.5,138.833 89.5,142.167 89.5,145.5C 87.8333,149.833 84.8333,152.833 80.5,154.5C 75.8333,154.5 71.1667,154.5 66.5,154.5C 63.2524,154.336 60.2524,153.336 57.5,151.5C 55.2501,149.237 52.9168,147.237 50.5,145.5C 50.1667,142.5 48.5,140.833 45.5,140.5C 42.9576,135.407 40.9576,130.074 39.5,124.5C 39.0052,114.304 39.6719,104.304 41.5,94.5C 42.8333,89.8333 44.1667,85.1667 45.5,80.5C 47.143,80.5198 48.4763,79.8532 49.5,78.5C 50.8129,74.8924 52.4796,71.559 54.5,68.5C 57.078,67.5873 59.4113,66.254 61.5,64.5C 64.5,64.1667 66.1667,62.5 66.5,59.5C 68.5909,58.1346 70.9242,57.4679 73.5,57.5C 73.5,56.5 73.5,55.5 73.5,54.5C 75.1667,54.5 76.8333,54.5 78.5,54.5C 82.0991,53.6561 85.7657,53.3227 89.5,53.5C 89.5,52.5 89.5,51.5 89.5,50.5 Z"/></g>
<g><path style="opacity:1" fill="#d8bdbc" d="M 89.5,50.5 C 89.5,51.5 89.5,52.5 89.5,53.5C 85.7657,53.3227 82.0991,53.6561 78.5,54.5C 81.3755,51.4763 85.0422,50.143 89.5,50.5 Z"/></g>
<g><path style="opacity:1" fill="#dfc3c2" d="M 228.5,57.5 C 228.5,58.1667 228.5,58.8333 228.5,59.5C 227.5,59.5 226.5,59.5 225.5,59.5C 225.759,56.5203 224.426,54.687 221.5,54C 215.365,53.2353 209.365,53.7353 203.5,55.5C 212.442,48.5985 220.775,49.2652 228.5,57.5 Z"/></g>
<g><path style="opacity:1" fill="#c59f9e" d="M 115.5,50.5 C 119.904,51.693 124.237,53.193 128.5,55C 129.252,55.6708 129.586,56.5041 129.5,57.5C 125.051,55.455 120.384,54.1217 115.5,53.5C 115.5,52.5 115.5,51.5 115.5,50.5 Z"/></g>
<g><path style="opacity:1" fill="#730500" d="M 228.5,57.5 C 230.591,58.8654 232.924,59.5321 235.5,59.5C 235.192,61.924 235.526,64.2573 236.5,66.5C 239.751,69.6177 243.418,71.951 247.5,73.5C 248.411,77.9996 249.911,82.3329 252,86.5C 255.38,89.1718 257.547,92.6718 258.5,97C 253.219,104.22 253.219,111.387 258.5,118.5C 257.268,121.3 256.601,124.3 256.5,127.5C 256.833,130.167 257.167,132.833 257.5,135.5C 260.83,138.499 263.83,141.832 266.5,145.5C 267.567,153.56 271.9,158.893 279.5,161.5C 279.5,169.833 279.5,178.167 279.5,186.5C 277.561,185.986 276.561,184.653 276.5,182.5C 277.771,178.146 277.771,173.813 276.5,169.5C 272.51,166.178 268.51,162.845 264.5,159.5C 264.249,150.333 260.749,142.666 254,136.5C 252.22,132.005 251.054,127.338 250.5,122.5C 245.899,120.585 241.732,117.918 238,114.5C 237.505,112.527 237.338,110.527 237.5,108.5C 238.5,108.5 239.5,108.5 240.5,108.5C 242.452,100.922 242.785,93.2557 241.5,85.5C 237.269,80.2402 232.269,76.2402 226.5,73.5C 228.237,69.066 228.904,64.3993 228.5,59.5C 228.5,58.8333 228.5,58.1667 228.5,57.5 Z"/></g>
<g><path style="opacity:1" fill="#b27d7c" d="M 66.5,59.5 C 66.1667,62.5 64.5,64.1667 61.5,64.5C 61.4142,63.5041 61.7476,62.6708 62.5,62C 63.7356,60.9152 65.0689,60.0819 66.5,59.5 Z"/></g>
<g><path style="opacity:1" fill="#a25f5d" d="M 133.5,61.5 C 134.167,61.5 134.833,61.5 135.5,61.5C 137.19,61.8564 138.19,62.8564 138.5,64.5C 136.336,64.2785 134.67,63.2785 133.5,61.5 Z"/></g>
<g><path style="opacity:1" fill="#670604" d="M 143.5,71.5 C 146.582,72.1302 149.582,73.1302 152.5,74.5C 158.481,78.6984 164.815,82.3651 171.5,85.5C 172.386,84.675 172.719,83.675 172.5,82.5C 173.5,82.5 174.5,82.5 175.5,82.5C 175.719,83.675 175.386,84.675 174.5,85.5C 169.999,89.7812 165.665,94.1145 161.5,98.5C 159.646,99.241 157.979,100.241 156.5,101.5C 155.022,101.762 153.689,101.429 152.5,100.5C 150.829,99.1643 149.162,97.831 147.5,96.5C 148.113,90.7291 147.446,85.3958 145.5,80.5C 146.01,77.6122 145.344,75.2789 143.5,73.5C 143.5,72.8333 143.5,72.1667 143.5,71.5 Z"/></g>
<g><path style="opacity:1" fill="#6c0500" d="M 226.5,73.5 C 232.269,76.2402 237.269,80.2402 241.5,85.5C 242.785,93.2557 242.452,100.922 240.5,108.5C 239.5,108.5 238.5,108.5 237.5,108.5C 237.338,110.527 237.505,112.527 238,114.5C 241.732,117.918 245.899,120.585 250.5,122.5C 251.054,127.338 252.22,132.005 254,136.5C 260.749,142.666 264.249,150.333 264.5,159.5C 268.51,162.845 272.51,166.178 276.5,169.5C 277.771,173.813 277.771,178.146 276.5,182.5C 276.561,184.653 277.561,185.986 279.5,186.5C 279.5,195.167 279.5,203.833 279.5,212.5C 264.833,212.5 250.167,212.5 235.5,212.5C 237.348,208.146 238.015,203.48 237.5,198.5C 238.5,198.5 239.5,198.5 240.5,198.5C 241.814,193.86 243.147,189.193 244.5,184.5C 243.521,179.407 242.188,174.407 240.5,169.5C 241.384,166.79 242.384,164.124 243.5,161.5C 244.524,160.147 245.857,159.48 247.5,159.5C 252.184,148.803 251.851,138.137 246.5,127.5C 241.366,126.825 236.366,125.658 231.5,124C 228.058,121.557 226.391,118.224 226.5,114C 227.923,107.852 229.257,101.685 230.5,95.5C 229.941,87.6191 225.607,83.9524 217.5,84.5C 218.243,83.8182 218.909,83.1515 219.5,82.5C 220.167,81.1667 220.833,79.8333 221.5,78.5C 222.5,78.5 223.5,78.5 224.5,78.5C 224.5,77.5 224.5,76.5 224.5,75.5C 224.5,74.1667 225.167,73.5 226.5,73.5 Z"/></g>
<g><path style="opacity:1" fill="#cfb6b6" d="M 103.5,78.5 C 98.6529,78.2315 93.9862,78.8982 89.5,80.5C 89.5,79.5 89.5,78.5 89.5,77.5C 94.3633,77.1805 99.03,77.5139 103.5,78.5 Z"/></g>
<g><path style="opacity:1" fill="#b57c7b" d="M 224.5,75.5 C 224.5,76.5 224.5,77.5 224.5,78.5C 223.5,78.5 222.5,78.5 221.5,78.5C 221.5,77.5 221.5,76.5 221.5,75.5C 222.5,75.5 223.5,75.5 224.5,75.5 Z"/></g>
<g><path style="opacity:1" fill="#550404" d="M 103.5,78.5 C 105.207,80.0147 107.207,81.348 109.5,82.5C 110.695,84.1206 111.695,85.7872 112.5,87.5C 112.5,90.5 112.5,93.5 112.5,96.5C 112.192,100.573 111.525,104.573 110.5,108.5C 109.135,110.591 108.468,112.924 108.5,115.5C 107.5,115.5 106.5,115.5 105.5,115.5C 105.71,118.752 105.044,121.752 103.5,124.5C 103.5,125.167 103.5,125.833 103.5,126.5C 101.744,127.552 101.077,129.219 101.5,131.5C 99.2733,133.229 98.2733,135.562 98.5,138.5C 96.8499,141.203 95.5165,144.203 94.5,147.5C 92.7316,143.956 91.8982,139.956 92,135.5C 91.5831,134.244 90.7498,133.577 89.5,133.5C 87.5,132.833 86.1667,131.5 85.5,129.5C 82.4244,127.945 79.0911,126.945 75.5,126.5C 73.8958,124.212 72.2291,121.879 70.5,119.5C 69.5713,118.311 69.238,116.978 69.5,115.5C 69.3269,109.052 69.9935,102.719 71.5,96.5C 73.254,94.4113 74.5873,92.078 75.5,89.5C 79.1667,88.5 81.5,86.1667 82.5,82.5C 84.7373,81.551 87.0706,80.8844 89.5,80.5C 93.9862,78.8982 98.6529,78.2315 103.5,78.5 Z"/></g>
<g><path style="opacity:1" fill="#dbc5c4" d="M 143.5,73.5 C 145.344,75.2789 146.01,77.6122 145.5,80.5C 145.5,85.8333 145.5,91.1667 145.5,96.5C 146.198,101.717 145.198,106.384 142.5,110.5C 144.474,98.1887 144.807,85.8553 143.5,73.5 Z"/></g>
<g><path style="opacity:1" fill="#ac7b7a" d="M 145.5,80.5 C 147.446,85.3958 148.113,90.7291 147.5,96.5C 146.833,96.5 146.167,96.5 145.5,96.5C 145.5,91.1667 145.5,85.8333 145.5,80.5 Z"/></g>
<g><path style="opacity:1" fill="#670500" d="M 219.5,82.5 C 218.909,83.1515 218.243,83.8182 217.5,84.5C 225.607,83.9524 229.941,87.6191 230.5,95.5C 229.257,101.685 227.923,107.852 226.5,114C 226.391,118.224 228.058,121.557 231.5,124C 236.366,125.658 241.366,126.825 246.5,127.5C 251.851,138.137 252.184,148.803 247.5,159.5C 245.857,159.48 244.524,160.147 243.5,161.5C 242.384,164.124 241.384,166.79 240.5,169.5C 242.188,174.407 243.521,179.407 244.5,184.5C 243.147,189.193 241.814,193.86 240.5,198.5C 239.5,198.5 238.5,198.5 237.5,198.5C 238.015,203.48 237.348,208.146 235.5,212.5C 231.167,212.5 226.833,212.5 222.5,212.5C 218.969,211.77 215.303,211.104 211.5,210.5C 210.548,208.955 210.215,207.288 210.5,205.5C 209.325,205.719 208.325,205.386 207.5,204.5C 209.045,203.548 210.712,203.215 212.5,203.5C 212.5,201.167 212.5,198.833 212.5,196.5C 210.167,196.5 207.833,196.5 205.5,196.5C 205.771,194.179 205.104,192.179 203.5,190.5C 204.689,189.571 206.022,189.238 207.5,189.5C 206.167,185.5 204.833,181.5 203.5,177.5C 202.5,177.5 201.5,177.5 200.5,177.5C 200.73,174.306 200.064,171.306 198.5,168.5C 201.785,164.377 205.285,160.377 209,156.5C 211.975,150.369 215.142,144.369 218.5,138.5C 219.833,133.167 219.833,127.833 218.5,122.5C 216.129,119.603 214.795,116.269 214.5,112.5C 215.035,107.974 215.035,103.307 214.5,98.5C 211.552,98.2229 208.719,98.5562 206,99.5C 205.517,98.552 205.351,97.552 205.5,96.5C 206.265,94.071 207.931,92.7377 210.5,92.5C 211.684,89.6246 213.351,86.9579 215.5,84.5C 216.524,83.1468 217.857,82.4802 219.5,82.5 Z"/></g>
<g><path style="opacity:1" fill="#834a48" d="M 112.5,87.5 C 113.5,87.5 114.5,87.5 115.5,87.5C 115.81,90.7131 115.477,93.7131 114.5,96.5C 113.833,96.5 113.167,96.5 112.5,96.5C 112.5,93.5 112.5,90.5 112.5,87.5 Z"/></g>
<g><path style="opacity:1" fill="#6a1d19" d="M 145.5,96.5 C 146.167,96.5 146.833,96.5 147.5,96.5C 149.162,97.831 150.829,99.1643 152.5,100.5C 153.689,101.429 155.022,101.762 156.5,101.5C 155.833,102.833 155.167,104.167 154.5,105.5C 153.015,109.182 150.349,111.849 146.5,113.5C 145.571,114.689 145.238,116.022 145.5,117.5C 143.678,117.831 142.011,118.498 140.5,119.5C 140.5,118.833 140.5,118.167 140.5,117.5C 141.167,115.167 141.833,112.833 142.5,110.5C 145.198,106.384 146.198,101.717 145.5,96.5 Z"/></g>
<g><path style="opacity:1" fill="#620502" d="M 205.5,96.5 C 205.351,97.552 205.517,98.552 206,99.5C 208.719,98.5562 211.552,98.2229 214.5,98.5C 215.035,103.307 215.035,107.974 214.5,112.5C 214.795,116.269 216.129,119.603 218.5,122.5C 219.833,127.833 219.833,133.167 218.5,138.5C 215.142,144.369 211.975,150.369 209,156.5C 205.285,160.377 201.785,164.377 198.5,168.5C 200.064,171.306 200.73,174.306 200.5,177.5C 201.5,177.5 202.5,177.5 203.5,177.5C 204.833,181.5 206.167,185.5 207.5,189.5C 206.022,189.238 204.689,189.571 203.5,190.5C 205.104,192.179 205.771,194.179 205.5,196.5C 207.833,196.5 210.167,196.5 212.5,196.5C 212.5,198.833 212.5,201.167 212.5,203.5C 210.712,203.215 209.045,203.548 207.5,204.5C 208.325,205.386 209.325,205.719 210.5,205.5C 210.215,207.288 210.548,208.955 211.5,210.5C 215.303,211.104 218.969,211.77 222.5,212.5C 213.833,212.5 205.167,212.5 196.5,212.5C 194.219,212.923 192.552,212.256 191.5,210.5C 191.321,208.394 190.321,206.728 188.5,205.5C 187.526,203.257 187.192,200.924 187.5,198.5C 186.5,198.5 185.5,198.5 184.5,198.5C 184.71,195.248 184.044,192.248 182.5,189.5C 182.923,187.219 182.256,185.552 180.5,184.5C 179.698,181.426 178.698,178.426 177.5,175.5C 177.5,174.5 177.5,173.5 177.5,172.5C 181.944,158.506 185.277,144.173 187.5,129.5C 190.278,127.35 190.111,125.35 187,123.5C 186.495,121.482 185.995,119.482 185.5,117.5C 186.338,117.158 186.672,116.492 186.5,115.5C 187.5,115.5 188.5,115.5 189.5,115.5C 189.5,114.5 189.5,113.5 189.5,112.5C 190.167,110.5 191.5,109.167 193.5,108.5C 194.5,108.5 195.5,108.5 196.5,108.5C 196.5,107.5 196.5,106.5 196.5,105.5C 199.376,102.363 202.376,99.3628 205.5,96.5 Z"/></g>
<g><path style="opacity:1" fill="#b58a89" d="M 161.5,98.5 C 160.5,102.167 158.167,104.5 154.5,105.5C 155.167,104.167 155.833,102.833 156.5,101.5C 157.979,100.241 159.646,99.241 161.5,98.5 Z"/></g>
<g><path style="opacity:1" fill="#bc9c9c" d="M 112.5,96.5 C 113.167,96.5 113.833,96.5 114.5,96.5C 113.881,99.9938 113.214,103.494 112.5,107C 112.164,108.03 111.497,108.53 110.5,108.5C 111.525,104.573 112.192,100.573 112.5,96.5 Z"/></g>
<g><path style="opacity:1" fill="#873a39" d="M 38.5,105.5 C 38.5,111.167 38.5,116.833 38.5,122.5C 37.1858,120.085 36.5191,117.252 36.5,114C 36.5191,110.748 37.1858,107.915 38.5,105.5 Z"/></g>
<g><path style="opacity:1" fill="#d1b3b2" d="M 41.5,94.5 C 39.6719,104.304 39.0052,114.304 39.5,124.5C 39.1667,124.5 38.8333,124.5 38.5,124.5C 38.5,123.833 38.5,123.167 38.5,122.5C 38.5,116.833 38.5,111.167 38.5,105.5C 37.945,101.294 38.945,97.6269 41.5,94.5 Z"/></g>
<g><path style="opacity:1" fill="#a06563" d="M 196.5,105.5 C 196.5,106.5 196.5,107.5 196.5,108.5C 195.5,108.5 194.5,108.5 193.5,108.5C 193.5,107.5 193.5,106.5 193.5,105.5C 194.5,105.5 195.5,105.5 196.5,105.5 Z"/></g>
<g><path style="opacity:1" fill="#ccb3b3" d="M 68.5,105.5 C 68.5,108.833 68.5,112.167 68.5,115.5C 67.2227,114.306 66.5561,112.64 66.5,110.5C 66.5561,108.36 67.2227,106.694 68.5,105.5 Z"/></g>
<g><path style="opacity:1" fill="#8e5554" d="M 71.5,96.5 C 69.9935,102.719 69.3269,109.052 69.5,115.5C 69.1667,115.5 68.8333,115.5 68.5,115.5C 68.5,112.167 68.5,108.833 68.5,105.5C 67.925,101.845 68.925,98.8453 71.5,96.5 Z"/></g>
<g><path style="opacity:1" fill="#9f6563" d="M 189.5,112.5 C 189.5,113.5 189.5,114.5 189.5,115.5C 188.5,115.5 187.5,115.5 186.5,115.5C 186.5,114.5 186.5,113.5 186.5,112.5C 187.5,112.5 188.5,112.5 189.5,112.5 Z"/></g>
<g><path style="opacity:1" fill="#5c0705" d="M 185.5,117.5 C 185.995,119.482 186.495,121.482 187,123.5C 190.111,125.35 190.278,127.35 187.5,129.5C 185.277,144.173 181.944,158.506 177.5,172.5C 175.296,168.934 173.629,164.934 172.5,160.5C 172.043,159.702 171.376,159.369 170.5,159.5C 170.5,158.5 170.5,157.5 170.5,156.5C 170.843,154.517 170.176,153.183 168.5,152.5C 168.923,150.219 168.256,148.552 166.5,147.5C 166.722,144.61 166.055,141.943 164.5,139.5C 166.69,137.993 168.024,135.993 168.5,133.5C 169.833,133.5 170.5,132.833 170.5,131.5C 173.5,131.167 175.167,129.5 175.5,126.5C 178.813,123.522 182.147,120.522 185.5,117.5 Z"/></g>
<g><path style="opacity:1" fill="#9f6f6d" d="M 140.5,117.5 C 140.5,118.167 140.5,118.833 140.5,119.5C 140.101,122.988 139.434,123.154 138.5,120C 138.684,118.624 139.351,117.791 140.5,117.5 Z"/></g>
<g><path style="opacity:1" fill="#b08989" d="M 108.5,115.5 C 106.956,118.248 106.29,121.248 106.5,124.5C 105.5,124.5 104.5,124.5 103.5,124.5C 105.044,121.752 105.71,118.752 105.5,115.5C 106.5,115.5 107.5,115.5 108.5,115.5 Z"/></g>
<g><path style="opacity:1" fill="#c7abaa" d="M 75.5,126.5 C 79.0911,126.945 82.4244,127.945 85.5,129.5C 81.5724,130.024 78.239,129.024 75.5,126.5 Z"/></g>
<g><path style="opacity:1" fill="#cfb5b3" d="M 175.5,126.5 C 175.167,129.5 173.5,131.167 170.5,131.5C 170.833,128.5 172.5,126.833 175.5,126.5 Z"/></g>
<g><path style="opacity:1" fill="#bd9c9c" d="M 103.5,126.5 C 103.923,128.781 103.256,130.448 101.5,131.5C 101.077,129.219 101.744,127.552 103.5,126.5 Z"/></g>
<g><path style="opacity:1" fill="#cdb4b3" d="M 168.5,133.5 C 168.024,135.993 166.69,137.993 164.5,139.5C 166.055,141.943 166.722,144.61 166.5,147.5C 163.886,144.032 162.886,140.032 163.5,135.5C 165.322,135.169 166.989,134.502 168.5,133.5 Z"/></g>
<g><path style="opacity:1" fill="#610706" d="M 38.5,124.5 C 38.8333,124.5 39.1667,124.5 39.5,124.5C 40.9576,130.074 42.9576,135.407 45.5,140.5C 48.5,140.833 50.1667,142.5 50.5,145.5C 52.9168,147.237 55.2501,149.237 57.5,151.5C 60.2524,153.336 63.2524,154.336 66.5,154.5C 66.5,155.5 66.5,156.5 66.5,157.5C 69.5,157.5 72.5,157.5 75.5,157.5C 79.3344,160.65 82.3344,164.316 84.5,168.5C 84.1156,170.929 83.449,173.263 82.5,175.5C 80.9317,182.834 78.5983,189.834 75.5,196.5C 74.8333,196.5 74.1667,196.5 73.5,196.5C 73.8076,194.076 73.4742,191.743 72.5,189.5C 67.7454,183.754 63.4121,177.754 59.5,171.5C 52.943,166.29 47.943,159.956 44.5,152.5C 41.8505,143.27 39.8505,133.936 38.5,124.5 Z"/></g>
<g><path style="opacity:1" fill="#9c6d6b" d="M 101.5,131.5 C 101.294,134.238 100.294,136.572 98.5,138.5C 98.2733,135.562 99.2733,133.229 101.5,131.5 Z"/></g>
<g><path style="opacity:1" fill="#c6abab" d="M 89.5,135.5 C 91.0265,136.492 91.6932,137.992 91.5,140C 91.6068,142.221 90.9402,144.054 89.5,145.5C 89.5,142.167 89.5,138.833 89.5,135.5 Z"/></g>
<g><path style="opacity:1" fill="#9d615f" d="M 45.5,140.5 C 48.5,140.833 50.1667,142.5 50.5,145.5C 47.5,145.167 45.8333,143.5 45.5,140.5 Z"/></g>
<g><path style="opacity:1" fill="#cfb8b8" d="M 98.5,138.5 C 98.0371,141.482 97.7038,144.482 97.5,147.5C 96.5,147.5 95.5,147.5 94.5,147.5C 95.5165,144.203 96.8499,141.203 98.5,138.5 Z"/></g>
<g><path style="opacity:1" fill="#500606" d="M 133.5,142.5 C 133.468,145.076 134.135,147.409 135.5,149.5C 135.5,151.167 135.5,152.833 135.5,154.5C 136.5,154.5 137.5,154.5 138.5,154.5C 138.928,157.564 139.594,160.564 140.5,163.5C 140.5,165.167 140.5,166.833 140.5,168.5C 138.892,175.376 137.558,182.376 136.5,189.5C 134.167,189.5 131.833,189.5 129.5,189.5C 129.284,184.106 127.118,183.106 123,186.5C 119.924,185.306 116.757,184.639 113.5,184.5C 115.044,181.752 115.71,178.752 115.5,175.5C 116.833,173.833 118.167,172.167 119.5,170.5C 120.744,168.337 121.744,166.003 122.5,163.5C 123.18,159.406 124.514,155.739 126.5,152.5C 128.79,149.658 129.79,146.324 129.5,142.5C 130.833,142.5 132.167,142.5 133.5,142.5 Z"/></g>
<g><path style="opacity:1" fill="#611916" d="M 89.5,133.5 C 90.7498,133.577 91.5831,134.244 92,135.5C 91.8982,139.956 92.7316,143.956 94.5,147.5C 93.8333,149.833 93.1667,152.167 92.5,154.5C 90.0485,156.896 89.0485,159.896 89.5,163.5C 87.744,164.552 87.0773,166.219 87.5,168.5C 86.5,168.5 85.5,168.5 84.5,168.5C 82.3344,164.316 79.3344,160.65 75.5,157.5C 77.5313,157.028 79.1979,156.028 80.5,154.5C 84.8333,152.833 87.8333,149.833 89.5,145.5C 90.9402,144.054 91.6068,142.221 91.5,140C 91.6932,137.992 91.0265,136.492 89.5,135.5C 89.5,134.833 89.5,134.167 89.5,133.5 Z"/></g>
<g><path style="opacity:1" fill="#8c5d5b" d="M 133.5,142.5 C 132.167,142.5 130.833,142.5 129.5,142.5C 129.79,146.324 128.79,149.658 126.5,152.5C 127.525,148.573 128.192,144.573 128.5,140.5C 130.781,140.077 132.448,140.744 133.5,142.5 Z"/></g>
<g><path style="opacity:1" fill="#a67f7f" d="M 135.5,149.5 C 136.64,151.045 137.64,152.712 138.5,154.5C 137.5,154.5 136.5,154.5 135.5,154.5C 135.5,152.833 135.5,151.167 135.5,149.5 Z"/></g>
<g><path style="opacity:1" fill="#b89391" d="M 168.5,152.5 C 170.176,153.183 170.843,154.517 170.5,156.5C 168.824,155.817 168.157,154.483 168.5,152.5 Z"/></g>
<g><path style="opacity:1" fill="#82423f" d="M 66.5,154.5 C 71.1667,154.5 75.8333,154.5 80.5,154.5C 79.1979,156.028 77.5313,157.028 75.5,157.5C 72.5,157.5 69.5,157.5 66.5,157.5C 66.5,156.5 66.5,155.5 66.5,154.5 Z"/></g>
<g><path style="opacity:1" fill="#c7abab" d="M 92.5,154.5 C 92.2892,157.848 91.2892,160.848 89.5,163.5C 89.0485,159.896 90.0485,156.896 92.5,154.5 Z"/></g>
<g><path style="opacity:1" fill="#8d5c5a" d="M 122.5,163.5 C 121.744,166.003 120.744,168.337 119.5,170.5C 119.5,168.167 119.5,165.833 119.5,163.5C 120.5,163.5 121.5,163.5 122.5,163.5 Z"/></g>
<g><path style="opacity:1" fill="#915e5c" d="M 140.5,163.5 C 141.931,164.78 142.598,166.447 142.5,168.5C 141.833,168.5 141.167,168.5 140.5,168.5C 140.5,166.833 140.5,165.167 140.5,163.5 Z"/></g>
<g><path style="opacity:1" fill="#d2b9b8" d="M 170.5,159.5 C 171.376,159.369 172.043,159.702 172.5,160.5C 173.629,164.934 175.296,168.934 177.5,172.5C 177.5,173.5 177.5,174.5 177.5,175.5C 175.484,174.514 174.151,172.847 173.5,170.5C 172.401,166.821 171.401,163.154 170.5,159.5 Z"/></g>
<g><path style="opacity:1" fill="#9e6b69" d="M 84.5,168.5 C 85.5,168.5 86.5,168.5 87.5,168.5C 86.3701,170.374 85.3701,172.374 84.5,174.5C 84.0431,175.298 83.3764,175.631 82.5,175.5C 83.449,173.263 84.1156,170.929 84.5,168.5 Z"/></g>
<g><path style="opacity:1" fill="#b08785" d="M 142.5,168.5 C 144.279,169.67 145.279,171.336 145.5,173.5C 144.5,173.5 143.5,173.5 142.5,173.5C 142.5,171.833 142.5,170.167 142.5,168.5 Z"/></g>
<g><path style="opacity:1" fill="#5a0504" d="M 140.5,168.5 C 141.167,168.5 141.833,168.5 142.5,168.5C 142.5,170.167 142.5,171.833 142.5,173.5C 143.5,173.5 144.5,173.5 145.5,173.5C 146.406,176.436 147.072,179.436 147.5,182.5C 144.883,183.297 143.55,185.131 143.5,188C 142.927,192.158 142.427,196.324 142,200.5C 141.5,201 141,201.5 140.5,202C 142.56,203.493 142.893,205.326 141.5,207.5C 138.509,209.821 135.509,212.155 132.5,214.5C 131.532,213.511 130.365,212.844 129,212.5C 123.947,214.203 118.947,215.87 114,217.5C 108.873,215.772 103.706,214.106 98.5,212.5C 98.8212,210.952 99.8212,210.285 101.5,210.5C 101.5,209.5 101.5,208.5 101.5,207.5C 103.176,206.817 103.843,205.483 103.5,203.5C 104.5,203.5 105.5,203.5 106.5,203.5C 107.167,200.167 107.833,196.833 108.5,193.5C 109.833,191.167 111.167,188.833 112.5,186.5C 113.338,186.158 113.672,185.492 113.5,184.5C 116.757,184.639 119.924,185.306 123,186.5C 127.118,183.106 129.284,184.106 129.5,189.5C 131.833,189.5 134.167,189.5 136.5,189.5C 137.558,182.376 138.892,175.376 140.5,168.5 Z"/></g>
<g><path style="opacity:1" fill="#bd9e9d" d="M 115.5,175.5 C 115.71,178.752 115.044,181.752 113.5,184.5C 113.672,185.492 113.338,186.158 112.5,186.5C 112.379,182.426 113.379,178.759 115.5,175.5 Z"/></g>
<g><path style="opacity:1" fill="#620604" d="M 147.5,182.5 C 148.406,185.436 149.072,188.436 149.5,191.5C 150.5,191.5 151.5,191.5 152.5,191.5C 152.928,194.564 153.594,197.564 154.5,200.5C 153.5,200.5 152.5,200.5 151.5,200.5C 151.5,199.167 151.5,197.833 151.5,196.5C 148.833,196.5 146.167,196.5 143.5,196.5C 143.116,204.831 142.782,213.164 142.5,221.5C 137.541,222.434 132.541,223.267 127.5,224C 126.687,225.314 125.687,226.481 124.5,227.5C 115.167,231.5 105.833,231.5 96.5,227.5C 92.2179,221.856 86.8845,217.856 80.5,215.5C 80.5,214.5 80.5,213.5 80.5,212.5C 81.1667,212.5 81.8333,212.5 82.5,212.5C 84.0478,213.794 86.0478,214.461 88.5,214.5C 90.9522,214.461 92.9522,213.794 94.5,212.5C 95.1667,212.5 95.8333,212.5 96.5,212.5C 97.1667,212.5 97.8333,212.5 98.5,212.5C 103.706,214.106 108.873,215.772 114,217.5C 118.947,215.87 123.947,214.203 129,212.5C 130.365,212.844 131.532,213.511 132.5,214.5C 135.509,212.155 138.509,209.821 141.5,207.5C 142.893,205.326 142.56,203.493 140.5,202C 141,201.5 141.5,201 142,200.5C 142.427,196.324 142.927,192.158 143.5,188C 143.55,185.131 144.883,183.297 147.5,182.5 Z"/></g>
<g><path style="opacity:1" fill="#c29d9b" d="M 147.5,182.5 C 148.5,182.5 149.5,182.5 150.5,182.5C 150.29,185.752 150.956,188.752 152.5,191.5C 151.5,191.5 150.5,191.5 149.5,191.5C 149.072,188.436 148.406,185.436 147.5,182.5 Z"/></g>
<g><path style="opacity:1" fill="#bc9391" d="M 180.5,184.5 C 182.256,185.552 182.923,187.219 182.5,189.5C 181.069,188.22 180.402,186.553 180.5,184.5 Z"/></g>
<g><path style="opacity:1" fill="#d1b8b8" d="M 108.5,193.5 C 107.833,196.833 107.167,200.167 106.5,203.5C 105.5,203.5 104.5,203.5 103.5,203.5C 104.752,199.941 106.418,196.608 108.5,193.5 Z"/></g>
<g><path style="opacity:1" fill="#ad7877" d="M 73.5,196.5 C 74.1667,196.5 74.8333,196.5 75.5,196.5C 75.5,200.167 75.5,203.833 75.5,207.5C 73.5864,204.316 72.9197,200.649 73.5,196.5 Z"/></g>
<g><path style="opacity:1" fill="#c8a6a4" d="M 184.5,198.5 C 185.5,198.5 186.5,198.5 187.5,198.5C 187.192,200.924 187.526,203.257 188.5,205.5C 190.321,206.728 191.321,208.394 191.5,210.5C 190.5,210.5 189.5,210.5 188.5,210.5C 187.336,206.422 186.002,202.422 184.5,198.5 Z"/></g>
<g><path style="opacity:1" fill="#c6a6a5" d="M 101.5,207.5 C 101.5,208.5 101.5,209.5 101.5,210.5C 99.8212,210.285 98.8212,210.952 98.5,212.5C 97.8333,212.5 97.1667,212.5 96.5,212.5C 96.8333,209.5 98.5,207.833 101.5,207.5 Z"/></g>
<g><path style="opacity:1" fill="#ccadad" d="M 82.5,212.5 C 86.5,212.5 90.5,212.5 94.5,212.5C 92.9522,213.794 90.9522,214.461 88.5,214.5C 86.0478,214.461 84.0478,213.794 82.5,212.5 Z"/></g>
<g><path style="opacity:1" fill="#8e433f" d="M 196.5,212.5 C 205.167,212.5 213.833,212.5 222.5,212.5C 226.833,212.5 231.167,212.5 235.5,212.5C 250.167,212.5 264.833,212.5 279.5,212.5C 279.5,213.167 279.5,213.833 279.5,214.5C 251.48,215.158 223.813,214.492 196.5,212.5 Z"/></g>
<g><path style="opacity:1" fill="#7a0700" d="M 279.5,270.5 C 279.5,273.5 279.5,276.5 279.5,279.5C 235.5,279.5 191.5,279.5 147.5,279.5C 147.333,268.495 147.5,257.495 148,246.5C 148.973,244.608 149.64,242.608 150,240.5C 153.457,238.768 156.291,239.434 158.5,242.5C 159.167,241.833 159.833,241.167 160.5,240.5C 160.66,245.596 162.994,249.263 167.5,251.5C 168.452,253.045 168.785,254.712 168.5,256.5C 170.924,256.192 173.257,256.526 175.5,257.5C 179.578,262.249 184.245,266.249 189.5,269.5C 192.369,270.078 195.035,271.078 197.5,272.5C 198.468,271.511 199.635,270.844 201,270.5C 205.667,271.833 210.333,273.167 215,274.5C 216.797,273.734 218.631,273.068 220.5,272.5C 223.424,273.488 226.424,274.154 229.5,274.5C 246.009,271.26 262.676,269.926 279.5,270.5 Z"/></g>
<g><path style="opacity:1" fill="#c39896" d="M 170.5,237.5 C 173.887,238.018 177.221,238.851 180.5,240C 181.756,240.417 182.423,241.25 182.5,242.5C 177.967,241.894 173.967,240.227 170.5,237.5 Z"/></g>
<g><path style="opacity:1" fill="#8c4440" d="M 189.5,242.5 C 219.5,242.5 249.5,242.5 279.5,242.5C 279.5,243.167 279.5,243.833 279.5,244.5C 249.148,245.159 219.148,244.492 189.5,242.5 Z"/></g>
<g><path style="opacity:1" fill="#690802" d="M 186.5,242.5 C 187.5,242.5 188.5,242.5 189.5,242.5C 219.148,244.492 249.148,245.159 279.5,244.5C 279.5,245.5 279.5,246.5 279.5,247.5C 267.097,248.257 254.764,249.59 242.5,251.5C 242.5,252.5 242.5,253.5 242.5,254.5C 233.571,255.435 224.738,256.768 216,258.5C 206.706,256.145 197.873,252.812 189.5,248.5C 187.022,247.278 186.022,245.278 186.5,242.5 Z"/></g>
<g><path style="opacity:1" fill="#730600" d="M 279.5,261.5 C 279.5,264.5 279.5,267.5 279.5,270.5C 262.676,269.926 246.009,271.26 229.5,274.5C 226.424,274.154 223.424,273.488 220.5,272.5C 218.631,273.068 216.797,273.734 215,274.5C 210.333,273.167 205.667,271.833 201,270.5C 199.635,270.844 198.468,271.511 197.5,272.5C 195.035,271.078 192.369,270.078 189.5,269.5C 184.245,266.249 179.578,262.249 175.5,257.5C 173.257,256.526 170.924,256.192 168.5,256.5C 168.785,254.712 168.452,253.045 167.5,251.5C 162.994,249.263 160.66,245.596 160.5,240.5C 159.833,241.167 159.167,241.833 158.5,242.5C 156.291,239.434 153.457,238.768 150,240.5C 149.64,242.608 148.973,244.608 148,246.5C 147.5,257.495 147.333,268.495 147.5,279.5C 133.833,279.5 120.167,279.5 106.5,279.5C 112.074,277.547 118.074,276.88 124.5,277.5C 124.5,274.5 124.5,271.5 124.5,268.5C 129.214,268.173 133.88,268.507 138.5,269.5C 140.332,270.248 141.999,271.248 143.5,272.5C 144.312,268.857 144.979,265.191 145.5,261.5C 145.272,259.603 144.272,258.27 142.5,257.5C 144.227,249.862 145.893,242.195 147.5,234.5C 146.689,233.784 146.022,232.95 145.5,232C 147.227,228.724 147.894,225.224 147.5,221.5C 149.124,221.64 150.29,220.973 151,219.5C 153.238,221.199 155.738,222.532 158.5,223.5C 159.374,225.747 159.708,228.08 159.5,230.5C 160.833,230.5 162.167,230.5 163.5,230.5C 163.5,231.5 163.5,232.5 163.5,233.5C 164.5,233.5 165.5,233.5 166.5,233.5C 167.406,236.436 168.072,239.436 168.5,242.5C 169.978,242.238 171.311,242.571 172.5,243.5C 174.591,247.426 177.258,250.926 180.5,254C 187.026,255.707 192.693,258.873 197.5,263.5C 198.468,262.511 199.635,261.844 201,261.5C 209.224,264.423 217.724,265.756 226.5,265.5C 244.225,264.563 261.891,263.23 279.5,261.5 Z"/></g>
</svg>
