<?xml version="1.0" encoding="UTF-8"?>
<!DOCTYPE svg PUBLIC "-//W3C//DTD SVG 1.1//EN" "http://www.w3.org/Graphics/SVG/1.1/DTD/svg11.dtd">
<svg xmlns="http://www.w3.org/2000/svg" version="1.1" width="256px" height="146px" style="shape-rendering:geometricPrecision; text-rendering:geometricPrecision; image-rendering:optimizeQuality; fill-rule:evenodd; clip-rule:evenodd" xmlns:xlink="http://www.w3.org/1999/xlink">
<g><path style="opacity:0.973" fill="#0563a7" d="M 174.5,-0.5 C 184.833,-0.5 195.167,-0.5 205.5,-0.5C 231.292,5.38229 241.125,21.3823 235,47.5C 229.665,65.1642 217.832,75.3309 199.5,78C 184.107,79.7346 169.107,78.068 154.5,73C 142.521,68.0129 130.688,62.8462 119,57.5C 114.667,61.8333 110.333,66.1667 106,70.5C 105.333,71.5 105.333,72.5 106,73.5C 120.422,81.153 135.255,87.9863 150.5,94C 168.826,99.6071 187.493,101.274 206.5,99C 217.831,97.0865 227.331,91.9199 235,83.5C 238.437,78.9406 241.604,74.2739 244.5,69.5C 244.483,71.5648 244.15,73.5648 243.5,75.5C 240.894,81.391 238.227,87.391 235.5,93.5C 232.503,98.1585 229.503,102.825 226.5,107.5C 223.195,111.141 219.862,114.808 216.5,118.5C 213.418,120.372 210.751,122.705 208.5,125.5C 202.073,129.38 195.407,132.713 188.5,135.5C 179.934,137.199 171.267,137.865 162.5,137.5C 160.139,137.326 157.806,136.993 155.5,136.5C 150.083,134.293 144.749,131.793 139.5,129C 122.572,117.876 105.572,107.043 88.5,96.5C 81.3491,108.708 71.6825,118.208 59.5,125C 38.4553,133.029 20.2887,128.863 5,112.5C 3.30345,109.328 1.47011,106.328 -0.5,103.5C -0.5,97.1667 -0.5,90.8333 -0.5,84.5C 0.41884,81.6733 2.08551,79.34 4.5,77.5C 4.5,77.8333 4.5,78.1667 4.5,78.5C 4.5,80.1667 4.5,81.8333 4.5,83.5C 4.1588,87.1595 4.82547,90.4928 6.5,93.5C 6.99249,95.8185 7.99249,97.8185 9.5,99.5C 15.1822,107.943 23.1822,111.276 33.5,109.5C 35.5,108.833 37.5,108.167 39.5,107.5C 41.9726,107.912 43.3059,106.912 43.5,104.5C 45.5273,104.662 47.5273,104.495 49.5,104C 57.0467,99.4622 64.0467,94.1289 70.5,88C 61.2904,82.5318 51.2904,80.1985 40.5,81C 37.7982,82.0121 35.4649,83.5121 33.5,85.5C 26.2739,81.2202 18.6073,77.3869 10.5,74C 9.07153,73.4209 7.7382,73.5876 6.5,74.5C 6.36899,73.7611 6.53566,73.0944 7,72.5C 27.6043,53.4502 51.1043,49.2835 77.5,60C 82.2769,62.7228 87.2769,64.8895 92.5,66.5C 97.54,62.461 101.873,57.7944 105.5,52.5C 93.6925,47.19 81.3591,43.3567 68.5,41C 43.7057,37.2719 21.7057,43.2719 2.5,59C 1.55198,59.4828 0.551975,59.6495 -0.5,59.5C -0.5,58.8333 -0.5,58.1667 -0.5,57.5C 15.1739,39.4389 35.1739,29.2723 59.5,27C 80.583,24.9171 101.083,27.4171 121,34.5C 126.488,30.3457 131.321,25.5124 135.5,20C 147.021,10.3031 160.021,3.46978 174.5,-0.5 Z M 196.5,20.5 C 201.139,23.1391 204.806,26.8058 207.5,31.5C 207.833,32.8333 208.167,34.1667 208.5,35.5C 208.122,37.921 207.455,40.2543 206.5,42.5C 199.914,49.5406 191.747,53.2073 182,53.5C 166.564,52.625 152.397,48.125 139.5,40C 152.677,28.2449 168.011,21.0783 185.5,18.5C 189.319,18.455 192.986,19.1217 196.5,20.5 Z M 43.5,104.5 C 39.0088,105.115 35.0088,104.115 31.5,101.5C 30.701,98.5701 30.3677,95.5701 30.5,92.5C 31.2271,90.0462 32.2271,87.7128 33.5,85.5C 35.4649,83.5121 37.7982,82.0121 40.5,81C 51.2904,80.1985 61.2904,82.5318 70.5,88C 64.0467,94.1289 57.0467,99.4622 49.5,104C 47.5273,104.495 45.5273,104.662 43.5,104.5 Z"/></g>
<g><path style="opacity:1" fill="#035082" d="M 196.5,20.5 C 207.979,21.4091 217.645,26.4091 225.5,35.5C 225.631,36.2389 225.464,36.9056 225,37.5C 219.143,35.4152 213.31,33.4152 207.5,31.5C 204.806,26.8058 201.139,23.1391 196.5,20.5 Z"/></g>
<g><path style="opacity:0.992" fill="#04578f" d="M 207.5,31.5 C 213.31,33.4152 219.143,35.4152 225,37.5C 225.464,36.9056 225.631,36.2389 225.5,35.5C 227.771,37.6123 229.104,40.279 229.5,43.5C 222.833,41.8333 216.167,40.1667 209.5,38.5C 209.737,37.209 209.404,36.209 208.5,35.5C 208.167,34.1667 207.833,32.8333 207.5,31.5 Z"/></g>
<g><path style="opacity:0.982" fill="#055e9d" d="M 208.5,35.5 C 209.404,36.209 209.737,37.209 209.5,38.5C 216.167,40.1667 222.833,41.8333 229.5,43.5C 230.537,45.7375 230.703,48.0709 230,50.5C 222.118,47.9282 214.284,45.2616 206.5,42.5C 207.455,40.2543 208.122,37.921 208.5,35.5 Z"/></g>
<g><path style="opacity:0.995" fill="#045993" d="M 255.5,80.5 C 255.5,88.1667 255.5,95.8333 255.5,103.5C 253.528,107.444 251.528,111.444 249.5,115.5C 247.138,119.522 244.138,122.856 240.5,125.5C 241.44,123.388 242.606,121.388 244,119.5C 244.828,104.661 244.661,89.9942 243.5,75.5C 244.15,73.5648 244.483,71.5648 244.5,69.5C 244.222,67.6536 244.889,66.3202 246.5,65.5C 249.777,70.3977 252.777,75.3977 255.5,80.5 Z"/></g>
<g><path style="opacity:0.997" fill="#04568d" d="M 243.5,75.5 C 244.661,89.9942 244.828,104.661 244,119.5C 242.606,121.388 241.44,123.388 240.5,125.5C 238.882,127.785 236.882,129.785 234.5,131.5C 234.709,130.078 235.209,128.745 236,127.5C 236.826,115.992 236.659,104.659 235.5,93.5C 238.227,87.391 240.894,81.391 243.5,75.5 Z"/></g>
<g><path style="opacity:0.978" fill="#055d9b" d="M 33.5,85.5 C 32.2271,87.7128 31.2271,90.0462 30.5,92.5C 29.7656,91.1225 29.0989,89.6225 28.5,88C 20.5832,84.5297 12.5832,81.3631 4.5,78.5C 4.5,78.1667 4.5,77.8333 4.5,77.5C 4.28519,75.8212 4.95186,74.8212 6.5,74.5C 7.7382,73.5876 9.07153,73.4209 10.5,74C 18.6073,77.3869 26.2739,81.2202 33.5,85.5 Z"/></g>
<g><path style="opacity:1" fill="#04568e" d="M 4.5,78.5 C 12.5832,81.3631 20.5832,84.5297 28.5,88C 29.0989,89.6225 29.7656,91.1225 30.5,92.5C 30.3677,95.5701 30.701,98.5701 31.5,101.5C 29.2518,99.1838 27.9184,96.3505 27.5,93C 19.8076,89.8181 12.1409,86.6514 4.5,83.5C 4.5,81.8333 4.5,80.1667 4.5,78.5 Z"/></g>
<g><path style="opacity:1" fill="#044f80" d="M 4.5,83.5 C 12.1409,86.6514 19.8076,89.8181 27.5,93C 27.9184,96.3505 29.2518,99.1838 31.5,101.5C 35.0088,104.115 39.0088,105.115 43.5,104.5C 43.3059,106.912 41.9726,107.912 39.5,107.5C 28.7833,102.655 17.7833,97.9883 6.5,93.5C 4.82547,90.4928 4.1588,87.1595 4.5,83.5 Z"/></g>
<g><path style="opacity:1" fill="#034974" d="M 6.5,93.5 C 17.7833,97.9883 28.7833,102.655 39.5,107.5C 37.5,108.167 35.5,108.833 33.5,109.5C 34.5981,108.603 34.5981,107.77 33.5,107C 25.6048,104.386 17.9382,101.219 10.5,97.5C 9.70245,97.9569 9.36912,98.6236 9.5,99.5C 7.99249,97.8185 6.99249,95.8185 6.5,93.5 Z"/></g>
<g><path style="opacity:0.998" fill="#045387" d="M 235.5,93.5 C 236.659,104.659 236.826,115.992 236,127.5C 235.209,128.745 234.709,130.078 234.5,131.5C 232.345,133.989 229.678,135.656 226.5,136.5C 227.793,126.705 227.793,117.038 226.5,107.5C 229.503,102.825 232.503,98.1585 235.5,93.5 Z"/></g>
<g><path style="opacity:1" fill="#03456d" d="M 33.5,109.5 C 23.1822,111.276 15.1822,107.943 9.5,99.5C 9.36912,98.6236 9.70245,97.9569 10.5,97.5C 17.9382,101.219 25.6048,104.386 33.5,107C 34.5981,107.77 34.5981,108.603 33.5,109.5 Z"/></g>
<g><path style="opacity:0.996" fill="#044f80" d="M 226.5,107.5 C 227.793,117.038 227.793,126.705 226.5,136.5C 223.626,138.935 220.293,140.269 216.5,140.5C 216.783,139.711 217.283,139.044 218,138.5C 218.167,135.167 218.333,131.833 218.5,128.5C 218.486,124.761 217.82,121.428 216.5,118.5C 219.862,114.808 223.195,111.141 226.5,107.5 Z"/></g>
<g><path style="opacity:0.996" fill="#034c7a" d="M 216.5,118.5 C 217.82,121.428 218.486,124.761 218.5,128.5C 218.333,131.833 218.167,135.167 218,138.5C 217.283,139.044 216.783,139.711 216.5,140.5C 213.203,142.601 209.537,143.935 205.5,144.5C 206.936,142.917 208.602,141.417 210.5,140C 209.36,135.904 209.36,131.738 210.5,127.5C 210.145,126.478 209.478,125.811 208.5,125.5C 210.751,122.705 213.418,120.372 216.5,118.5 Z"/></g>
<g><path style="opacity:0.991" fill="#034771" d="M 208.5,125.5 C 209.478,125.811 210.145,126.478 210.5,127.5C 209.36,131.738 209.36,135.904 210.5,140C 208.602,141.417 206.936,142.917 205.5,144.5C 204.833,144.5 204.5,144.833 204.5,145.5C 198.167,145.5 191.833,145.5 185.5,145.5C 187.948,144.527 190.615,144.194 193.5,144.5C 193.297,142.61 193.963,141.11 195.5,140C 193.996,138.509 193.163,136.676 193,134.5C 191.644,135.38 190.144,135.714 188.5,135.5C 195.407,132.713 202.073,129.38 208.5,125.5 Z"/></g>
<g><path style="opacity:0.982" fill="#03446b" d="M 185.5,145.5 C 183.167,145.5 180.833,145.5 178.5,145.5C 179.552,143.744 181.219,143.077 183.5,143.5C 183.799,141.396 183.466,139.396 182.5,137.5C 175.705,138.812 169.038,138.812 162.5,137.5C 171.267,137.865 179.934,137.199 188.5,135.5C 190.144,135.714 191.644,135.38 193,134.5C 193.163,136.676 193.996,138.509 195.5,140C 193.963,141.11 193.297,142.61 193.5,144.5C 190.615,144.194 187.948,144.527 185.5,145.5 Z"/></g>
<g><path style="opacity:0.969" fill="#023e5f" d="M 155.5,136.5 C 157.806,136.993 160.139,137.326 162.5,137.5C 169.038,138.812 175.705,138.812 182.5,137.5C 183.466,139.396 183.799,141.396 183.5,143.5C 181.219,143.077 179.552,143.744 178.5,145.5C 178.167,145.5 177.833,145.5 177.5,145.5C 172.04,143.403 166.373,141.57 160.5,140C 158.767,138.811 157.1,137.644 155.5,136.5 Z"/></g>
</svg>
