<?xml version="1.0" encoding="UTF-8"?>
<!DOCTYPE svg PUBLIC "-//W3C//DTD SVG 1.1//EN" "http://www.w3.org/Graphics/SVG/1.1/DTD/svg11.dtd">
<svg xmlns="http://www.w3.org/2000/svg" version="1.1" width="248px" height="203px" style="shape-rendering:geometricPrecision; text-rendering:geometricPrecision; image-rendering:optimizeQuality; fill-rule:evenodd; clip-rule:evenodd" xmlns:xlink="http://www.w3.org/1999/xlink">
<g><path style="opacity:1" fill="#fcfcfc" d="M -0.5,-0.5 C 82.1667,-0.5 164.833,-0.5 247.5,-0.5C 247.5,32.8333 247.5,66.1667 247.5,99.5C 245.645,87.7822 241.145,77.1155 234,67.5C 232.316,65.6487 230.483,63.982 228.5,62.5C 226.451,65.5497 223.784,67.883 220.5,69.5C 219.369,71.0745 219.202,72.7412 220,74.5C 230.986,86.7665 234.986,101.1 232,117.5C 229.155,133.518 219.988,144.184 204.5,149.5C 203.506,154.456 203.173,159.456 203.5,164.5C 229.697,157.311 244.364,140.311 247.5,113.5C 247.5,143.167 247.5,172.833 247.5,202.5C 210.833,202.5 174.167,202.5 137.5,202.5C 137.5,195.5 137.5,188.5 137.5,181.5C 145.515,182.292 153.181,181.125 160.5,178C 166.475,171.492 167.975,163.992 165,155.5C 162.445,151.133 158.612,148.633 153.5,148C 142.505,147.5 131.505,147.333 120.5,147.5C 120.5,165.5 120.5,183.5 120.5,201.5C 120.5,201.833 120.5,202.167 120.5,202.5C 119.167,202.5 117.833,202.5 116.5,202.5C 116.672,201.508 116.338,200.842 115.5,200.5C 108.91,183.234 102.41,165.901 96,148.5C 89.5898,147.522 83.0898,147.189 76.5,147.5C 70.3673,165.231 64.034,182.898 57.5,200.5C 56.6618,200.842 56.3284,201.508 56.5,202.5C 37.5,202.5 18.5,202.5 -0.5,202.5C -0.5,175.5 -0.5,148.5 -0.5,121.5C 3.9402,145.94 18.2735,160.94 42.5,166.5C 42.5,161.5 42.5,156.5 42.5,151.5C 28.1904,147.356 19.0237,138.023 15,123.5C 11.703,101.592 20.5363,87.0918 41.5,80C 46.3751,78.3638 51.3751,77.5305 56.5,77.5C 60.6578,46.8407 77.9911,28.6741 108.5,23C 113.202,22.8283 117.868,22.3283 122.5,21.5C 124.219,18.7805 126.553,16.7805 129.5,15.5C 130.23,13.6587 130.897,11.8254 131.5,10C 92.3194,4.17142 64.1527,19.0048 47,54.5C 45.6476,57.7201 44.8143,61.0534 44.5,64.5C 19.043,69.2901 4.04303,84.2901 -0.5,109.5C -0.5,72.8333 -0.5,36.1667 -0.5,-0.5 Z"/></g>
<g><path style="opacity:1" fill="#030303" d="M 174.5,0.5 C 178.897,0.424556 183.23,0.924556 187.5,2C 188.894,2.95603 189.561,4.28937 189.5,6C 188.481,8.54863 188.481,11.0486 189.5,13.5C 191.918,14.4572 194.084,15.7905 196,17.5C 198.167,16 200.333,14.5 202.5,13C 203.5,12.3333 204.5,12.3333 205.5,13C 210.029,16.4836 212.196,20.9836 212,26.5C 209.691,27.9752 207.524,29.6419 205.5,31.5C 206.897,33.9818 207.731,36.6484 208,39.5C 210.405,40.2744 212.905,40.7744 215.5,41C 216.894,41.956 217.561,43.2894 217.5,45C 216.971,48.541 216.304,52.041 215.5,55.5C 211.878,56.3253 208.211,56.8253 204.5,57C 199.793,60.8159 199.626,64.6492 204,68.5C 204.667,70.1667 204.667,71.8333 204,73.5C 200.933,76.2375 197.599,78.5708 194,80.5C 191.032,78.3691 188.199,76.0358 185.5,73.5C 183.181,74.0639 180.847,74.5639 178.5,75C 177.5,78 176.5,81 175.5,84C 171.5,84.6667 167.5,84.6667 163.5,84C 162.333,83.5 161.5,82.6667 161,81.5C 160.785,78.1965 160.618,75.0299 160.5,72C 158.246,70.6233 156.08,69.1233 154,67.5C 151.589,69.578 148.922,71.2447 146,72.5C 142.679,70.5125 140.012,67.8458 138,64.5C 137.333,62.5 137.333,60.5 138,58.5C 143.486,55.6622 144.986,51.3288 142.5,45.5C 139.834,45.067 137.168,44.567 134.5,44C 132.091,39.3093 132.091,34.476 134.5,29.5C 138.122,28.6747 141.789,28.1747 145.5,28C 146.542,26.082 147.708,24.2487 149,22.5C 148.602,20.3687 147.602,18.3687 146,16.5C 145.333,14.8333 145.333,13.1667 146,11.5C 149.067,8.76255 152.401,6.42921 156,4.5C 158.972,6.47083 161.638,8.80417 164,11.5C 166.464,10.8392 168.964,10.3392 171.5,10C 171.998,6.61959 172.998,3.45292 174.5,0.5 Z"/></g>
<g><path style="opacity:1" fill="#040404" d="M -0.5,121.5 C -0.5,117.5 -0.5,113.5 -0.5,109.5C 4.04303,84.2901 19.043,69.2901 44.5,64.5C 44.8143,61.0534 45.6476,57.7201 47,54.5C 64.1527,19.0048 92.3194,4.17142 131.5,10C 130.897,11.8254 130.23,13.6587 129.5,15.5C 126.553,16.7805 124.219,18.7805 122.5,21.5C 117.868,22.3283 113.202,22.8283 108.5,23C 77.9911,28.6741 60.6578,46.8407 56.5,77.5C 51.3751,77.5305 46.3751,78.3638 41.5,80C 20.5363,87.0918 11.703,101.592 15,123.5C 19.0237,138.023 28.1904,147.356 42.5,151.5C 42.5,156.5 42.5,161.5 42.5,166.5C 18.2735,160.94 3.9402,145.94 -0.5,121.5 Z"/></g>
<g><path style="opacity:1" fill="#fafafa" d="M 170.5,25.5 C 189.068,25.9638 195.234,34.9638 189,52.5C 179.635,61.7719 170.302,61.7719 161,52.5C 155.102,40.2978 158.269,31.2978 170.5,25.5 Z"/></g>
<g><path style="opacity:1" fill="#030303" d="M 247.5,99.5 C 247.5,104.167 247.5,108.833 247.5,113.5C 244.364,140.311 229.697,157.311 203.5,164.5C 203.173,159.456 203.506,154.456 204.5,149.5C 219.988,144.184 229.155,133.518 232,117.5C 234.986,101.1 230.986,86.7665 220,74.5C 219.202,72.7412 219.369,71.0745 220.5,69.5C 223.784,67.883 226.451,65.5497 228.5,62.5C 230.483,63.982 232.316,65.6487 234,67.5C 241.145,77.1155 245.645,87.7822 247.5,99.5 Z"/></g>
<g><path style="opacity:1" fill="#060606" d="M 125.5,126.5 C 127.988,124.612 130.988,123.945 134.5,124.5C 135.588,128.748 138.255,130.248 142.5,129C 144.602,127.267 144.935,125.267 143.5,123C 137.251,122.033 131.751,119.533 127,115.5C 125.212,105.951 129.212,101.284 139,101.5C 147.049,100.406 151.883,103.739 153.5,111.5C 150.102,111.82 146.768,111.487 143.5,110.5C 141.912,107.743 139.579,106.91 136.5,108C 134.987,110.454 135.654,112.121 138.5,113C 143.021,113.729 147.354,115.063 151.5,117C 155.611,122.573 155.278,127.906 150.5,133C 144.705,135.317 138.705,135.984 132.5,135C 128.857,133.195 126.524,130.362 125.5,126.5 Z"/></g>
<g><path style="opacity:1" fill="#070707" d="M 59.5,102.5 C 67.5069,102.334 75.5069,102.5 83.5,103C 89.5712,105.852 91.0712,110.352 88,116.5C 86.5804,118.422 84.7471,119.755 82.5,120.5C 86.4834,124.45 89.4834,129.117 91.5,134.5C 87.8333,135.833 84.1667,135.833 80.5,134.5C 78.4128,131.327 76.5795,127.994 75,124.5C 73.7365,122.393 71.9032,121.393 69.5,121.5C 69.5,126.167 69.5,130.833 69.5,135.5C 66.1667,135.5 62.8333,135.5 59.5,135.5C 59.5,124.5 59.5,113.5 59.5,102.5 Z"/></g>
<g><path style="opacity:1" fill="#ababab" d="M 121.5,102.5 C 112.5,102.5 103.5,102.5 94.5,102.5C 94.5,113.167 94.5,123.833 94.5,134.5C 94.5,134.833 94.5,135.167 94.5,135.5C 93.5052,124.346 93.1719,113.012 93.5,101.5C 103.015,101.173 112.348,101.506 121.5,102.5 Z"/></g>
<g><path style="opacity:1" fill="#020202" d="M 121.5,102.5 C 121.5,104.5 121.5,106.5 121.5,108.5C 115.833,108.5 110.167,108.5 104.5,108.5C 104.5,110.5 104.5,112.5 104.5,114.5C 109.833,114.5 115.167,114.5 120.5,114.5C 120.5,116.5 120.5,118.5 120.5,120.5C 115.167,120.5 109.833,120.5 104.5,120.5C 104.5,122.833 104.5,125.167 104.5,127.5C 110.167,127.5 115.833,127.5 121.5,127.5C 121.5,129.833 121.5,132.167 121.5,134.5C 112.5,134.5 103.5,134.5 94.5,134.5C 94.5,123.833 94.5,113.167 94.5,102.5C 103.5,102.5 112.5,102.5 121.5,102.5 Z"/></g>
<g><path style="opacity:1" fill="#000000" d="M 187.5,109.5 C 183.833,109.5 180.167,109.5 176.5,109.5C 176.5,117.833 176.5,126.167 176.5,134.5C 173.5,134.5 170.5,134.5 167.5,134.5C 167.826,126.316 167.492,118.316 166.5,110.5C 163.375,109.521 160.042,109.187 156.5,109.5C 156.5,107.167 156.5,104.833 156.5,102.5C 166.833,102.5 177.167,102.5 187.5,102.5C 187.5,104.833 187.5,107.167 187.5,109.5 Z"/></g>
<g><path style="opacity:1" fill="#eeeeee" d="M 69.5,108.5 C 72.1873,108.336 74.854,108.503 77.5,109C 80.1667,111 80.1667,113 77.5,115C 74.854,115.497 72.1873,115.664 69.5,115.5C 69.5,113.167 69.5,110.833 69.5,108.5 Z"/></g>
<g><path style="opacity:1" fill="#797979" d="M 187.5,109.5 C 184.375,110.479 181.042,110.813 177.5,110.5C 177.5,118.833 177.5,127.167 177.5,135.5C 173.833,135.5 170.167,135.5 166.5,135.5C 166.5,127.167 166.5,118.833 166.5,110.5C 167.492,118.316 167.826,126.316 167.5,134.5C 170.5,134.5 173.5,134.5 176.5,134.5C 176.5,126.167 176.5,117.833 176.5,109.5C 180.167,109.5 183.833,109.5 187.5,109.5 Z"/></g>
<g><path style="opacity:1" fill="#585858" d="M 134.5,124.5 C 130.988,123.945 127.988,124.612 125.5,126.5C 124.596,125.791 124.263,124.791 124.5,123.5C 128.042,123.187 131.375,123.521 134.5,124.5 Z"/></g>
<g><path style="opacity:1" fill="#7c7c7c" d="M 121.5,127.5 C 122.473,129.948 122.806,132.615 122.5,135.5C 113.167,135.5 103.833,135.5 94.5,135.5C 94.5,135.167 94.5,134.833 94.5,134.5C 103.5,134.5 112.5,134.5 121.5,134.5C 121.5,132.167 121.5,129.833 121.5,127.5 Z"/></g>
<g><path style="opacity:1" fill="#020202" d="M 115.5,200.5 C 110.025,201.489 104.358,201.822 98.5,201.5C 97.7979,198.56 96.7979,195.727 95.5,193C 89.1667,192.333 82.8333,192.333 76.5,193C 75.5759,195.865 74.5759,198.698 73.5,201.5C 67.9738,201.821 62.6405,201.488 57.5,200.5C 64.034,182.898 70.3673,165.231 76.5,147.5C 83.0898,147.189 89.5898,147.522 96,148.5C 102.41,165.901 108.91,183.234 115.5,200.5 Z"/></g>
<g><path style="opacity:1" fill="#010101" d="M 137.5,181.5 C 136.509,187.979 136.176,194.646 136.5,201.5C 131.167,201.5 125.833,201.5 120.5,201.5C 120.5,183.5 120.5,165.5 120.5,147.5C 131.505,147.333 142.505,147.5 153.5,148C 158.612,148.633 162.445,151.133 165,155.5C 167.975,163.992 166.475,171.492 160.5,178C 153.181,181.125 145.515,182.292 137.5,181.5 Z"/></g>
<g><path style="opacity:1" fill="#030303" d="M 173.5,147.5 C 179.167,147.5 184.833,147.5 190.5,147.5C 190.5,165.5 190.5,183.5 190.5,201.5C 184.833,201.5 179.167,201.5 173.5,201.5C 173.5,183.5 173.5,165.5 173.5,147.5 Z"/></g>
<g><path style="opacity:1" fill="#f0f0f0" d="M 136.5,158.5 C 140.911,158.021 145.078,158.688 149,160.5C 151.364,164.546 150.53,167.713 146.5,170C 143.183,170.498 139.85,170.665 136.5,170.5C 136.5,166.5 136.5,162.5 136.5,158.5 Z"/></g>
<g><path style="opacity:1" fill="#eaeaea" d="M 85.5,161.5 C 87.9973,167.647 90.3306,173.98 92.5,180.5C 88.5546,181.491 84.5546,181.824 80.5,181.5C 81.757,174.729 83.4237,168.063 85.5,161.5 Z"/></g>
<g><path style="opacity:1" fill="#f1f1f1" d="M 98.5,201.5 C 98.5,201.833 98.5,202.167 98.5,202.5C 90.1667,202.5 81.8333,202.5 73.5,202.5C 73.5,202.167 73.5,201.833 73.5,201.5C 74.5759,198.698 75.5759,195.865 76.5,193C 82.8333,192.333 89.1667,192.333 95.5,193C 96.7979,195.727 97.7979,198.56 98.5,201.5 Z"/></g>
<g><path style="opacity:1" fill="#959595" d="M 57.5,200.5 C 62.6405,201.488 67.9738,201.821 73.5,201.5C 73.5,201.833 73.5,202.167 73.5,202.5C 67.8333,202.5 62.1667,202.5 56.5,202.5C 56.3284,201.508 56.6618,200.842 57.5,200.5 Z"/></g>
<g><path style="opacity:1" fill="#9c9c9c" d="M 115.5,200.5 C 116.338,200.842 116.672,201.508 116.5,202.5C 110.5,202.5 104.5,202.5 98.5,202.5C 98.5,202.167 98.5,201.833 98.5,201.5C 104.358,201.822 110.025,201.489 115.5,200.5 Z"/></g>
<g><path style="opacity:1" fill="#8d8d8d" d="M 137.5,181.5 C 137.5,188.5 137.5,195.5 137.5,202.5C 131.833,202.5 126.167,202.5 120.5,202.5C 120.5,202.167 120.5,201.833 120.5,201.5C 125.833,201.5 131.167,201.5 136.5,201.5C 136.176,194.646 136.509,187.979 137.5,181.5 Z"/></g>
</svg>
