<?xml version="1.0" encoding="UTF-8"?>
<!DOCTYPE svg PUBLIC "-//W3C//DTD SVG 1.1//EN" "http://www.w3.org/Graphics/SVG/1.1/DTD/svg11.dtd">
<svg xmlns="http://www.w3.org/2000/svg" version="1.1" width="512px" height="512px" style="shape-rendering:geometricPrecision; text-rendering:geometricPrecision; image-rendering:optimizeQuality; fill-rule:evenodd; clip-rule:evenodd" xmlns:xlink="http://www.w3.org/1999/xlink">
<g><path style="opacity:0.871" fill="#e1e1e1" d="M 305.5,97.5 C 298.263,97.2228 291.263,96.2228 284.5,94.5C 289.214,94.8266 293.88,94.4933 298.5,93.5C 296.192,90.0252 293.692,86.6919 291,83.5C 286.307,86.9293 281.141,89.4293 275.5,91C 276.571,91.8518 277.571,92.6851 278.5,93.5C 276.05,93.702 273.717,93.3686 271.5,92.5C 271.167,91.1667 270.833,89.8333 270.5,88.5C 275.899,85.9651 281.232,83.1317 286.5,80C 282.688,79.2045 279.021,78.3712 275.5,77.5C 274.85,75.5648 274.517,73.5648 274.5,71.5C 278.182,71.6653 281.848,71.4986 285.5,71C 282.36,65.7587 279.694,60.2587 277.5,54.5C 275.271,55.5771 272.937,56.2437 270.5,56.5C 269.313,54.9275 268.313,53.2608 267.5,51.5C 271.877,48.9822 276.544,46.9822 281.5,45.5C 286.81,64.1169 294.81,81.4502 305.5,97.5 Z"/></g>
<g><path style="opacity:0.834" fill="#c4c5c6" d="M 267.5,51.5 C 268.313,53.2608 269.313,54.9275 270.5,56.5C 265.023,59.4032 259.357,62.0698 253.5,64.5C 253.598,62.4471 252.931,60.7804 251.5,59.5C 256.516,56.3255 261.849,53.6588 267.5,51.5 Z"/></g>
<g><path style="opacity:0.954" fill="#c9c9ca" d="M 251.5,67.5 C 259.065,69.372 266.732,70.7053 274.5,71.5C 274.517,73.5648 274.85,75.5648 275.5,77.5C 267.28,76.7774 259.28,75.1107 251.5,72.5C 251.5,70.8333 251.5,69.1667 251.5,67.5 Z"/></g>
<g><path style="opacity:0.901" fill="#b1afb0" d="M 251.5,59.5 C 252.931,60.7804 253.598,62.4471 253.5,64.5C 252.571,65.3149 251.571,66.1482 250.5,67C 250.728,67.3988 251.062,67.5654 251.5,67.5C 251.5,69.1667 251.5,70.8333 251.5,72.5C 249.774,72.1854 248.107,72.0187 246.5,72C 252.478,79.1521 259.478,84.9854 267.5,89.5C 268.417,88.8728 269.417,88.5394 270.5,88.5C 270.833,89.8333 271.167,91.1667 271.5,92.5C 261.243,91.1371 251.243,89.1371 241.5,86.5C 244.522,86.196 247.522,85.696 250.5,85C 246.377,82.2541 243.043,78.7541 240.5,74.5C 239.675,73.6143 238.675,73.281 237.5,73.5C 236.692,71.7798 235.692,70.1131 234.5,68.5C 239.933,65.0685 245.6,62.0685 251.5,59.5 Z"/></g>
<g><path style="opacity:0.965" fill="#959394" d="M 234.5,68.5 C 235.692,70.1131 236.692,71.7798 237.5,73.5C 235.001,76.1686 232.668,79.0019 230.5,82C 234.27,82.7217 237.603,84.2217 240.5,86.5C 233.349,85.4697 226.349,83.8031 219.5,81.5C 217.621,81.6068 217.288,81.1068 218.5,80C 223.712,75.948 229.045,72.1146 234.5,68.5 Z"/></g>
<g><path style="opacity:0.897" fill="#cb4539" d="M 219.5,81.5 C 226.349,83.8031 233.349,85.4697 240.5,86.5C 240.833,86.5 241.167,86.5 241.5,86.5C 251.243,89.1371 261.243,91.1371 271.5,92.5C 273.717,93.3686 276.05,93.702 278.5,93.5C 280.621,93.3253 282.621,93.6586 284.5,94.5C 291.263,96.2228 298.263,97.2228 305.5,97.5C 333.832,100.916 361.165,108.083 387.5,119C 405.56,127.382 421.06,139.215 434,154.5C 436.571,156.976 438.071,159.976 438.5,163.5C 423.65,164.753 408.984,167.086 394.5,170.5C 394.971,168.421 395.637,166.421 396.5,164.5C 407.51,162.713 418.51,160.88 429.5,159C 420.116,147.612 408.95,138.445 396,131.5C 392.174,136.474 388.341,141.474 384.5,146.5C 383.691,144.972 383.024,143.306 382.5,141.5C 385.034,137.608 387.7,133.775 390.5,130C 390,129.833 389.5,129.667 389,129.5C 380.178,132.275 371.345,134.941 362.5,137.5C 360.554,136.965 359.554,135.632 359.5,133.5C 367.617,130.067 375.951,126.901 384.5,124C 371.442,118.925 358.108,114.758 344.5,111.5C 343.076,114.721 342.076,118.055 341.5,121.5C 340.292,120.766 338.959,120.433 337.5,120.5C 338.027,117.091 338.527,113.758 339,110.5C 335.192,112.653 331.358,114.653 327.5,116.5C 324.966,116.741 323.3,115.741 322.5,113.5C 325.967,111.933 329.3,110.099 332.5,108C 320.711,104.757 308.711,102.924 296.5,102.5C 296.799,106.928 297.465,111.261 298.5,115.5C 296.833,115.5 295.167,115.5 293.5,115.5C 292.834,111.647 292.167,107.647 291.5,103.5C 283.148,107.508 276.148,113.174 270.5,120.5C 266.833,122.5 263.167,124.5 259.5,126.5C 257.039,119.578 253.539,113.244 249,107.5C 240.16,97.4797 230.326,88.813 219.5,81.5 Z M 257.5,96.5 C 266.95,95.6843 276.284,97.0176 285.5,100.5C 277.614,105.215 270.448,110.881 264,117.5C 262.298,110.235 260.131,103.235 257.5,96.5 Z M 238.5,91.5 C 242.173,90.4801 245.84,90.9801 249.5,93C 252.543,97.4736 254.376,102.307 255,107.5C 250.272,101.27 244.772,95.937 238.5,91.5 Z"/></g>
<g><path style="opacity:0.9" fill="#d54c3e" d="M 293.5,115.5 C 295.167,115.5 296.833,115.5 298.5,115.5C 298.624,120.049 299.291,124.382 300.5,128.5C 295.822,130.522 291.822,132.855 288.5,135.5C 281.589,133.731 274.755,131.731 268,129.5C 267.999,137.491 268.332,145.491 269,153.5C 271.037,151.294 273.203,149.294 275.5,147.5C 276.497,147.47 277.164,147.97 277.5,149C 276.34,150.997 276.34,152.831 277.5,154.5C 275.038,157.464 272.371,160.297 269.5,163C 273.464,164.649 277.131,166.816 280.5,169.5C 281.425,168.643 282.092,167.643 282.5,166.5C 283.708,167.234 285.041,167.567 286.5,167.5C 285.697,168.423 285.53,169.423 286,170.5C 290.068,167.583 294.234,164.917 298.5,162.5C 300.05,163.441 301.716,164.107 303.5,164.5C 298.403,168.225 293.07,171.725 287.5,175C 286.426,175.739 285.759,176.739 285.5,178C 287.504,183.35 289.004,188.85 290,194.5C 294.364,188.646 298.864,182.979 303.5,177.5C 305.379,178.341 307.379,178.675 309.5,178.5C 306.046,183.126 302.379,187.626 298.5,192C 316.462,186.57 334.462,180.903 352.5,175C 349.629,172.297 346.962,169.464 344.5,166.5C 344.707,163.759 345.707,161.426 347.5,159.5C 351.906,163.417 355.406,168.083 358,173.5C 366.03,162.648 374.197,151.982 382.5,141.5C 383.024,143.306 383.691,144.972 384.5,146.5C 379.022,155.269 372.688,163.436 365.5,171C 375.817,169.036 386.15,166.869 396.5,164.5C 395.637,166.421 394.971,168.421 394.5,170.5C 373.582,174.896 352.915,180.229 332.5,186.5C 323.643,188.564 314.976,191.23 306.5,194.5C 301.084,196.305 295.751,198.305 290.5,200.5C 282.5,203.5 274.5,206.5 266.5,209.5C 264.421,209.029 262.421,208.363 260.5,207.5C 268.005,203.424 276.005,200.424 284.5,198.5C 284.837,191.678 283.337,185.345 280,179.5C 271.633,188.698 263.133,197.698 254.5,206.5C 254.229,204.57 253.229,203.236 251.5,202.5C 253.392,201.298 255.226,199.965 257,198.5C 257.82,196.272 257.487,194.272 256,192.5C 253.636,195.69 251.136,198.69 248.5,201.5C 247.306,200.728 246.306,199.728 245.5,198.5C 253.764,186.299 259.597,172.966 263,158.5C 264.471,147.462 263.305,136.795 259.5,126.5C 263.167,124.5 266.833,122.5 270.5,120.5C 277.744,123.531 285.244,126.198 293,128.5C 293.5,128.167 294,127.833 294.5,127.5C 293.567,123.571 293.234,119.571 293.5,115.5 Z M 291.5,141.5 C 288.785,149.931 285.785,158.264 282.5,166.5C 282.092,167.643 281.425,168.643 280.5,169.5C 277.131,166.816 273.464,164.649 269.5,163C 272.371,160.297 275.038,157.464 277.5,154.5C 282.167,150.167 286.833,145.833 291.5,141.5 Z M 344.5,166.5 C 346.962,169.464 349.629,172.297 352.5,175C 334.462,180.903 316.462,186.57 298.5,192C 302.379,187.626 306.046,183.126 309.5,178.5C 316.138,171.229 322.305,163.563 328,155.5C 333.959,158.557 339.459,162.223 344.5,166.5 Z M 318.5,156.5 C 313.745,163.676 308.745,170.676 303.5,177.5C 298.864,182.979 294.364,188.646 290,194.5C 289.004,188.85 287.504,183.35 285.5,178C 285.759,176.739 286.426,175.739 287.5,175C 293.07,171.725 298.403,168.225 303.5,164.5C 308.5,161.833 313.5,159.167 318.5,156.5 Z M 260.5,184.5 C 262.234,180.298 263.567,175.965 264.5,171.5C 268.111,171.639 270.777,173.306 272.5,176.5C 268.754,179.585 264.754,182.251 260.5,184.5 Z"/></g>
<g><path style="opacity:0.953" fill="#df5443" d="M 322.5,113.5 C 323.3,115.741 324.966,116.741 327.5,116.5C 319.95,121.042 312.95,126.375 306.5,132.5C 313.768,135.133 320.435,138.799 326.5,143.5C 328.835,140.834 330.669,137.834 332,134.5C 333.763,129.694 335.596,125.028 337.5,120.5C 338.959,120.433 340.292,120.766 341.5,121.5C 340.125,129.457 337.459,136.957 333.5,144C 341.964,140.277 350.631,136.777 359.5,133.5C 359.554,135.632 360.554,136.965 362.5,137.5C 353.806,141.008 345.139,144.842 336.5,149C 340.668,152.002 344.335,155.502 347.5,159.5C 345.707,161.426 344.707,163.759 344.5,166.5C 339.459,162.223 333.959,158.557 328,155.5C 322.305,163.563 316.138,171.229 309.5,178.5C 307.379,178.675 305.379,178.341 303.5,177.5C 308.745,170.676 313.745,163.676 318.5,156.5C 313.5,159.167 308.5,161.833 303.5,164.5C 301.716,164.107 300.05,163.441 298.5,162.5C 304.47,157.842 310.47,153.175 316.5,148.5C 311.754,144.794 306.421,142.127 300.5,140.5C 295.088,148.986 290.422,157.986 286.5,167.5C 285.041,167.567 283.708,167.234 282.5,166.5C 285.785,158.264 288.785,149.931 291.5,141.5C 286.833,145.833 282.167,150.167 277.5,154.5C 276.34,152.831 276.34,150.997 277.5,149C 277.164,147.97 276.497,147.47 275.5,147.5C 279.833,143.5 284.167,139.5 288.5,135.5C 291.822,132.855 295.822,130.522 300.5,128.5C 307.833,123.5 315.167,118.5 322.5,113.5 Z"/></g>
<g><path style="opacity:0.832" fill="#fcfbfb" d="M 332.5,186.5 C 335.509,210.556 334.842,234.556 330.5,258.5C 329.749,255.754 328.749,253.087 327.5,250.5C 328.046,242.829 328.713,235.162 329.5,227.5C 329.167,225.833 328.833,224.167 328.5,222.5C 324.265,224.785 319.931,226.785 315.5,228.5C 314.272,227.694 313.272,226.694 312.5,225.5C 317.113,222.188 322.113,219.354 327.5,217C 321.304,210.405 313.971,205.571 305.5,202.5C 306.129,199.795 306.463,197.128 306.5,194.5C 314.976,191.23 323.643,188.564 332.5,186.5 Z M 323.5,194.5 C 325.144,194.286 326.644,194.62 328,195.5C 329.162,200.125 329.496,204.792 329,209.5C 324.075,204.287 318.241,200.454 311.5,198C 315.709,197.119 319.709,195.953 323.5,194.5 Z"/></g>
<g><path style="opacity:0.97" fill="#bf3d35" d="M 245.5,198.5 C 246.306,199.728 247.306,200.728 248.5,201.5C 247.588,205.204 248.588,205.538 251.5,202.5C 253.229,203.236 254.229,204.57 254.5,206.5C 253.375,208.129 252.041,209.629 250.5,211C 250.833,211.167 251.167,211.333 251.5,211.5C 254.404,209.88 257.404,208.547 260.5,207.5C 262.421,208.363 264.421,209.029 266.5,209.5C 264.75,210.87 262.75,211.87 260.5,212.5C 255.315,214.594 250.315,216.928 245.5,219.5C 237.883,222.642 230.55,226.308 223.5,230.5C 222.5,230.833 221.833,231.5 221.5,232.5C 216.945,235.029 212.445,237.696 208,240.5C 207.333,239.833 207.333,239.167 208,238.5C 221.466,225.874 233.966,212.541 245.5,198.5 Z"/></g>
<g><path style="opacity:0.822" fill="#c6c5c6" d="M 260.5,212.5 C 260.171,215.228 260.837,217.562 262.5,219.5C 256.857,228.465 250.857,237.132 244.5,245.5C 244.567,244.041 244.234,242.708 243.5,241.5C 247.276,234.784 250.943,227.951 254.5,221C 254.333,220.5 254.167,220 254,219.5C 251.111,221.518 247.945,222.851 244.5,223.5C 244.433,222.041 244.766,220.708 245.5,219.5C 250.315,216.928 255.315,214.594 260.5,212.5 Z"/></g>
<g><path style="opacity:0.836" fill="#d6d6d6" d="M 290.5,200.5 C 290.527,202.199 291.194,203.533 292.5,204.5C 284.568,207.757 276.568,210.923 268.5,214C 273.14,221.606 279.14,227.94 286.5,233C 287.437,233.692 288.103,233.525 288.5,232.5C 289.497,232.47 290.164,232.97 290.5,234C 291.505,237.029 292.505,240.029 293.5,243C 293.272,243.399 292.938,243.565 292.5,243.5C 288.829,252.314 284.662,260.981 280,269.5C 277.217,273.951 274.05,278.117 270.5,282C 275.851,280.505 281.184,278.672 286.5,276.5C 286.5,277.833 286.5,279.167 286.5,280.5C 282.064,282.217 277.731,284.217 273.5,286.5C 277.63,289.715 282.297,291.882 287.5,293C 294.312,294.459 300.979,295.959 307.5,297.5C 308.323,300.461 308.99,303.461 309.5,306.5C 303.828,308.502 298.162,310.502 292.5,312.5C 293.038,310.883 293.371,309.216 293.5,307.5C 297.141,306.015 300.808,304.515 304.5,303C 294.24,300.984 284.24,298.15 274.5,294.5C 273.014,288.474 270.347,283.14 266.5,278.5C 275.927,268.153 282.927,256.32 287.5,243C 279.022,245.898 270.689,249.398 262.5,253.5C 262.567,252.041 262.234,250.708 261.5,249.5C 269.02,246.407 276.354,242.74 283.5,238.5C 275.431,232.932 268.931,225.932 264,217.5C 263.283,218.044 262.783,218.711 262.5,219.5C 260.837,217.562 260.171,215.228 260.5,212.5C 262.75,211.87 264.75,210.87 266.5,209.5C 274.5,206.5 282.5,203.5 290.5,200.5 Z"/></g>
<g><path style="opacity:0.889" fill="#eaeaeb" d="M 306.5,194.5 C 306.463,197.128 306.129,199.795 305.5,202.5C 303.83,202.249 302.33,201.582 301,200.5C 298.5,211.167 296,221.833 293.5,232.5C 293.833,233.167 294.167,233.833 294.5,234.5C 300.534,231.441 306.534,228.441 312.5,225.5C 313.272,226.694 314.272,227.694 315.5,228.5C 309.386,232.059 303.053,235.392 296.5,238.5C 295.479,239.002 295.312,239.668 296,240.5C 305.067,246.855 315.067,250.855 326,252.5C 326.717,251.956 327.217,251.289 327.5,250.5C 328.749,253.087 329.749,255.754 330.5,258.5C 325.765,282.038 318.432,304.704 308.5,326.5C 307.065,325.087 306.065,323.42 305.5,321.5C 306.868,316.561 308.535,311.728 310.5,307C 310.272,306.601 309.938,306.435 309.5,306.5C 308.99,303.461 308.323,300.461 307.5,297.5C 310.212,297.737 312.712,297.737 315,297.5C 319.259,286.741 322.259,275.741 324,264.5C 311.616,270.127 299.116,275.461 286.5,280.5C 286.5,279.167 286.5,277.833 286.5,276.5C 298.317,270.425 310.317,264.592 322.5,259C 311.434,255.635 301.434,250.469 292.5,243.5C 292.938,243.565 293.272,243.399 293.5,243C 292.505,240.029 291.505,237.029 290.5,234C 290.164,232.97 289.497,232.47 288.5,232.5C 291.042,223.376 292.375,214.042 292.5,204.5C 291.194,203.533 290.527,202.199 290.5,200.5C 295.751,198.305 301.084,196.305 306.5,194.5 Z"/></g>
<g><path style="opacity:0.898" fill="#a8a9aa" d="M 223.5,230.5 C 226.648,241.421 229.648,252.421 232.5,263.5C 232.942,264.739 233.609,265.739 234.5,266.5C 233.624,266.369 232.957,266.702 232.5,267.5C 228.135,276.254 222.802,284.254 216.5,291.5C 215.566,290.432 215.232,289.099 215.5,287.5C 214.5,287.5 213.5,287.5 212.5,287.5C 218.155,280.872 222.821,273.539 226.5,265.5C 223.074,264.518 219.741,264.851 216.5,266.5C 215.699,264.958 215.366,263.292 215.5,261.5C 219.588,260.477 223.588,259.143 227.5,257.5C 223.218,249.765 221.218,241.432 221.5,232.5C 221.833,231.5 222.5,230.833 223.5,230.5 Z"/></g>
<g><path style="opacity:0.931" fill="#8f9092" d="M 215.5,261.5 C 215.366,263.292 215.699,264.958 216.5,266.5C 206.5,268.5 196.5,270.5 186.5,272.5C 186.018,282.561 189.684,290.728 197.5,297C 199.044,298.187 200.711,298.52 202.5,298C 206.065,294.604 209.398,291.104 212.5,287.5C 213.5,287.5 214.5,287.5 215.5,287.5C 215.232,289.099 215.566,290.432 216.5,291.5C 214.757,294.75 212.423,297.584 209.5,300C 215.275,299.58 220.942,298.414 226.5,296.5C 225.529,297.962 225.862,299.295 227.5,300.5C 222.181,301.663 216.847,302.829 211.5,304C 215.233,306.523 218.899,309.023 222.5,311.5C 222.255,313.255 222.255,314.922 222.5,316.5C 207.52,311.928 194.687,303.928 184,292.5C 176.727,281.901 176.727,271.234 184,260.5C 188.728,253.754 194.561,248.587 201.5,245C 198.333,248.167 195.167,251.333 192,254.5C 189.609,258.613 187.776,262.946 186.5,267.5C 187,267.833 187.5,268.167 188,268.5C 197.157,266.057 206.324,263.724 215.5,261.5 Z"/></g>
<g><path style="opacity:0.872" fill="#b9b9ba" d="M 245.5,219.5 C 244.766,220.708 244.433,222.041 244.5,223.5C 240.044,225.892 235.377,228.058 230.5,230C 227.233,238.142 228.4,245.642 234,252.5C 237.032,248.641 240.198,244.974 243.5,241.5C 244.234,242.708 244.567,244.041 244.5,245.5C 242.329,248.516 240.329,251.682 238.5,255C 240.167,255.667 241.833,255.667 243.5,255C 249.548,253.261 255.548,251.428 261.5,249.5C 262.234,250.708 262.567,252.041 262.5,253.5C 255.394,256.717 248.06,259.383 240.5,261.5C 246.291,270.289 253.958,276.956 263.5,281.5C 264.855,280.812 265.855,279.812 266.5,278.5C 270.347,283.14 273.014,288.474 274.5,294.5C 272.16,293.914 269.993,292.914 268,291.5C 263.694,298.954 258.86,305.954 253.5,312.5C 252.455,311.122 251.122,310.122 249.5,309.5C 255.193,303.593 258.859,296.926 260.5,289.5C 249.535,293.377 238.535,297.044 227.5,300.5C 225.862,299.295 225.529,297.962 226.5,296.5C 236.649,293.506 246.649,290.006 256.5,286C 251.833,282.667 247.167,279.333 242.5,276C 239.246,273.253 236.58,270.086 234.5,266.5C 233.609,265.739 232.942,264.739 232.5,263.5C 229.648,252.421 226.648,241.421 223.5,230.5C 230.55,226.308 237.883,222.642 245.5,219.5 Z"/></g>
<g><path style="opacity:0.858" fill="#acadae" d="M 249.5,309.5 C 251.122,310.122 252.455,311.122 253.5,312.5C 252.04,314.463 250.373,316.296 248.5,318C 251.221,318.602 253.887,318.435 256.5,317.5C 256.7,320.63 257.366,323.63 258.5,326.5C 246.016,324.556 234.016,321.223 222.5,316.5C 222.255,314.922 222.255,313.255 222.5,311.5C 228.273,313.591 234.106,315.591 240,317.5C 243.932,315.734 247.099,313.067 249.5,309.5 Z"/></g>
<g><path style="opacity:0.849" fill="#bebec0" d="M 293.5,307.5 C 293.371,309.216 293.038,310.883 292.5,312.5C 281.606,315.964 270.606,319.131 259.5,322C 264.278,323.249 268.945,324.416 273.5,325.5C 272.566,326.568 272.232,327.901 272.5,329.5C 267.625,328.915 262.958,327.915 258.5,326.5C 257.366,323.63 256.7,320.63 256.5,317.5C 269.047,314.947 281.38,311.613 293.5,307.5 Z"/></g>
<g><path style="opacity:0.672" fill="#1b1918" d="M 312.5,324.5 C 315.518,324.335 318.518,324.502 321.5,325C 322.832,329.534 323.832,329.367 324.5,324.5C 325.5,324.5 326.5,324.5 327.5,324.5C 327.813,327.247 327.48,329.914 326.5,332.5C 325.808,331.975 325.308,331.308 325,330.5C 324.692,331.308 324.192,331.975 323.5,332.5C 322.5,331.167 321.5,331.167 320.5,332.5C 319.167,324.5 317.833,324.5 316.5,332.5C 315.534,330.604 315.201,328.604 315.5,326.5C 313.821,326.715 312.821,326.048 312.5,324.5 Z"/></g>
<g><path style="opacity:0.788" fill="#cdcdce" d="M 305.5,321.5 C 306.065,323.42 307.065,325.087 308.5,326.5C 307.27,328.297 306.604,330.297 306.5,332.5C 295.075,332.424 283.741,331.424 272.5,329.5C 272.232,327.901 272.566,326.568 273.5,325.5C 280.99,326.199 288.49,326.866 296,327.5C 298.167,327.167 300.333,326.833 302.5,326.5C 303.275,324.604 304.275,322.937 305.5,321.5 Z"/></g>
<g><path style="opacity:0.884" fill="#1a1817" d="M -0.5,330.5 C 1.7925,330.244 3.95917,330.577 6,331.5C 8.33333,338.5 10.6667,345.5 13,352.5C 15.8534,345.612 18.52,338.612 21,331.5C 23.0408,330.577 25.2075,330.244 27.5,330.5C 27.5,340.167 27.5,349.833 27.5,359.5C 25.8333,359.5 24.1667,359.5 22.5,359.5C 22.6662,353.158 22.4995,346.825 22,340.5C 20,346.5 18,352.5 16,358.5C 14.3005,359.406 12.4672,359.739 10.5,359.5C 8.44418,352.832 6.27751,346.165 4,339.5C 3.50042,346.158 3.33375,352.825 3.5,359.5C 2.16667,359.5 0.833333,359.5 -0.5,359.5C -0.5,349.833 -0.5,340.167 -0.5,330.5 Z"/></g>
<g><path style="opacity:0.718" fill="#1a1917" d="M 32.5,330.5 C 33.8333,330.5 35.1667,330.5 36.5,330.5C 36.5,332.167 36.5,333.833 36.5,335.5C 35.1667,335.5 33.8333,335.5 32.5,335.5C 32.5,333.833 32.5,332.167 32.5,330.5 Z"/></g>
<g><path style="opacity:0.934" fill="#1b1817" d="M 143.5,329.5 C 145.527,329.338 147.527,329.505 149.5,330C 150.603,331.68 150.27,333.18 148.5,334.5C 145.757,333.899 144.424,335.233 144.5,338.5C 146.833,338.5 149.167,338.5 151.5,338.5C 150.697,334.831 151.864,332.164 155,330.5C 155.497,333.146 155.664,335.813 155.5,338.5C 156.833,338.5 158.167,338.5 159.5,338.5C 159.5,339.5 159.5,340.5 159.5,341.5C 158.167,341.5 156.833,341.5 155.5,341.5C 155.5,346.167 155.5,350.833 155.5,355.5C 156.833,355.5 158.167,355.5 159.5,355.5C 159.079,360.914 156.579,361.914 152,358.5C 151.501,352.843 151.334,347.176 151.5,341.5C 149.167,341.5 146.833,341.5 144.5,341.5C 144.5,347.5 144.5,353.5 144.5,359.5C 143.167,359.5 141.833,359.5 140.5,359.5C 140.5,353.5 140.5,347.5 140.5,341.5C 139.5,341.5 138.5,341.5 137.5,341.5C 137.5,340.5 137.5,339.5 137.5,338.5C 138.5,338.5 139.5,338.5 140.5,338.5C 140.337,336.143 140.503,333.81 141,331.5C 141.995,330.934 142.828,330.267 143.5,329.5 Z"/></g>
<g><path style="opacity:0.907" fill="#1a1817" d="M 46.5,337.5 C 53.379,336.251 57.379,338.918 58.5,345.5C 57.1266,345.657 55.7932,345.49 54.5,345C 52.5253,341.451 49.8586,340.785 46.5,343C 43.6326,347.591 43.966,351.924 47.5,356C 48.8333,356.667 50.1667,356.667 51.5,356C 53.0284,354.087 54.8618,352.587 57,351.5C 57.8333,351.833 58.6667,352.167 59.5,352.5C 56.9167,360.123 51.9167,362.29 44.5,359C 39.6225,353.638 38.7892,347.804 42,341.5C 43.3968,339.93 44.8968,338.596 46.5,337.5 Z"/></g>
<g><path style="opacity:0.903" fill="#1b1817" d="M 67.5,337.5 C 69.8273,337.247 71.8273,337.914 73.5,339.5C 72.2451,341.78 70.2451,342.947 67.5,343C 66.8742,343.75 66.3742,344.584 66,345.5C 65.5008,350.155 65.3342,354.821 65.5,359.5C 64.1667,359.5 62.8333,359.5 61.5,359.5C 61.5,352.5 61.5,345.5 61.5,338.5C 63.7354,338.795 65.7354,338.461 67.5,337.5 Z"/></g>
<g><path style="opacity:0.904" fill="#1a1817" d="M 80.5,337.5 C 91.8978,337.583 96.0644,343.25 93,354.5C 89.2198,360.39 84.0531,361.89 77.5,359C 75.9512,357.786 74.7845,356.286 74,354.5C 73.3333,350.833 73.3333,347.167 74,343.5C 75.4361,340.558 77.6028,338.558 80.5,337.5 Z M 81.5,341.5 C 88.4358,342.763 90.6025,346.763 88,353.5C 82.3825,357.977 78.8825,356.477 77.5,349C 77.9937,345.992 79.3271,343.492 81.5,341.5 Z"/></g>
<g><path style="opacity:0.894" fill="#1b1817" d="M 101.5,337.5 C 104.607,337.351 107.607,337.851 110.5,339C 112.155,340.444 112.822,342.278 112.5,344.5C 109.395,344.218 106.562,343.218 104,341.5C 102.338,341.388 101.171,342.054 100.5,343.5C 103.807,345.724 107.473,347.391 111.5,348.5C 114.812,353.462 113.812,357.295 108.5,360C 105.072,360.701 101.738,360.368 98.5,359C 96.5494,357.266 95.5494,355.099 95.5,352.5C 97.288,352.215 98.9547,352.548 100.5,353.5C 103.256,357.281 106.256,357.448 109.5,354C 105.382,351.76 101.215,349.593 97,347.5C 95.3151,342.487 96.8151,339.154 101.5,337.5 Z"/></g>
<g><path style="opacity:0.897" fill="#1a1817" d="M 122.5,337.5 C 134.627,337.811 138.794,343.811 135,355.5C 130.261,361.082 124.761,361.915 118.5,358C 113.603,349.713 114.936,342.88 122.5,337.5 Z M 123.5,341.5 C 131.403,342.668 133.57,347.001 130,354.5C 124.035,357.901 120.868,356.068 120.5,349C 120.548,346.078 121.548,343.578 123.5,341.5 Z"/></g>
<g><path style="opacity:0.877" fill="#1a1817" d="M 32.5,338.5 C 33.8333,338.5 35.1667,338.5 36.5,338.5C 36.5,345.5 36.5,352.5 36.5,359.5C 35.1667,359.5 33.8333,359.5 32.5,359.5C 32.5,352.5 32.5,345.5 32.5,338.5 Z"/></g>
<g><path style="opacity:0.416" fill="#191817" d="M 165.5,333.5 C 175.247,333.085 177.913,337.252 173.5,346C 164.956,349.322 161.123,346.489 162,337.5C 162.69,335.65 163.856,334.316 165.5,333.5 Z M 167.5,341.5 C 169.088,342.635 169.421,343.969 168.5,345.5C 167.571,344.311 167.238,342.978 167.5,341.5 Z M 167.5,337.5 C 169.337,337.639 169.67,338.306 168.5,339.5C 167.702,339.043 167.369,338.376 167.5,337.5 Z M 171.5,336.5 C 172.993,337.312 173.66,338.645 173.5,340.5C 173.127,344.297 172.127,344.464 170.5,341C 171.38,339.644 171.714,338.144 171.5,336.5 Z M 164.5,336.5 C 165.634,338.966 165.801,341.633 165,344.5C 163.304,341.881 163.137,339.214 164.5,336.5 Z"/></g>
<g><path style="opacity:0.972" fill="#1a1817" d="M -0.5,443.5 C -0.5,439.5 -0.5,435.5 -0.5,431.5C 3.92253,433.81 8.5892,435.644 13.5,437C 17.5,437.667 21.5,437.667 25.5,437C 36.0919,432.283 37.0919,425.949 28.5,418C 20.6712,413.92 13.0045,409.587 5.5,405C 2.83733,402.157 0.837327,398.991 -0.5,395.5C -0.5,392.167 -0.5,388.833 -0.5,385.5C 4.86369,374.84 13.697,369.84 26,370.5C 31.2274,370.788 36.3941,371.455 41.5,372.5C 41.6655,376.514 41.4988,380.514 41,384.5C 32.8048,379.828 24.3048,378.995 15.5,382C 9.23099,386.903 8.89765,392.236 14.5,398C 24.0893,402.373 32.9226,407.873 41,414.5C 47.4995,425.327 45.9995,434.827 36.5,443C 24.2485,447.469 11.9152,447.636 -0.5,443.5 Z"/></g>
<g><path style="opacity:0.965" fill="#1b1817" d="M 83.5,370.5 C 109.242,369.742 122.575,382.242 123.5,408C 124.312,426.401 116.312,439.068 99.5,446C 104.425,451.712 110.591,454.878 118,455.5C 120.225,455.435 122.392,455.102 124.5,454.5C 124.833,456.167 125.167,457.833 125.5,459.5C 125.387,461.641 124.72,463.475 123.5,465C 115.652,466.403 108.319,465.07 101.5,461C 96.1667,457 91.5,452.333 87.5,447C 65.2243,444.553 53.891,432.053 53.5,409.5C 53.228,388.3 63.228,375.3 83.5,370.5 Z M 82.5,380.5 C 98.6014,378.122 108.435,384.789 112,400.5C 113.584,409.989 112.25,418.989 108,427.5C 101.908,435.742 93.7418,438.909 83.5,437C 72.7317,433.892 66.565,426.725 65,415.5C 62.9192,403.076 66.4192,392.576 75.5,384C 77.9252,382.787 80.2585,381.621 82.5,380.5 Z"/></g>
<g><path style="opacity:0.963" fill="#1a1817" d="M 231.5,370.5 C 238.925,370.302 246.258,370.968 253.5,372.5C 253.666,376.514 253.499,380.514 253,384.5C 243.451,378.855 233.951,378.689 224.5,384C 221.433,389.2 222.1,393.867 226.5,398C 235.527,402.372 244.027,407.539 252,413.5C 257.149,421.098 257.815,429.098 254,437.5C 250.456,442.522 245.623,445.356 239.5,446C 230.286,447.156 221.286,446.323 212.5,443.5C 211.167,439.5 211.167,435.5 212.5,431.5C 220.074,436.643 228.407,438.476 237.5,437C 247.767,432.185 248.767,425.852 240.5,418C 232.671,413.92 225.004,409.587 217.5,405C 210.952,397.666 209.785,389.499 214,380.5C 218.669,374.921 224.502,371.588 231.5,370.5 Z"/></g>
<g><path style="opacity:0.976" fill="#1b1918" d="M 136.5,371.5 C 140.167,371.5 143.833,371.5 147.5,371.5C 147.5,393.167 147.5,414.833 147.5,436.5C 157.167,436.5 166.833,436.5 176.5,436.5C 176.5,439.5 176.5,442.5 176.5,445.5C 163.167,445.5 149.833,445.5 136.5,445.5C 136.5,420.833 136.5,396.167 136.5,371.5 Z"/></g>
<g><path style="opacity:0.971" fill="#1a1817" d="M 284.5,391.5 C 305.072,390.744 314.405,400.744 312.5,421.5C 300.5,421.5 288.5,421.5 276.5,421.5C 276.299,432.3 281.632,437.967 292.5,438.5C 298.386,438.305 303.553,436.305 308,432.5C 308.667,435.833 308.667,439.167 308,442.5C 305.345,444.053 302.512,445.22 299.5,446C 278.248,450.065 266.915,441.398 265.5,420C 265.404,405.974 271.737,396.474 284.5,391.5 Z M 288.5,399.5 C 297.241,399.74 301.907,404.24 302.5,413C 293.84,413.5 285.173,413.666 276.5,413.5C 277.722,406.357 281.722,401.69 288.5,399.5 Z"/></g>
<g><path style="opacity:0.971" fill="#1a1817" d="M 344.5,391.5 C 346.92,391.292 349.253,391.626 351.5,392.5C 352.833,395.833 352.833,399.167 351.5,402.5C 340.647,400.495 334.813,405.161 334,416.5C 333.5,426.161 333.334,435.828 333.5,445.5C 330.167,445.5 326.833,445.5 323.5,445.5C 323.5,427.833 323.5,410.167 323.5,392.5C 326.833,392.5 330.167,392.5 333.5,392.5C 333.336,395.187 333.503,397.854 334,400.5C 336.489,396.168 339.989,393.168 344.5,391.5 Z"/></g>
<g><path style="opacity:0.962" fill="#1a1817" d="M 430.5,391.5 C 450.908,390.892 459.908,400.892 457.5,421.5C 445.5,421.5 433.5,421.5 421.5,421.5C 424.33,437.254 433.33,442.087 448.5,436C 450.167,434.833 451.833,433.667 453.5,432.5C 454.833,435.833 454.833,439.167 453.5,442.5C 445.244,446.294 436.577,447.46 427.5,446C 415.696,441.247 410.363,432.414 411.5,419.5C 410.921,405.289 417.254,395.956 430.5,391.5 Z M 434.5,399.5 C 442.971,400.304 447.304,404.971 447.5,413.5C 438.827,413.666 430.16,413.5 421.5,413C 423.385,405.951 427.718,401.451 434.5,399.5 Z"/></g>
<g><path style="opacity:0.957" fill="#1a1817" d="M 357.5,392.5 C 361.167,392.5 364.833,392.5 368.5,392.5C 372.705,406.581 377.205,420.581 382,434.5C 386.943,420.502 391.777,406.502 396.5,392.5C 400.226,392.177 403.893,392.511 407.5,393.5C 400.627,410.791 393.96,428.124 387.5,445.5C 383.563,445.793 379.73,445.46 376,444.5C 369.324,427.304 363.158,409.97 357.5,392.5 Z"/></g>
<g><path style="opacity:0.966" fill="#1a1817" d="M 489.5,391.5 C 494.868,390.166 497.535,392.166 497.5,397.5C 497.167,399.167 496.833,400.833 496.5,402.5C 489.044,399.812 483.878,402.145 481,409.5C 479.562,421.424 479.062,433.424 479.5,445.5C 476.167,445.5 472.833,445.5 469.5,445.5C 469.5,427.833 469.5,410.167 469.5,392.5C 472.833,392.5 476.167,392.5 479.5,392.5C 479.337,394.857 479.503,397.19 480,399.5C 482.161,395.495 485.328,392.829 489.5,391.5 Z"/></g>
<g><path style="opacity:0.494" fill="#1b1918" d="M 511.5,394.5 C 511.5,396.5 511.5,398.5 511.5,400.5C 506.837,403.77 503.504,402.77 501.5,397.5C 503.553,392.223 506.887,391.223 511.5,394.5 Z M 509.5,396.5 C 510.773,397.077 510.773,397.743 509.5,398.5C 508.537,398.03 508.537,397.363 509.5,396.5 Z"/></g>
</svg>
