<?xml version="1.0" encoding="UTF-8"?>
<!DOCTYPE svg PUBLIC "-//W3C//DTD SVG 1.1//EN" "http://www.w3.org/Graphics/SVG/1.1/DTD/svg11.dtd">
<svg xmlns="http://www.w3.org/2000/svg" version="1.1" width="433px" height="432px" style="shape-rendering:geometricPrecision; text-rendering:geometricPrecision; image-rendering:optimizeQuality; fill-rule:evenodd; clip-rule:evenodd" xmlns:xlink="http://www.w3.org/1999/xlink">
<g><path style="opacity:0.996" fill="#f8ce66" d="M 231.5,71.5 C 234.876,73.0823 238.542,73.7489 242.5,73.5C 248.17,73.9174 253.503,75.2507 258.5,77.5C 248.911,75.7913 239.245,74.2913 229.5,73C 219.14,72.2667 208.806,72.4334 198.5,73.5C 199.5,72.8333 200.5,72.1667 201.5,71.5C 211.5,70.1667 221.5,70.1667 231.5,71.5 Z"/></g>
<g><path style="opacity:0.871" fill="#f8de97" d="M 201.5,71.5 C 200.5,72.1667 199.5,72.8333 198.5,73.5C 195.833,73.5 193.167,73.5 190.5,73.5C 193.946,72.3126 197.613,71.6459 201.5,71.5 Z"/></g>
<g><path style="opacity:0.651" fill="#fbeaa4" d="M 231.5,71.5 C 235.387,71.6459 239.054,72.3126 242.5,73.5C 238.542,73.7489 234.876,73.0823 231.5,71.5 Z"/></g>
<g><path style="opacity:1" fill="#feb603" d="M 258.5,77.5 C 258.833,77.5 259.167,77.5 259.5,77.5C 259.577,78.7498 260.244,79.5831 261.5,80C 264.393,81.1488 267.393,81.6488 270.5,81.5C 272.513,84.7379 275.513,86.0712 279.5,85.5C 280.287,87.1042 281.62,87.7709 283.5,87.5C 283.5,88.5 283.5,89.5 283.5,90.5C 287.788,93.2378 292.454,95.4045 297.5,97C 298.167,98.3333 298.833,99.6667 299.5,101C 302.735,102.739 306.068,104.239 309.5,105.5C 309.833,105.5 310.167,105.5 310.5,105.5C 310.525,108.179 311.858,109.512 314.5,109.5C 316.833,111.167 318.833,113.167 320.5,115.5C 321.757,118.427 323.757,120.761 326.5,122.5C 327.08,124.749 328.413,126.415 330.5,127.5C 330.62,131.615 332.62,134.281 336.5,135.5C 336.5,136.833 336.5,138.167 336.5,139.5C 334.5,140.167 332.5,140.833 330.5,141.5C 330.5,142.5 330.5,143.5 330.5,144.5C 328.345,144.628 326.345,144.128 324.5,143C 325.905,141.731 327.571,141.231 329.5,141.5C 331.125,138.745 330.792,136.245 328.5,134C 324.954,133.287 322.954,131.12 322.5,127.5C 321.585,128.328 320.919,129.328 320.5,130.5C 321.92,132.709 323.587,134.709 325.5,136.5C 324.535,137.914 323.535,138.747 322.5,139C 323.673,141.521 323.673,144.021 322.5,146.5C 320.287,148.659 317.953,150.659 315.5,152.5C 315.5,151.833 315.5,151.167 315.5,150.5C 316.906,150.027 317.573,149.027 317.5,147.5C 317.66,145.847 318.326,144.514 319.5,143.5C 321.104,142.713 321.771,141.38 321.5,139.5C 314.416,138.874 307.75,139.541 301.5,141.5C 301.068,142.71 300.401,143.71 299.5,144.5C 298.5,144.5 297.5,144.5 296.5,144.5C 296.649,145.552 296.483,146.552 296,147.5C 293.562,146.134 293.062,146.634 294.5,149C 294.389,150.722 293.889,150.888 293,149.5C 292.506,151.134 292.34,152.801 292.5,154.5C 291.5,154.5 290.5,154.5 289.5,154.5C 289.5,156.5 289.5,158.5 289.5,160.5C 288.5,160.5 287.5,160.5 286.5,160.5C 283.603,165.413 281.603,170.747 280.5,176.5C 280.672,177.492 280.338,178.158 279.5,178.5C 278.022,178.238 276.689,178.571 275.5,179.5C 272.452,185.723 269.786,192.056 267.5,198.5C 265.896,199.287 265.229,200.62 265.5,202.5C 264.737,204.368 263.737,206.035 262.5,207.5C 261.094,207.973 260.427,208.973 260.5,210.5C 260.25,212.674 259.25,214.341 257.5,215.5C 256.33,217.279 254.664,218.279 252.5,218.5C 252.587,221.739 251.92,224.739 250.5,227.5C 250.672,228.492 250.338,229.158 249.5,229.5C 247.952,229.821 247.285,230.821 247.5,232.5C 246.921,235.331 245.588,237.664 243.5,239.5C 241.712,241.423 239.712,242.089 237.5,241.5C 237.931,242.293 238.265,243.127 238.5,244C 236.915,246.256 236.248,248.756 236.5,251.5C 235.89,253.434 234.89,255.101 233.5,256.5C 232.022,256.238 230.689,256.571 229.5,257.5C 228.725,260.484 228.059,263.484 227.5,266.5C 226.921,269.331 225.588,271.664 223.5,273.5C 221.331,275.34 219.998,277.674 219.5,280.5C 218.292,281.234 216.959,281.567 215.5,281.5C 214.599,280.71 213.932,279.71 213.5,278.5C 213.715,276.821 213.048,275.821 211.5,275.5C 211.5,275.167 211.5,274.833 211.5,274.5C 211.611,273.883 211.944,273.383 212.5,273C 210.864,271.566 209.864,269.733 209.5,267.5C 207.519,263.87 204.852,260.87 201.5,258.5C 202.361,253.918 200.694,250.918 196.5,249.5C 192.143,239.978 187.143,230.811 181.5,222C 180.644,220.405 179.311,219.572 177.5,219.5C 177.5,219.167 177.5,218.833 177.5,218.5C 177.715,216.821 177.048,215.821 175.5,215.5C 175.715,213.821 175.048,212.821 173.5,212.5C 173.5,212.167 173.5,211.833 173.5,211.5C 173.167,208.833 172.833,206.167 172.5,203.5C 170.784,203.371 169.117,203.038 167.5,202.5C 167.5,202.167 167.5,201.833 167.5,201.5C 167.573,199.973 166.906,198.973 165.5,198.5C 164.662,198.158 164.328,197.492 164.5,196.5C 162.907,191.338 160.574,186.671 157.5,182.5C 156.229,179.657 155.396,176.657 155,173.5C 151.49,171.473 149.324,168.473 148.5,164.5C 147.5,164.5 146.5,164.5 145.5,164.5C 145.817,161.454 144.484,159.787 141.5,159.5C 141.5,159.167 141.5,158.833 141.5,158.5C 141.481,156.94 141.148,155.44 140.5,154C 137.372,149.481 134.706,144.647 132.5,139.5C 125.892,138.538 119.226,138.205 112.5,138.5C 113.303,137.577 113.47,136.577 113,135.5C 110.61,136.891 108.943,138.891 108,141.5C 107.56,139.924 106.727,138.59 105.5,137.5C 107.645,136.318 107.645,134.818 105.5,133C 104.5,132.5 103.5,132 102.5,131.5C 101.148,132.524 99.8149,133.524 98.5,134.5C 98.5,133.833 98.5,133.167 98.5,132.5C 100.262,131.738 101.262,130.404 101.5,128.5C 103.914,127.089 105.581,125.089 106.5,122.5C 112.5,117.167 118.167,111.5 123.5,105.5C 126.089,104.581 128.089,102.914 129.5,100.5C 131.404,100.262 132.738,99.2624 133.5,97.5C 136.934,96.0171 140.601,94.6838 144.5,93.5C 147.808,91.0396 150.808,88.3729 153.5,85.5C 158.824,84.8429 163.49,82.8429 167.5,79.5C 167.833,79.5 168.167,79.5 168.5,79.5C 173.165,78.9431 177.498,77.6098 181.5,75.5C 184.219,74.087 187.219,73.4203 190.5,73.5C 193.167,73.5 195.833,73.5 198.5,73.5C 208.806,72.4334 219.14,72.2667 229.5,73C 239.245,74.2913 248.911,75.7913 258.5,77.5 Z M 212.5,115.5 C 215.167,115.5 217.833,115.5 220.5,115.5C 224.081,116.807 227.747,118.141 231.5,119.5C 232.945,121.063 234.611,122.396 236.5,123.5C 239.367,127.24 241.7,131.24 243.5,135.5C 244.725,140.509 244.725,145.509 243.5,150.5C 243.5,150.833 243.5,151.167 243.5,151.5C 239.659,162.007 232.326,168.674 221.5,171.5C 218.167,171.5 214.833,171.5 211.5,171.5C 206.63,169.732 201.964,167.399 197.5,164.5C 196.5,162.833 195.167,161.5 193.5,160.5C 192.674,157.515 191.341,154.849 189.5,152.5C 189.784,150.585 189.451,148.919 188.5,147.5C 188.505,143.466 188.838,139.466 189.5,135.5C 189.5,135.167 189.5,134.833 189.5,134.5C 192.077,129.914 195.077,125.581 198.5,121.5C 200.027,121.573 201.027,120.906 201.5,119.5C 203.153,119.34 204.486,118.674 205.5,117.5C 208.067,117.279 210.401,116.612 212.5,115.5 Z"/></g>
<g><path style="opacity:0.953" fill="#f9d579" d="M 181.5,75.5 C 177.498,77.6098 173.165,78.9431 168.5,79.5C 172.502,77.3902 176.835,76.0569 181.5,75.5 Z"/></g>
<g><path style="opacity:1" fill="#f8cd69" d="M 259.5,77.5 C 263.395,78.4624 267.061,79.7957 270.5,81.5C 267.393,81.6488 264.393,81.1488 261.5,80C 260.244,79.5831 259.577,78.7498 259.5,77.5 Z"/></g>
<g><path style="opacity:0.992" fill="#f9d170" d="M 167.5,79.5 C 163.49,82.8429 158.824,84.8429 153.5,85.5C 157.866,82.9884 162.533,80.9884 167.5,79.5 Z"/></g>
<g><path style="opacity:1" fill="#f7ce61" d="M 270.5,81.5 C 273.744,82.4629 276.744,83.7962 279.5,85.5C 275.513,86.0712 272.513,84.7379 270.5,81.5 Z"/></g>
<g><path style="opacity:0.349" fill="#fdeb9d" d="M 279.5,85.5 C 281.153,85.6596 282.486,86.3263 283.5,87.5C 281.62,87.7709 280.287,87.1042 279.5,85.5 Z"/></g>
<g><path style="opacity:1" fill="#f7c246" d="M 153.5,85.5 C 150.808,88.3729 147.808,91.0396 144.5,93.5C 140.601,94.6838 136.934,96.0171 133.5,97.5C 139.495,92.4972 146.162,88.4972 153.5,85.5 Z"/></g>
<g><path style="opacity:1" fill="#f5c34b" d="M 283.5,87.5 C 293.221,92.023 301.887,98.023 309.5,105.5C 306.068,104.239 302.735,102.739 299.5,101C 298.833,99.6667 298.167,98.3333 297.5,97C 292.454,95.4045 287.788,93.2378 283.5,90.5C 283.5,89.5 283.5,88.5 283.5,87.5 Z"/></g>
<g><path style="opacity:0.663" fill="#fcd98f" d="M 133.5,97.5 C 132.738,99.2624 131.404,100.262 129.5,100.5C 130.262,98.7376 131.596,97.7376 133.5,97.5 Z"/></g>
<g><path style="opacity:0.992" fill="#f7ce74" d="M 129.5,100.5 C 128.089,102.914 126.089,104.581 123.5,105.5C 124.911,103.086 126.911,101.419 129.5,100.5 Z"/></g>
<g><path style="opacity:1" fill="#f6ce70" d="M 310.5,105.5 C 312.167,106.5 313.5,107.833 314.5,109.5C 311.858,109.512 310.525,108.179 310.5,105.5 Z"/></g>
<g><path style="opacity:0.957" fill="#f8d371" d="M 123.5,105.5 C 118.167,111.5 112.5,117.167 106.5,122.5C 111.167,115.833 116.833,110.167 123.5,105.5 Z"/></g>
<g><path style="opacity:0.188" fill="#fceaa1" d="M 212.5,115.5 C 210.401,116.612 208.067,117.279 205.5,117.5C 207.438,115.837 209.772,115.171 212.5,115.5 Z"/></g>
<g><path style="opacity:1" fill="#f8c85d" d="M 220.5,115.5 C 223.874,115.674 227.207,116.174 230.5,117C 231.252,117.671 231.586,118.504 231.5,119.5C 227.747,118.141 224.081,116.807 220.5,115.5 Z"/></g>
<g><path style="opacity:0.906" fill="#fbdc87" d="M 320.5,115.5 C 323.243,117.239 325.243,119.573 326.5,122.5C 323.757,120.761 321.757,118.427 320.5,115.5 Z"/></g>
<g><path style="opacity:0.024" fill="#ffedb2" d="M 199.5,119.5 C 200.167,119.5 200.833,119.5 201.5,119.5C 201.027,120.906 200.027,121.573 198.5,121.5C 198.833,120.833 199.167,120.167 199.5,119.5 Z"/></g>
<g><path style="opacity:1" fill="#f9c753" d="M 199.5,119.5 C 199.167,120.167 198.833,120.833 198.5,121.5C 195.077,125.581 192.077,129.914 189.5,134.5C 189.729,131.256 190.729,128.256 192.5,125.5C 192.392,124.558 192.059,123.725 191.5,123C 193.134,122.506 194.801,122.34 196.5,122.5C 196.5,121.5 196.5,120.5 196.5,119.5C 197.5,119.5 198.5,119.5 199.5,119.5 Z"/></g>
<g><path style="opacity:0.984" fill="#f8d476" d="M 326.5,122.5 C 328.587,123.585 329.92,125.251 330.5,127.5C 328.413,126.415 327.08,124.749 326.5,122.5 Z"/></g>
<g><path style="opacity:0.651" fill="#fcdb91" d="M 106.5,122.5 C 105.581,125.089 103.914,127.089 101.5,128.5C 102.419,125.911 104.086,123.911 106.5,122.5 Z"/></g>
<g><path style="opacity:0.835" fill="#f8dd8d" d="M 101.5,128.5 C 101.262,130.404 100.262,131.738 98.5,132.5C 98.7376,130.596 99.7376,129.262 101.5,128.5 Z"/></g>
<g><path style="opacity:1" fill="#f7cd62" d="M 236.5,123.5 C 238.311,123.572 239.644,124.405 240.5,126C 242.602,128.806 243.602,131.973 243.5,135.5C 241.7,131.24 239.367,127.24 236.5,123.5 Z"/></g>
<g><path style="opacity:1" fill="#f5c951" d="M 330.5,127.5 C 332.984,129.8 334.984,132.467 336.5,135.5C 332.62,134.281 330.62,131.615 330.5,127.5 Z"/></g>
<g><path style="opacity:0.463" fill="#fde195" d="M 98.5,132.5 C 98.5,133.167 98.5,133.833 98.5,134.5C 97.8333,134.833 97.1667,135.167 96.5,135.5C 96.427,133.973 97.0937,132.973 98.5,132.5 Z"/></g>
<g><path style="opacity:1" fill="#feb602" d="M 336.5,139.5 C 338.306,140.735 339.973,142.069 341.5,143.5C 341.599,146.639 342.932,148.973 345.5,150.5C 345.678,153.216 346.178,155.883 347,158.5C 347.671,159.252 348.504,159.586 349.5,159.5C 349.335,163.579 350.669,166.912 353.5,169.5C 353.5,169.833 353.5,170.167 353.5,170.5C 353.804,173.522 354.304,176.522 355,179.5C 355.383,180.056 355.883,180.389 356.5,180.5C 357.434,181.568 357.768,182.901 357.5,184.5C 357.159,188.16 357.825,191.493 359.5,194.5C 359.5,195.167 359.5,195.833 359.5,196.5C 359.5,208.833 359.5,221.167 359.5,233.5C 358.266,237.994 357.266,242.661 356.5,247.5C 355.883,247.611 355.383,247.944 355,248.5C 353.471,255.753 351.138,262.753 348,269.5C 347.505,271.473 347.338,273.473 347.5,275.5C 346.5,275.5 345.5,275.5 344.5,275.5C 344.5,277.5 344.5,279.5 344.5,281.5C 343.85,281.196 343.183,280.863 342.5,280.5C 341.188,283.749 340.188,287.082 339.5,290.5C 338.094,290.973 337.427,291.973 337.5,293.5C 336.85,293.196 336.183,292.863 335.5,292.5C 332.682,295.809 330.682,299.476 329.5,303.5C 328.5,303.5 327.5,303.5 326.5,303.5C 326.5,305.167 326.5,306.833 326.5,308.5C 326.5,309.167 326.167,309.5 325.5,309.5C 321.579,308.156 319.912,309.823 320.5,314.5C 315.094,313.735 313.094,316.069 314.5,321.5C 314.5,322.167 314.167,322.5 313.5,322.5C 312.417,322.539 311.417,322.873 310.5,323.5C 309.38,322.167 308.047,321.667 306.5,322C 307.38,323.356 307.714,324.856 307.5,326.5C 306.167,326.5 304.833,326.5 303.5,326.5C 303.5,327.5 303.5,328.5 303.5,329.5C 301.833,329.5 300.167,329.5 298.5,329.5C 298.634,331.292 298.301,332.958 297.5,334.5C 295.208,334.756 293.041,334.423 291,333.5C 291.379,335.075 291.212,336.575 290.5,338C 288.833,338.333 287.167,338.667 285.5,339C 285.833,339.333 286.167,339.667 286.5,340C 283.748,341.751 280.748,342.584 277.5,342.5C 277.719,343.675 277.386,344.675 276.5,345.5C 271.198,347.392 266.198,349.725 261.5,352.5C 258.813,352.336 256.146,352.503 253.5,353C 252.058,353.377 251.058,354.21 250.5,355.5C 247.447,355.111 244.78,355.777 242.5,357.5C 242.167,357.5 241.833,357.5 241.5,357.5C 236.269,357.444 231.269,358.111 226.5,359.5C 225.167,359.5 223.833,359.5 222.5,359.5C 209.093,358.82 195.759,357.487 182.5,355.5C 180.485,354.076 178.152,353.41 175.5,353.5C 173.485,352.076 171.152,351.41 168.5,351.5C 166.636,349.986 164.636,348.653 162.5,347.5C 161.791,346.596 160.791,346.263 159.5,346.5C 159.714,344.856 159.38,343.356 158.5,342C 155.768,341.587 153.101,340.92 150.5,340C 151.167,339.667 151.833,339.333 152.5,339C 150.432,338.313 148.432,338.48 146.5,339.5C 143.763,338.931 142.263,337.264 142,334.5C 139.88,335.605 137.713,335.605 135.5,334.5C 135.027,333.094 134.027,332.427 132.5,332.5C 130.596,332.262 129.262,331.262 128.5,329.5C 127.415,327.413 125.749,326.08 123.5,325.5C 122.833,325.5 122.5,325.167 122.5,324.5C 121.089,322.086 119.089,320.419 116.5,319.5C 115.5,316.5 113.5,314.5 110.5,313.5C 110.5,311.5 109.5,310.5 107.5,310.5C 107.5,310.167 107.5,309.833 107.5,309.5C 107.034,307.799 107.034,306.299 107.5,305C 105.919,304.293 104.419,303.46 103,302.5C 101.397,300.266 99.8967,297.933 98.5,295.5C 97.5832,294.873 96.5832,294.539 95.5,294.5C 95.5,294.167 95.5,293.833 95.5,293.5C 94.6644,290.093 93.6644,286.759 92.5,283.5C 91.5,283.5 90.5,283.5 89.5,283.5C 89.1091,278.598 87.1091,274.598 83.5,271.5C 82.6849,267.856 81.8516,264.189 81,260.5C 80.4506,258.24 79.284,256.574 77.5,255.5C 77.5,255.167 77.5,254.833 77.5,254.5C 77.5,252.833 77.5,251.167 77.5,249.5C 75.7085,238.077 74.7085,226.577 74.5,215C 75.408,203.554 76.0747,192.054 76.5,180.5C 77.9731,178.417 79.1398,176.084 80,173.5C 80.696,170.522 81.196,167.522 81.5,164.5C 82.1499,164.196 82.8165,163.863 83.5,163.5C 85.8169,158.191 87.8169,152.858 89.5,147.5C 90.0787,144.669 91.412,142.336 93.5,140.5C 95.4077,139.514 96.4077,137.848 96.5,135.5C 97.1667,135.167 97.8333,134.833 98.5,134.5C 99.8149,133.524 101.148,132.524 102.5,131.5C 103.5,132 104.5,132.5 105.5,133C 107.645,134.818 107.645,136.318 105.5,137.5C 106.727,138.59 107.56,139.924 108,141.5C 108.943,138.891 110.61,136.891 113,135.5C 113.47,136.577 113.303,137.577 112.5,138.5C 111.351,138.791 110.684,139.624 110.5,141C 110.684,142.376 111.351,143.209 112.5,143.5C 111.916,146.285 112.916,147.952 115.5,148.5C 115.128,155.109 117.795,159.776 123.5,162.5C 125.547,164.55 127.214,166.883 128.5,169.5C 128.343,170.873 128.51,172.207 129,173.5C 133.096,179.667 136.429,186.334 139,193.5C 142.624,195.402 144.79,198.402 145.5,202.5C 148.721,204.613 150.055,207.613 149.5,211.5C 151.716,212.044 153.716,213.044 155.5,214.5C 156.89,215.899 157.89,217.566 158.5,219.5C 158.427,221.027 159.094,222.027 160.5,222.5C 161.338,222.842 161.672,223.508 161.5,224.5C 161.427,226.027 162.094,227.027 163.5,227.5C 163.292,233.097 165.625,237.097 170.5,239.5C 170.241,241.989 171.241,243.656 173.5,244.5C 174.338,244.842 174.672,245.508 174.5,246.5C 174.427,248.027 175.094,249.027 176.5,249.5C 177.338,249.842 177.672,250.508 177.5,251.5C 177.956,254.644 178.956,257.644 180.5,260.5C 179.954,262.135 179.62,263.801 179.5,265.5C 182.702,265.629 185.035,267.129 186.5,270C 184.665,270.928 184.332,272.094 185.5,273.5C 187.518,274.509 189.518,275.509 191.5,276.5C 192.167,276.833 192.833,277.167 193.5,277.5C 194.674,278.514 195.34,279.847 195.5,281.5C 195.977,285.794 197.977,289.127 201.5,291.5C 203.924,294.008 205.59,297.008 206.5,300.5C 205.916,303.285 206.916,304.952 209.5,305.5C 209.427,307.027 210.094,308.027 211.5,308.5C 213.47,311.328 215.303,314.328 217,317.5C 217.852,316.429 218.685,315.429 219.5,314.5C 223.023,312.127 225.023,308.794 225.5,304.5C 229.045,302.075 231.045,298.742 231.5,294.5C 234.068,292.973 235.401,290.639 235.5,287.5C 238.997,285.191 240.997,281.857 241.5,277.5C 242.079,274.669 243.412,272.336 245.5,270.5C 249.023,268.127 251.023,264.794 251.5,260.5C 253.931,258.954 255.264,256.621 255.5,253.5C 258.068,251.973 259.401,249.639 259.5,246.5C 260.906,246.027 261.573,245.027 261.5,243.5C 261.66,241.847 262.326,240.514 263.5,239.5C 264.906,239.027 265.573,238.027 265.5,236.5C 268.452,233.046 271.618,229.713 275,226.5C 276.219,221.679 277.719,217.013 279.5,212.5C 280.906,212.027 281.573,211.027 281.5,209.5C 284.451,208.191 285.784,205.857 285.5,202.5C 289.023,200.127 291.023,196.794 291.5,192.5C 293.619,191.209 295.285,189.375 296.5,187C 297.448,186.517 298.448,186.351 299.5,186.5C 297.95,183.828 298.45,181.495 301,179.5C 301.49,178.207 301.657,176.873 301.5,175.5C 302.079,172.669 303.412,170.336 305.5,168.5C 307.25,167.341 308.25,165.674 308.5,163.5C 310.665,161.029 312.832,158.362 315,155.5C 315.483,154.552 315.649,153.552 315.5,152.5C 317.953,150.659 320.287,148.659 322.5,146.5C 323.673,144.021 323.673,141.521 322.5,139C 323.535,138.747 324.535,137.914 325.5,136.5C 323.587,134.709 321.92,132.709 320.5,130.5C 320.919,129.328 321.585,128.328 322.5,127.5C 322.954,131.12 324.954,133.287 328.5,134C 330.792,136.245 331.125,138.745 329.5,141.5C 327.571,141.231 325.905,141.731 324.5,143C 326.345,144.128 328.345,144.628 330.5,144.5C 330.5,143.5 330.5,142.5 330.5,141.5C 332.5,140.833 334.5,140.167 336.5,139.5 Z M 141.5,158.5 C 141.5,158.833 141.5,159.167 141.5,159.5C 145.264,166.038 149.264,172.372 153.5,178.5C 153.427,180.027 154.094,181.027 155.5,181.5C 155.5,181.833 155.5,182.167 155.5,182.5C 158.015,187.543 161.015,192.21 164.5,196.5C 164.328,197.492 164.662,198.158 165.5,198.5C 165.427,200.027 166.094,201.027 167.5,201.5C 167.5,201.833 167.5,202.167 167.5,202.5C 169.265,205.709 171.265,208.709 173.5,211.5C 173.5,211.833 173.5,212.167 173.5,212.5C 173.932,213.71 174.599,214.71 175.5,215.5C 175.932,216.71 176.599,217.71 177.5,218.5C 177.5,218.833 177.5,219.167 177.5,219.5C 183.347,229.874 189.681,239.874 196.5,249.5C 197.774,252.76 199.44,255.76 201.5,258.5C 204.347,264.206 207.68,269.539 211.5,274.5C 211.5,274.833 211.5,275.167 211.5,275.5C 211.932,276.71 212.599,277.71 213.5,278.5C 213.932,279.71 214.599,280.71 215.5,281.5C 216.987,285.141 218.321,284.808 219.5,280.5C 221.588,278.664 222.921,276.331 223.5,273.5C 225.588,271.664 226.921,269.331 227.5,266.5C 230,263.506 232,260.173 233.5,256.5C 234.89,255.101 235.89,253.434 236.5,251.5C 239.335,247.836 241.668,243.836 243.5,239.5C 245.588,237.664 246.921,235.331 247.5,232.5C 248.906,232.027 249.573,231.027 249.5,229.5C 250.338,229.158 250.672,228.492 250.5,227.5C 253.335,223.836 255.668,219.836 257.5,215.5C 259.25,214.341 260.25,212.674 260.5,210.5C 261.906,210.027 262.573,209.027 262.5,207.5C 263.737,206.035 264.737,204.368 265.5,202.5C 266.674,201.486 267.34,200.153 267.5,198.5C 272,192.173 276,185.506 279.5,178.5C 280.338,178.158 280.672,177.492 280.5,176.5C 287.334,166.172 293.667,155.505 299.5,144.5C 300.401,143.71 301.068,142.71 301.5,141.5C 307.752,140.376 314.085,140.21 320.5,141C 319.748,141.671 319.414,142.504 319.5,143.5C 318.326,144.514 317.66,145.847 317.5,147.5C 316.094,147.973 315.427,148.973 315.5,150.5C 312.773,154.577 310.439,158.91 308.5,163.5C 306.75,164.659 305.75,166.326 305.5,168.5C 303.412,170.336 302.079,172.669 301.5,175.5C 297.414,180.665 294.08,186.332 291.5,192.5C 289,195.494 287,198.827 285.5,202.5C 283.412,204.336 282.079,206.669 281.5,209.5C 280.094,209.973 279.427,210.973 279.5,212.5C 274.332,220.164 269.665,228.164 265.5,236.5C 264.094,236.973 263.427,237.973 263.5,239.5C 262.326,240.514 261.66,241.847 261.5,243.5C 260.094,243.973 259.427,244.973 259.5,246.5C 257.412,248.336 256.079,250.669 255.5,253.5C 253.412,255.336 252.079,257.669 251.5,260.5C 249,263.494 247,266.827 245.5,270.5C 243.412,272.336 242.079,274.669 241.5,277.5C 239,280.494 237,283.827 235.5,287.5C 233.412,289.336 232.079,291.669 231.5,294.5C 229,297.494 227,300.827 225.5,304.5C 223,307.494 221,310.827 219.5,314.5C 218.685,315.429 217.852,316.429 217,317.5C 215.303,314.328 213.47,311.328 211.5,308.5C 211.573,306.973 210.906,305.973 209.5,305.5C 209.25,303.326 208.25,301.659 206.5,300.5C 205.59,297.008 203.924,294.008 201.5,291.5C 200,287.827 198,284.494 195.5,281.5C 195.34,279.847 194.674,278.514 193.5,277.5C 193.573,275.973 192.906,274.973 191.5,274.5C 190.416,271.996 189.083,269.663 187.5,267.5C 187.573,265.973 186.906,264.973 185.5,264.5C 183.582,259.657 180.916,255.323 177.5,251.5C 177.672,250.508 177.338,249.842 176.5,249.5C 176.573,247.973 175.906,246.973 174.5,246.5C 174.672,245.508 174.338,244.842 173.5,244.5C 172.89,242.566 171.89,240.899 170.5,239.5C 168.668,235.164 166.335,231.164 163.5,227.5C 163.573,225.973 162.906,224.973 161.5,224.5C 161.672,223.508 161.338,222.842 160.5,222.5C 160.573,220.973 159.906,219.973 158.5,219.5C 157.89,217.566 156.89,215.899 155.5,214.5C 148.919,201.663 141.585,189.33 133.5,177.5C 133.573,175.973 132.906,174.973 131.5,174.5C 131.25,172.326 130.25,170.659 128.5,169.5C 127.214,166.883 125.547,164.55 123.5,162.5C 121.336,157.5 118.669,152.833 115.5,148.5C 115.25,146.326 114.25,144.659 112.5,143.5C 112.586,142.504 112.252,141.671 111.5,141C 117.859,140.169 124.193,140.336 130.5,141.5C 133.942,147.402 137.608,153.068 141.5,158.5 Z"/></g>
<g><path style="opacity:1" fill="#f6ca5b" d="M 112.5,138.5 C 119.226,138.205 125.892,138.538 132.5,139.5C 134.706,144.647 137.372,149.481 140.5,154C 141.148,155.44 141.481,156.94 141.5,158.5C 137.608,153.068 133.942,147.402 130.5,141.5C 124.193,140.336 117.859,140.169 111.5,141C 112.252,141.671 112.586,142.504 112.5,143.5C 111.351,143.209 110.684,142.376 110.5,141C 110.684,139.624 111.351,138.791 112.5,138.5 Z"/></g>
<g><path style="opacity:1" fill="#f6ce64" d="M 96.5,135.5 C 96.4077,137.848 95.4077,139.514 93.5,140.5C 93.7497,138.326 94.7497,136.659 96.5,135.5 Z"/></g>
<g><path style="opacity:0.082" fill="#fff5ba" d="M 319.5,143.5 C 319.414,142.504 319.748,141.671 320.5,141C 314.085,140.21 307.752,140.376 301.5,141.5C 307.75,139.541 314.416,138.874 321.5,139.5C 321.771,141.38 321.104,142.713 319.5,143.5 Z"/></g>
<g><path style="opacity:1" fill="#f6cd65" d="M 336.5,135.5 C 338.95,137.629 340.617,140.296 341.5,143.5C 339.973,142.069 338.306,140.735 336.5,139.5C 336.5,138.167 336.5,136.833 336.5,135.5 Z"/></g>
<g><path style="opacity:0.533" fill="#f8dd8b" d="M 189.5,135.5 C 188.838,139.466 188.505,143.466 188.5,147.5C 187.84,146.036 187.507,144.369 187.5,142.5C 187.316,139.795 187.983,137.462 189.5,135.5 Z"/></g>
<g><path style="opacity:1" fill="#f7cc68" d="M 112.5,143.5 C 114.25,144.659 115.25,146.326 115.5,148.5C 112.916,147.952 111.916,146.285 112.5,143.5 Z"/></g>
<g><path style="opacity:1" fill="#f9c855" d="M 299.5,144.5 C 293.667,155.505 287.334,166.172 280.5,176.5C 281.603,170.747 283.603,165.413 286.5,160.5C 287.5,160.5 288.5,160.5 289.5,160.5C 289.5,158.5 289.5,156.5 289.5,154.5C 290.5,154.5 291.5,154.5 292.5,154.5C 292.34,152.801 292.506,151.134 293,149.5C 293.889,150.888 294.389,150.722 294.5,149C 293.062,146.634 293.562,146.134 296,147.5C 296.483,146.552 296.649,145.552 296.5,144.5C 297.5,144.5 298.5,144.5 299.5,144.5 Z"/></g>
<g><path style="opacity:1" fill="#f6d071" d="M 341.5,143.5 C 343.588,145.336 344.921,147.669 345.5,150.5C 342.932,148.973 341.599,146.639 341.5,143.5 Z"/></g>
<g><path style="opacity:1" fill="#f6cf68" d="M 243.5,135.5 C 244.222,135.918 244.722,136.584 245,137.5C 245.167,139.667 245.333,141.833 245.5,144C 245.467,146.61 244.8,148.777 243.5,150.5C 244.725,145.509 244.725,140.509 243.5,135.5 Z"/></g>
<g><path style="opacity:0.282" fill="#fee7a7" d="M 317.5,147.5 C 317.573,149.027 316.906,150.027 315.5,150.5C 315.427,148.973 316.094,147.973 317.5,147.5 Z"/></g>
<g><path style="opacity:1" fill="#f5c655" d="M 89.5,147.5 C 87.8169,152.858 85.8169,158.191 83.5,163.5C 82.8165,163.863 82.1499,164.196 81.5,164.5C 83.0318,158.207 85.6985,152.541 89.5,147.5 Z"/></g>
<g><path style="opacity:1" fill="#f6ca5d" d="M 315.5,150.5 C 315.5,151.167 315.5,151.833 315.5,152.5C 315.649,153.552 315.483,154.552 315,155.5C 312.832,158.362 310.665,161.029 308.5,163.5C 310.439,158.91 312.773,154.577 315.5,150.5 Z"/></g>
<g><path style="opacity:1" fill="#f4c44e" d="M 345.5,150.5 C 347.204,153.256 348.537,156.256 349.5,159.5C 348.504,159.586 347.671,159.252 347,158.5C 346.178,155.883 345.678,153.216 345.5,150.5 Z"/></g>
<g><path style="opacity:1" fill="#f7bf43" d="M 115.5,148.5 C 118.669,152.833 121.336,157.5 123.5,162.5C 117.795,159.776 115.128,155.109 115.5,148.5 Z"/></g>
<g><path style="opacity:1" fill="#f7c95a" d="M 189.5,152.5 C 191.341,154.849 192.674,157.515 193.5,160.5C 192.5,160.5 191.5,160.5 190.5,160.5C 190.167,157.833 189.833,155.167 189.5,152.5 Z"/></g>
<g><path style="opacity:0.969" fill="#f5ca59" d="M 243.5,151.5 C 243.074,157.139 240.574,161.805 236,165.5C 235.517,166.448 235.351,167.448 235.5,168.5C 230.974,170.093 226.307,171.093 221.5,171.5C 232.326,168.674 239.659,162.007 243.5,151.5 Z"/></g>
<g><path style="opacity:0.31" fill="#ffe599" d="M 308.5,163.5 C 308.25,165.674 307.25,167.341 305.5,168.5C 305.75,166.326 306.75,164.659 308.5,163.5 Z"/></g>
<g><path style="opacity:1" fill="#f8ca64" d="M 349.5,159.5 C 351.4,162.518 352.733,165.851 353.5,169.5C 350.669,166.912 349.335,163.579 349.5,159.5 Z"/></g>
<g><path style="opacity:1" fill="#f8d069" d="M 197.5,164.5 C 201.964,167.399 206.63,169.732 211.5,171.5C 206.75,171.562 202.416,170.228 198.5,167.5C 197.873,166.583 197.539,165.583 197.5,164.5 Z"/></g>
<g><path style="opacity:1" fill="#f6ce69" d="M 81.5,164.5 C 81.196,167.522 80.696,170.522 80,173.5C 79.1398,176.084 77.9731,178.417 76.5,180.5C 77.3904,174.834 79.057,169.5 81.5,164.5 Z"/></g>
<g><path style="opacity:1" fill="#f8c03f" d="M 141.5,159.5 C 144.484,159.787 145.817,161.454 145.5,164.5C 146.5,164.5 147.5,164.5 148.5,164.5C 149.324,168.473 151.49,171.473 155,173.5C 155.396,176.657 156.229,179.657 157.5,182.5C 156.833,182.5 156.167,182.5 155.5,182.5C 155.5,182.167 155.5,181.833 155.5,181.5C 155.573,179.973 154.906,178.973 153.5,178.5C 149.264,172.372 145.264,166.038 141.5,159.5 Z"/></g>
<g><path style="opacity:0.298" fill="#fee7a5" d="M 131.5,174.5 C 132.906,174.973 133.573,175.973 133.5,177.5C 132.094,177.027 131.427,176.027 131.5,174.5 Z"/></g>
<g><path style="opacity:1" fill="#f5cf6c" d="M 353.5,170.5 C 355.277,173.505 356.277,176.838 356.5,180.5C 355.883,180.389 355.383,180.056 355,179.5C 354.304,176.522 353.804,173.522 353.5,170.5 Z"/></g>
<g><path style="opacity:0.227" fill="#fde795" d="M 153.5,178.5 C 154.906,178.973 155.573,179.973 155.5,181.5C 154.094,181.027 153.427,180.027 153.5,178.5 Z"/></g>
<g><path style="opacity:1" fill="#f5c348" d="M 301.5,175.5 C 301.657,176.873 301.49,178.207 301,179.5C 298.45,181.495 297.95,183.828 299.5,186.5C 298.448,186.351 297.448,186.517 296.5,187C 295.285,189.375 293.619,191.209 291.5,192.5C 294.08,186.332 297.414,180.665 301.5,175.5 Z"/></g>
<g><path style="opacity:1" fill="#f9d270" d="M 155.5,182.5 C 156.167,182.5 156.833,182.5 157.5,182.5C 160.574,186.671 162.907,191.338 164.5,196.5C 161.015,192.21 158.015,187.543 155.5,182.5 Z"/></g>
<g><path style="opacity:1" fill="#f9c95a" d="M 279.5,178.5 C 276,185.506 272,192.173 267.5,198.5C 269.786,192.056 272.452,185.723 275.5,179.5C 276.689,178.571 278.022,178.238 279.5,178.5 Z"/></g>
<g><path style="opacity:0.141" fill="#fce7a1" d="M 75.5,184.5 C 75.8412,188.16 75.1745,191.493 73.5,194.5C 73.7526,190.96 74.4192,187.627 75.5,184.5 Z"/></g>
<g><path style="opacity:0.133" fill="#fbeb9f" d="M 357.5,184.5 C 358.581,187.627 359.247,190.96 359.5,194.5C 357.825,191.493 357.159,188.16 357.5,184.5 Z"/></g>
<g><path style="opacity:1" fill="#f4cb5c" d="M 291.5,192.5 C 291.023,196.794 289.023,200.127 285.5,202.5C 287,198.827 289,195.494 291.5,192.5 Z"/></g>
<g><path style="opacity:0.012" fill="#feec99" d="M 165.5,198.5 C 166.906,198.973 167.573,199.973 167.5,201.5C 166.094,201.027 165.427,200.027 165.5,198.5 Z"/></g>
<g><path style="opacity:0.388" fill="#fce59c" d="M 267.5,198.5 C 267.34,200.153 266.674,201.486 265.5,202.5C 265.229,200.62 265.896,199.287 267.5,198.5 Z"/></g>
<g><path style="opacity:1" fill="#f5c34a" d="M 128.5,169.5 C 130.25,170.659 131.25,172.326 131.5,174.5C 131.427,176.027 132.094,177.027 133.5,177.5C 141.585,189.33 148.919,201.663 155.5,214.5C 153.716,213.044 151.716,212.044 149.5,211.5C 150.055,207.613 148.721,204.613 145.5,202.5C 144.79,198.402 142.624,195.402 139,193.5C 136.429,186.334 133.096,179.667 129,173.5C 128.51,172.207 128.343,170.873 128.5,169.5 Z"/></g>
<g><path style="opacity:1" fill="#fac85a" d="M 167.5,202.5 C 169.117,203.038 170.784,203.371 172.5,203.5C 172.833,206.167 173.167,208.833 173.5,211.5C 171.265,208.709 169.265,205.709 167.5,202.5 Z"/></g>
<g><path style="opacity:1" fill="#f4cd60" d="M 285.5,202.5 C 285.784,205.857 284.451,208.191 281.5,209.5C 282.079,206.669 283.412,204.336 285.5,202.5 Z"/></g>
<g><path style="opacity:0.153" fill="#ffe8af" d="M 262.5,207.5 C 262.573,209.027 261.906,210.027 260.5,210.5C 260.427,208.973 261.094,207.973 262.5,207.5 Z"/></g>
<g><path style="opacity:0.435" fill="#fde38f" d="M 281.5,209.5 C 281.573,211.027 280.906,212.027 279.5,212.5C 279.427,210.973 280.094,209.973 281.5,209.5 Z"/></g>
<g><path style="opacity:0.863" fill="#fae098" d="M 173.5,212.5 C 175.048,212.821 175.715,213.821 175.5,215.5C 174.599,214.71 173.932,213.71 173.5,212.5 Z"/></g>
<g><path style="opacity:0.945" fill="#f7da86" d="M 73.5,196.5 C 73.5,209.167 73.5,221.833 73.5,234.5C 70.8723,221.831 70.8723,209.165 73.5,196.5 Z"/></g>
<g><path style="opacity:0.988" fill="#f6d87e" d="M 175.5,215.5 C 177.048,215.821 177.715,216.821 177.5,218.5C 176.599,217.71 175.932,216.71 175.5,215.5 Z"/></g>
<g><path style="opacity:0.914" fill="#f8dd92" d="M 359.5,196.5 C 362.153,209.061 362.153,221.395 359.5,233.5C 359.5,221.167 359.5,208.833 359.5,196.5 Z"/></g>
<g><path style="opacity:1" fill="#f8d574" d="M 257.5,215.5 C 255.668,219.836 253.335,223.836 250.5,227.5C 251.92,224.739 252.587,221.739 252.5,218.5C 254.664,218.279 256.33,217.279 257.5,215.5 Z"/></g>
<g><path style="opacity:0.31" fill="#ffe5a8" d="M 158.5,219.5 C 159.906,219.973 160.573,220.973 160.5,222.5C 159.094,222.027 158.427,221.027 158.5,219.5 Z"/></g>
<g><path style="opacity:1" fill="#f5c44c" d="M 279.5,212.5 C 277.719,217.013 276.219,221.679 275,226.5C 271.618,229.713 268.452,233.046 265.5,236.5C 269.665,228.164 274.332,220.164 279.5,212.5 Z"/></g>
<g><path style="opacity:0.302" fill="#ffe9ab" d="M 161.5,224.5 C 162.906,224.973 163.573,225.973 163.5,227.5C 162.094,227.027 161.427,226.027 161.5,224.5 Z"/></g>
<g><path style="opacity:0.012" fill="#fae890" d="M 249.5,229.5 C 249.573,231.027 248.906,232.027 247.5,232.5C 247.285,230.821 247.952,229.821 249.5,229.5 Z"/></g>
<g><path style="opacity:1" fill="#f2b825" d="M 76.5,180.5 C 76.0747,192.054 75.408,203.554 74.5,215C 74.7085,226.577 75.7085,238.077 77.5,249.5C 76.8333,248.833 76.1667,248.167 75.5,247.5C 75.5,246.833 75.5,246.167 75.5,245.5C 75.5701,241.575 74.9034,237.909 73.5,234.5C 73.5,221.833 73.5,209.167 73.5,196.5C 73.5,195.833 73.5,195.167 73.5,194.5C 75.1745,191.493 75.8412,188.16 75.5,184.5C 75.2322,182.901 75.5655,181.568 76.5,180.5 Z"/></g>
<g><path style="opacity:1" fill="#f8c350" d="M 163.5,227.5 C 166.335,231.164 168.668,235.164 170.5,239.5C 165.625,237.097 163.292,233.097 163.5,227.5 Z"/></g>
<g><path style="opacity:1" fill="#f8cd68" d="M 177.5,219.5 C 179.311,219.572 180.644,220.405 181.5,222C 187.143,230.811 192.143,239.978 196.5,249.5C 189.681,239.874 183.347,229.874 177.5,219.5 Z"/></g>
<g><path style="opacity:0.373" fill="#fce28d" d="M 359.5,233.5 C 359.504,239.142 358.504,244.475 356.5,249.5C 356.5,248.833 356.5,248.167 356.5,247.5C 357.266,242.661 358.266,237.994 359.5,233.5 Z"/></g>
<g><path style="opacity:0.243" fill="#fce498" d="M 73.5,234.5 C 74.9034,237.909 75.5701,241.575 75.5,245.5C 74.0966,242.091 73.4299,238.425 73.5,234.5 Z"/></g>
<g><path style="opacity:0.302" fill="#feebab" d="M 265.5,236.5 C 265.573,238.027 264.906,239.027 263.5,239.5C 263.427,237.973 264.094,236.973 265.5,236.5 Z"/></g>
<g><path style="opacity:1" fill="#fbc95c" d="M 243.5,239.5 C 241.668,243.836 239.335,247.836 236.5,251.5C 236.248,248.756 236.915,246.256 238.5,244C 238.265,243.127 237.931,242.293 237.5,241.5C 239.712,242.089 241.712,241.423 243.5,239.5 Z"/></g>
<g><path style="opacity:0.482" fill="#f9d771" d="M 170.5,239.5 C 171.89,240.899 172.89,242.566 173.5,244.5C 171.241,243.656 170.241,241.989 170.5,239.5 Z"/></g>
<g><path style="opacity:0.408" fill="#fce397" d="M 261.5,243.5 C 261.573,245.027 260.906,246.027 259.5,246.5C 259.427,244.973 260.094,243.973 261.5,243.5 Z"/></g>
<g><path style="opacity:0.49" fill="#fbdc89" d="M 174.5,246.5 C 175.906,246.973 176.573,247.973 176.5,249.5C 175.094,249.027 174.427,248.027 174.5,246.5 Z"/></g>
<g><path style="opacity:1" fill="#f5ce67" d="M 259.5,246.5 C 259.401,249.639 258.068,251.973 255.5,253.5C 256.079,250.669 257.412,248.336 259.5,246.5 Z"/></g>
<g><path style="opacity:0.522" fill="#fce9a4" d="M 75.5,247.5 C 76.1667,248.167 76.8333,248.833 77.5,249.5C 77.5,251.167 77.5,252.833 77.5,254.5C 76.3882,252.401 75.7215,250.067 75.5,247.5 Z"/></g>
<g><path style="opacity:1" fill="#f8c448" d="M 196.5,249.5 C 200.694,250.918 202.361,253.918 201.5,258.5C 199.44,255.76 197.774,252.76 196.5,249.5 Z"/></g>
<g><path style="opacity:1" fill="#faca5a" d="M 233.5,256.5 C 232,260.173 230,263.506 227.5,266.5C 228.059,263.484 228.725,260.484 229.5,257.5C 230.689,256.571 232.022,256.238 233.5,256.5 Z"/></g>
<g><path style="opacity:1" fill="#f6ce6a" d="M 255.5,253.5 C 255.264,256.621 253.931,258.954 251.5,260.5C 252.079,257.669 253.412,255.336 255.5,253.5 Z"/></g>
<g><path style="opacity:1" fill="#f7bd2f" d="M 177.5,251.5 C 180.916,255.323 183.582,259.657 185.5,264.5C 185.427,266.027 186.094,267.027 187.5,267.5C 189.083,269.663 190.416,271.996 191.5,274.5C 191.5,275.167 191.5,275.833 191.5,276.5C 189.518,275.509 187.518,274.509 185.5,273.5C 184.332,272.094 184.665,270.928 186.5,270C 185.035,267.129 182.702,265.629 179.5,265.5C 179.62,263.801 179.954,262.135 180.5,260.5C 178.956,257.644 177.956,254.644 177.5,251.5 Z"/></g>
<g><path style="opacity:1" fill="#f7cd68" d="M 201.5,258.5 C 204.852,260.87 207.519,263.87 209.5,267.5C 209.864,269.733 210.864,271.566 212.5,273C 211.944,273.383 211.611,273.883 211.5,274.5C 207.68,269.539 204.347,264.206 201.5,258.5 Z"/></g>
<g><path style="opacity:1" fill="#f7cd67" d="M 251.5,260.5 C 251.023,264.794 249.023,268.127 245.5,270.5C 247,266.827 249,263.494 251.5,260.5 Z"/></g>
<g><path style="opacity:0.439" fill="#f9dc82" d="M 77.5,255.5 C 79.284,256.574 80.4506,258.24 81,260.5C 81.8516,264.189 82.6849,267.856 83.5,271.5C 80.9325,266.475 78.9325,261.141 77.5,255.5 Z"/></g>
<g><path style="opacity:0.306" fill="#fee9ad" d="M 185.5,264.5 C 186.906,264.973 187.573,265.973 187.5,267.5C 186.094,267.027 185.427,266.027 185.5,264.5 Z"/></g>
<g><path style="opacity:1" fill="#f7ce67" d="M 356.5,247.5 C 356.5,248.167 356.5,248.833 356.5,249.5C 355.07,258.793 352.07,267.459 347.5,275.5C 347.338,273.473 347.505,271.473 348,269.5C 351.138,262.753 353.471,255.753 355,248.5C 355.383,247.944 355.883,247.611 356.5,247.5 Z"/></g>
<g><path style="opacity:0.937" fill="#fcda91" d="M 211.5,275.5 C 213.048,275.821 213.715,276.821 213.5,278.5C 212.599,277.71 211.932,276.71 211.5,275.5 Z"/></g>
<g><path style="opacity:1" fill="#f8c85a" d="M 83.5,271.5 C 87.1091,274.598 89.1091,278.598 89.5,283.5C 86.9922,279.818 84.9922,275.818 83.5,271.5 Z"/></g>
<g><path style="opacity:0.31" fill="#ffe8a6" d="M 191.5,274.5 C 192.906,274.973 193.573,275.973 193.5,277.5C 192.833,277.167 192.167,276.833 191.5,276.5C 191.5,275.833 191.5,275.167 191.5,274.5 Z"/></g>
<g><path style="opacity:1" fill="#f6cb59" d="M 347.5,275.5 C 347.008,277.819 346.008,279.819 344.5,281.5C 344.5,279.5 344.5,277.5 344.5,275.5C 345.5,275.5 346.5,275.5 347.5,275.5 Z"/></g>
<g><path style="opacity:0.498" fill="#fbe18d" d="M 223.5,273.5 C 222.921,276.331 221.588,278.664 219.5,280.5C 219.998,277.674 221.331,275.34 223.5,273.5 Z"/></g>
<g><path style="opacity:1" fill="#facc59" d="M 344.5,281.5 C 343.59,284.992 341.924,287.992 339.5,290.5C 340.188,287.082 341.188,283.749 342.5,280.5C 343.183,280.863 343.85,281.196 344.5,281.5 Z"/></g>
<g><path style="opacity:1" fill="#f8cd6a" d="M 241.5,277.5 C 240.997,281.857 238.997,285.191 235.5,287.5C 237,283.827 239,280.494 241.5,277.5 Z"/></g>
<g><path style="opacity:0.753" fill="#f8e5a8" d="M 219.5,280.5 C 218.321,284.808 216.987,285.141 215.5,281.5C 216.959,281.567 218.292,281.234 219.5,280.5 Z"/></g>
<g><path style="opacity:1" fill="#f7d069" d="M 195.5,281.5 C 198,284.494 200,287.827 201.5,291.5C 197.977,289.127 195.977,285.794 195.5,281.5 Z"/></g>
<g><path style="opacity:1" fill="#f4c350" d="M 89.5,283.5 C 90.5,283.5 91.5,283.5 92.5,283.5C 93.6644,286.759 94.6644,290.093 95.5,293.5C 92.4977,290.839 90.4977,287.505 89.5,283.5 Z"/></g>
<g><path style="opacity:1" fill="#f7cb60" d="M 235.5,287.5 C 235.401,290.639 234.068,292.973 231.5,294.5C 232.079,291.669 233.412,289.336 235.5,287.5 Z"/></g>
<g><path style="opacity:1" fill="#f6c64d" d="M 337.5,293.5 C 336.66,295.853 335.326,297.853 333.5,299.5C 332.094,299.973 331.427,300.973 331.5,302.5C 330.557,305.109 328.89,307.109 326.5,308.5C 326.5,306.833 326.5,305.167 326.5,303.5C 327.5,303.5 328.5,303.5 329.5,303.5C 330.682,299.476 332.682,295.809 335.5,292.5C 336.183,292.863 336.85,293.196 337.5,293.5 Z"/></g>
<g><path style="opacity:0.294" fill="#fae193" d="M 339.5,290.5 C 339.573,292.027 338.906,293.027 337.5,293.5C 337.427,291.973 338.094,290.973 339.5,290.5 Z"/></g>
<g><path style="opacity:1" fill="#f7d06a" d="M 231.5,294.5 C 231.045,298.742 229.045,302.075 225.5,304.5C 227,300.827 229,297.494 231.5,294.5 Z"/></g>
<g><path style="opacity:0.031" fill="#fdeb9d" d="M 333.5,299.5 C 333.573,301.027 332.906,302.027 331.5,302.5C 331.427,300.973 332.094,299.973 333.5,299.5 Z"/></g>
<g><path style="opacity:1" fill="#f7cd61" d="M 206.5,300.5 C 208.25,301.659 209.25,303.326 209.5,305.5C 206.916,304.952 205.916,303.285 206.5,300.5 Z"/></g>
<g><path style="opacity:1" fill="#f7c451" d="M 95.5,294.5 C 96.5832,294.539 97.5832,294.873 98.5,295.5C 99.8967,297.933 101.397,300.266 103,302.5C 104.419,303.46 105.919,304.293 107.5,305C 107.034,306.299 107.034,307.799 107.5,309.5C 102.771,305.102 98.7705,300.102 95.5,294.5 Z"/></g>
<g><path style="opacity:0.322" fill="#ffe4a8" d="M 209.5,305.5 C 210.906,305.973 211.573,306.973 211.5,308.5C 210.094,308.027 209.427,307.027 209.5,305.5 Z"/></g>
<g><path style="opacity:1" fill="#f7cc6d" d="M 225.5,304.5 C 225.023,308.794 223.023,312.127 219.5,314.5C 221,310.827 223,307.494 225.5,304.5 Z"/></g>
<g><path style="opacity:0.655" fill="#fee997" d="M 107.5,310.5 C 109.5,310.5 110.5,311.5 110.5,313.5C 109.167,312.833 108.167,311.833 107.5,310.5 Z"/></g>
<g><path style="opacity:0.835" fill="#f9da82" d="M 110.5,313.5 C 113.5,314.5 115.5,316.5 116.5,319.5C 114.167,317.833 112.167,315.833 110.5,313.5 Z"/></g>
<g><path style="opacity:1" fill="#f8c751" d="M 325.5,309.5 C 322.564,314.105 318.898,318.105 314.5,321.5C 313.094,316.069 315.094,313.735 320.5,314.5C 319.912,309.823 321.579,308.156 325.5,309.5 Z"/></g>
<g><path style="opacity:0.831" fill="#fde387" d="M 116.5,319.5 C 119.089,320.419 121.089,322.086 122.5,324.5C 119.911,323.581 117.911,321.914 116.5,319.5 Z"/></g>
<g><path style="opacity:0.918" fill="#fbdd87" d="M 123.5,325.5 C 125.749,326.08 127.415,327.413 128.5,329.5C 126.251,328.92 124.585,327.587 123.5,325.5 Z"/></g>
<g><path style="opacity:1" fill="#f8c958" d="M 313.5,322.5 C 308.891,327.471 303.557,331.471 297.5,334.5C 298.301,332.958 298.634,331.292 298.5,329.5C 300.167,329.5 301.833,329.5 303.5,329.5C 303.5,328.5 303.5,327.5 303.5,326.5C 304.833,326.5 306.167,326.5 307.5,326.5C 307.714,324.856 307.38,323.356 306.5,322C 308.047,321.667 309.38,322.167 310.5,323.5C 311.417,322.873 312.417,322.539 313.5,322.5 Z"/></g>
<g><path style="opacity:0.6" fill="#f9dc82" d="M 132.5,332.5 C 134.027,332.427 135.027,333.094 135.5,334.5C 133.973,334.573 132.973,333.906 132.5,332.5 Z"/></g>
<g><path style="opacity:1" fill="#faba2e" d="M 135.5,334.5 C 137.713,335.605 139.88,335.605 142,334.5C 142.263,337.264 143.763,338.931 146.5,339.5C 148.432,338.48 150.432,338.313 152.5,339C 151.833,339.333 151.167,339.667 150.5,340C 153.101,340.92 155.768,341.587 158.5,342C 159.38,343.356 159.714,344.856 159.5,346.5C 160.791,346.263 161.791,346.596 162.5,347.5C 161.167,347.5 159.833,347.5 158.5,347.5C 150.014,344.429 142.347,340.096 135.5,334.5 Z"/></g>
<g><path style="opacity:1" fill="#f9cb61" d="M 297.5,334.5 C 286.644,342.595 274.644,348.595 261.5,352.5C 266.198,349.725 271.198,347.392 276.5,345.5C 277.386,344.675 277.719,343.675 277.5,342.5C 280.748,342.584 283.748,341.751 286.5,340C 286.167,339.667 285.833,339.333 285.5,339C 287.167,338.667 288.833,338.333 290.5,338C 291.212,336.575 291.379,335.075 291,333.5C 293.041,334.423 295.208,334.756 297.5,334.5 Z"/></g>
<g><path style="opacity:1" fill="#f8d47e" d="M 158.5,347.5 C 159.833,347.5 161.167,347.5 162.5,347.5C 164.636,348.653 166.636,349.986 168.5,351.5C 164.851,350.733 161.518,349.4 158.5,347.5 Z"/></g>
<g><path style="opacity:0.816" fill="#f9de84" d="M 168.5,351.5 C 171.152,351.41 173.485,352.076 175.5,353.5C 172.848,353.59 170.515,352.924 168.5,351.5 Z"/></g>
<g><path style="opacity:1" fill="#face66" d="M 261.5,352.5 C 258.093,354.074 254.427,355.074 250.5,355.5C 251.058,354.21 252.058,353.377 253.5,353C 256.146,352.503 258.813,352.336 261.5,352.5 Z"/></g>
<g><path style="opacity:0.906" fill="#f8d985" d="M 175.5,353.5 C 178.152,353.41 180.485,354.076 182.5,355.5C 179.848,355.59 177.515,354.924 175.5,353.5 Z"/></g>
<g><path style="opacity:0.263" fill="#fde79e" d="M 250.5,355.5 C 248.095,356.768 245.428,357.435 242.5,357.5C 244.78,355.777 247.447,355.111 250.5,355.5 Z"/></g>
<g><path style="opacity:0.745" fill="#fcd87b" d="M 182.5,355.5 C 195.759,357.487 209.093,358.82 222.5,359.5C 220.527,360.163 218.361,360.496 216,360.5C 204.483,360.234 193.316,358.567 182.5,355.5 Z"/></g>
<g><path style="opacity:0.282" fill="#fee9a0" d="M 241.5,357.5 C 236.731,358.889 231.731,359.556 226.5,359.5C 231.269,358.111 236.269,357.444 241.5,357.5 Z"/></g>
</svg>
